<svg xmlns="http://www.w3.org/2000/svg" viewBox="0 0 92.28 31"><defs><style>.cls-1{fill:#999;}.cls-2{fill:#c6c6c6;}</style></defs><title>Zasób 12</title><g id="Warstwa_2" data-name="Warstwa 2"><g id="Ebene_1" data-name="Ebene 1"><path class="cls-1" d="M24.55,14.25a.23.23,0,0,0,.25-.18c.19-.46.38-.92.57-1.38a.16.16,0,0,1,.08-.09v1.62H45.82v-3.7a3.27,3.27,0,0,1,.53,0,.31.31,0,0,1,.19.19,1.26,1.26,0,0,1,0,.39c0,.95,0,1.89,0,2.84,0,.08,0,.17,0,.27h10.5v-.85l.53.24a8.86,8.86,0,0,0,3.46.62h4.15a.27.27,0,0,0,.31-.2c.25-.63.52-1.24.77-1.87a.27.27,0,0,1,.3-.21c.57,0,1.14,0,1.71,0a.24.24,0,0,1,.27.18c.25.64.52,1.27.78,1.91a.23.23,0,0,0,.25.17h8.34V12.15H78l.12.18c.35.58.7,1.17,1.06,1.75a.35.35,0,0,0,.24.15h6.67V0H79.36V1.62h0l-.09-.13C79,1.06,78.73.62,78.47.18A.32.32,0,0,0,78.25,0H71.56l-.11,0V1.6l-.05,0-.47-.9c-.12-.22-.19-.53-.38-.64s-.49,0-.74,0h-9A7.82,7.82,0,0,0,57.2.8H57.1V0H50.65V.78h-.07A3.81,3.81,0,0,0,48.14,0H24.49a.37.37,0,0,0-.41.27c-.44,1.05-.9,2.1-1.35,3.15l-.11.24L22,2.3C21.7,1.6,21.39.91,21.09.21A.3.3,0,0,0,20.76,0h-7c-.19,0-.25.05-.25.25a9.93,9.93,0,0,1,0,1.31l-.14-.27C13.16.91,13,.53,12.78.15A.3.3,0,0,0,12.56,0h-6c-.16,0-.2.09-.25.21L3.52,6.51v0L1,12,0,14.23H7.35a.28.28,0,0,0,.3-.21c.25-.63.52-1.26.78-1.89A.23.23,0,0,1,8.69,12h1.73a.25.25,0,0,1,.27.18c.26.64.53,1.28.78,1.92a.23.23,0,0,0,.25.17h7.82l.19,0v-1.6h0l.42,1c.07.17.15.34.21.51a.21.21,0,0,0,.24.16Zm31.93-9A3.85,3.85,0,0,1,60,2.12C61.23,2,62.43,2,63.65,2V4.23H61.9a10.36,10.36,0,0,0-1.38.06A1.79,1.79,0,0,0,59,5.58a5.09,5.09,0,0,0,0,3.23A1.64,1.64,0,0,0,60.6,10c.47,0,.94,0,1.4,0a.27.27,0,0,0,.3-.2l3.26-7.62A.29.29,0,0,1,65.88,2h3.21a.29.29,0,0,1,.32.21q1.92,4.52,3.86,9a.69.69,0,0,0,.14.23V2h3.5a.38.38,0,0,1,.38.22l4,6.66.12.19V2h2.5V12.25h-3.2a.36.36,0,0,1-.36-.2L76,4.85l-.14-.23v7.63H71.12A.29.29,0,0,1,70.8,12c-.26-.65-.53-1.29-.79-1.93a.21.21,0,0,0-.23-.16H65.06a.22.22,0,0,0-.24.18c-.25.64-.52,1.28-.77,1.92a.27.27,0,0,1-.3.21c-1.11,0-2.22,0-3.32-.05a4.19,4.19,0,0,1-3-1.21,4.4,4.4,0,0,1-1.11-2.46A8.54,8.54,0,0,1,56.48,5.22Zm-3.9-3c0-.07,0-.14,0-.21h2.47v10.2H52.79c-.18,0-.22-.06-.22-.22Q52.58,7.13,52.58,2.25ZM41.4,2h6a6.31,6.31,0,0,1,2.07.26,2.41,2.41,0,0,1,1.75,2.45,2.87,2.87,0,0,1-1.6,2.72l-.06,0,.36.19a2.13,2.13,0,0,1,1.2,2c0,.85,0,1.69,0,2.56H48.59c0-.61,0-1.21,0-1.81a4.37,4.37,0,0,0-.06-.73,1.17,1.17,0,0,0-1.2-1.1c-1.16-.07-2.32-.06-3.5-.09v3.72H41.4Zm-9.85.27c0-.08,0-.15,0-.25h8.13v2.1H34V6h5.54v2.1H34v2h5.67v2.13H31.85c-.3,0-.3,0-.3-.3Q31.55,7.12,31.55,2.29Zm-9.79,9.94a.28.28,0,0,1-.31-.2Q19.8,8.29,18.14,4.56A.54.54,0,0,0,18,4.35v7.87l-.29,0H13.28a.3.3,0,0,1-.34-.22c-.24-.63-.51-1.25-.76-1.88a.26.26,0,0,0-.29-.19H7.23a.26.26,0,0,0-.29.19q-.38,1-.8,1.91a.32.32,0,0,1-.22.18c-.79,0-1.58,0-2.38,0l-.12,0,.46-1.08,3.8-8.89A.29.29,0,0,1,8,2h3.18a.27.27,0,0,1,.29.19l3.85,9a1,1,0,0,0,.21.34V2h3.76a.3.3,0,0,1,.32.21l3,6.42.13.27c0-.09.08-.15.11-.22q1.37-3.22,2.73-6.45A.32.32,0,0,1,25.92,2h3.8c0,.12,0,.21,0,.3q0,4.79,0,9.58c0,.33,0,.33-.32.33H27.23V4.34h0l-.11.21Q25.43,8.28,23.78,12a.31.31,0,0,1-.34.22C22.88,12.23,22.32,12.23,21.76,12.24Z"/><path class="cls-1" d="M67.43,3.78l-1.66,4H69.1Z"/><path class="cls-1" d="M7.9,7.83h3.33L9.55,3.76Z"/><path class="cls-1" d="M44.06,6.41h3.07a2.45,2.45,0,0,0,.48-.05,1.05,1.05,0,0,0,.88-1.09,1,1,0,0,0-.76-1,1.6,1.6,0,0,0-.41-.06L44,4.16l-.17,0V6.41Z"/><path class="cls-2" d="M31.18,20.9H25.3v1.82h5.33v2.1H25.29v2l.19,0h5.63a.45.45,0,0,0,.29-.13l2.38-2.55.27-.31c-.86-1-1.71-1.91-2.56-2.85A.45.45,0,0,0,31.18,20.9Z"/><path class="cls-2" d="M40.91,28V19.91l-3.7,4Z"/><path class="cls-2" d="M47.19,21a1.77,1.77,0,0,0-.45-.06H43.53l-.15,0v2.53h3.14a2.54,2.54,0,0,0,.59-.07A1.2,1.2,0,0,0,48,22.17,1.1,1.1,0,0,0,47.19,21Z"/><path class="cls-2" d="M58.18,21a1.72,1.72,0,0,0-.45-.07H54.45l-.18,0v2.25h3.32a2.16,2.16,0,0,0,.57-.09A1.09,1.09,0,0,0,58.93,22,1,1,0,0,0,58.18,21Z"/><path class="cls-2" d="M92.18,24.6a5.14,5.14,0,0,0-.6-1.63,2,2,0,0,0-1-.88L90.33,22h.26l1.6,0v-5.3H85.57a5.13,5.13,0,0,0-2.93.79h-.09v-.79H76a4.82,4.82,0,0,0-3,.81v-.8H61.08v.77H61a6.28,6.28,0,0,0-3.33-.78H49.92v.74c-.36-.16-.7-.34-1.07-.46a6.76,6.76,0,0,0-2.11-.28c-2.72,0-5.45,0-8.17,0a1.66,1.66,0,0,0-1.51.67c-.42.54-.92,1-1.39,1.52l-1.74-2a.41.41,0,0,0-.35-.16H20.68V31H32.53a2.59,2.59,0,0,0,1,0c.3-.14.5-.48.75-.74l1.35-1.44c.61.69,1.21,1.36,1.8,2a.46.46,0,0,0,.39.18h7.7V27.63a10.6,10.6,0,0,0,4.2-.51V31h6.54v-3.7h.34c.4,0,.43,0,.43.44q0,1.51,0,3V31h.25q9.9,0,19.8,0a7.56,7.56,0,0,0,1.79-.26,11,11,0,0,0,1.41-.56V31h.13c2.35,0,4.7,0,7.06,0a7,7,0,0,0,2.48-.51l.1-.05.12-.06c1.1-.63,2.12-1.87,2.13-4.32A8.2,8.2,0,0,0,92.18,24.6ZM50.5,23.37a2.84,2.84,0,0,1-2.31,2,8.79,8.79,0,0,1-1.62.19c-1,0-2,0-2.93,0h-.27V29h-4.5a.49.49,0,0,1-.41-.19l-2.74-3.09-.09-.1-1.51,1.63c-.5.54-1,1.08-1.49,1.61a.45.45,0,0,1-.29.13H22.85V18.79l.25,0h9.34a.45.45,0,0,1,.37.17l2.87,3.2c.09-.11.16-.22.25-.32l2.66-2.88a.49.49,0,0,1,.4-.18h7.52a5.79,5.79,0,0,1,2.49.44,2.74,2.74,0,0,1,1.61,2.25A4.44,4.44,0,0,1,50.5,23.37Zm11.11-1.54A2.84,2.84,0,0,1,60,24.18l0,0c.25.16.49.3.73.47a1.74,1.74,0,0,1,.74,1.37c0,1,0,1.92,0,2.9H59c0-.07,0-.15,0-.23,0-.62,0-1.25,0-1.87a2.44,2.44,0,0,0-.06-.52,1.23,1.23,0,0,0-1.31-1c-1.1-.06-2.2,0-3.3-.05l-.08,0V29H51.82V18.78l.14,0h5.93a6,6,0,0,1,2,.28A2.48,2.48,0,0,1,61.61,21.83Zm9.49-.93H65.44v1.81H71v2.11H65.44v2h5.66V29H63V18.77H71.1Zm10,5.84a2.66,2.66,0,0,1-2.1,2A6.36,6.36,0,0,1,77.5,29c-1.57,0-3.14,0-4.71,0h-.22V26.77h4.81a2.77,2.77,0,0,0,.5,0,.88.88,0,0,0,.7-.87.83.83,0,0,0-.77-.83c-.65,0-1.3-.06-2-.1a6,6,0,0,1-2-.4,2.49,2.49,0,0,1-1.54-2.19,3.38,3.38,0,0,1,.27-1.88,2.86,2.86,0,0,1,2.32-1.61,8.75,8.75,0,0,1,1.28-.08h4.48V21H80.4c-1.48,0-3,0-4.43,0a1.92,1.92,0,0,0-.72.17.72.72,0,0,0-.4.77.73.73,0,0,0,.49.69,1.72,1.72,0,0,0,.51.12l1.8.05a6,6,0,0,1,2,.32,2.34,2.34,0,0,1,1.51,2.07A4.41,4.41,0,0,1,81.05,26.74Zm9.6-.68a3.26,3.26,0,0,1-.45,1.53l-.09.15-.37.39a2.9,2.9,0,0,1-.79.49,4.61,4.61,0,0,1-1.76.36H82.14v-2.2H87a2.24,2.24,0,0,0,.48-.05.79.79,0,0,0,.28-.12.89.89,0,0,0,.35-.51.93.93,0,0,0,0-.19.81.81,0,0,0-.59-.83,2.4,2.4,0,0,0-.63-.09A13.25,13.25,0,0,1,84,24.73a2.54,2.54,0,0,1-2-1.64,3.65,3.65,0,0,1-.17-1.67,2.77,2.77,0,0,1,1.66-2.31,4.52,4.52,0,0,1,1.93-.35h4.74V21h-4.6a2.7,2.7,0,0,0-.5,0,.78.78,0,0,0-.65.77.74.74,0,0,0,.49.82,1.88,1.88,0,0,0,.54.11c.63,0,1.26,0,1.89.06a9.71,9.71,0,0,1,1.07.11,2.85,2.85,0,0,1,1.47.63,2.56,2.56,0,0,1,.29.29l.14.22a2.63,2.63,0,0,1,.17.34h0a3.52,3.52,0,0,1,.23,1.36Q90.66,25.88,90.65,26.06Z"/></g></g></svg>