<svg xmlns="http://www.w3.org/2000/svg" xmlns:xlink="http://www.w3.org/1999/xlink" viewBox="0 0 113.23 16.57"><defs><style>.cls-1{fill:none;}.cls-2{clip-path:url(#clip-path);}.cls-3{fill:#999;}.cls-4{fill:#ccc;}</style><clipPath id="clip-path" transform="translate(-1.77 -3.69)"><rect class="cls-1" width="116.64" height="25.18"/></clipPath></defs><title>Element 15</title><g id="Ebene_2" data-name="Ebene 2"><g id="Ebene_1-2" data-name="Ebene 1"><g class="cls-2"><path class="cls-3" d="M36.93,11.74a6.83,6.83,0,0,1,1.56.49,3.32,3.32,0,0,1,1.89,3.14,5.07,5.07,0,0,1-.57,2.77,3.71,3.71,0,0,1-1.67,1.42,7.82,7.82,0,0,1-3.29.67c-2.49,0-5,0-7.48,0-.32,0-.39-.1-.39-.4Q27,12,27,4.11c0-.27.07-.38.36-.37,2.77,0,5.55-.07,8.32.07a5.63,5.63,0,0,1,2.42.68,4,4,0,0,1,1.57,5,3.54,3.54,0,0,1-2.49,2.05.76.76,0,0,0-.18.07s0,0-.07.09m-5.53,3.42h0c0,.5,0,1,0,1.49,0,.18,0,.32.25.32.94,0,1.89,0,2.83,0A1.65,1.65,0,0,0,36,15.08a1.47,1.47,0,0,0-1.6-1.62c-.89,0-1.79,0-2.68,0-.27,0-.34.09-.33.35,0,.46,0,.93,0,1.39m0-6.6h0c0,.43,0,.86,0,1.3,0,.15,0,.32.21.31a17.11,17.11,0,0,0,2.88-.09c.84-.17,1.2-.79,1.13-1.82A1.25,1.25,0,0,0,34.24,7c-.85,0-1.69,0-2.54,0-.29,0-.33.12-.32.36,0,.42,0,.83,0,1.25" transform="translate(-1.77 -3.69)"/><path class="cls-4" d="M80.3,20.25a.7.7,0,0,1,.18-.49L89.36,4.13a.66.66,0,0,1,.66-.4q2.49,0,5,0c.37,0,.47.12.52.47q1.12,7.21,2.27,14.41c.07.43.13.85.2,1.28,0,.23,0,.37-.27.36-1.33,0-2.66,0-4,0-.31,0-.36-.16-.38-.39-.11-.89-.23-1.77-.31-2.66,0-.29-.14-.35-.4-.35-1.8,0-3.59,0-5.39,0a.57.57,0,0,0-.57.37c-.46.88-.93,1.74-1.37,2.63a.62.62,0,0,1-.65.4c-1.46,0-2.91,0-4.37,0M91.85,7.13a1.41,1.41,0,0,0-.32.49,15.07,15.07,0,0,1-.91,2.12c-.6,1.17-1.17,2.36-1.77,3.54-.16.3-.07.36.24.36.8,0,1.59,0,2.39,0,1.1,0,1.1,0,1-1.12,0,0,0-.1,0-.15-.2-1.74-.51-3.47-.59-5.24" transform="translate(-1.77 -3.69)"/><path class="cls-4" d="M76.85,14.66c-.53,0-1.06,0-1.6,0-.3,0-.43.07-.49.39-.28,1.55-.6,3.1-.88,4.65-.07.4-.19.58-.65.56-1.21,0-2.43,0-3.64,0-.32,0-.42,0-.35-.41C70.13,15.42,71,11,71.84,6.57c.16-.81.32-1.62.47-2.44,0-.25.11-.41.43-.41,2.54,0,5.08-.06,7.62.07a5.31,5.31,0,0,1,2.45.74,3.51,3.51,0,0,1,1.77,2.64,6.14,6.14,0,0,1-2.07,6,6.77,6.77,0,0,1-4.28,1.51H76.85M77,11.28h.95a2.28,2.28,0,0,0,2.34-2.52,1.53,1.53,0,0,0-1.65-1.67c-.66,0-1.33,0-2,0-.26,0-.33.09-.38.33q-.33,1.8-.71,3.59c-.05.25,0,.29.24.28H77" transform="translate(-1.77 -3.69)"/><path class="cls-4" d="M115,3.83c-.9,1.13-1.78,2.22-2.64,3.33-1.41,1.81-2.8,3.63-4.21,5.45-.27.35-.57.68-.85,1a1.91,1.91,0,0,0-.42.83c-.28,1.36-.53,2.73-.84,4.09-.11.46-.16.94-.22,1.42,0,.24-.15.29-.36.29-1.31,0-2.62,0-3.94,0-.34,0-.33-.15-.28-.4.35-1.74.68-3.48,1-5.21a1.55,1.55,0,0,0-.08-.92C101,10.56,99.72,7.4,98.47,4.24c-.17-.42-.11-.52.35-.51,1.33,0,2.66,0,4,0,.21,0,.42,0,.51.26.52,1.71,1.18,3.38,1.63,5.12.11.43.16.87.24,1.31.07,0,.11,0,.12,0A65.43,65.43,0,0,1,109.55,4a.52.52,0,0,1,.48-.29h4.83s.05,0,.15.08" transform="translate(-1.77 -3.69)"/><path class="cls-3" d="M49.07,12c0-2.58,0-5.15,0-7.73,0-.43.13-.52.53-.51q1.82,0,3.64,0c.38,0,.47.1.47.47,0,4,0,8,0,12,0,.49.13.6.6.59,1.71,0,3.42,0,5.14,0,.37,0,.53.06.51.48,0,.88,0,1.76,0,2.64,0,.31-.09.39-.39.39q-5,0-10.07,0c-.37,0-.43-.13-.43-.46,0-2.61,0-5.22,0-7.83Z" transform="translate(-1.77 -3.69)"/><path class="cls-3" d="M60.77,12c0-2.57,0-5.15,0-7.72,0-.37.07-.52.49-.51q1.82,0,3.64,0c.43,0,.51.14.51.54,0,4,0,8,0,12,0,.45.12.56.55.54.76,0,1.53,0,2.29,0,.31,0,.41.07.34.4-.19.88-.37,1.75-.51,2.64-.06.41-.24.48-.62.48q-3.09,0-6.18,0c-.41,0-.53-.1-.53-.52,0-2.59,0-5.18,0-7.78Z" transform="translate(-1.77 -3.69)"/><path class="cls-3" d="M46.85,12c0,2.59,0,5.19,0,7.78,0,.38-.1.48-.47.47q-1.87,0-3.74,0c-.39,0-.46-.13-.46-.48q0-7.8,0-15.61c0-.36.12-.44.45-.44q1.87,0,3.74,0c.36,0,.44.11.44.45,0,2.61,0,5.22,0,7.83Z" transform="translate(-1.77 -3.69)"/><path class="cls-3" d="M3.67,20.25a1.89,1.89,0,1,1,1.94-1.86,1.88,1.88,0,0,1-1.94,1.86" transform="translate(-1.77 -3.69)"/><path class="cls-3" d="M3.67,12A1.81,1.81,0,0,1,5.55,13.7a1.8,1.8,0,0,1-1.83,1.72,1.72,1.72,0,1,1,0-3.44" transform="translate(-1.77 -3.69)"/><path class="cls-3" d="M10.16,18.37A1.78,1.78,0,0,1,8.39,20.2a1.84,1.84,0,0,1,0-3.67,1.78,1.78,0,0,1,1.75,1.85" transform="translate(-1.77 -3.69)"/><path class="cls-3" d="M8.09,12.16A1.94,1.94,0,0,1,10,14a1.49,1.49,0,0,1-1.54,1.48,2,2,0,0,1-1.89-1.87,1.46,1.46,0,0,1,1.52-1.49" transform="translate(-1.77 -3.69)"/><path class="cls-3" d="M13.84,18.36a1.55,1.55,0,0,1-.12.7,1.42,1.42,0,0,1-1.34,1A1.41,1.41,0,0,1,11.14,19a2,2,0,0,1,0-1.36,1.39,1.39,0,0,1,1.25-1,1.41,1.41,0,0,1,1.27.95,1.55,1.55,0,0,1,.14.75" transform="translate(-1.77 -3.69)"/><path class="cls-3" d="M3.67,11.08A1.53,1.53,0,0,1,2,9.74,1.54,1.54,0,0,1,3.65,8.38,1.58,1.58,0,0,1,5.4,9.73c0,.76-.75,1.35-1.73,1.35" transform="translate(-1.77 -3.69)"/><path class="cls-3" d="M13.65,14.34A1.32,1.32,0,0,1,13,15.63a1.19,1.19,0,0,1-1.3-.2A2,2,0,0,1,10.86,14a1.21,1.21,0,0,1,.59-1.27,1.23,1.23,0,0,1,1.35.15,2.39,2.39,0,0,1,.84,1.5" transform="translate(-1.77 -3.69)"/><path class="cls-3" d="M8.07,11.27a1.92,1.92,0,0,1-1.59-1.12,1,1,0,0,1,.63-1.49,2,2,0,0,1,2.39,1.1c.3.85-.27,1.54-1.42,1.51" transform="translate(-1.77 -3.69)"/><path class="cls-3" d="M14.52,18.27a1.7,1.7,0,0,1,.32-1,.84.84,0,0,1,1.39-.08,2,2,0,0,1,0,2.39.85.85,0,0,1-1.4-.06,2,2,0,0,1-.32-1.22" transform="translate(-1.77 -3.69)"/><path class="cls-3" d="M3.7,7.68a1.89,1.89,0,0,1-1.17-.35A.78.78,0,0,1,2.45,6,2,2,0,0,1,4.92,6a.77.77,0,0,1,0,1.24,1.81,1.81,0,0,1-1.2.39" transform="translate(-1.77 -3.69)"/><path class="cls-4" d="M15.93,11.48c0,.65-.45,1-1,.69a2,2,0,0,1-1.15-1.69.65.65,0,0,1,.93-.71,2,2,0,0,1,1.24,1.71" transform="translate(-1.77 -3.69)"/><path class="cls-4" d="M10.65,6.29A2.06,2.06,0,0,1,12.36,7.4c.26.6,0,1.07-.68,1a2,2,0,0,1-1.66-1c-.34-.59,0-1.07.63-1.08" transform="translate(-1.77 -3.69)"/><path class="cls-4" d="M7.74,5.29a2.18,2.18,0,0,1-1.49-.5c-.44-.39-.36-.84.2-1a1.89,1.89,0,0,1,1.93.46c.43.39.29.85-.27,1a2.19,2.19,0,0,1-.38,0" transform="translate(-1.77 -3.69)"/><path class="cls-4" d="M16.92,14.43a1.26,1.26,0,0,1,.11-.58.52.52,0,0,1,.85-.23,2,2,0,0,1,.55,2.16.54.54,0,0,1-.93.14,2.13,2.13,0,0,1-.58-1.48" transform="translate(-1.77 -3.69)"/><path class="cls-4" d="M13.59,7a2,2,0,0,1,1.63,1.57.5.5,0,0,1-.63.56,2.16,2.16,0,0,1-1.53-1.47A.5.5,0,0,1,13.59,7" transform="translate(-1.77 -3.69)"/><path class="cls-4" d="M18.13,12.09c0,.3,0,.54-.28.66a.58.58,0,0,1-.68-.14,2.14,2.14,0,0,1-.77-1.55.56.56,0,0,1,.26-.6.59.59,0,0,1,.64.12,2.11,2.11,0,0,1,.83,1.51" transform="translate(-1.77 -3.69)"/><path class="cls-4" d="M11.1,5.84a2.32,2.32,0,0,1-1.58-.78.57.57,0,0,1-.14-.64.55.55,0,0,1,.55-.27,2,2,0,0,1,1.63.79.55.55,0,0,1,.12.64c-.13.23-.38.24-.58.25" transform="translate(-1.77 -3.69)"/><path class="cls-4" d="M17.43,9.37c0,.44-.23.62-.63.43a2,2,0,0,1-1.14-1.48c-.09-.41.19-.63.59-.5a2,2,0,0,1,1.18,1.54" transform="translate(-1.77 -3.69)"/><path class="cls-4" d="M12.77,4.81A2.05,2.05,0,0,1,14.38,6c.11.36-.06.59-.43.58A2.26,2.26,0,0,1,12.36,5.4c-.12-.37,0-.59.41-.6" transform="translate(-1.77 -3.69)"/><path class="cls-4" d="M15.18,5.59A2,2,0,0,1,16.63,7c0,.33-.13.48-.45.37a2,2,0,0,1-1.3-1.28c-.11-.31,0-.48.3-.46" transform="translate(-1.77 -3.69)"/></g></g></g></svg>