<svg xmlns="http://www.w3.org/2000/svg" xmlns:xlink="http://www.w3.org/1999/xlink" viewBox="0 0 66.83 32.58"><defs><style>.cls-1{fill:none;}.cls-2{clip-path:url(#clip-path);}.cls-3{fill:#989898;}</style><clipPath id="clip-path" transform="translate(-1.98 -3.64)"><rect class="cls-1" width="71.25" height="37.17"/></clipPath></defs><title>Element 36</title><g id="Ebene_2" data-name="Ebene 2"><g id="Ebene_1-2" data-name="Ebene 1"><g class="cls-2"><path class="cls-3" d="M37.11,19H20.26v1.73H37.2c-.24,1.4-.37,2.69-.69,3.94a13.77,13.77,0,0,1-8.67,9.91A21.42,21.42,0,0,1,10,34c-4.85-2.4-7.29-6.56-7.89-11.88a17.63,17.63,0,0,1,1.33-9.37,14.25,14.25,0,0,1,9.32-8,22,22,0,0,1,14.78.45c5.5,2.16,8.57,6.3,9.39,12.14.07.53.12,1.06.19,1.72" transform="translate(-1.98 -3.64)"/><path class="cls-3" d="M38.87,20.79c.27,0,.5,0,.72,0,7.27,0,14.55,0,21.82,0a7.17,7.17,0,0,1,.53,14.34c-7.4.09-14.8.09-22.2.15-.66,0-1-.13-.95-.9,0-4.26,0-8.51,0-12.77,0-.25,0-.5,0-.79" transform="translate(-1.98 -3.64)"/><path class="cls-3" d="M38.87,18.94V4.72a5.79,5.79,0,0,1,.61-.06c7.28,0,14.56,0,21.84,0a7,7,0,0,1,7.17,5.24,7,7,0,0,1-6.61,9c-7.59.12-15.18,0-22.77,0a1.77,1.77,0,0,1-.25-.05" transform="translate(-1.98 -3.64)"/></g></g></g></svg>