<svg xmlns="http://www.w3.org/2000/svg" viewBox="0 0 123 32.81"><defs><style>.cls-1{fill:#ccc;}.cls-2{fill:#999;}</style></defs><title>Zasób 11</title><g id="Warstwa_2" data-name="Warstwa 2"><g id="Ebene_1" data-name="Ebene 1"><path class="cls-1" d="M26.43,32.79c-3.48,0-7,0-10.44,0a15.79,15.79,0,0,1-10.6-4.23,15.73,15.73,0,0,1-5.2-9.71A16,16,0,0,1,4.49,5.13,16,16,0,0,1,13.72.21,15.15,15.15,0,0,1,16.28,0h9.65a16.4,16.4,0,1,1-.08,32.79h.58ZM.47,16.05A15.91,15.91,0,1,0,16.92.49,15.9,15.9,0,0,0,.47,16.05Z"/><path class="cls-1" d="M19.4,16.42q0-4.49,0-9c0-.36,0-.36.34-.24a9.81,9.81,0,0,1,0,18.43c-.26.1-.3,0-.3-.22Q19.41,20.91,19.4,16.42Z"/><path class="cls-1" d="M13.34,16.43q0,4.49,0,9c0,.26-.07.29-.3.2a9.52,9.52,0,0,1-6.37-8.09A9.67,9.67,0,0,1,12.9,7.24l.26-.1c.11,0,.18,0,.18.12s0,.14,0,.22v9Z"/><path class="cls-2" d="M48.71,15.39H46.57c-.1,0-.23.06-.23-.14s.12-.15.23-.15a.82.82,0,0,0,.82-.67c.19-.61.35-1.23.52-1.84l1.68-6.1c.17-.63,0-.87-.65-1-.11,0-.27,0-.25-.18s.17-.11.26-.11c1.35,0,2.71,0,4.06,0a3.93,3.93,0,0,1,4,3.47,5.5,5.5,0,0,1-2.22,5.18,7.24,7.24,0,0,1-4.49,1.52Zm6.7-6.14a9.15,9.15,0,0,0-.08-1.11A2.39,2.39,0,0,0,53.84,6a6.06,6.06,0,0,0-2-.34.59.59,0,0,0-.65.5c-.07.23-.13.46-.19.68L49,14c-.14.52,0,.75.52.82A4.91,4.91,0,0,0,53,14.08,5.56,5.56,0,0,0,55.41,9.26Z"/><path class="cls-2" d="M88.48,11.6a6.59,6.59,0,0,1,2.39-4.91,6.13,6.13,0,0,1,2.84-1.55,5.28,5.28,0,0,1,2.18.06c.41.09.83.15,1.25.22.23,0,.46,0,.58-.23,0-.1.13-.08.21-.07s.07.11.06.17Q97.75,6.65,97.51,8c0,.08,0,.19-.14.18s-.16-.1-.18-.2l-.14-.7A2.07,2.07,0,0,0,95,5.6,3.55,3.55,0,0,0,92,6.93a7.7,7.7,0,0,0-1.85,5.28,4.59,4.59,0,0,0,.15.88,2.58,2.58,0,0,0,3.28,1.84,5.52,5.52,0,0,0,2.53-1.42c.13-.12.29-.37.44-.24s-.06.36-.18.5a4.93,4.93,0,0,1-4.65,1.89A3.69,3.69,0,0,1,88.5,12.1C88.49,11.94,88.49,11.77,88.48,11.6Z"/><path class="cls-2" d="M111.06,10.1c.32-.29.59-.57.89-.82a2.73,2.73,0,0,1,1.63-.73,1.71,1.71,0,0,1,2,1.57,3.69,3.69,0,0,1-.44,2.42,5.15,5.15,0,0,1-3.6,3,3,3,0,0,1-2.62-.49.41.41,0,0,1-.16-.49q1.11-4.11,2.2-8.23A2.32,2.32,0,0,0,111,6c0-.23-.06-.38-.31-.4h-.46c-.08,0-.17,0-.18-.11s0-.18.12-.2l2-.35c.15,0,.14.08.13.17a3.88,3.88,0,0,1-.17.85l-1.07,4S111.07,10,111.06,10.1Zm3.14.62a1.71,1.71,0,0,0-.28-1.07.72.72,0,0,0-.84-.37A2.9,2.9,0,0,0,111,10.82a16.87,16.87,0,0,0-1.12,3.69c-.11.51.17.81.7.82a2.37,2.37,0,0,0,1.53-.49A5.61,5.61,0,0,0,114.19,10.71Z"/><path class="cls-2" d="M108,9.07l-.56,2.18c-.29,1.12-.58,2.23-.87,3.35,0,.18-.15.42.06.54s.43,0,.6-.19a3.89,3.89,0,0,0,.46-.62,2.15,2.15,0,0,1,.24-.27.13.13,0,0,1,.11,0c.06,0,0,.08,0,.13a.13.13,0,0,1,0,.06,3.34,3.34,0,0,1-1.62,1.63.75.75,0,0,1-1.1-.82,10.57,10.57,0,0,1,.4-1.68c.06-.25.13-.49.2-.78-.17.06-.21.18-.27.28a13.23,13.23,0,0,1-1.81,2.31,2.19,2.19,0,0,1-1.7.76.64.64,0,0,1-.69-.73,7,7,0,0,1,.36-1.66c.27-1.1.58-2.19.86-3.29.14-.55,0-.67-.52-.67h-.12c-.08,0-.19,0-.19-.12s0-.18.17-.2l2-.36a1.29,1.29,0,0,1-.07.7q-.6,2.35-1.22,4.7a1.25,1.25,0,0,0,0,.24c0,.18-.07.39.13.5a.58.58,0,0,0,.59,0,2.77,2.77,0,0,0,.64-.58,13.17,13.17,0,0,0,2.48-4.46,2.39,2.39,0,0,0,.15-.44c.06-.38.27-.5.64-.45A4.19,4.19,0,0,0,108,9.07Zm-2,3.44,0,0,0,0,0,0Z"/><path class="cls-2" d="M85.07,26a6.4,6.4,0,0,1-1.26,1.31,2.44,2.44,0,0,1-1.73.55,1.71,1.71,0,0,1-1.35-1.93,5.48,5.48,0,0,1,1.56-3.35,5.74,5.74,0,0,1,1.88-1.44,2.86,2.86,0,0,1,.86-.26,1.09,1.09,0,0,1,1.25.68l.09.2c.11-.06.1-.17.1-.25,0-.39.22-.52.59-.57.72-.08.72-.11.52.59l-1.46,5.11c0,.15-.15.34,0,.45s.34,0,.48-.12a3,3,0,0,0,.6-.74l.13-.17c0-.05.1-.13.18-.09s.05.14,0,.19a3.14,3.14,0,0,1-1.77,1.68.67.67,0,0,1-.9-.68A4,4,0,0,1,85.14,26v-.08ZM82,25.78c0,.19,0,.34.05.49A.84.84,0,0,0,83,27a1.48,1.48,0,0,0,1-.47A8.17,8.17,0,0,0,86,23a2.33,2.33,0,0,0,0-1.25.66.66,0,0,0-.75-.53,1.73,1.73,0,0,0-1,.4A6.07,6.07,0,0,0,82,25.78Z"/><path class="cls-2" d="M113.34,26a6.39,6.39,0,0,1-1.23,1.3,3.25,3.25,0,0,1-1.17.54A1.59,1.59,0,0,1,109,26.3a4,4,0,0,1,.5-2.23,6.57,6.57,0,0,1,2.9-2.95,3,3,0,0,1,.79-.26,1.11,1.11,0,0,1,1.34.68l.09.19c.11-.05.08-.15.1-.23.13-.51.12-.52.64-.58a2.24,2.24,0,0,1,.67-.07l-.73,2.55c-.31,1.08-.62,2.16-.93,3.24,0,.14-.13.31,0,.42s.3,0,.43-.09a3.06,3.06,0,0,0,.67-.8c.07-.1.16-.3.28-.22s0,.26-.08.37a4.32,4.32,0,0,1-.94,1.1,1.83,1.83,0,0,1-.7.38.68.68,0,0,1-.93-.71,4.2,4.2,0,0,1,.24-1.08v-.08Zm-3.08-.18c0,.18,0,.34.06.49a.83.83,0,0,0,1,.75,1.46,1.46,0,0,0,1-.46A8.15,8.15,0,0,0,114.23,23a2.3,2.3,0,0,0,0-1.25.66.66,0,0,0-.77-.55,1.71,1.71,0,0,0-1,.39A6,6,0,0,0,110.26,25.79Z"/><path class="cls-2" d="M63.4,11.62c.39-.54.77-1.09,1.18-1.62a5.24,5.24,0,0,1,1.16-1.15,1.89,1.89,0,0,1,.74-.31,1,1,0,0,1,1.2.95,6,6,0,0,1-.34,1.72c-.24.92-.52,1.82-.77,2.74a3.94,3.94,0,0,0-.1.45c0,.13,0,.28.09.37s.26,0,.38,0a1.11,1.11,0,0,0,.41-.36c.11-.14.2-.29.3-.43s.18-.37.35-.26,0,.28-.12.4a4.2,4.2,0,0,1-1,1.17,1.8,1.8,0,0,1-.7.31.69.69,0,0,1-.83-.62,2.12,2.12,0,0,1,.09-.82q.56-2,1.11-4c.07-.26.18-.55-.09-.74s-.54,0-.77.12A6.55,6.55,0,0,0,64,11.24a10.41,10.41,0,0,0-1.69,3.89c0,.21-.12.29-.34.27s-.55,0-.86,0l.92-3.14c.23-.78.46-1.56.68-2.34.16-.59.07-.7-.52-.72-.1,0-.26.1-.29-.11s.13-.19.26-.21c.59-.1,1.18-.2,1.77-.31.19,0,.21,0,.2.17a2.61,2.61,0,0,1-.12.61l-.66,2.25s0,.06,0,.09Z"/><path class="cls-2" d="M75.39,23.9a20,20,0,0,1,1.2-1.68,5.54,5.54,0,0,1,1.11-1.07,1.7,1.7,0,0,1,.86-.32.94.94,0,0,1,1.08,1,6,6,0,0,1-.34,1.75c-.27,1-.56,2-.85,3.07,0,.16-.09.35.07.45s.36,0,.51-.1a3.11,3.11,0,0,0,.63-.79c.07-.11.17-.29.3-.21s0,.25-.08.35a3.58,3.58,0,0,1-1.39,1.41,1,1,0,0,1-.78.09.74.74,0,0,1-.46-.83,6.16,6.16,0,0,1,.3-1.29c.3-1.11.61-2.23.91-3.34.07-.25.16-.54-.09-.72s-.54,0-.77.12a6.86,6.86,0,0,0-1.7,1.9,10.1,10.1,0,0,0-1.59,3.73c-.05.25-.16.33-.39.29h0c-.25,0-.62.11-.73-.06s.09-.48.16-.72l1.36-4.69a2.77,2.77,0,0,0,.06-.3c0-.24-.05-.38-.3-.4l-.43,0c-.09,0-.16,0-.16-.12s0-.16.12-.18l2-.34c.15,0,.14.06.14.16a3,3,0,0,1-.17.78l-.63,2.09Z"/><path class="cls-2" d="M51,27.68l.94-3.25c.23-.78.46-1.56.67-2.34.12-.45,0-.53-.43-.6-.13,0-.38.13-.4-.13s.25-.18.39-.21c.5-.11,1-.18,1.52-.28.24,0,.34,0,.3.27a6.28,6.28,0,0,1-.2.81l-.59,2c.14,0,.16-.11.22-.19a12.58,12.58,0,0,1,1.68-2.14,2.15,2.15,0,0,1,1.43-.73.92.92,0,0,1,1,.85,3.08,3.08,0,0,1-.17,1.22c-.3,1.12-.62,2.24-.93,3.36a2,2,0,0,0-.1.55c0,.28.1.34.37.27a1,1,0,0,0,.52-.41l.43-.61c0-.06.12-.15.2-.1s0,.15,0,.22a3.48,3.48,0,0,1-1.58,1.6c-.67.28-1.15-.07-1.13-.8a4.45,4.45,0,0,1,.22-1c.32-1.19.66-2.38,1-3.57.07-.27.19-.57-.09-.77s-.54,0-.77.14a5.6,5.6,0,0,0-1.4,1.47,10.19,10.19,0,0,0-1.85,4c-.06.3-.17.45-.5.4A5.33,5.33,0,0,0,51,27.68Z"/><path class="cls-2" d="M101.84,27.65l1.52-5.21,0-.09c.21-.75.17-.87-.61-.88-.08,0-.17,0-.18-.11s.06-.18.17-.2l1.86-.32c.16,0,.24,0,.21.18a2.62,2.62,0,0,1,0,.28c-.25.86-.5,1.71-.76,2.58.15,0,.17-.12.22-.2A12.19,12.19,0,0,1,106,21.5a2.12,2.12,0,0,1,1.32-.68.94.94,0,0,1,1.05,1,5.16,5.16,0,0,1-.29,1.57c-.26,1-.55,1.94-.82,2.91,0,.13-.06.26-.09.39s-.06.3.07.4.32,0,.46-.06a2.15,2.15,0,0,0,.6-.69c.1-.15.24-.44.37-.34s-.06.34-.16.49A3,3,0,0,1,107,27.8a.71.71,0,0,1-1-.71,2.34,2.34,0,0,1,.11-.7l1.1-4c.07-.27.19-.57-.09-.77s-.56,0-.8.15A5.69,5.69,0,0,0,105,23.17,10.56,10.56,0,0,0,103,27.4c0,.23-.15.3-.37.28s-.5,0-.74,0Z"/><path class="cls-2" d="M48.05,27.68H46.5c-.08,0-.22.07-.23-.11s.1-.15.2-.15a.9.9,0,0,0,.88-.77q.4-1.4.78-2.8l1.38-5c.18-.66,0-.92-.67-1-.11,0-.23,0-.22-.17s.12-.14.22-.14H52c.1,0,.2,0,.2.15s-.09.15-.19.15a.82.82,0,0,0-.87.69c-.33,1.14-.65,2.28-1,3.42-.41,1.47-.81,2.94-1.21,4.41-.2.74-.08.95.68,1.07.07,0,.16,0,.19.06s0,.22-.18.22C49.11,27.67,48.58,27.68,48.05,27.68Z"/><path class="cls-2" d="M99.89,20.82a2.17,2.17,0,0,1,2.17,2.37,5.26,5.26,0,0,1-4,4.63,2.15,2.15,0,0,1-2.78-1.94A3.66,3.66,0,0,1,95.76,24a5.49,5.49,0,0,1,2.89-3A3.31,3.31,0,0,1,99.89,20.82Zm1,2c0-.22,0-.38,0-.55a1.15,1.15,0,0,0-1.71-1,2.3,2.3,0,0,0-.69.45,6.29,6.29,0,0,0-1.55,2.57,5.07,5.07,0,0,0-.37,1.87,1.25,1.25,0,0,0,1.82,1.21,2.48,2.48,0,0,0,1-.72A6.66,6.66,0,0,0,100.87,22.81Z"/><path class="cls-2" d="M68.77,13.18a5,5,0,0,1,1.51-3.11,4.68,4.68,0,0,1,2.59-1.52,1.93,1.93,0,0,1,1,.09,1,1,0,0,1,.64,1.28,2.89,2.89,0,0,1-1.46,1.72,9.61,9.61,0,0,1-2.58.83c-.22,0-.32.13-.33.35a3.56,3.56,0,0,0,0,.8A1.45,1.45,0,0,0,72,14.85,3.3,3.3,0,0,0,73.53,14c.07-.07.15-.23.27-.13s0,.22-.08.31a4.9,4.9,0,0,1-2.35,1.4C69.86,15.84,68.75,14.94,68.77,13.18Zm1.59-1a5.29,5.29,0,0,0,1.47-.46A2.73,2.73,0,0,0,73.41,10c.09-.33.16-.73-.17-1s-.63,0-.92.15l-.1.07A5.32,5.32,0,0,0,70.35,12.17Z"/><path class="cls-2" d="M61.9,25.45a5,5,0,0,1,1.5-3.08,4.78,4.78,0,0,1,2.38-1.49,2.12,2.12,0,0,1,1.19,0,1,1,0,0,1,.67,1.38,3,3,0,0,1-1.7,1.78,10.16,10.16,0,0,1-2.3.69.37.37,0,0,0-.35.37,3.55,3.55,0,0,0,0,1,1.45,1.45,0,0,0,2,1,3.33,3.33,0,0,0,1.41-.86c.08-.08.17-.25.29-.13s0,.24-.13.32a4.48,4.48,0,0,1-2.45,1.4C62.86,28.06,61.9,27.2,61.9,25.45Zm1.6-1a.38.38,0,0,0,.11,0c.17,0,.34-.07.51-.12a3.45,3.45,0,0,0,2.28-1.66,1.49,1.49,0,0,0,.17-1.07.44.44,0,0,0-.54-.37,1.33,1.33,0,0,0-.67.29A5.25,5.25,0,0,0,63.5,24.42Z"/><path class="cls-2" d="M116.17,26.9a14.62,14.62,0,0,1,.45-1.79c.58-2.18,1.17-4.36,1.75-6.54,0,0,0-.1,0-.15.1-.46,0-.58-.46-.59h-.19c-.09,0-.19,0-.2-.12a.17.17,0,0,1,.17-.21l1.86-.32c.27,0,.23.12.2.27-.13.73-.36,1.44-.55,2.16-.6,2.27-1.22,4.53-1.84,6.8,0,0,0,.06,0,.09,0,.2-.15.44.07.56s.42,0,.58-.18a4.58,4.58,0,0,0,.58-.76c.07-.09.15-.23.26-.17s0,.21,0,.29a3.39,3.39,0,0,1-1.56,1.53C116.64,28,116.16,27.7,116.17,26.9Z"/><path class="cls-2" d="M97.93,14.64a17.09,17.09,0,0,1,.46-1.85c.58-2.17,1.16-4.33,1.74-6.5,0-.08,0-.16.05-.24.07-.36,0-.48-.38-.51H99.5c-.08,0-.17,0-.17-.11s0-.18.13-.2l2-.33c.24,0,.17.13.15.23a15.73,15.73,0,0,1-.43,1.74c-.64,2.41-1.3,4.81-2,7.21a2.11,2.11,0,0,0-.07.36c0,.35.12.45.45.32a1,1,0,0,0,.42-.35c.13-.17.24-.36.37-.53s.15-.29.3-.2,0,.23-.07.33A3.41,3.41,0,0,1,99,15.48C98.41,15.73,97.91,15.39,97.93,14.64Z"/><path class="cls-2" d="M81.45,15.58a8.09,8.09,0,0,1-1.38-.15c-.23,0-.45-.09-.63.11a.22.22,0,0,1-.24,0c-.08,0,0-.1,0-.16q.14-1,.28-2.09c0-.07,0-.17.11-.18s.15.07.17.17a5.21,5.21,0,0,0,.29,1,1.54,1.54,0,0,0,1.18.9,1.11,1.11,0,0,0,1.21-1.44,2.24,2.24,0,0,0-.33-.8l-1.14-1.77a2.28,2.28,0,0,1-.35-.85A1.34,1.34,0,0,1,81.12,9a2.27,2.27,0,0,1,2.14-.36l.44.13a.47.47,0,0,0,.56-.15.17.17,0,0,1,.21-.07c.11,0,0,.12,0,.18q-.14.92-.28,1.84c0,.08,0,.17-.13.17s-.13-.08-.14-.16a4.8,4.8,0,0,0-.15-.76,1.38,1.38,0,0,0-1.43-.91.8.8,0,0,0-.67.95,1.76,1.76,0,0,0,.31.77c.5.72.94,1.48,1.37,2.24a1.61,1.61,0,0,1-.17,1.9A2,2,0,0,1,81.45,15.58Z"/><path class="cls-2" d="M61.65,21.56c-.64,0-.63,0-.81.64l-1.18,4.23a1.18,1.18,0,0,0,0,.21c0,.15-.08.32.08.43s.34,0,.49-.08a2.79,2.79,0,0,0,.64-.79c.08-.11.18-.32.31-.23s0,.27-.09.38a3.72,3.72,0,0,1-1.24,1.31,2,2,0,0,1-.43.18.71.71,0,0,1-.93-.69,2.19,2.19,0,0,1,.1-.7c.42-1.52.83-3,1.25-4.56.07-.24.06-.36-.24-.32a3.88,3.88,0,0,1-.56,0c-.07,0-.16,0-.18-.07a.19.19,0,0,1,.07-.19.67.67,0,0,1,.2-.14,4.42,4.42,0,0,0,2-1.6,2.82,2.82,0,0,1,.21-.23c.06-.06.13-.13.22-.08s.09.15.07.25c-.11.41-.21.82-.33,1.22-.07.24,0,.31.23.29s.37,0,.56,0,.27.07.27.28,0,.31-.27.28A2.83,2.83,0,0,0,61.65,21.56Z"/><path class="cls-2" d="M90.84,25.94a.24.24,0,0,1,0,.27,3.8,3.8,0,0,1-1.37,1.48,1.83,1.83,0,0,1-.34.14.71.71,0,0,1-1-.71,2.87,2.87,0,0,1,.15-.88c.4-1.46.79-2.92,1.21-4.38.07-.26,0-.32-.24-.3a5.24,5.24,0,0,1-.56,0c-.07,0-.16,0-.19-.06a.21.21,0,0,1,.09-.22.54.54,0,0,1,.18-.12,4.5,4.5,0,0,0,2-1.56c.12-.14.23-.44.45-.32s0,.36,0,.54-.14.58-.23.87-.06.37.24.33.39,0,.59,0,.21.13.21.27.05.3-.2.28-.56,0-.84,0a.25.25,0,0,0-.3.22c-.42,1.54-.85,3.08-1.28,4.61a.57.57,0,0,0,0,.09c0,.2-.17.46.07.59s.45-.06.62-.22a4,4,0,0,0,.48-.64C90.6,26.08,90.67,25.94,90.84,25.94Z"/><path class="cls-2" d="M76.57,11.31c.17,0,.19-.15.25-.23A14.21,14.21,0,0,1,78.42,9,1.32,1.32,0,0,1,79,8.56a.76.76,0,0,1,1,.58.79.79,0,0,1-.57.91.53.53,0,0,1-.57-.21c-.4-.44-.49-.43-.89,0a10.31,10.31,0,0,0-2,3.87c-.15.47-.3.94-.44,1.41-.05.18-.12.28-.33.26s-.54,0-.85,0c.2-.7.39-1.38.59-2.05a29.3,29.3,0,0,0,.92-3.49c.09-.53,0-.65-.55-.66h-.19c-.09,0-.17,0-.16-.13s0-.17.13-.19l1.95-.34c.12,0,.15,0,.14.13a2.61,2.61,0,0,1-.05.4C77,9.81,76.77,10.55,76.57,11.31Z"/><path class="cls-2" d="M70,23.59c.37-.52.73-1,1.1-1.56a4.42,4.42,0,0,1,.92-1,.81.81,0,0,1,1.18.11.69.69,0,0,1-.19,1.09.52.52,0,0,1-.79-.09c-.39-.43-.5-.43-.89,0a10.55,10.55,0,0,0-2,4c-.14.45-.3.9-.43,1.35a.22.22,0,0,1-.26.19,5.27,5.27,0,0,0-.65,0c-.21,0-.24-.05-.18-.25.34-1.12.66-2.25,1-3.38a16.41,16.41,0,0,0,.43-1.74c0-.12,0-.24,0-.37a.36.36,0,0,0-.37-.46l-.37,0c-.09,0-.18,0-.18-.14s.07-.16.17-.18l1.86-.32c.17,0,.22,0,.21.18a10.53,10.53,0,0,1-.35,1.5c-.08.34-.17.68-.26,1,0,0,0,.09,0,.14Z"/><path class="cls-2" d="M60.41,8.52a2.89,2.89,0,0,1-.2,1.18c-.39,1.46-.81,2.92-1.21,4.37a1.36,1.36,0,0,0-.06.24c0,.16-.09.35.07.46s.37,0,.51-.1a2.9,2.9,0,0,0,.62-.76c.08-.11.16-.32.31-.23s0,.26-.09.37a3.9,3.9,0,0,1-1.17,1.26,2.19,2.19,0,0,1-.36.18.74.74,0,0,1-1.09-.76A7.81,7.81,0,0,1,58.16,13c.27-1,.57-2.08.85-3.13.15-.55,0-.66-.52-.67h-.12c-.09,0-.19,0-.18-.13s0-.17.17-.19c.35,0,.69-.12,1-.18Z"/><path class="cls-2" d="M94.76,25.94a.22.22,0,0,1,0,.24,3.59,3.59,0,0,1-1.51,1.55c-.76.33-1.29,0-1.2-.87a10.52,10.52,0,0,1,.39-1.56c.28-1,.57-2.08.85-3.13.16-.58.06-.69-.55-.71-.09,0-.22,0-.26,0s0-.25.17-.28c.6-.09,1.2-.2,1.8-.31.21,0,.3,0,.27.24a12.48,12.48,0,0,1-.35,1.41c-.36,1.33-.73,2.66-1.09,4-.06.2-.17.46.07.59s.43-.05.6-.21a4.47,4.47,0,0,0,.52-.69C94.53,26.07,94.6,25.94,94.76,25.94Z"/><path class="cls-2" d="M94.72,19.06a.75.75,0,0,1-.75-.75.74.74,0,1,1,1.47,0A.74.74,0,0,1,94.72,19.06Z"/><path class="cls-2" d="M61.13,6a.73.73,0,0,1-.7.75A.77.77,0,0,1,59.68,6a.76.76,0,0,1,.74-.76A.73.73,0,0,1,61.13,6Z"/><path class="cls-2" d="M123,18.93a1.12,1.12,0,1,1-1.12-1.15A1.1,1.1,0,0,1,123,18.93Zm-1.12-1a1,1,0,0,0-.94,1,.94.94,0,1,0,.94-1Z"/><path class="cls-2" d="M106,12.51l0,0,0,0,0,0Z"/><path class="cls-2" d="M85.07,26l.07,0V26Z"/><path class="cls-2" d="M113.34,26l.07,0V26Z"/><path class="cls-2" d="M63.4,11.62l0,.06s0-.06,0-.09Z"/><path class="cls-2" d="M70,23.59l-.06.1s0-.09,0-.14Z"/><path class="cls-2" d="M122.49,19.48a.29.29,0,0,1-.43-.19,2.39,2.39,0,0,0-.12-.25.12.12,0,0,0-.13-.06c-.07,0-.06.07-.06.12s0,.29.12.39a1.41,1.41,0,0,1-.48,0,1.61,1.61,0,0,0,0-1.21c.24,0,.46,0,.68,0s.38.28.2.44-.11.26,0,.41A1,1,0,0,0,122.49,19.48Zm-.75-.86c0,.08-.08.25.13.24a.23.23,0,0,0,.23-.27.21.21,0,0,0-.23-.23C121.67,18.37,121.77,18.53,121.74,18.62Z"/></g></g></svg>