<svg xmlns="http://www.w3.org/2000/svg" viewBox="0 0 115.45 29"><defs><style>.cls-1{fill:#999;}.cls-2{fill:#ccc;}.cls-3{fill:none;stroke:#ccc;stroke-miterlimit:10;stroke-width:0.75px;}</style></defs><title>Zasób 13</title><g id="Warstwa_2" data-name="Warstwa 2"><g id="Ebene_1" data-name="Ebene 1"><path class="cls-1" d="M0,.43c2,0,4-.09,6,0C9.38.66,12.21,2,13.85,5.12a9.06,9.06,0,0,1-6.6,13.25,15.23,15.23,0,0,1-2.16.16H0Zm3.55,9c0,1.89,0,3.77,0,5.66,0,.29.05.41.37.39s.84,0,1.26,0A6.38,6.38,0,0,0,8.87,14.4a5.94,5.94,0,0,0,2.3-6.16A5.44,5.44,0,0,0,7.54,3.86a10.63,10.63,0,0,0-3.61-.41c-.3,0-.39.07-.39.38C3.56,5.7,3.55,7.57,3.55,9.44Z"/><path class="cls-1" d="M0,23c.82,0,1.65,0,2.47,0,.24,0,.32.06.32.31s-.06.33-.31.32c-.48,0-1,0-1.43,0-.26,0-.37.06-.35.34s-.17,1,.08,1.26.82.06,1.25.09h.35c.21,0,.35,0,.35.28s-.06.36-.34.34c-.46,0-.93,0-1.39,0-.23,0-.29.07-.29.3,0,.68,0,1.36,0,2,0,.41-.11.54-.5.48H0Z"/><path class="cls-2" d="M50.45,9.52a9.53,9.53,0,1,1,9.49,9.42A9.23,9.23,0,0,1,50.45,9.52Z"/><path class="cls-1" d="M113.41,18.53h-4a.48.48,0,0,1-.44-.28l-4.44-6.63a1.56,1.56,0,0,1-.15-.22c-.1-.23-.31-.2-.49-.17s-.12.23-.12.36c0,2.16,0,4.32,0,6.48,0,.36-.08.47-.45.46q-1.3,0-2.61,0c-.37,0-.45-.1-.45-.46q0-7,0-14c0-1.1,0-2.2,0-3.31,0-.25,0-.36.33-.36,1.9,0,3.8,0,5.7,0a6.55,6.55,0,0,1,3.38,1,4.56,4.56,0,0,1,2.19,3.7,5.41,5.41,0,0,1-1.13,4.15,4.73,4.73,0,0,1-2.53,1.5c-.37.09-.39.19-.17.49q2.61,3.47,5.2,7ZM103.73,6c0,.83,0,1.65,0,2.48,0,.19,0,.34.26.34a9.43,9.43,0,0,0,2.2-.17,2.51,2.51,0,0,0,2.06-2.5,2.44,2.44,0,0,0-1.95-2.69,9,9,0,0,0-2.33-.2c-.24,0-.24.14-.24.31C103.73,4.34,103.73,5.15,103.73,6Z"/><path class="cls-1" d="M87.89,9.47c0-2.87,0-5.74,0-8.61,0-.31,0-.45.41-.45q4.59,0,9.18,0c.31,0,.43,0,.42.4,0,.77,0,1.54,0,2.31,0,.29-.09.36-.37.35-1.9,0-3.8,0-5.7,0-.37,0-.45.1-.45.46,0,1.07,0,2.15,0,3.22,0,.29.08.36.37.36,1.83,0,3.65,0,5.48,0,.32,0,.42.07.41.4,0,.75,0,1.51,0,2.26,0,.36-.12.42-.44.42-1.78,0-3.57,0-5.35,0-.35,0-.48.06-.47.45,0,1.38,0,2.76,0,4.13,0,.28.08.37.37.36,1.9,0,3.8,0,5.7,0,.37,0,.46.11.44.46,0,.75,0,1.51,0,2.26,0,.27-.08.34-.34.34q-4.66,0-9.31,0c-.35,0-.36-.15-.35-.41Q87.9,13.8,87.89,9.47Z"/><path class="cls-1" d="M31.45,4.5a5.78,5.78,0,0,0-1.13-1,3.17,3.17,0,0,0-3.52,0,1.66,1.66,0,0,0,0,2.93,19.59,19.59,0,0,0,3,1.33,14.7,14.7,0,0,1,1.77.89,4.37,4.37,0,0,1,2.25,3.77,5.84,5.84,0,0,1-1.93,5A6.55,6.55,0,0,1,27,18.94a7,7,0,0,1-5.4-3.13c-.17-.24-.15-.36.06-.55q.9-.82,1.76-1.68c.2-.2.27-.2.42.05a4.11,4.11,0,0,0,3.9,2.12,2.56,2.56,0,0,0,2.45-3.16A2.42,2.42,0,0,0,28.78,11c-.87-.41-1.8-.69-2.69-1.06a7.5,7.5,0,0,1-2.77-1.73A5,5,0,0,1,23,2.87,5.31,5.31,0,0,1,27.21.17,7.69,7.69,0,0,1,33,1.91c.19.15.21.24.06.44C32.54,3.06,32,3.78,31.45,4.5Z"/><path class="cls-1" d="M68.94.42c1.22,0,2.38,0,3.54,0,.28,0,.33.16.41.35l3.5,8.85,1.15,2.89c.18-.06.18-.23.23-.35Q80.05,6.48,82.32.79a.5.5,0,0,1,.56-.38c1,0,2,0,3,0,.41,0,.4.1.27.43Q82.48,9.42,78.88,18c-.4,1-.4,1-1.44,1-.85,0-.86,0-1.17-.76L69.08.79Z"/><path class="cls-1" d="M49,5.23a7.23,7.23,0,0,0-2.73-1.77A5.9,5.9,0,0,0,38.81,8a6.38,6.38,0,0,0,1.78,6.21,5.85,5.85,0,0,0,7.89,0l.51-.46v3.06c0,1.08,0,1.09-1,1.48a9.47,9.47,0,1,1-5-18.15,9.15,9.15,0,0,1,5.69.79.52.52,0,0,1,.37.54C49,2.7,49,3.92,49,5.23Z"/><path class="cls-1" d="M16.54,9.48c0-2.87,0-5.74,0-8.61,0-.4.12-.47.48-.46.9,0,1.8,0,2.7,0,.27,0,.34.07.34.34q0,8.72,0,17.44c0,.3-.1.35-.37.35-.91,0-1.83,0-2.74,0-.32,0-.41-.07-.41-.4C16.55,15.25,16.54,12.37,16.54,9.48Z"/><path class="cls-1" d="M30.95,27.12v-.71c0-1.06,0-2.12,0-3.17,0-.27.15-.26.33-.25s.35-.06.35.23c0,1.87,0,3.73,0,5.71L27.4,24.51c-.16.1-.09.25-.09.36,0,1.16,0,2.32,0,3.48,0,.27,0,.38-.35.38s-.35-.11-.35-.38c0-1.83,0-3.65,0-5.6l4.22,4.42Z"/><path class="cls-1" d="M10.28,22.74l4.23,4.43.1,0q0-.44,0-.89c0-1,0-2,0-3,0-.31.14-.31.37-.31s.34,0,.34.29c0,1.85,0,3.71,0,5.67L13.45,27,11.27,24.7c-.07-.07-.12-.19-.24-.14s-.05.18-.06.27c0,1.17,0,2.35,0,3.52,0,.26,0,.39-.34.38s-.36-.1-.36-.37C10.29,26.52,10.28,24.68,10.28,22.74Z"/><path class="cls-1" d="M81.38,28.66a.85.85,0,0,1-1.12-.42c-.37-.6-.8-1.16-1.2-1.75-.09-.13-.17-.24-.34-.2s-.12.23-.12.36c0,.58,0,1.16,0,1.74,0,.27-.06.36-.33.34s-.37,0-.36-.32c0-1.71,0-3.42,0-5.13,0-.17,0-.31.23-.3a11,11,0,0,1,1.56.07,1.6,1.6,0,0,1,.3,3.08c-.33.11-.3.21-.13.43C80.35,27.24,80.85,27.93,81.38,28.66Zm-2.79-4v.39c0,.7,0,.7.71.6h.13a1,1,0,0,0,.95-.86.9.9,0,0,0-.34-.93,1.54,1.54,0,0,0-1.32-.27c-.31.09-.07.54-.13.82A1.34,1.34,0,0,0,78.58,24.7Z"/><path class="cls-1" d="M21,22.78l2.68,5.87c-.64.16-.72.17-.9-.41a1.16,1.16,0,0,0-1.47-.95,7.55,7.55,0,0,1-1.39,0,.35.35,0,0,0-.39.25c-.09.23-.22.44-.29.67-.13.48-.44.59-.94.44Zm0,1.47-1,2.24c-.07.16,0,.21.14.21h1.65c.16,0,.22-.06.16-.21Z"/><path class="cls-1" d="M51.75,28.68c-.5.14-.83,0-1-.5a1.05,1.05,0,0,0-1.37-.89,7.65,7.65,0,0,1-1.43,0,.37.37,0,0,0-.41.28c-.08.22-.21.42-.27.64-.14.51-.47.59-1,.47l2.7-5.9Zm-2.7-4.42-1,2.16c-.07.15-.1.28.15.27h1.61c.18,0,.24-.06.17-.24Z"/><path class="cls-1" d="M103.65,25.84c0-.85,0-1.71,0-2.56,0-.22.05-.3.29-.3.83,0,1.65,0,2.48,0,.27,0,.3.1.3.33s0,.31-.29.3c-.58,0-1.16,0-1.74,0-.25,0-.38,0-.35.33s-.18,1,.09,1.25.77.06,1.17.06a5.23,5.23,0,0,0,.69,0c.32,0,.39.09.38.38s-.07.29-.3.29c-.56,0-1.13,0-1.7,0-.25,0-.36,0-.35.33,0,.52,0,1,0,1.56,0,.26.09.32.33.31.59,0,1.19,0,1.78,0,.26,0,.27.12.27.31s0,.32-.27.31c-.83,0-1.65,0-2.48,0-.25,0-.32-.07-.32-.32C103.66,27.55,103.65,26.69,103.65,25.84Z"/><path class="cls-1" d="M71.44,25.82c0-.84,0-1.68,0-2.52,0-.24.07-.32.32-.32q1.22,0,2.44,0c.26,0,.31.08.31.32s-.09.31-.32.31c-.56,0-1.13,0-1.7,0-.25,0-.37,0-.35.33a6.21,6.21,0,0,1,0,1c0,.29.1.33.35.32.55,0,1.1,0,1.65,0,.27,0,.31.11.3.33s0,.35-.29.34c-.58,0-1.16,0-1.74,0-.21,0-.28.05-.27.27,0,.55,0,1.1,0,1.65,0,.24.09.29.31.28.58,0,1.16,0,1.74,0,.25,0,.32.07.33.32s-.09.31-.32.31c-.8,0-1.59,0-2.39,0-.31,0-.35-.12-.35-.38C71.45,27.5,71.44,26.66,71.44,25.82Z"/><path class="cls-1" d="M113.38,27.08a1.75,1.75,0,0,1-1.61,1.78,1.79,1.79,0,0,1-1.88-1.28c0-.15-.16-.33.12-.34s.42-.29.53.15a1.09,1.09,0,0,0,1.34.8A1.14,1.14,0,0,0,112.7,27a.92.92,0,0,0-.54-.78c-.34-.18-.7-.33-1.05-.49a1.44,1.44,0,0,1-1-1.44,1.38,1.38,0,0,1,1-1.27,1.64,1.64,0,0,1,1.87.43c.09.09.32.22.11.36s-.32.39-.58.08a1,1,0,0,0-1.14-.28.82.82,0,0,0-.61.67.7.7,0,0,0,.41.75c.36.18.74.33,1.1.5A1.61,1.61,0,0,1,113.38,27.08Z"/><path class="cls-1" d="M66.49,22.87a1.54,1.54,0,0,1,1.26.56c.08.09.3.21.1.33s-.3.39-.58.09A1,1,0,0,0,66,23.62.74.74,0,0,0,65.88,25a6.61,6.61,0,0,0,1.14.52,1.7,1.7,0,0,1,.84,2.58,1.84,1.84,0,0,1-1.76.79,1.79,1.79,0,0,1-1.49-1.34c0-.15-.05-.28.14-.26s.39-.29.53.1a1.06,1.06,0,0,0,1.14.87,1.09,1.09,0,0,0,.68-1.89,3.91,3.91,0,0,0-.92-.48l-.39-.18A1.4,1.4,0,0,1,64.85,24,1.61,1.61,0,0,1,66.49,22.87Z"/><path class="cls-1" d="M88.86,23l-2.45,6-2.47-6c.72-.06.72-.06,1,.57q.66,1.65,1.32,3.29c0,.1,0,.26.18.26s.13-.17.17-.27q.68-1.66,1.34-3.33C88.15,22.93,88.15,22.93,88.86,23Z"/><path class="cls-1" d="M100.3,24c-1.33-.71-2.44-.61-3.19.25A2.47,2.47,0,0,0,97,27.32c.78,1,1.76,1.13,3.33.41,0,.81,0,.83-.74,1a3,3,0,0,1-3.2-4.61A3.07,3.07,0,0,1,99.57,23C100.33,23.15,100.33,23.15,100.3,24Z"/><path class="cls-1" d="M39.3,27.74c.08.76.06.79-.64,1a3,3,0,0,1-3.25-4.61A3,3,0,0,1,38.63,23c.73.2.74.21.68,1-1.58-.69-2.56-.55-3.32.48a2.46,2.46,0,0,0,.11,3C36.89,28.36,37.93,28.45,39.3,27.74Z"/><path class="cls-1" d="M54.79,25.85c0-.83,0-1.65,0-2.48,0-.23,0-.41.32-.4s.34.14.34.39c0,1.44,0,2.87,0,4.31,0,.38.11.47.46.44s.7,0,1,0,.25.11.25.29,0,.34-.25.33c-.62,0-1.25,0-1.87,0-.24,0-.29-.08-.28-.3C54.8,27.56,54.79,26.71,54.79,25.85Z"/><path class="cls-1" d="M6.09,25.79c0-.83,0-1.65,0-2.48,0-.26.06-.35.34-.34s.37.06.37.35c0,1.68,0,3.36,0,5,0,.26-.06.35-.34.35s-.38-.08-.37-.37C6.1,27.5,6.09,26.65,6.09,25.79Z"/><path class="cls-1" d="M43.34,25.87c0,.82,0,1.65,0,2.47,0,.24,0,.39-.33.39s-.37-.13-.36-.41q0-2.47,0-4.94c0-.27,0-.41.35-.41s.34.19.34.43C43.34,24.22,43.34,25,43.34,25.87Z"/><path class="cls-1" d="M91.88,25.84c0-.84,0-1.68,0-2.51,0-.31.12-.34.38-.35s.32.11.32.35q0,2.51,0,5c0,.27-.05.37-.35.37s-.35-.11-.34-.38C91.89,27.51,91.88,26.67,91.88,25.84Z"/><circle class="cls-3" cx="113.82" cy="2.05" r="1.26"/><path class="cls-2" d="M113.35,1.32h.27a2,2,0,0,1,.36,0,.25.25,0,0,1,.15.1.48.48,0,0,1,.06.27.42.42,0,0,1,0,.23A.22.22,0,0,1,114,2a.28.28,0,0,1,.15.07.22.22,0,0,1,0,.09,1.34,1.34,0,0,1,0,.21v.38h-.35V2.28a.33.33,0,0,0,0-.14s0,0-.1,0v.65h-.38Zm.38.25v.32l.09,0s0,0,0-.11V1.68a.12.12,0,0,0,0-.09A.14.14,0,0,0,113.73,1.57Z"/></g></g></svg>