<svg xmlns="http://www.w3.org/2000/svg" xmlns:xlink="http://www.w3.org/1999/xlink" viewBox="0 0 64.44 32.87"><defs><style>.cls-1{fill:none;}.cls-2{clip-path:url(#clip-path);}.cls-3{fill:#999;}.cls-4{fill:#ccc;}</style><clipPath id="clip-path" transform="translate(-0.62 -1.5)"><rect class="cls-1" width="65.83" height="35.45"/></clipPath></defs><title>Zasób 21</title><g id="Warstwa_2" data-name="Warstwa 2"><g id="Payment_icons_Germany" data-name="Payment icons Germany"><g class="cls-2"><path class="cls-3" d="M.62,7c1.58,0,3.16,0,4.74,0A4.47,4.47,0,0,1,9.66,9.58a6.08,6.08,0,0,1,.48,2.93,5.76,5.76,0,0,1-.59,2.39,4.33,4.33,0,0,1-3.43,2.31A7.29,7.29,0,0,1,5,17.27H.62Zm2.72,5.16v2.61c0,.12,0,.24.17.23a14,14,0,0,0,2-.07A2.1,2.1,0,0,0,7.37,13a5.55,5.55,0,0,0,.07-1.19,2.38,2.38,0,0,0-2.23-2.5c-.53-.08-1.07,0-1.61,0-.21,0-.27.05-.27.26,0,.86,0,1.72,0,2.58" transform="translate(-0.62 -1.5)"/><path class="cls-4" d="M49.37,34.36a2.79,2.79,0,0,0-.69-.44l-7.89-4.55a.44.44,0,0,1-.26-.45c0-1.15,0-2.3,0-3.45.17,0,.27.1.39.16l8.25,4.76a.47.47,0,0,0,.55,0L58,25.62l.3-.17c.1.08.06.19.06.27,0,1.06,0,2.13,0,3.19a.47.47,0,0,1-.28.47l-8.25,4.76c-.11.06-.24.09-.31.21Z" transform="translate(-0.62 -1.5)"/><path class="cls-3" d="M59.64,16.49c0,1.9,0,3.8,0,5.7a.45.45,0,0,1-.25.46q-4.88,2.8-9.74,5.62a.35.35,0,0,1-.41,0l-9.8-5.66a.35.35,0,0,1-.2-.35q0-5.8,0-11.6a.38.38,0,0,1,.22-.37l9.76-5.73a.39.39,0,0,1,.46,0l9.73,5.71a.4.4,0,0,1,.23.4c0,1.93,0,3.87,0,5.8M48.21,24.67c0-2.56,0-5,0-7.52,0-.19-.11-.23-.22-.3l-6.07-3.5c-.06,0-.11-.11-.2-.05a.65.65,0,0,0,0,.09c0,2.44,0,4.88,0,7.31a.35.35,0,0,0,.22.34L46,23.42l2.17,1.25m2.5,0,.13-.06L57,21a.34.34,0,0,0,.17-.37q0-3.56,0-7.13v-.28l-.2.09-6.1,3.52a.37.37,0,0,0-.19.39q0,3.56,0,7.12c0,.07,0,.15,0,.26M43.09,10.94l.14.1,6,3.49a.32.32,0,0,0,.37,0l5.93-3.43c.07,0,.17,0,.18-.17L49.6,7.36a.27.27,0,0,0-.32,0l-6.19,3.58" transform="translate(-0.62 -1.5)"/><path class="cls-4" d="M61.7,19.12v-.41q0-4.84,0-9.67a.52.52,0,0,0-.29-.53l-8.7-5-.16-.1c0-.07.05-.09.1-.12l3-1.71a.33.33,0,0,1,.38,0l8.89,5.13a.33.33,0,0,1,.19.33q0,5,0,10c0,.11,0,.21-.12.27L61.7,19.12" transform="translate(-0.62 -1.5)"/><path class="cls-4" d="M46.35,3.39,43.74,4.9c-2.08,1.2-4.16,2.41-6.25,3.6a.54.54,0,0,0-.31.55c0,3.22,0,6.45,0,9.67v.4l-.73-.42-2.4-1.38a.37.37,0,0,1-.23-.37q0-5,0-9.9a.37.37,0,0,1,.23-.37l8.84-5.1c.11-.06.2-.13.35,0L46.3,3.32s0,0,.05.07" transform="translate(-0.62 -1.5)"/><path class="cls-3" d="M21.5,12.1c0-1.61,0-3.22,0-4.83,0-.24,0-.32.31-.32,1.44,0,2.88,0,4.32,0A4.6,4.6,0,0,1,31,11.63a6.48,6.48,0,0,1-.52,3.14A4.28,4.28,0,0,1,27,17.2a22.23,22.23,0,0,1-2.9.07c-.77,0-1.55,0-2.32,0-.22,0-.28,0-.28-.28,0-1.63,0-3.27,0-4.9m2.71,0q0,1.31,0,2.61c0,.11,0,.24.16.23a13.65,13.65,0,0,0,2-.07,2.07,2.07,0,0,0,1.86-1.66,4.77,4.77,0,0,0,0-1.95,2.26,2.26,0,0,0-2-1.94,16,16,0,0,0-1.73-.06c-.21,0-.27,0-.27.26,0,.86,0,1.72,0,2.58" transform="translate(-0.62 -1.5)"/><path class="cls-3" d="M11.59,12.11c0-1.61,0-3.22,0-4.83,0-.28.08-.33.34-.33h4.77a4.41,4.41,0,0,1,1.39.22,3,3,0,0,1,2.16,3.23,4.69,4.69,0,0,1-.18,1.27,3,3,0,0,1-2.72,2.11,26,26,0,0,1-2.74,0c-.28,0-.33.08-.33.34,0,.94,0,1.89,0,2.84,0,.21-.05.27-.26.26q-1.1,0-2.19,0c-.22,0-.26-.06-.26-.27,0-1.63,0-3.27,0-4.9m2.71-1.69c0,.37,0,.73,0,1.1,0,.16,0,.23.21.22.6,0,1.2,0,1.8,0a1.16,1.16,0,0,0,1.23-1.23,1.2,1.2,0,0,0-1.16-1.35c-.63,0-1.27,0-1.9,0-.17,0-.19.07-.19.22,0,.36,0,.73,0,1.09" transform="translate(-0.62 -1.5)"/></g></g></g></svg>