<svg xmlns="http://www.w3.org/2000/svg" xmlns:xlink="http://www.w3.org/1999/xlink" viewBox="0 0 68.33 29.39"><defs><style>.cls-1{fill:none;}.cls-2{clip-path:url(#clip-path);}.cls-3{fill:#999;}.cls-4{fill:#ccc;}</style><clipPath id="clip-path" transform="translate(-0.43 -0.49)"><rect class="cls-1" width="69.11" height="30.53"/></clipPath></defs><title>Zasób 18</title><g id="Warstwa_2" data-name="Warstwa 2"><g id="Payment_icons_Germany" data-name="Payment icons Germany"><g class="cls-2"><path class="cls-3" d="M34.59,29.88H5.78a5.17,5.17,0,0,1-4.55-2.49,5.08,5.08,0,0,1-.8-2.84q0-9.35,0-18.7A5.25,5.25,0,0,1,4.29.69,5.06,5.06,0,0,1,5.58.5H63.32A5.29,5.29,0,0,1,66.83,1.7a5,5,0,0,1,1.92,4c0,5.22,0,10.44,0,15.66,0,1.06,0,2.12,0,3.18a5.18,5.18,0,0,1-3.19,4.92,5.05,5.05,0,0,1-2.19.44H34.59M20.84,2.65H18.62c-4.2,0-8.41,0-12.61,0A3.37,3.37,0,0,0,2.6,6.06c0,6.09,0,12.17,0,18.26a3.58,3.58,0,0,0,.06.76A3.32,3.32,0,0,0,6,27.73h30c.18,0,.22,0,.22-.22q0-12.32,0-24.63c0-.19-.06-.22-.23-.22H20.84m20,15.2c.14.15.24.31.38.44a2.52,2.52,0,0,0,1.58.71,3,3,0,0,0,3-1.34A4.6,4.6,0,0,0,46.49,14,3.59,3.59,0,0,0,45.28,12a3,3,0,0,0-2.56-.58,2.68,2.68,0,0,0-2,1.37s0,0-.06,0c0-.37,0-.75,0-1.12,0-.13,0-.17-.17-.17h-2c-.13,0-.17,0-.17.17q0,5,0,10.05c0,.13,0,.16.16.16h2.24c.13,0,.16,0,.16-.16,0-1.22,0-2.44,0-3.66Zm19.35-1.51-.07-.18c-.49-1.5-1-3-1.48-4.51a.21.21,0,0,0-.25-.17H56.09c-.22,0-.22,0-.14.2l2.85,7.19a.32.32,0,0,1,0,.24,1.29,1.29,0,0,1-1,.92,2.45,2.45,0,0,1-1.14-.08c-.14,0-.16,0-.17.12q-.07.83-.15,1.66c0,.09,0,.13.1.14a7.18,7.18,0,0,0,1.73.14,2.8,2.8,0,0,0,2.28-1.3,5.68,5.68,0,0,0,.57-1.08l3.17-8c.06-.14,0-.14-.11-.14H61.93c-.14,0-.19.05-.23.18-.33,1.07-.67,2.14-1,3.21l-.47,1.48M48.65,13.53h.07l.14-.07a4.82,4.82,0,0,1,2.8-.4,1.12,1.12,0,0,1,1,.95c0,.32.06.28-.22.23l-.28,0a6.9,6.9,0,0,0-2.77.27,2.24,2.24,0,0,0-1.68,1.85,2.18,2.18,0,0,0,1.12,2.33,3.26,3.26,0,0,0,1.24.35,2.61,2.61,0,0,0,2.64-1.19s0-.1.11-.1c0,.33,0,.66.06,1,0,.12,0,.14.16.14h2c.13,0,.14,0,.12-.15a7.34,7.34,0,0,1-.11-1.31c0-1,0-2.08,0-3.12a2.65,2.65,0,0,0-2-2.76,7,7,0,0,0-4.37.28c-.08,0-.08.08-.08.15,0,.53,0,1.05,0,1.58" transform="translate(-0.43 -0.49)"/><path class="cls-4" d="M12.07,12.79c0-.38,0-.76,0-1.15,0-.13,0-.17.17-.17h2c.12,0,.16,0,.16.15,0,2.21,0,4.43,0,6.64a4.94,4.94,0,0,1-.26,1.62,2.89,2.89,0,0,1-2.32,1.94,9,9,0,0,1-4.47-.21c-.16,0-.22-.11-.2-.29.05-.59.08-1.18.12-1.78.28.11.54.24.81.33a4.55,4.55,0,0,0,2.57.15A1.71,1.71,0,0,0,12,18.52a6.08,6.08,0,0,0,0-.89c-.06,0-.07,0-.09.07A2.94,2.94,0,0,1,9,18.84a3.14,3.14,0,0,1-2.75-2.78,5.38,5.38,0,0,1,.1-2.34,3,3,0,0,1,3.18-2.4,2.83,2.83,0,0,1,2.38,1.35l.09.13Zm-1.62.48A1.34,1.34,0,0,0,9.08,14,2.35,2.35,0,0,0,9,15.93a1.41,1.41,0,0,0,2.49.41,2,2,0,0,0,.32-2,1.44,1.44,0,0,0-1.34-1" transform="translate(-0.43 -0.49)"/><path class="cls-4" d="M30.2,11.31a4.72,4.72,0,0,1,2.63.7,3.54,3.54,0,0,1,1.65,3.21,3.64,3.64,0,0,1-3,3.68,5.49,5.49,0,0,1-3.22-.22A3.59,3.59,0,0,1,25.9,15.1a3.57,3.57,0,0,1,1.81-3.19,4.85,4.85,0,0,1,2.48-.6m1.65,3.87a2.79,2.79,0,0,0-.15-1,1.48,1.48,0,0,0-1.32-1.1,1.44,1.44,0,0,0-1.56.8,2.76,2.76,0,0,0,0,2.55,1.57,1.57,0,0,0,2.64.16,2.47,2.47,0,0,0,.38-1.43" transform="translate(-0.43 -0.49)"/><path class="cls-4" d="M22.72,12.81c.13-.18.23-.37.35-.54a2.1,2.1,0,0,1,1.77-1,4.81,4.81,0,0,1,.83.06c.07,0,.13,0,.13.12q-.07.94-.12,1.88c0,.13,0,.14-.15.11a3,3,0,0,0-1.1,0,1.66,1.66,0,0,0-1.35,1.29A3.86,3.86,0,0,0,23,15.87c0,.93,0,1.87,0,2.8,0,.16,0,.19-.2.19h-2.2c-.12,0-.16,0-.16-.16q0-3.53,0-7.06c0-.13,0-.17.16-.17h2c.13,0,.16,0,.16.16,0,.4,0,.79,0,1.18" transform="translate(-0.43 -0.49)"/><path class="cls-4" d="M16.15,15.18c0-1.18,0-2.35,0-3.53,0-.14,0-.18.18-.18h2.2c.13,0,.18,0,.18.17q0,3.52,0,7c0,.15,0,.17-.18.17h-2.2c-.16,0-.18,0-.18-.19,0-1.17,0-2.33,0-3.5" transform="translate(-0.43 -0.49)"/><path class="cls-4" d="M17.42,8.41h1.14c.12,0,.15,0,.15.15,0,.52,0,1,0,1.56,0,.13,0,.16-.16.16H16.3c-.12,0-.16,0-.16-.15,0-.53,0-1.05,0-1.58,0-.11,0-.14.14-.14h1.14" transform="translate(-0.43 -0.49)"/><path class="cls-3" d="M44,15.29a2.28,2.28,0,0,1-.28,1,1.41,1.41,0,0,1-2.29.28,2.28,2.28,0,0,1-.08-2.82,1.45,1.45,0,0,1,2.36.18A2.33,2.33,0,0,1,44,15.29" transform="translate(-0.43 -0.49)"/><path class="cls-3" d="M51.15,17.34a1.33,1.33,0,0,1-.5-.09.74.74,0,0,1-.53-.62.8.8,0,0,1,.4-.83,1.88,1.88,0,0,1,.9-.24,11.35,11.35,0,0,1,1.22,0c.07,0,.1,0,.1.1a1.69,1.69,0,0,1-1.31,1.62l-.26,0" transform="translate(-0.43 -0.49)"/></g></g></g></svg>