<svg xmlns="http://www.w3.org/2000/svg" xmlns:xlink="http://www.w3.org/1999/xlink" viewBox="0 0 60.98 16.85"><defs><style>.cls-1{fill:none;}.cls-2{clip-path:url(#clip-path);}.cls-3{fill:#999;}</style><clipPath id="clip-path" transform="translate(-0.33 -0.69)"><rect class="cls-1" width="61.67" height="18.02"/></clipPath></defs><title>Zasób 17</title><g id="Warstwa_2" data-name="Warstwa 2"><g id="Payment_icons_Germany" data-name="Payment icons Germany"><g class="cls-2"><path class="cls-3" d="M42.32,6l.78-.49a5.66,5.66,0,0,1,4.08-.64,2.93,2.93,0,0,1,2.39,2.5,9.92,9.92,0,0,1,.22,2c0,2.45,0,4.89,0,7.34,0,.53-.08.61-.61.61H47.06c-.45,0-.52-.07-.52-.53,0-2.37,0-4.75,0-7.12a6.71,6.71,0,0,0-.13-1.21,1.14,1.14,0,0,0-1-.94,3.83,3.83,0,0,0-2.71.66c-.12.07-.16.33-.16.51,0,2.65,0,5.3,0,8,0,.68,0,.69-.68.69H39.77c-.39,0-.52-.13-.52-.52q0-5.68,0-11.35c0-.36.13-.49.51-.49h2.06c.4,0,.47.09.48.5,0,.16,0,.33,0,.59" transform="translate(-0.33 -0.69)"/><path class="cls-3" d="M26,16.49c-.37.21-.69.41-1,.57a4.82,4.82,0,0,1-3.58.25,2.82,2.82,0,0,1-2-2.19,5.46,5.46,0,0,1,0-2.4,2.91,2.91,0,0,1,2.24-2.26,11.71,11.71,0,0,1,3.54-.36c.71,0,.71,0,.71-.7,0-.15,0-.29,0-.43a1.29,1.29,0,0,0-1.35-1.45c-1.24,0-2.48,0-3.71.12-.64,0-.72,0-.72-.62,0-.43,0-.87,0-1.3a.4.4,0,0,1,.33-.45A13,13,0,0,1,26.14,5a3.52,3.52,0,0,1,3,3.55c.07,2.76.06,5.51.07,8.27,0,.37-.13.48-.52.48h-2c-.5,0-.58-.08-.61-.58,0-.07,0-.14,0-.26m-.11-3.19c0-.37,0-.75,0-1.12,0-.09-.13-.26-.2-.25-.76,0-1.51,0-2.26.14a1,1,0,0,0-.89.85,4.72,4.72,0,0,0-.08,1.32.94.94,0,0,0,.89.85,4,4,0,0,0,2.15-.3.53.53,0,0,0,.4-.62,8.63,8.63,0,0,1,0-.87" transform="translate(-0.33 -0.69)"/><path class="cls-3" d="M58.21,16.46l-.6.37a4.77,4.77,0,0,1-4.37.34,2.85,2.85,0,0,1-1.77-2.57,7.21,7.21,0,0,1,0-1.76,2.67,2.67,0,0,1,2-2.29,17.19,17.19,0,0,1,2.62-.44,11.51,11.51,0,0,1,1.55,0c.22,0,.34-.06.33-.31a9.22,9.22,0,0,0,0-1.08,1.27,1.27,0,0,0-1.38-1.2c-1.24,0-2.48.06-3.71.13-.62,0-.72,0-.72-.65,0-.4,0-.79,0-1.19a.5.5,0,0,1,.45-.56A15.45,15.45,0,0,1,57,4.83a7.36,7.36,0,0,1,1.83.37,3.42,3.42,0,0,1,2.4,2.94,7.4,7.4,0,0,1,.08,1.11q0,3.76,0,7.52c0,.5-.06.56-.56.56H58.83c-.5,0-.54,0-.57-.56,0-.08,0-.16,0-.32m-.09-3.17h0c0-.35,0-.7,0-1s-.08-.33-.32-.33c-.47,0-.94,0-1.41,0-1.51.12-1.77.69-1.79,1.92,0,.83.31,1.14,1.12,1.26a3.93,3.93,0,0,0,1.93-.3c.34-.12.52-.3.47-.69a7,7,0,0,1,0-.83" transform="translate(-0.33 -0.69)"/><path class="cls-3" d="M.33,9.22V1.77A1,1,0,0,1,1.39.7H3.31c.39,0,.49.11.5.5q0,7.56,0,15.12a.89.89,0,0,1-.94,1H.8c-.41,0-.47-.07-.47-.49q0-3.78,0-7.56" transform="translate(-0.33 -0.69)"/><path class="cls-3" d="M14.35,9V1.26c0-.51.06-.56.56-.56h2c.63,0,.69.06.69.67V16.66c0,.61-.06.68-.69.68H14.87c-.45,0-.52-.07-.52-.53q0-3.9,0-7.81" transform="translate(-0.33 -0.69)"/><path class="cls-3" d="M34.5,6l.36-.26a4.61,4.61,0,0,1,2.55-.89c.32,0,.46.13.46.45,0,.59,0,1.18,0,1.77,0,.35-.15.47-.48.46a5.37,5.37,0,0,0-2.53.62.5.5,0,0,0-.32.53c0,2.68,0,5.35,0,8,0,.56-.09.65-.64.65H31.84c-.51,0-.62-.12-.62-.65q0-3,0-6,0-2.49,0-5c0-.59.1-.69.69-.69h2c.51,0,.6.1.61.62,0,.1,0,.21,0,.38" transform="translate(-0.33 -0.69)"/><path class="cls-3" d="M5.34,8.43c-.46,0-.49,0-.45-.45A7.95,7.95,0,0,1,11.63.78c.24,0,.48-.06.71-.08s.29.22.27.41A8.17,8.17,0,0,1,12,3.69,7.9,7.9,0,0,1,5.62,8.43a1.86,1.86,0,0,1-.29,0" transform="translate(-0.33 -0.69)"/><path class="cls-3" d="M4.88,9.93c-.05-.25.08-.37.4-.34A7.81,7.81,0,0,1,10.45,12a7.93,7.93,0,0,1,2.18,4.88c0,.24,0,.47-.33.43a8.16,8.16,0,0,1-4.12-1.49,7.82,7.82,0,0,1-3.22-5.31c0-.1,0-.19-.05-.28s0-.17,0-.32" transform="translate(-0.33 -0.69)"/></g></g></g></svg>