<svg xmlns="http://www.w3.org/2000/svg" xmlns:xlink="http://www.w3.org/1999/xlink" viewBox="0 0 42.71 33.24"><defs><style>.cls-1{fill:none;}.cls-2{clip-path:url(#clip-path);}.cls-3{fill:#ccc;}.cls-4{fill:#999;}</style><clipPath id="clip-path" transform="translate(-0.23 -0.56)"><rect class="cls-1" width="43.21" height="33.89"/></clipPath></defs><title>Zasób 14</title><g id="Warstwa_2" data-name="Warstwa 2"><g id="Payment_icons_Germany" data-name="Payment icons Germany"><g class="cls-2"><path class="cls-3" d="M21.57,3.37a15.4,15.4,0,0,1,3.08-1.79A13.21,13.21,0,0,1,39,4.37,12.91,12.91,0,0,1,42.82,12,13.16,13.16,0,0,1,32,26.75a13,13,0,0,1-10.13-2.42.72.72,0,0,0-.28-.17,11.83,11.83,0,0,1-2.47-2.52,13.25,13.25,0,0,1-1.53-13.1,13.14,13.14,0,0,1,3.77-5,.69.69,0,0,1,.22-.15" transform="translate(-0.23 -0.56)"/><path class="cls-4" d="M21.57,3.37c0,.21-.23.27-.36.38a13,13,0,0,0-4.31,7.17,12.47,12.47,0,0,0-.31,3.39,13.15,13.15,0,0,0,2.62,7.34,11.55,11.55,0,0,0,2.19,2.28c.08.06.17.12.17.24A13.19,13.19,0,0,1,.63,16.84,12.68,12.68,0,0,1,3.89,4.68,12.69,12.69,0,0,1,14,.58a12.71,12.71,0,0,1,7.58,2.79" transform="translate(-0.23 -0.56)"/><path class="cls-4" d="M3.23,30.41a1.43,1.43,0,0,1,2.19.14A1.45,1.45,0,0,1,6.75,30,1.28,1.28,0,0,1,8,31.26c0,.71,0,1.42,0,2.13,0,.13,0,.19-.18.2-.61,0-.61,0-.61-.58s0-1,0-1.53-.31-.79-.79-.77a.81.81,0,0,0-.79.85q0,.87,0,1.74c0,.22,0,.3-.27.29-.51,0-.51,0-.51-.52a11.45,11.45,0,0,0,0-1.71.76.76,0,0,0-1.23-.49.91.91,0,0,0-.33.8c0,.55,0,1.1,0,1.65,0,.2,0,.28-.26.27-.53,0-.53,0-.53-.54,0-.91,0-1.82,0-2.73,0-.2,0-.3.26-.27h.15c.25,0,.46,0,.37.35" transform="translate(-0.23 -0.56)"/><path class="cls-4" d="M14.74,30a2.83,2.83,0,0,1,1.16.26c.16.08.19.14.1.31-.22.4-.21.4-.65.26a1.81,1.81,0,0,0-1-.09c-.19,0-.35.14-.37.34s.19.29.37.32a7.83,7.83,0,0,1,1,.19,1,1,0,0,1,.77.89,1,1,0,0,1-.69,1,2.64,2.64,0,0,1-2.28-.17c-.16-.09-.17-.17-.06-.29l0-.08c.12-.27.24-.37.56-.18a1.64,1.64,0,0,0,1.31.12c.17,0,.3-.14.31-.32s-.15-.27-.32-.31c-.32-.07-.65-.1-1-.18a1,1,0,0,1-.81-1.41,1.18,1.18,0,0,1,1-.67,4.44,4.44,0,0,1,.48,0" transform="translate(-0.23 -0.56)"/><path class="cls-4" d="M17.38,31.74v-.39c0-.54,0-.54-.54-.57-.15,0-.2-.06-.18-.19a.68.68,0,0,0,0-.09c0-.44,0-.46.43-.44.24,0,.32-.06.29-.29a2.4,2.4,0,0,1,0-.36c0-.48-.06-.41.41-.41s.39-.06.39.4c0,.66,0,.66.67.66a1.61,1.61,0,0,0,.27,0c.25,0,.32.06.31.31,0,.42,0,.41-.43.42-.27,0-.62-.12-.77.05s0,.5,0,.76,0,.52,0,.78c0,.44.22.61.66.53a.59.59,0,0,0,.2,0c.27-.17.36,0,.43.21s.1.4-.27.52a2.08,2.08,0,0,1-.92.07,1,1,0,0,1-.9-1.13c0-.26,0-.52,0-.78" transform="translate(-0.23 -0.56)"/><path class="cls-4" d="M28.53,33.67a1.76,1.76,0,0,1-1.85-1.5A1.78,1.78,0,0,1,28,30a2.05,2.05,0,0,1,1.65.22c.15.1.2.18.07.32l0,.05c-.21.36-.21.36-.59.2a1.09,1.09,0,0,0-1.5.45,1.17,1.17,0,0,0,.41,1.5,1.2,1.2,0,0,0,1.23-.06c.17-.1.24-.1.34.08.28.49.27.53-.27.74a1.81,1.81,0,0,1-.35.1,4.17,4.17,0,0,1-.42,0" transform="translate(-0.23 -0.56)"/><path class="cls-4" d="M35.59,30.39A1.2,1.2,0,0,1,36.79,30c.18,0,.29.08.18.28a.4.4,0,0,0,0,.12c-.05.29-.15.42-.51.34a.64.64,0,0,0-.82.62,12.78,12.78,0,0,0,0,1.95c0,.24-.07.3-.3.29-.48,0-.48,0-.48-.5,0-.93,0-1.86,0-2.79,0-.2.05-.27.25-.24a.73.73,0,0,0,.21,0c.24,0,.39,0,.34.33" transform="translate(-0.23 -0.56)"/><path class="cls-4" d="M25,30.38A1.22,1.22,0,0,1,26.24,30c.15,0,.25.08.16.25a.59.59,0,0,0,0,.14c-.06.28-.14.44-.51.34a.63.63,0,0,0-.81.58,11.15,11.15,0,0,0,0,1.73c0,.59,0,.61-.65.54-.13,0-.14-.07-.14-.17q0-1.6,0-3.21c0-.12,0-.16.15-.15a1.57,1.57,0,0,0,.33,0c.24,0,.37,0,.32.33" transform="translate(-0.23 -0.56)"/><path class="cls-3" d="M42.5,21.92c-.13,0,0-.15-.13-.16,0,.25-.34-.12-.36.17-.11,0-.07-.14-.06-.21s-.07-.26.05-.29.12.18.24.24.07-.36.25-.22.07.32,0,.48" transform="translate(-0.23 -0.56)"/><path class="cls-3" d="M41.35,21.45a.79.79,0,0,1,.52,0c-.29.07-.12.33-.24.5-.13-.17.05-.44-.28-.49" transform="translate(-0.23 -0.56)"/><path class="cls-4" d="M42.28,33.67c-.09.2-.24.11-.34,0a.31.31,0,0,1-.11-.46s.07,0,.1,0,0,.17.11.24.11,0,.17.06a.15.15,0,0,1,.08.08" transform="translate(-0.23 -0.56)"/><path class="cls-4" d="M42.32,33.11c.23.2.24.35,0,.51a.17.17,0,0,1-.05-.06,1.29,1.29,0,0,1,0-.2c0-.07-.06-.12-.05-.2s.05-.06.1,0" transform="translate(-0.23 -0.56)"/><path class="cls-4" d="M42.32,33.11l-.08.07c0,.07-.13.07-.2.11a.24.24,0,0,1-.15,0l-.06-.08c.12-.23.29-.23.5-.13" transform="translate(-0.23 -0.56)"/><path class="cls-4" d="M42.36,33.54v.08c0,.06,0,.06-.08.05s-.08,0-.11-.06,0-.1.05-.14.1,0,.13.07" transform="translate(-0.23 -0.56)"/><path class="cls-4" d="M40.88,29.16c0-.5,0-.49-.5-.5-.23,0-.29.05-.28.28,0,.48,0,1,0,1.49a1.7,1.7,0,0,0-2.39.1,2,2,0,0,0,0,2.61,1.69,1.69,0,0,0,2.37.07c-.07.34.07.42.32.37h.09c.32.07.37-.09.37-.37,0-1.35,0-2.7,0-4.06m-1.81,3.78a1.11,1.11,0,1,1,1.07-1.08,1,1,0,0,1-1.07,1.08" transform="translate(-0.23 -0.56)"/><path class="cls-4" d="M33.79,30.08a3.07,3.07,0,0,0-.68,0c-.16,0,0,.21-.11.32a1.69,1.69,0,0,0-2.25,0,2,2,0,0,0-.27,2.45,1.66,1.66,0,0,0,1.19.77,1.58,1.58,0,0,0,1.39-.45c-.1.36.05.41.28.38h.3c.15,0,.18-.06.18-.19,0-1.05,0-2.1,0-3.15,0-.06,0-.16,0-.16M32,32.93a1.11,1.11,0,1,1,1-1.11,1,1,0,0,1-1,1.11" transform="translate(-0.23 -0.56)"/><path class="cls-4" d="M12.27,30.07a3.22,3.22,0,0,0-.66,0c-.17,0,0,.24-.11.31a1.68,1.68,0,0,0-2.3.11,2,2,0,0,0-.06,2.59,1.72,1.72,0,0,0,2.43.16c-.08.32.06.38.29.35a1.43,1.43,0,0,1,.3,0c.15,0,.18-.06.18-.19,0-1.05,0-2.1,0-3.15,0-.06,0-.17-.06-.17M10.5,32.93a1.11,1.11,0,1,1,1.09-1.06,1,1,0,0,1-1.09,1.06" transform="translate(-0.23 -0.56)"/><path class="cls-4" d="M21.06,32.11c.36,0,.72,0,1.08,0h.75c.61,0,.61,0,.54-.62A1.67,1.67,0,0,0,22.21,30a1.76,1.76,0,0,0-1.86.67,2,2,0,0,0,.23,2.54,2.17,2.17,0,0,0,2.56.06s.13-.08.11-.13a2.35,2.35,0,0,0-.33-.5c-.1-.1-.18.06-.28.1s-.29.13-.45.17a1,1,0,0,1-1.3-.57c-.06-.16-.08-.25.15-.24m.72-1.44a.83.83,0,0,1,.83.81H20.87a.88.88,0,0,1,.91-.81" transform="translate(-0.23 -0.56)"/><path class="cls-4" d="M41.89,33.32s0-.09.11-.08l0,0a.4.4,0,0,1,0,.28.17.17,0,0,1-.05.08.3.3,0,0,1-.12-.31" transform="translate(-0.23 -0.56)"/><path class="cls-4" d="M42,33.64v-.1a.2.2,0,0,1,.2-.13.06.06,0,0,1,0,.07l-.08.14c-.05,0-.09.1-.16,0" transform="translate(-0.23 -0.56)"/><path class="cls-4" d="M42,33.25c.05-.12.16-.06.24-.07l.1.12a.13.13,0,0,1-.07,0,.37.37,0,0,1-.27-.1Z" transform="translate(-0.23 -0.56)"/><path class="cls-4" d="M42.31,33.3h0a.3.3,0,0,1,0,.24l-.11-.07a.08.08,0,0,0,0-.05c0-.07,0-.09.07-.12" transform="translate(-0.23 -0.56)"/><path class="cls-4" d="M42.31,33.3l-.07.12-.22.12c0-.1,0-.2,0-.3a.5.5,0,0,1,.31.06" transform="translate(-0.23 -0.56)"/></g></g></g></svg>