<svg xmlns="http://www.w3.org/2000/svg" xmlns:xlink="http://www.w3.org/1999/xlink" viewBox="0 0 72.65 19.35"><defs><style>.cls-1{fill:none;}.cls-2{clip-path:url(#clip-path);}.cls-3{fill:#999;}.cls-4{fill:#ccc;}</style><clipPath id="clip-path" transform="translate(-1.04 -1.37)"><rect class="cls-1" width="74.15" height="21.61"/></clipPath></defs><title>Zasób 16</title><g id="Warstwa_2" data-name="Warstwa 2"><g id="Payment_icons_Germany" data-name="Payment icons Germany"><g class="cls-2"><path class="cls-3" d="M7.26,1.37H10a6.49,6.49,0,0,1,2.69.54,3.2,3.2,0,0,1,2,2.7,7.18,7.18,0,0,1-1.21,4.91,5.23,5.23,0,0,1-3.53,2.14,9.18,9.18,0,0,1-1.78.15H6.46a.8.8,0,0,0-.89.76c-.2,1.26-.4,2.51-.6,3.76a.76.76,0,0,1-.83.7H1.59c-.42,0-.6-.23-.53-.64L2.46,7.47q.42-2.69.86-5.38a.76.76,0,0,1,.84-.72h3.1Zm0,7.31h0c.32,0,.63,0,.95,0a2.1,2.1,0,0,0,2-1.45,3.55,3.55,0,0,0,.17-1.08A1.38,1.38,0,0,0,9.22,4.6a9.28,9.28,0,0,0-1.86-.1.5.5,0,0,0-.59.5c-.19,1.17-.37,2.34-.56,3.51,0,.14,0,.18.15.18h.92" transform="translate(-1.04 -1.37)"/><path class="cls-4" d="M47.56,1.37H50.3a6.49,6.49,0,0,1,2.62.52,3.24,3.24,0,0,1,2,2.82,7.23,7.23,0,0,1-1.19,4.77,5.25,5.25,0,0,1-3.56,2.19,9.65,9.65,0,0,1-1.93.15H46.74a.77.77,0,0,0-.83.7q-.31,1.93-.61,3.86c-.08.52-.23.66-.75.66H41.9a.49.49,0,0,1-.54-.64L42.84,7l.77-4.87a.82.82,0,0,1,.93-.8h3Zm.16,7.32a7.94,7.94,0,0,0,1.15-.09,2,2,0,0,0,1.63-1.19A3.34,3.34,0,0,0,50.76,6a1.34,1.34,0,0,0-1.11-1.4,7.94,7.94,0,0,0-2.14-.12.43.43,0,0,0-.42.42c-.19,1.19-.38,2.39-.57,3.58,0,.13,0,.19.15.18h1" transform="translate(-1.04 -1.37)"/><path class="cls-4" d="M62.36,15.88c-.14,0-.19.13-.27.19a5.28,5.28,0,0,1-5.34.91,3.85,3.85,0,0,1-2.47-3.13A6.39,6.39,0,0,1,59,6.48a6,6,0,0,1,3.35.19c.49.17.62.3,1.29,1,0-.24.08-.46.12-.68a.45.45,0,0,1,.49-.42h2.66a.46.46,0,0,1,.48.58c-.17,1.11-.35,2.22-.53,3.33q-.45,2.84-.9,5.68c-.1.63-.35.86-1,.86H62.85c-.43,0-.6-.19-.56-.63a2.49,2.49,0,0,0,.06-.56m-2.24-1.43a3,3,0,0,0,3.1-2.83,2.09,2.09,0,0,0-1.63-2.33,3,3,0,0,0-3.49,1.8,2.8,2.8,0,0,0-.12,2,2.09,2.09,0,0,0,2.13,1.32" transform="translate(-1.04 -1.37)"/><path class="cls-3" d="M23.35,7.72l.11-.66A.47.47,0,0,1,24,6.6h2.56a.48.48,0,0,1,.53.62C27,8.11,26.82,9,26.67,9.9q-.5,3.17-1,6.34a.83.83,0,0,1-.94.82h-2.2c-.41,0-.59-.2-.55-.61,0-.2.06-.4.1-.64l-.16.13a5.25,5.25,0,0,1-5.49,1,3.85,3.85,0,0,1-2.48-3.15,6.4,6.4,0,0,1,4.55-7.3,6.14,6.14,0,0,1,3.43.09,2.54,2.54,0,0,1,1.42,1.1M20.62,9.21c-.15,0-.31,0-.46,0a3,3,0,0,0-2.63,2.95,2,2,0,0,0,1.41,2.12,3.14,3.14,0,0,0,1.42.08,3,3,0,0,0,2.49-3.52,2.1,2.1,0,0,0-2.23-1.67" transform="translate(-1.04 -1.37)"/><path class="cls-3" d="M33.94,12.46l1-1.53c.87-1.28,1.75-2.56,2.61-3.85a1,1,0,0,1,.89-.48c.82,0,1.64,0,2.46,0a.51.51,0,0,1,.52.25.53.53,0,0,1-.1.59l-8.9,12.85a.91.91,0,0,1-.81.44H29.12a.49.49,0,0,1-.5-.25.52.52,0,0,1,.08-.57l2.64-3.71a.39.39,0,0,0,.06-.4Q30,11.64,28.56,7.48c0-.1-.07-.19-.09-.29a.44.44,0,0,1,.4-.58c.94,0,1.88,0,2.82,0,.37,0,.58.29.68.63l1.08,3.62.48,1.59" transform="translate(-1.04 -1.37)"/><path class="cls-4" d="M71.93,1.37h1.15c.48,0,.66.2.59.67-.16,1-.32,2-.49,3.05l-1,6.34q-.39,2.45-.77,4.9a.79.79,0,0,1-.87.73H68.42c-.46,0-.65-.2-.58-.65.19-1.24.39-2.47.59-3.71l.95-6q.38-2.42.77-4.85a.46.46,0,0,1,.51-.44h1.28" transform="translate(-1.04 -1.37)"/></g></g></g></svg>