<svg xmlns="http://www.w3.org/2000/svg" xmlns:xlink="http://www.w3.org/1999/xlink" viewBox="0 0 124.34 33.6"><defs><style>.cls-1{fill:none;}.cls-2{clip-path:url(#clip-path);}.cls-3{fill:#b1b1b1;}.cls-4{fill:#d9d9d9;}</style><clipPath id="clip-path" transform="translate(0)"><rect class="cls-1" width="124.34" height="33.59"/></clipPath></defs><title>Zasób 19</title><g id="Warstwa_2" data-name="Warstwa 2"><g id="Payment_icons_Germany" data-name="Payment icons Germany"><g class="cls-2"><path class="cls-3" d="M34.4,30.29H32.47L32,31.91h-.69l1.79-5.3h.76l1.8,5.3h-.71Zm-.17-.54L34,28.94c-.19-.59-.36-1.17-.52-1.79h0c-.17.61-.34,1.2-.52,1.79l-.26.81Z" transform="translate(0)"/><path class="cls-3" d="M38,26.6h1.63c1.17,0,2,.4,2,1.56s-.8,1.64-2,1.64h-1v2.1H38Zm1.54,2.65c.93,0,1.38-.34,1.38-1.09s-.46-1-1.37-1h-.87v2.11Z" transform="translate(0)"/><path class="cls-3" d="M44.42,29.42c0-.5-.17-1-.81-1a2.12,2.12,0,0,0-1.17.42l-.27-.46a2.92,2.92,0,0,1,1.54-.51c1,0,1.37.64,1.37,1.62v2.41h-.55l-.06-.47h0a2.14,2.14,0,0,1-1.3.57A1.07,1.07,0,0,1,42,30.89c0-.86.74-1.29,2.42-1.47m-1.07,2.05a1.61,1.61,0,0,0,1.07-.53V29.85c-1.32.16-1.76.48-1.76,1a.6.6,0,0,0,.69.63" transform="translate(0)"/><path class="cls-3" d="M46.37,33c.44,0,.73-.36.89-.84l.09-.29L45.77,28h.69l.8,2.18c.12.34.26.74.38,1.11h0c.11-.36.23-.76.33-1.11L48.7,28h.65l-1.48,4.25c-.28.78-.68,1.37-1.47,1.37a1.31,1.31,0,0,1-.46-.08l.13-.53a1.13,1.13,0,0,0,.3.06" transform="translate(0)"/><path class="cls-3" d="M50,31a1.77,1.77,0,0,0,1.16.47c.52,0,.78-.28.78-.61s-.47-.58-.9-.74-1.17-.47-1.17-1.13.5-1.12,1.35-1.12a2,2,0,0,1,1.22.44l-.32.42a1.46,1.46,0,0,0-.9-.35c-.49,0-.72.27-.72.57s.43.51.87.68,1.2.45,1.2,1.19S52.07,32,51.14,32a2.37,2.37,0,0,1-1.46-.54Z" transform="translate(0)"/><path class="cls-3" d="M55.72,29.42c0-.5-.17-1-.81-1a2.12,2.12,0,0,0-1.17.42l-.27-.46A2.92,2.92,0,0,1,55,27.88c1,0,1.37.64,1.37,1.62v2.41h-.55l-.06-.47h0a2.14,2.14,0,0,1-1.3.57,1.07,1.07,0,0,1-1.16-1.12c0-.86.74-1.29,2.42-1.47m-1.07,2.05a1.61,1.61,0,0,0,1.07-.53V29.85c-1.32.16-1.76.48-1.76,1a.6.6,0,0,0,.69.63" transform="translate(0)"/><path class="cls-3" d="M59.41,26.69a1.1,1.1,0,0,0-.45-.1c-.37,0-.55.26-.55.76V28h.83v.54h-.83v3.39h-.66V28.52h-.53V28l.53,0v-.62c0-.8.36-1.3,1.15-1.3a1.8,1.8,0,0,1,.65.13Z" transform="translate(0)"/><path class="cls-3" d="M61.39,27.88c1,0,1.57.72,1.57,1.84a2.37,2.37,0,0,1,0,.36H60.28a1.31,1.31,0,0,0,1.31,1.38,1.78,1.78,0,0,0,1-.31l.23.44a2.34,2.34,0,0,1-1.29.4A1.88,1.88,0,0,1,59.63,30a1.9,1.9,0,0,1,1.76-2.07m1,1.77c0-.8-.36-1.24-1-1.24a1.23,1.23,0,0,0-1.13,1.24Z" transform="translate(0)"/><path class="cls-3" d="M67.66,26.51a2,2,0,0,1,1.45.66l-.38.43a1.41,1.41,0,0,0-1.06-.49c-1,0-1.68.83-1.68,2.14s.64,2.17,1.65,2.17a1.55,1.55,0,0,0,1.21-.59l.38.41a2,2,0,0,1-1.61.77c-1.33,0-2.33-1-2.33-2.75s1-2.75,2.37-2.75" transform="translate(0)"/><path class="cls-3" d="M71.67,27.88A1.88,1.88,0,0,1,73.49,30a1.83,1.83,0,1,1-3.64,0,1.88,1.88,0,0,1,1.82-2.07m0,3.57c.68,0,1.13-.61,1.13-1.5s-.45-1.52-1.13-1.52S70.53,29,70.53,30s.46,1.5,1.13,1.5" transform="translate(0)"/><path class="cls-3" d="M74.52,28h.55l.06.57h0a1.73,1.73,0,0,1,1.22-.66,1,1,0,0,1,1.08.75,1.86,1.86,0,0,1,1.29-.75c.81,0,1.2.53,1.2,1.54v2.49h-.66v-2.4c0-.74-.23-1.05-.73-1.05a1.45,1.45,0,0,0-1,.61v2.85h-.66v-2.4c0-.74-.23-1.05-.73-1.05a1.48,1.48,0,0,0-1,.61v2.85h-.66Z" transform="translate(0)"/><path class="cls-3" d="M81.89,32.24v1.33h-.66V28h.55l.06.45h0a2,2,0,0,1,1.25-.55c1,0,1.55.78,1.55,2S83.86,32,83,32a1.83,1.83,0,0,1-1.09-.45Zm1-.79c.65,0,1.12-.59,1.12-1.56s-.29-1.45-1-1.45a1.65,1.65,0,0,0-1.05.53V31a1.55,1.55,0,0,0,1,.41" transform="translate(0)"/><path class="cls-3" d="M87.83,29.42c0-.5-.17-1-.81-1a2.12,2.12,0,0,0-1.17.42l-.27-.46a2.92,2.92,0,0,1,1.54-.51c1,0,1.37.64,1.37,1.62v2.41h-.55l-.06-.47h0a2.14,2.14,0,0,1-1.3.57,1.07,1.07,0,0,1-1.16-1.12c0-.86.74-1.29,2.42-1.47m-1.07,2.05a1.61,1.61,0,0,0,1.07-.53V29.85c-1.32.16-1.76.48-1.76,1a.6.6,0,0,0,.69.63" transform="translate(0)"/><path class="cls-3" d="M89.75,28h.55l.06.57h0a1.85,1.85,0,0,1,1.32-.66c.82,0,1.2.53,1.2,1.54v2.49h-.66v-2.4c0-.74-.23-1.05-.74-1.05s-.68.21-1.07.61v2.85h-.66Z" transform="translate(0)"/><path class="cls-3" d="M94.2,33c.44,0,.73-.36.89-.84l.09-.29L93.6,28h.69l.8,2.18c.12.34.26.74.38,1.11h0c.11-.36.23-.76.33-1.11l.7-2.18h.65l-1.48,4.25c-.28.78-.68,1.37-1.47,1.37a1.3,1.3,0,0,1-.46-.08L93.9,33a1.12,1.12,0,0,0,.3.06" transform="translate(0)"/><path class="cls-3" d="M22.4,9.41q0-.65-.61-.67H19.68a.74.74,0,0,0-.77.82v3.79a.76.76,0,0,0,.85.82h1.93a.64.64,0,0,0,.5-.23.54.54,0,0,0,.21-.44Zm-6.2-.54a3.39,3.39,0,0,1,.63-2.16,2.73,2.73,0,0,1,.81-.52,2.39,2.39,0,0,1,1-.23H22.5q2.56,0,2.6,2.8v5.71a2.36,2.36,0,0,1-.77,1.71,2.48,2.48,0,0,1-1.77.77H18.91v4.12H16.2Z" transform="translate(0)"/><path class="cls-3" d="M30,13.62a.43.43,0,0,0,.22.38.7.7,0,0,0,.49.17h2.08c.47,0,.71-.18.73-.55v-.78c0-.42-.25-.64-.75-.64H30.7a.92.92,0,0,0-.56.13.88.88,0,0,0-.14.59Zm3.52-4.28c0-.42-.23-.61-.73-.6H27.33V6h6.14q2.68,0,2.73,2.6v5.82a2.7,2.7,0,0,1-.68,1.83,2.29,2.29,0,0,1-1.77.75H30q-2.71,0-2.75-2.48V12.23a2.35,2.35,0,0,1,2.62-2.61h3.6Z" transform="translate(0)"/><path class="cls-3" d="M43.8,18.29a.88.88,0,0,0,.55-.23.59.59,0,0,0,.22-.45V17H41.1A2.81,2.81,0,0,1,40,16.78a2.48,2.48,0,0,1-.85-.57,2.76,2.76,0,0,1-.58-.92,2.88,2.88,0,0,1-.19-1.11V6H41.1v7.33c0,.59.24.88.73.88h1.91a.84.84,0,0,0,.59-.23.57.57,0,0,0,.24-.46V6h2.68V18.08a3.4,3.4,0,0,1-.69,2.16,2.33,2.33,0,0,1-1.85.84H38.39V18.29Z" transform="translate(0)"/><path class="cls-3" d="M49.38,14.17H54.2c.44,0,.67-.19.68-.53v-.25a.56.56,0,0,0-.06-.24c-.11-.21-.24-.31-.4-.31H52a2.67,2.67,0,0,1-1.82-.73,2.09,2.09,0,0,1-.79-1.6V8.43Q49.46,6,52.05,6h5.6V8.74H52.91c-.56,0-.84.17-.84.51v.27q0,.53.86.53h2.38a2.24,2.24,0,0,1,1.63.73,2.47,2.47,0,0,1,.71,1.71v2a2.69,2.69,0,0,1-.79,1.71,2.17,2.17,0,0,1-.75.58A3.08,3.08,0,0,1,55,17H49.38Z" transform="translate(0)"/><path class="cls-3" d="M62.28,13.62a.43.43,0,0,0,.22.38.7.7,0,0,0,.49.17h2.08c.47,0,.71-.18.73-.55v-.78c0-.42-.25-.64-.75-.64H63a.91.91,0,0,0-.56.13.88.88,0,0,0-.15.59ZM65.8,9.34c0-.42-.23-.61-.73-.6H59.62V6h6.14q2.68,0,2.72,2.6v5.82a2.7,2.7,0,0,1-.68,1.83A2.28,2.28,0,0,1,66,17H62.32q-2.71,0-2.75-2.48V12.23A2.35,2.35,0,0,1,62.2,9.62h3.6Z" transform="translate(0)"/><path class="cls-3" d="M70.68,4.39a2.31,2.31,0,0,1,.84-1.81,3.12,3.12,0,0,1,2.07-.71h1.72V4.56h-1c-.57,0-.87.29-.88.82V6h1.92V8.75H73.39V17H70.68Z" transform="translate(0)"/><path class="cls-3" d="M83,9.29V9.23a.43.43,0,0,0-.18-.36.79.79,0,0,0-.46-.13H80.48a.84.84,0,0,0-.59.21.59.59,0,0,0-.28.5v1.12Zm-3.35,3.93v.17a.75.75,0,0,0,.17.53.39.39,0,0,0,.35.25h5.56V17H79.83a4.08,4.08,0,0,1-1.26-.15,2.29,2.29,0,0,1-.87-.53,2.32,2.32,0,0,1-.6-.9,4,4,0,0,1-.17-1.28l0-5.57A2.35,2.35,0,0,1,79.55,6H83.2a2.36,2.36,0,0,1,2.57,2.66v2.2Z" transform="translate(0)"/><path class="cls-3" d="M91.49,17a5.57,5.57,0,0,1-1.12-.11,2.4,2.4,0,0,1-1.07-.5,2.57,2.57,0,0,1-.77-1.09,3.77,3.77,0,0,1-.22-1.34V8.73a3.39,3.39,0,0,1,.13-1.12A2.33,2.33,0,0,1,89,6.66,2.48,2.48,0,0,1,90,6a4.75,4.75,0,0,1,1.16-.13h4.15v.65H91.28A2.86,2.86,0,0,0,89.59,7,2,2,0,0,0,89,8.64v5.19a3.43,3.43,0,0,0,.17,1.06,1.87,1.87,0,0,0,1.45,1.31,4.45,4.45,0,0,0,1,.1H95.4V17Z" transform="translate(0)"/><path class="cls-3" d="M106,10.22h-5.44a2.08,2.08,0,0,0-1.53.6,2.24,2.24,0,0,0-.57,1.62V14.1a3.49,3.49,0,0,0,.1.88,1.36,1.36,0,0,0,.51.74,2.39,2.39,0,0,0,1.56.58h3.3A1.89,1.89,0,0,0,106,14.12Zm.65,3.74a6.84,6.84,0,0,1-.09,1.11,2.5,2.5,0,0,1-.54,1,2.72,2.72,0,0,1-2.11.88h-3.23a2.86,2.86,0,0,1-2-.75,2.66,2.66,0,0,1-.81-2.06V12.47a2.59,2.59,0,0,1,2.82-2.9H106V8.84a2.53,2.53,0,0,0-.52-1.59,1.64,1.64,0,0,0-.78-.59,4,4,0,0,0-1-.12H97.84V5.89h5.57A8.28,8.28,0,0,1,104.8,6a1.59,1.59,0,0,1,.59.25,1.92,1.92,0,0,1,.53.5A3.46,3.46,0,0,1,106.65,9Z" transform="translate(0)"/><path class="cls-3" d="M112.74,6.54c-1.51,0-2.25.85-2.22,2.47V17h-.65V9q0-3.13,3-3.12h.72v.65Z" transform="translate(0)"/><path class="cls-3" d="M123.7,6.54h-5.13a3.94,3.94,0,0,0-1,.12,1.76,1.76,0,0,0-.9.57,1.94,1.94,0,0,0-.51.84,2.83,2.83,0,0,0-.12,1v5.06a1.87,1.87,0,0,0,.74,1.72,3,3,0,0,0,.81.32,3.87,3.87,0,0,0,1,.12h2.24a3.37,3.37,0,0,0,2-.58,2.19,2.19,0,0,0,.82-1.89Zm.65,7.34Q124.26,17,121,17h-2.4a6.67,6.67,0,0,1-1.36-.13,2.58,2.58,0,0,1-1.19-.75,2.49,2.49,0,0,1-.54-1.08,4.06,4.06,0,0,1-.13-1.21V9.06q0-3.19,3.22-3.17h5.09V2.31h.65Z" transform="translate(0)"/><path class="cls-4" d="M1.16,5.54a3.31,3.31,0,0,1,.64-.21,4.11,4.11,0,0,1,8.05,0,3,3,0,0,1,1.5.73,6.07,6.07,0,0,0,0-1,5.52,5.52,0,0,0-11,.26c0,.25,0,.52,0,.8a3.49,3.49,0,0,1,.87-.54" transform="translate(0)"/><path class="cls-4" d="M9,6H2.43a2.41,2.41,0,0,0-1,.23,2.69,2.69,0,0,0-.81.52A3.38,3.38,0,0,0,0,8.87V14A3.37,3.37,0,0,0,.64,16.2a2.7,2.7,0,0,0,.81.53,2.46,2.46,0,0,0,1,.22H9q2.56,0,2.6-2.81V8.77Q11.61,6,9,6" transform="translate(0)"/></g></g></g></svg>