<svg xmlns="http://www.w3.org/2000/svg" xmlns:xlink="http://www.w3.org/1999/xlink" viewBox="0 0 143.33 24.72"><defs><style>.cls-1{fill:none;}.cls-2{clip-path:url(#clip-path);}.cls-3{fill:#999;}.cls-4{fill:#ccc;}</style><clipPath id="clip-path" transform="translate(-1.21 -0.88)"><rect class="cls-1" width="146.52" height="26.54"/></clipPath></defs><title>Element 16</title><g id="Ebene_2" data-name="Ebene 2"><g id="Ebene_1-2" data-name="Ebene 1"><g class="cls-2"><path class="cls-3" d="M133.6,11c.19-.9.38-1.78.57-2.67l1-4.38c0-.07,0-.15,0-.22.07-.26,0-.39-.3-.39-1.5,0-3,0-4.49,0-.34,0-.4.19-.45.46-.32,1.5-.66,3-1,4.5-.17.76-.33,1.52-.49,2.28-.05.27-.15.42-.47.41-.73,0-1.47,0-2.25,0l.72-3.39c.44-2.05.88-4.11,1.32-6.16.15-.69.09-.56.68-.56h9.44a1.06,1.06,0,0,1,.48,0,7.58,7.58,0,0,1-.26,1.37c-.41,1.93-.84,3.85-1.26,5.77-.1.48-.09.51.43.51h7.2c.12.15.05.28,0,.41q-.92,4.45-1.86,8.9c-.1.48,0,.48-.63.48h-6.65c-.61,0-.61,0-.73.59-.45,2.08-.9,4.15-1.33,6.22-.06.3-.18.41-.48.4h-8l-.2,0c.07-.76.3-1.48.43-2.22,0-.23.18-.25.37-.25h4.95c.62,0,.63,0,.76-.58.43-1.94.83-3.88,1.27-5.82.21-.93,0-.8,1-.81h6.37c.6,0,.6,0,.73-.6l.75-3.44c.16-.74.16-.74-.58-.74h-6.48a1.48,1.48,0,0,1-.6-.06" transform="translate(-1.21 -0.88)"/><path class="cls-4" d="M5.1,18.4A16,16,0,0,0,4.72,20c-.15.54,0,.48-.57.48H1.61a.62.62,0,0,1-.4-.06c0-.67.31-1.3.35-2,.3-1,.46-2,.68-3Q3.34,10.18,4.43,5c0-.11.06-.22.08-.33s.12-.22.27-.22H5c1.48,0,3,0,4.43,0a6.43,6.43,0,0,1,2.33.46,4.38,4.38,0,0,1,2.9,4,6.61,6.61,0,0,1-.15,2,5.53,5.53,0,0,1-4,4.25,9.61,9.61,0,0,1-2.85.46H6c-.2,0-.32.06-.36.27-.16.85-.41,1.69-.51,2.56m1.21-5.78a13.16,13.16,0,0,0,2.28-.06,2.83,2.83,0,0,0,2.54-3.09,1.86,1.86,0,0,0-2-2.07c-.45,0-.91,0-1.36,0-.29,0-.39.1-.45.37-.2,1-.42,2-.63,3a16.41,16.41,0,0,0-.36,1.87" transform="translate(-1.21 -0.88)"/><path class="cls-4" d="M25,18.35l-.44.44a6.59,6.59,0,0,1-6.84,1.74,4.55,4.55,0,0,1-2.68-2.16,7.4,7.4,0,0,1,1.53-8,6.5,6.5,0,0,1,7-1.72,4.39,4.39,0,0,1,3,3.66,7.89,7.89,0,0,1-1.21,5.48l-.36.58m-1.82-4.87c0-.22,0-.41,0-.6a2,2,0,0,0-2.74-1.73,2.32,2.32,0,0,0-1.16.79,5.77,5.77,0,0,0-1.2,4.48A1.94,1.94,0,0,0,20.62,18a2.78,2.78,0,0,0,1.73-1.46,7,7,0,0,0,.84-3.07" transform="translate(-1.21 -0.88)"/><path class="cls-4" d="M65.55,18.38c-.14.59-.28,1.18-.4,1.77,0,.21-.12.33-.37.33H61.67l.39-2.06c.33-1.2.55-2.44.82-3.66.42-1.88.82-3.77,1.23-5.66.1-.44.1-.45.55-.45h2.63c.13.41-.18.76-.07,1.14.23,0,.35-.22.51-.35a5,5,0,0,1,3.42-1.15,3.25,3.25,0,0,1,3.33,3.25,7.41,7.41,0,0,1-.16,2c-.33,1.61-.74,3.21-1,4.83-.19.55-.27,1.13-.4,1.7-.1.42-.1.42-.5.42h-3c.05-.72.3-1.37.37-2.05.42-1.74.77-3.5,1.12-5.26a2.16,2.16,0,0,0,0-.51,1.36,1.36,0,0,0-1.35-1.46,2.41,2.41,0,0,0-2.16.9,4.41,4.41,0,0,0-.91,1.87c-.36,1.47-.68,2.94-1,4.43" transform="translate(-1.21 -0.88)"/><path class="cls-4" d="M120.45,18.39a11.57,11.57,0,0,0-.38,1.59.49.49,0,0,1-.37.44,10.27,10.27,0,0,1-4.82.22,4.74,4.74,0,0,1-3.15-2.12,1.69,1.69,0,0,0-.14-.17,6.6,6.6,0,0,1-.59-3.26,7.12,7.12,0,0,1,3.49-6,6.39,6.39,0,0,1,4.73-.69,4,4,0,0,1,3.22,3.16,7.56,7.56,0,0,1-.2,3.93.32.32,0,0,1-.37.27h-6.94a1.18,1.18,0,0,0-.61.06A2.06,2.06,0,0,0,116,18a6.18,6.18,0,0,0,2.48.07,9.09,9.09,0,0,0,1.66-.39l.43-.11c.1.32-.13.58-.07.86M117,13.48h2.1c.15,0,.31,0,.34-.2.23-1.68-.81-2.6-2.16-2.42a3.18,3.18,0,0,0-2.54,2.24c-.14.34-.12.37.28.37h2" transform="translate(-1.21 -0.88)"/><path class="cls-4" d="M91.06,18.38a14.06,14.06,0,0,0-.42,1.75c0,.2-.09.34-.35.34H87.21c0-.73.31-1.37.34-2.06.3-1,.46-2,.69-3q.7-3.16,1.36-6.33c.06-.3.17-.41.48-.41.9,0,1.81,0,2.71,0,.09.42-.17.75-.11,1.13.22,0,.32-.18.45-.29a5,5,0,0,1,3.52-1.2A3.25,3.25,0,0,1,100,11.56,9.09,9.09,0,0,1,99.7,14q-.43,1.91-.84,3.83c0,.16,0,.34-.07.5a11.17,11.17,0,0,0-.4,1.7c-.06.29-.16.41-.48.41-1,0-2,0-3,0l.38-2.05c.27-1.25.55-2.51.82-3.76a10.27,10.27,0,0,0,.33-1.84,1.45,1.45,0,0,0-1.68-1.65l-.28,0a2.57,2.57,0,0,0-1.72,1.1,4,4,0,0,0-.62,1.27c-.43,1.58-.77,3.19-1.06,4.81" transform="translate(-1.21 -0.88)"/><path class="cls-4" d="M85.51,18.38a14.53,14.53,0,0,0-.44,1.81c0,.17-.09.28-.28.28H82l.19-1.05c-.15,0-.23.14-.33.22a4.69,4.69,0,0,1-4.47.92,3,3,0,0,1-2.09-1.91,2.66,2.66,0,0,0-.12-.25,9.14,9.14,0,0,1,0-1.47,3.69,3.69,0,0,1,1.52-2.62,6.6,6.6,0,0,1,3.06-1.11,12.77,12.77,0,0,1,3.06,0c.5,0,.54,0,.57-.51a1.33,1.33,0,0,0-1.12-1.54,7.2,7.2,0,0,0-3.1,0c-.57.11-1.14.25-1.7.38-.13-.13,0-.26,0-.38.13-.65.26-1.3.39-1.95,0-.23.13-.41.4-.47a12.68,12.68,0,0,1,5.29-.25,5.63,5.63,0,0,1,.76.21A3.32,3.32,0,0,1,86.65,12a14.82,14.82,0,0,1-.51,3.24c-.2,1-.51,2.06-.64,3.11m-5.7-.06a3.13,3.13,0,0,0,3-2.71c0-.28-.11-.32-.32-.34a10.69,10.69,0,0,0-2.21,0,2.61,2.61,0,0,0-1.35.54,1.61,1.61,0,0,0-.51,1.74c.18.52.64.78,1.37.78h.06" transform="translate(-1.21 -0.88)"/><path class="cls-4" d="M49.34,18.4A9.67,9.67,0,0,0,49,20c-.06.31-.16.44-.51.43-1,0-2,0-3.06,0l.39-2.06q.7-3.27,1.4-6.55.75-3.5,1.48-7c.09-.42.1-.42.51-.42h8.13a.5.5,0,0,1,.36.09c-.06.64-.27,1.27-.39,1.91-.06.33-.07.76-.27,1s-.69.08-1,.08c-1.31,0-2.61,0-3.92,0-.21,0-.41,0-.47.27-.21,1.12-.45,2.23-.67,3.34,0,0,0,.07,0,.17h5c-.14.71-.26,1.36-.4,2-.07.33,0,.76-.26,1s-.69.07-1,.08H50.72c-.53,0-.54,0-.65.54-.24,1.19-.56,2.35-.73,3.56" transform="translate(-1.21 -0.88)"/><path class="cls-4" d="M35.41,18.36a4.59,4.59,0,0,1-3.57,2.2,13.56,13.56,0,0,1-5-.27c-.27-.06-.38-.13-.3-.45a6.51,6.51,0,0,0,.27-1.44l0,0c.14-.24,0-.67.28-.76s.54.09.82.16a10.1,10.1,0,0,0,2.81.32,3.23,3.23,0,0,0,1.11-.21.94.94,0,0,0,.67-.77.88.88,0,0,0-.47-.9,6.57,6.57,0,0,0-.75-.39L30,15.24c-2.71-1.22-2.26-4.75-.29-5.94a6.24,6.24,0,0,1,2.73-.86,11.77,11.77,0,0,1,3.89.3c.42.11.44.12.35.53-.13.65-.29,1.29-.41,1.94-.05.29-.18.33-.43.26A10.62,10.62,0,0,0,33.41,11a4.17,4.17,0,0,0-1.3.09c-.4.11-.74.3-.8.77a.91.91,0,0,0,.53.92,7.83,7.83,0,0,0,.76.38c.4.18.8.34,1.19.53,1.44.7,2.26,1.86,1.8,4,0,.22-.13.44-.2.65" transform="translate(-1.21 -0.88)"/><path class="cls-4" d="M43.92,18.37A14.42,14.42,0,0,0,43.54,20a.43.43,0,0,1-.35.39,7.4,7.4,0,0,1-3.53.1,3.15,3.15,0,0,1-2.38-2.12,6.77,6.77,0,0,1,.19-2.8q1-4.48,2-9c.07-.34.19-.52.55-.59.91-.17,1.81-.39,2.72-.59l.39-.07L42.4,8.63H46c-.17.83-.33,1.59-.48,2.35,0,.25-.21.27-.42.27H42.29c-.47,0-.47,0-.58.48q-.49,2.28-1,4.55c-.26,1.21.15,1.71,1.39,1.71a10.06,10.06,0,0,0,1.79-.24c.15.22,0,.41,0,.61" transform="translate(-1.21 -0.88)"/><path class="cls-4" d="M109.3,18.39a8.48,8.48,0,0,0-.36,1.48.58.58,0,0,1-.45.5,7.44,7.44,0,0,1-4.41,0,4.22,4.22,0,0,1-2.27-1.69c-.07-.11-.16-.21-.24-.31A7.7,7.7,0,0,1,101,15a6.82,6.82,0,0,1,6.8-6.63,9.9,9.9,0,0,1,2.91.44c.28.08.37.2.3.48-.16.68-.31,1.37-.44,2.05,0,.26-.15.3-.38.22a8.22,8.22,0,0,0-1.31-.35,3.65,3.65,0,0,0-4.34,3.23,4.75,4.75,0,0,0,0,1.58,2.06,2.06,0,0,0,1.84,1.8,6.08,6.08,0,0,0,2.63-.26.8.8,0,0,1,.39-.08c.13.3-.13.58-.07.87" transform="translate(-1.21 -0.88)"/><path class="cls-4" d="M59.81,18.39a10.61,10.61,0,0,0-.36,1.48c-.19.71,0,.59-.71.59-.89,0-1.78,0-2.67,0a.46.46,0,0,1-.13,0l.39-2,1.42-6.48c.21-1,.44-2,.63-2.94.06-.28.18-.36.45-.36.87,0,1.74,0,2.61,0,.4,0,.41,0,.32.42-.56,2.61-1.12,5.21-1.68,7.82a9,9,0,0,0-.29,1.5" transform="translate(-1.21 -0.88)"/><path class="cls-4" d="M61,3.46a1.72,1.72,0,0,1,1.8,1.77,2,2,0,0,1-2,2.05A1.72,1.72,0,0,1,59,5.51a2,2,0,0,1,2-2.05" transform="translate(-1.21 -0.88)"/></g></g></g></svg>