<svg xmlns="http://www.w3.org/2000/svg" xmlns:xlink="http://www.w3.org/1999/xlink" viewBox="0 0 79.93 24.79"><defs><style>.cls-1{fill:none;}.cls-2{clip-path:url(#clip-path);}.cls-3{fill:#ccc;}.cls-4{fill:#999;}</style><clipPath id="clip-path" transform="translate(-0.92 -1.13)"><rect class="cls-1" width="81.53" height="27.21"/></clipPath></defs><title>Zasób 20</title><g id="Warstwa_2" data-name="Warstwa 2"><g id="Payment_icons_Germany" data-name="Payment icons Germany"><g class="cls-2"><path class="cls-3" d="M22.87,1.38l-.31.21A11.43,11.43,0,0,0,19.7,4.45a.35.35,0,0,1-.33.17c-1.61,0-3.22,0-4.84,0a2.79,2.79,0,0,0-.92.17.86.86,0,0,0,.1,1.66c.46.14.93.26,1.39.41a4.83,4.83,0,0,1,.8.34,2.35,2.35,0,0,1,1.28,2.51A6.58,6.58,0,0,1,15.88,13a5.79,5.79,0,0,1-3.46,2.12,10.57,10.57,0,0,1-2.36.24H1c0-.11.05-.19.08-.27.37-1,.75-2,1.11-3.06a.29.29,0,0,1,.34-.23H10.4a7.84,7.84,0,0,0,1.32-.11,1,1,0,0,0,.83-1,.67.67,0,0,0-.42-.7,9.15,9.15,0,0,0-1-.33A5.68,5.68,0,0,1,9.41,9,2.43,2.43,0,0,1,8.35,7.65a2.47,2.47,0,0,1,.06-1.33A8.57,8.57,0,0,1,10.1,2.9a4.14,4.14,0,0,1,2.78-1.45,22.22,22.22,0,0,1,2.28-.1c2.5,0,5,0,7.51,0h.19v0" transform="translate(-0.92 -1.13)"/><path class="cls-3" d="M59.05,10.44l-.09.21q-.84,2.24-1.68,4.48a.27.27,0,0,1-.3.21H52.92c0-.09,0-.16.07-.23L57.92,1.55a.26.26,0,0,1,.29-.2c1.71,0,3.43,0,5.14,0a5.45,5.45,0,0,1,2.27.48,2.37,2.37,0,0,1,1.43,1.76,3.83,3.83,0,0,1-.21,1.9,5.79,5.79,0,0,1-3,3.37c-.33.17-.67.31-1,.48A13.66,13.66,0,0,1,64,12.3c.28,1,.55,2,.83,3H60.55c-.21,0-.29-.07-.33-.26-.34-1.47-.7-2.94-1-4.41,0-.07,0-.15-.06-.22h0m.51-2.81c.4,0,.75,0,1.1,0a2.29,2.29,0,0,0,1.92-1.1,4.88,4.88,0,0,0,.49-1.14.78.78,0,0,0-.68-1.1A13,13,0,0,0,61,4.2a.25.25,0,0,0-.29.2c-.33.92-.68,1.83-1,2.74l-.18.49" transform="translate(-0.92 -1.13)"/><path class="cls-3" d="M45.74,15.59A5.17,5.17,0,0,1,43,14.87a3.33,3.33,0,0,1-1.5-2.36A7.31,7.31,0,0,1,41.87,9a13.4,13.4,0,0,1,2.67-4.83A8.5,8.5,0,0,1,49,1.35a6.21,6.21,0,0,1,3.72.13,3.2,3.2,0,0,1,2.12,2.68,7.28,7.28,0,0,1-.41,3.49,15.24,15.24,0,0,1-2.6,4.94,7.62,7.62,0,0,1-4.65,2.84c-.46.08-.93.1-1.4.15m1-3.17a2,2,0,0,0,1.57-.66,4.89,4.89,0,0,0,.62-.82,17.67,17.67,0,0,0,1.73-4.31,6,6,0,0,0,.2-1.35.89.89,0,0,0-.81-1,2.13,2.13,0,0,0-1.66.41,4.65,4.65,0,0,0-1.17,1.35,14.38,14.38,0,0,0-1.47,3.53,5.58,5.58,0,0,0-.28,1.7,1,1,0,0,0,.9,1.1,2.9,2.9,0,0,0,.36,0" transform="translate(-0.92 -1.13)"/><path class="cls-3" d="M22.08,15.56A4.7,4.7,0,0,1,20,15a3.32,3.32,0,0,1-1.8-2.65,7.91,7.91,0,0,1,.52-3.74,12.9,12.9,0,0,1,3.24-5.2,8,8,0,0,1,4.16-2.19,5.81,5.81,0,0,1,3.58.33,3.24,3.24,0,0,1,1.86,2.72,7.59,7.59,0,0,1-.45,3.39,15.78,15.78,0,0,1-2.27,4.49,8.13,8.13,0,0,1-4,3,8.49,8.49,0,0,1-2.79.37M27.56,5.43c0-.07,0-.13,0-.2a.89.89,0,0,0-.8-.93,2.11,2.11,0,0,0-1.61.37A4.51,4.51,0,0,0,23.93,6a14.4,14.4,0,0,0-1.54,3.76,4.43,4.43,0,0,0-.21,1.69,1,1,0,0,0,.74.88,2,2,0,0,0,1.89-.44,4.71,4.71,0,0,0,.82-1,17.13,17.13,0,0,0,1.6-3.83,5.66,5.66,0,0,0,.33-1.68" transform="translate(-0.92 -1.13)"/><path class="cls-3" d="M36.79,6.93h3.74l-.2.57c-.26.7-.52,1.4-.76,2.11a.28.28,0,0,1-.31.23H35.94a.28.28,0,0,0-.32.23c-.61,1.7-1.23,3.39-1.84,5.08a.25.25,0,0,1-.29.2h-4c0-.08,0-.14.06-.2,1.28-3.51,2.54-7,3.84-10.52a4.6,4.6,0,0,1,3.36-3.1,6.86,6.86,0,0,1,1.54-.17c2.59,0,5.18,0,7.77,0h.14l0,0-.2.13a11.82,11.82,0,0,0-3.21,3,.37.37,0,0,1-.27.11H38.45a1,1,0,0,0-1.13.79L36.86,6.7c0,.06,0,.13-.07.23" transform="translate(-0.92 -1.13)"/><path class="cls-3" d="M80.86,1.36l-.32.89C80.28,3,80,3.7,79.75,4.43a.25.25,0,0,1-.28.19H75a.37.37,0,0,0-.42.29Q72.71,10,70.84,15.13a.27.27,0,0,1-.3.21H66.92L70.81,4.65l-.28,0h-2.1c-.16,0-.21-.06-.2-.21a3.47,3.47,0,0,0-1.18-3l0,0Z" transform="translate(-0.92 -1.13)"/><path class="cls-4" d="M33,21l-.12.18c-.82,1.36-1.65,2.72-2.46,4.09a.88.88,0,0,1-.84.48c-.32,0-.63,0-.95,0s-.31-.09-.29-.36c.07-.7.15-1.39.22-2.09q.17-1.67.35-3.34c0-.29.07-.58.1-.86a.33.33,0,0,1,.36-.32h.93c.15,0,.21.07.19.23q-.26,1.92-.52,3.85c-.06.48-.13,1-.15,1.46l.12-.19c1-1.64,2-3.27,3-4.92a.74.74,0,0,1,.71-.44h.75c.19,0,.26.1.24.29-.1.85-.2,1.7-.3,2.55L34,24.2s0,.09,0,.19l.13-.2q1.51-2.54,3-5.08a.56.56,0,0,1,.52-.32h.73c.17,0,.22.09.14.24s-.15.27-.23.4l-3.7,5.89a.8.8,0,0,1-.68.44c-.35,0-.7,0-1.05,0s-.36-.09-.32-.4c.07-.66.15-1.31.22-2L33,21.05h0" transform="translate(-0.92 -1.13)"/><path class="cls-4" d="M63.43,20.41l-.07.2c-.58,1.63-1.16,3.26-1.75,4.88a.39.39,0,0,1-.24.23,4.16,4.16,0,0,1-.84,0c-.21,0-.23-.08-.16-.28l1-2.62,1.24-3.42a.79.79,0,0,1,.92-.64c.24,0,.47,0,.71,0s.49.13.55.48c.12.61.22,1.22.32,1.83.14.88.27,1.77.41,2.68l.07-.19c.54-1.5,1.08-3,1.61-4.51a.4.4,0,0,1,.37-.29,5.19,5.19,0,0,1,.73,0c.2,0,.24.09.17.29l-2.24,6.15a.73.73,0,0,1-.73.53h-.69a.49.49,0,0,1-.54-.46c-.08-.37-.14-.74-.2-1.11-.16-1-.32-1.93-.47-2.89,0-.29-.06-.58-.08-.86l0,0" transform="translate(-0.92 -1.13)"/><path class="cls-4" d="M13,22c.45.12.77.34.84.79a1.72,1.72,0,0,1-.05.74,3,3,0,0,1-2.36,2.09,5.6,5.6,0,0,1-1.12.13c-.61,0-1.21,0-1.82,0-.4,0-.48-.12-.35-.49l1.63-4.48.55-1.5a.63.63,0,0,1,.7-.48c.74,0,1.48,0,2.22,0A2.29,2.29,0,0,1,14,19a1,1,0,0,1,.61,1.16,2.32,2.32,0,0,1-1.39,1.75L13,22M9.72,24.66a11.83,11.83,0,0,0,1.4,0,1.35,1.35,0,0,0,1.15-1,.66.66,0,0,0-.65-1c-.35,0-.7,0-1,0-.12,0-.16.06-.2.15L10,24l-.24.66m1.09-3h.92A1.39,1.39,0,0,0,13,20.56a.51.51,0,0,0-.47-.68,8.57,8.57,0,0,0-1,0,.24.24,0,0,0-.16.14c-.09.22-.17.44-.25.66l-.37,1" transform="translate(-0.92 -1.13)"/><path class="cls-4" d="M73.26,22.87H72.07c-.23,0-.26,0-.22-.26,0,0,0-.07,0-.1.18-.64.26-.7.92-.7h1.76c.35,0,.45.12.33.45q-.5,1.4-1,2.79a.65.65,0,0,1-.4.43,6.18,6.18,0,0,1-3.14.32,1.88,1.88,0,0,1-1.67-2.3A5.44,5.44,0,0,1,72.07,19a4.57,4.57,0,0,1,3.13-.15,2.72,2.72,0,0,1,.51.24.31.31,0,0,1,.16.39,8.24,8.24,0,0,1-.3.79.2.2,0,0,1-.33.08,3,3,0,0,0-4.35.93,4.28,4.28,0,0,0-.71,1.83,1.27,1.27,0,0,0,1.21,1.56,2.26,2.26,0,0,0,1.15-.15c.06,0,.14-.06.15-.11.19-.51.38-1,.58-1.57" transform="translate(-0.92 -1.13)"/><path class="cls-4" d="M25.12,22.53a1.32,1.32,0,0,1,.52,1.13c0,.54.08,1.08.1,1.61s-.07.48-.46.51-.52,0-.79,0-.29-.07-.29-.29c0-.63,0-1.27-.1-1.9s-.27-.67-.75-.68-.42,0-.56.38c-.27.73-.53,1.45-.79,2.18a.36.36,0,0,1-.33.28q-.47,0-.94,0c-.16,0-.2-.09-.14-.25l2.27-6.24a.62.62,0,0,1,.62-.46c.8,0,1.6,0,2.4,0a2,2,0,0,1,.57.12,1.08,1.08,0,0,1,.78,1.38,2.81,2.81,0,0,1-1.84,2.09l-.27.1m-1.8-.64a10,10,0,0,0,1.19-.08,1.44,1.44,0,0,0,1.18-1.22c0-.38-.09-.61-.47-.66s-.68,0-1-.05c-.12,0-.18,0-.22.15-.2.55-.4,1.1-.6,1.65,0,.05,0,.11-.06.22" transform="translate(-0.92 -1.13)"/><path class="cls-4" d="M55.33,25.9c-.3,0-.61-.05-.9-.12A1.38,1.38,0,0,1,53.27,24a11.44,11.44,0,0,1,.46-1.5c.4-1.14.83-2.28,1.24-3.42a.41.41,0,0,1,.4-.31,7.47,7.47,0,0,1,.81,0c.26,0,.29.08.2.32-.47,1.3-1,2.59-1.41,3.89a3.28,3.28,0,0,0-.19.9.73.73,0,0,0,.66.79,1.9,1.9,0,0,0,1.7-.5,2.67,2.67,0,0,0,.69-1.1c.48-1.33,1-2.65,1.45-4a.4.4,0,0,1,.38-.31,8,8,0,0,1,.85,0c.21,0,.25.09.18.28-.51,1.4-1,2.8-1.54,4.19a3.91,3.91,0,0,1-3.8,2.64" transform="translate(-0.92 -1.13)"/><path class="cls-4" d="M3,25.91a9.87,9.87,0,0,1-1-.17,1.33,1.33,0,0,1-1-1.56,5,5,0,0,1,.23-1c.49-1.37,1-2.73,1.49-4.1A.39.39,0,0,1,3,18.81a8.09,8.09,0,0,1,.87,0c.22,0,.25.08.17.3-.48,1.32-1,2.63-1.43,4a3.09,3.09,0,0,0-.18.8.77.77,0,0,0,.71.85,2,2,0,0,0,2.2-1.28c.27-.63.49-1.28.72-1.93q.44-1.19.87-2.39a.37.37,0,0,1,.34-.3c.3,0,.61,0,.91,0,.15,0,.23.08.16.26-.52,1.4-1,2.81-1.55,4.21A3.93,3.93,0,0,1,3,25.91" transform="translate(-0.92 -1.13)"/><path class="cls-4" d="M17.54,21.62h2c.21,0,.25.05.2.26,0,.05,0,.1,0,.16-.2.62-.23.65-.87.65H17.32c-.07,0-.17,0-.19.09-.24.62-.46,1.24-.69,1.88h2.4c.19,0,.26.07.21.24a4.12,4.12,0,0,1-.27.69.39.39,0,0,1-.29.16H15.09c-.32,0-.4-.13-.29-.44.39-1.08.79-2.16,1.18-3.24l1-2.73a.66.66,0,0,1,.77-.53h3.18c.24,0,.27,0,.22.28l0,.12c-.2.67-.24.7-.93.7H18.36a.23.23,0,0,0-.26.19c-.17.5-.36,1-.56,1.55" transform="translate(-0.92 -1.13)"/><path class="cls-4" d="M39.35,24.66h2.38c.2,0,.24.05.2.24a1.64,1.64,0,0,1-.06.19c-.21.63-.23.65-.89.65H38c-.35,0-.44-.12-.32-.45l2.2-6a.62.62,0,0,1,.68-.46h3.26c.22,0,.26.05.21.27,0,.05,0,.1,0,.16-.2.63-.24.67-.9.67H41.23c-.1,0-.18,0-.22.12-.18.51-.37,1-.55,1.52a.32.32,0,0,0,0,.08h2c.22,0,.26,0,.21.26a1.49,1.49,0,0,1-.05.19c-.19.57-.22.6-.82.6H40.21c-.07,0-.18,0-.2.1-.23.6-.44,1.2-.66,1.8a.29.29,0,0,0,0,.08" transform="translate(-0.92 -1.13)"/><path class="cls-4" d="M48.37,25.86A2.59,2.59,0,0,1,47,25.59c-.35-.18-.4-.29-.27-.66A4,4,0,0,1,47,24.4c.12-.25.24-.27.46-.1a2.1,2.1,0,0,0,1.81.4,1.3,1.3,0,0,0,1-.84.53.53,0,0,0-.15-.64,4.33,4.33,0,0,0-.53-.36c-.23-.14-.47-.26-.69-.41A1.23,1.23,0,0,1,48.33,21a3.24,3.24,0,0,1,4.21-2.13c.41.17.45.26.31.67a4.52,4.52,0,0,1-.18.47c-.12.25-.21.27-.44.12a1.83,1.83,0,0,0-1.43-.34,1.14,1.14,0,0,0-.86.66.57.57,0,0,0,.19.77c.18.13.38.23.57.35s.42.23.61.36a1.22,1.22,0,0,1,.54,1.46,3.28,3.28,0,0,1-2.6,2.38,2.71,2.71,0,0,1-.44.07c-.14,0-.28,0-.42,0" transform="translate(-0.92 -1.13)"/><path class="cls-4" d="M44.07,25.8l-.43,0c-.18,0-.22-.11-.16-.28.24-.64.47-1.28.7-1.92.54-1.48,1.08-3,1.61-4.44a.42.42,0,0,1,.39-.32,7.59,7.59,0,0,1,.83,0c.25,0,.28.08.19.31l-2.31,6.36a.38.38,0,0,1-.33.28l-.49.05" transform="translate(-0.92 -1.13)"/><path class="cls-4" d="M5.09,16.85c.58,0,.68.14.51.63s-.55.78-1.27.65a.23.23,0,0,1-.21-.31,3.09,3.09,0,0,1,.31-.71.74.74,0,0,1,.66-.26" transform="translate(-0.92 -1.13)"/><path class="cls-4" d="M7.44,16.85c.58,0,.69.15.52.63s-.55.78-1.28.65a.23.23,0,0,1-.21-.31,3,3,0,0,1,.25-.65.74.74,0,0,1,.71-.32" transform="translate(-0.92 -1.13)"/></g></g></g></svg>