<svg xmlns="http://www.w3.org/2000/svg" xmlns:xlink="http://www.w3.org/1999/xlink" viewBox="0 0 32.01 32.01"><defs><style>.cls-1{fill:none;}.cls-2{clip-path:url(#clip-path);}.cls-3{fill:#ccc;}.cls-4{fill:#999;}.cls-5{fill:#fdfdfd;}</style><clipPath id="clip-path" transform="translate(-0.14 -0.4)"><rect class="cls-1" width="32.96" height="33.03"/></clipPath></defs><title>Zasób 23</title><g id="Warstwa_2" data-name="Warstwa 2"><g id="Payment_icons_Germany" data-name="Payment icons Germany"><g class="cls-2"><path class="cls-3" d="M32.15,16.41a16,16,0,1,1-16-16,16,16,0,0,1,16,16" transform="translate(-0.14 -0.4)"/><path class="cls-4" d="M28.63,16.45A12.36,12.36,0,1,1,16.27,4.09,12.36,12.36,0,0,1,28.63,16.45" transform="translate(-0.14 -0.4)"/><path class="cls-4" d="M1.36,13.56l-.09-.08c0-.07,0-.15,0-.22a7.72,7.72,0,0,1,.58-1.9,1.81,1.81,0,0,1,.29-.4.87.87,0,0,1,1.48.39,2.29,2.29,0,0,1,0,1.15c-.1.45-.21.89-.32,1.34a.3.3,0,0,1-.23.05l-1.67-.33m.8-1.83,0,0,0,0,0,.06a0,0,0,0,0,0,0L2,12l0,.12,0,.1,0,.07,0,.09-.08.26c0,.09,0,.15.09.18l1,.26c.08,0,.15,0,.17-.08a1.75,1.75,0,0,0,.07-1.21h0l0,0L3,11.66H3l0,0,0,0a.53.53,0,0,0-.65,0l0,0,0,0,0,0,0,0,0,0" transform="translate(-0.14 -0.4)"/><path class="cls-4" d="M3.83,20.89c0,.71-.27,1.09-.8,1.19a1,1,0,0,1-.87-.36,6.62,6.62,0,0,1-.75-2.24.2.2,0,0,1,.19-.26l1.6-.31c.11,0,.22,0,.24.13a17.88,17.88,0,0,1,.4,1.85m-.44-.39a5.51,5.51,0,0,0-.14-.71c0-.12-.09-.14-.2-.11l-1,.25c-.1,0-.18,0-.15.17a3.43,3.43,0,0,0,.26.78.62.62,0,0,0,.77.38.71.71,0,0,0,.45-.76" transform="translate(-0.14 -0.4)"/><path class="cls-4" d="M1.07,17.43c0-.57,0-1.14,0-1.72,0-.15,0-.22.2-.21H2.78c.18,0,.22.07.22.23,0,.57,0,1.14,0,1.71H1.07" transform="translate(-0.14 -0.4)"/><path class="cls-4" d="M30.1,17.44h-.78c-.13,0-.18,0-.18-.17,0-.53,0-1.05,0-1.58,0-.15.06-.18.2-.18h1.52c.13,0,.21,0,.21.18,0,.53,0,1.05,0,1.58,0,.13-.05.18-.18.18h-.8" transform="translate(-0.14 -0.4)"/><path class="cls-4" d="M8.76,3.71a7.94,7.94,0,0,0,.54,1A.34.34,0,0,1,9,5.21c-.08,0-.11,0-.15-.1L8,3.72a.23.23,0,0,1,0-.28,1,1,0,0,1,1-.28,10.67,10.67,0,0,1,1.25.64,6.08,6.08,0,0,0-.39-.9c-.17-.37-.08-.52.33-.58.14,0,.16.06.19.14l.66,1.64h0l0,.12-.08.05,0,0a.89.89,0,0,1-1.06-.11l0,0-.08,0h0l-.09,0h0L9.52,4h0l-.2-.1h0l-.2-.09,0,0L9,3.73l0,0-.21-.09h0l0,.09" transform="translate(-0.14 -0.4)"/><path class="cls-4" d="M9.37,28.19c-.26.44-.49.8-.69,1.18s-.28.14-.42.05-.33-.14-.15-.39c.29-.41.55-.83.81-1.26.12-.2.25-.21.46-.12a.8.8,0,0,1,.53.76,11.66,11.66,0,0,0,.21,1.26c.19-.41.36-.75.5-1.1s.23-.17.4-.11.24.14.16.33c-.19.45-.38.91-.54,1.37-.09.25-.22.29-.46.21a.8.8,0,0,1-.62-.72c-.06-.46-.15-.92-.17-1.46" transform="translate(-0.14 -0.4)"/><path class="cls-4" d="M24.52,28.09a2.42,2.42,0,0,1,1,.19c.2,0,.12.17,0,.26a.57.57,0,0,1-.77.16,1,1,0,0,0-.87,0c-.12,0-.18.13-.08.25a2.1,2.1,0,0,1,.12.19c.23.37.2.48-.2.64a.19.19,0,0,1-.27-.1c-.26-.5-.52-1-.79-1.48-.07-.12-.08-.24.05-.31a11.31,11.31,0,0,1,1.08-.62c.26-.11.53-.19.77.06s.15.4-.08.79m-.39-.24a.22.22,0,0,0-.3-.18,1.6,1.6,0,0,0-.37.18c-.06,0-.22,0-.14.18s.1.3.25.34.56-.35.55-.53" transform="translate(-0.14 -0.4)"/><path class="cls-4" d="M26.1,28.08,26,28l-1.15-1.33c-.17-.2,0-.27.13-.37s.19-.23.34-.06.2.19.28.3.2.16.33,0,.41-.43.61-.64.09-.16,0-.24a2.89,2.89,0,0,1-.23-.2c-.26-.24-.26-.31,0-.56.09-.08.15-.11.26,0L27.88,26a.19.19,0,0,1,.06.28c-.17.33-.35.37-.62.13l0,0c-.36-.31-.36-.31-.67,0-.15.17-.33.33-.49.49s-.08.14,0,.21l.3.32c.07.08.18.12.1.27a1.27,1.27,0,0,1-.43.39" transform="translate(-0.14 -0.4)"/><path class="cls-4" d="M24.37,4.84a2.47,2.47,0,0,1,0,1.15c-.44-.13-.54-.27-.51-.7s0-.61-.26-.82c-.12-.08-.2-.06-.26.06l-.18.31a.33.33,0,0,1-.58,0c-.05-.08,0-.14,0-.2l.79-1.43c.06-.11.15-.19.27-.13A4.44,4.44,0,0,1,25,4a.52.52,0,0,1,.13.63c-.15.26-.39.24-.64.2h-.14l0,0h0m-.08-.44a.21.21,0,0,0,.23-.2c0-.15-.45-.59-.6-.54s-.18.25-.26.39.44.35.63.35" transform="translate(-0.14 -0.4)"/><path class="cls-4" d="M3.62,8.14l1.64.16c.3,0,.3.08.14.34a.43.43,0,0,1-.51.26.21.21,0,0,0-.26.1c-.15.27-.3.55-.46.82a.21.21,0,0,0,0,.3c.25.24.11.46,0,.7s-.14.11-.21,0A15.72,15.72,0,0,1,2.82,9.07a.18.18,0,0,1,0-.18l.1-.2c.16-.38.38-.66.7-.55m.24,1.5.46-.81a8.62,8.62,0,0,0-1,0l.53.81" transform="translate(-0.14 -0.4)"/><path class="cls-4" d="M2.65,22.65a11.07,11.07,0,0,0,1.89.11c.2,0,.24.15.34.27a.67.67,0,0,1,0,.87,14.28,14.28,0,0,0-.72,1.5c-.09.2-.16.17-.26,0s-.38-.47-.13-.78c.09-.12,0-.21,0-.3-.15-.28-.32-.56-.47-.85a.29.29,0,0,0-.3-.18.61.61,0,0,1-.53-.58c0-.16.13-.08.2-.1m1.89.69H3.77c-.14,0-.16.05-.1.16l.38.67.49-.83" transform="translate(-0.14 -0.4)"/><path class="cls-4" d="M25.08,6.66a1.18,1.18,0,0,1-.33-.32c-.08-.12,0-.19.09-.26.34-.4.69-.79,1-1.21.2-.25.31-.05.44.05s.26.21.07.4-.37.26-.35.43.23.27.36.4l.06.06c.15.15.29.39.46.42s.31-.23.46-.36.18-.1.27,0l.17.19c.15.17.13.3-.06.43a12.54,12.54,0,0,0-1.24,1c-.15.13-.24.1-.32,0s-.28-.26-.07-.44.26-.24.39-.35.1-.14,0-.22l-.7-.71c-.08-.08-.13-.07-.2,0l-.42.45s-.05.1-.13.1" transform="translate(-0.14 -0.4)"/><path class="cls-4" d="M18.09,31.44c-.16,0-.22,0-.24-.22-.05-.53-.12-1.06-.19-1.59,0-.17.07-.22.2-.23s.3-.13.36.11a2.33,2.33,0,0,1,.09.43c0,.19.09.24.26.21s.52-.12.79-.15.21-.13.15-.29l-.07-.15c-.13-.34,0-.49.34-.51a.17.17,0,0,1,.2.14c.15.54.31,1.08.48,1.62.07.22-.09.23-.22.26s-.33.16-.42-.09-.08-.34-.13-.51,0-.17-.14-.12a2.75,2.75,0,0,1-.94.15c-.19,0-.23.1-.18.27a1.94,1.94,0,0,1,0,.27c0,.36,0,.41-.39.42" transform="translate(-0.14 -0.4)"/><path class="cls-4" d="M18.37,2.56c-.12-.06-.15.08-.16.25s0,.18,0,.27,0,.33-.28.29-.36-.08-.31-.38.1-.9.15-1.35c0-.12,0-.29.12-.34a.72.72,0,0,1,.51.06c.12,0,0,.17,0,.25-.07.54-.07.54.45.64h0c.22,0,.46.16.65.1s.15-.38.21-.58.26-.12.38-.1.33,0,.25.26c-.17.55-.33,1.1-.49,1.64-.05.18-.18.12-.29.09s-.3,0-.26-.24.08-.36.13-.54,0-.16-.08-.18a6.28,6.28,0,0,0-1-.17" transform="translate(-0.14 -0.4)"/><path class="cls-4" d="M28.39,25.47l-.18-.11c-.4-.31-.79-.62-1.19-.92A.24.24,0,0,1,27,24a11.1,11.1,0,0,0,.73-1.2c.05-.1.12-.17.24-.12A.18.18,0,0,1,28,23a5.1,5.1,0,0,1-.49.88c-.13.22.08.19.15.26s.16.1.22,0,.26-.44.36-.67.16-.2.3-.14.12.18.05.3a5.55,5.55,0,0,1-.38.64c-.2.26.05.3.17.4s.23,0,.3-.12c.17-.28.32-.56.48-.84.06-.1.11-.2.25-.12s.13.18.07.3a10.7,10.7,0,0,1-1,1.54s0,.13-.17.1" transform="translate(-0.14 -0.4)"/><path class="cls-4" d="M28.5,8.07a.3.3,0,0,0-.25.46c.13.22.26.45.39.67s.06.23-.08.29-.2,0-.24-.12a3.94,3.94,0,0,0-.41-.68c-.05-.09-.12-.17-.23,0s-.34.08-.21.32.3.53.45.79a.21.21,0,0,1-.07.33c-.15.09-.21,0-.26-.15a5.84,5.84,0,0,0-.7-1.15A.28.28,0,0,1,27,8.32c.41-.29.81-.58,1.2-.89.18-.14.3-.09.41.07a13.39,13.39,0,0,1,.86,1.42c.06.12.1.23,0,.3s-.21,0-.27-.15l-.48-.83c0-.07-.06-.16-.14-.17" transform="translate(-0.14 -0.4)"/><path class="cls-4" d="M7.09,5.66c.27.32.27.32.61.06l.48-.37c.1-.08.18-.08.26,0s.07.19,0,.28-.2.16-.3.24L8,5.93,8,6,8,6l0,0,0,0h0l-.13.09,0,0,0,0,0,0,0,0h0l0,.05h0l-.07,0-.05,0,0,0-.09.08,0,0h0a.26.26,0,0,1-.18,0l0,0,0,0,0,0,0,0,0,0h0l0,0,0,0,0,0,0,0,0,0,0,0c-.27-.3-.53-.6-.81-.89s-.13-.29,0-.44A13.26,13.26,0,0,1,7.14,4c.07,0,.14-.14.24-.07a.22.22,0,0,1,.09.29l0,0h0l0,.06h0l-.1,0,0,0,0,.05h0s-.06,0-.06.06h0a.13.13,0,0,0-.11,0H7s-.1,0-.1.11h0l-.11,0,0,0-.05,0-.07.05-.07.05,0,0,0,0,0,0s0,.06,0,.09c.26.34.16.37.54.07l.4-.3c.07-.05.15-.13.25-.08A.21.21,0,0,1,7.82,5l0,0,0,0,0,0h0l-.14.1,0,0,0,0h0l0,.06h0l-.09,0,0,0,0,0,0,0,0,0h0l-.09,0,0,0c-.07,0-.08.09,0,.13" transform="translate(-0.14 -0.4)"/><path class="cls-4" d="M8.62,27.27a.18.18,0,0,1-.29.13,7.05,7.05,0,0,1-.66-.5c-.17-.16-.24,0-.35.07s-.11.21,0,.3.35.27.53.4S8,27.83,8,28s-.18.09-.28,0l-.62-.47c-.23-.17-.23.12-.34.18s-.11.15,0,.23.48.37.73.55.24.14.14.31-.22.08-.33,0c-.37-.28-.75-.55-1.11-.84s-.26-.31,0-.56l1-1.06a.25.25,0,0,1,.4,0,11,11,0,0,0,1,.8c.06,0,.12.09.11.17" transform="translate(-0.14 -0.4)"/><path class="cls-4" d="M22.15,4.35c0,.11-.07.25-.27.16L20.63,4c-.15-.06-.2-.14-.15-.3.18-.5.35-1,.52-1.52A.2.2,0,0,1,21.3,2a14.42,14.42,0,0,1,1.49.59c.12.06.17.13.11.26s-.15.12-.27.07l-.86-.39c-.16-.08-.23,0-.27.13s-.15.25.08.32.44.18.67.27.17.13.11.26-.14.12-.25.07-.45-.16-.66-.26-.23,0-.26.12-.2.28.07.37.49.21.74.31c.08,0,.16.06.16.17" transform="translate(-0.14 -0.4)"/><path class="cls-4" d="M21.32,30.72a.19.19,0,0,1-.21-.14L20.56,29a.19.19,0,0,1,.13-.26L22,28.24c.12,0,.18,0,.24.09s0,.19-.1.23c-.26.11-.52.24-.79.33s-.14.14-.08.25,0,.29.24.2l.61-.25c.14-.06.26-.12.34.08s-.08.2-.18.24a6.57,6.57,0,0,1-.61.25c-.15.05-.19.14-.1.26s0,.36.29.24l.89-.38c.14-.06.21,0,.26.1a.2.2,0,0,1-.11.29,10.34,10.34,0,0,0-1.27.45l-.29.09" transform="translate(-0.14 -0.4)"/><path class="cls-4" d="M12.47,31.11a2.41,2.41,0,0,1-1.19-.34c-.1-.06-.19-.11-.2-.25a.25.25,0,0,1,.08-.2c.07-.06.14,0,.2,0a2.22,2.22,0,0,0,.45.27,1.11,1.11,0,0,0,.49.09.24.24,0,0,0,.24-.15c0-.1,0-.18-.11-.23s-.43-.29-.62-.46a.51.51,0,0,1-.1-.76c.1-.16.25-.16.38-.18a1.81,1.81,0,0,1,1.16.27.23.23,0,0,1,.08.35c-.08.13-.18,0-.25,0a.69.69,0,0,0-.61-.16c-.06,0-.13,0-.16.07a.19.19,0,0,0,.05.2,2.21,2.21,0,0,0,.43.31,1.3,1.3,0,0,1,.41.36.47.47,0,0,1-.27.75,1.55,1.55,0,0,1-.43.06" transform="translate(-0.14 -0.4)"/><path class="cls-4" d="M12.52,2A.9.9,0,0,0,12,2c-.1,0-.21.1-.19.24s.14.14.23.16a2.25,2.25,0,0,0,.27,0,4,4,0,0,1,.55.07.51.51,0,0,1,.24.91,2,2,0,0,1-1.46.47c-.14,0-.18-.12-.19-.23s.12-.11.2-.11a1.74,1.74,0,0,0,.78-.15c.11-.06.22-.13.18-.28S12.5,3,12.37,3a6,6,0,0,1-.88-.09A.48.48,0,0,1,11.31,2a1.7,1.7,0,0,1,.87-.38,1.33,1.33,0,0,1,.47,0c.16,0,.26.1.24.27s-.17.09-.26.1h-.12" transform="translate(-0.14 -0.4)"/><path class="cls-4" d="M16.23,3.31a2.18,2.18,0,0,1-.7-.1,1,1,0,0,1-.69-.88.94.94,0,0,1,.58-1A2.09,2.09,0,0,1,17,1.26c.09,0,.17.06.19.18s-.05.26-.23.2a2,2,0,0,0-.7-.13c-.46,0-.73.24-.74.66a.69.69,0,0,0,.72.79,1.61,1.61,0,0,0,.6-.08c.08,0,.19-.1.22,0s0,.25-.12.3a2.33,2.33,0,0,1-.74.09" transform="translate(-0.14 -0.4)"/><path class="cls-4" d="M31,13.74c0,.13,0,.18-.16.21s-.16-.06-.18-.15q-.08-.36-.14-.73c0-.18-.09-.25-.29-.19-.35.11-.7.21-1.05.31-.13,0-.31.1-.38,0a.91.91,0,0,1-.13-.56c0-.1.13-.1.2-.12.4-.13.81-.25,1.22-.36.16,0,.18-.1.13-.25s-.12-.41-.2-.6,0-.22.09-.27.21,0,.24.14A16.84,16.84,0,0,1,31,13.74" transform="translate(-0.14 -0.4)"/><path class="cls-4" d="M16.47,29.43a2.18,2.18,0,0,1,.54.08.22.22,0,0,1,.19.31c0,.18-.18.07-.27.05a1.73,1.73,0,0,0-.6-.07.77.77,0,0,0-.67.85c0,.38.29.61.74.62a1.5,1.5,0,0,0,.65-.12c.09,0,.2-.13.26,0a.26.26,0,0,1-.12.36.91.91,0,0,1-.44.12,5.76,5.76,0,0,1-1-.09,1,1,0,0,1-.79-.85,1.12,1.12,0,0,1,.63-1.08,2.1,2.1,0,0,1,.9-.18" transform="translate(-0.14 -0.4)"/><path class="cls-4" d="M30.6,20.76a5.05,5.05,0,0,1-1-.3c-.5-.18-.5-.17-.65.33a2.64,2.64,0,0,1-.1.26c0,.1-.08.21-.21.14a.2.2,0,0,1-.1-.28,13.1,13.1,0,0,0,.43-1.57c0-.2.09-.4.12-.59a.16.16,0,0,1,.21-.15.15.15,0,0,1,.13.23,1.85,1.85,0,0,0-.05.33c-.1.46-.09.46.37.57l1,.24c.2,0,.29.14.17.35a1.34,1.34,0,0,0-.09.29c0,.11-.08.19-.17.16" transform="translate(-0.14 -0.4)"/><path class="cls-4" d="M3.77,7.31A16.11,16.11,0,0,1,5.2,5.62c.09-.09.18-.24.33-.08s0,.25-.09.34c-.45.44-.45.44,0,.85.2.18.39.37.6.53s.26.29.05.48A1,1,0,0,0,6,7.89a.18.18,0,0,1-.19,0h0l0,0,0,0,0,0,0,0-.09,0h0c0-.06-.06-.08-.1-.11h0l0,0,0,0,0,0,0,0,0,0-.05,0-.12-.1h0l0,0,0,0L5,7.19l0,0-.08-.06h0l0,0,0,0S4.72,7,4.67,7h0c0-.15-.11-.12-.18,0h0l0,0,0,0,0,.1h0c-.06,0-.08.06-.11.1l0,0,0,.11h0l-.1.09,0,0a.17.17,0,0,1-.19,0l0,0-.08-.06,0-.06V7.31" transform="translate(-0.14 -0.4)"/><path class="cls-4" d="M5.49,24.2c.13,0,.17.07.22.14a11.61,11.61,0,0,0,1.14,1.35c.1.1.15.19,0,.3s-.19,0-.28-.05-.25-.4-.44-.37-.31.24-.46.38-.42.36-.61.56-.3.09-.41-.06-.28-.27,0-.46.67-.55,1-.82c.11-.09.15-.16,0-.28a2.71,2.71,0,0,1-.3-.4c-.11-.17,0-.23.12-.28" transform="translate(-0.14 -0.4)"/><path class="cls-4" d="M28.3,11.19c-.19,0-.2-.24-.26-.38a.17.17,0,0,1,.09-.26l1.52-.73a.16.16,0,0,1,.25.08l0,.07c.22.43.22.45-.22.63l-1.22.51-.19.07" transform="translate(-0.14 -0.4)"/><path class="cls-4" d="M30.15,22.45a1.58,1.58,0,0,1-.21.49c-.06.09-.15,0-.22,0l-1.47-.7c-.28-.13-.1-.3,0-.46s.15-.22.33-.14c.47.21.95.4,1.42.6.09,0,.21,0,.2.21" transform="translate(-0.14 -0.4)"/><path class="cls-4" d="M14.1,31.42c-.45,0-.47-.06-.39-.48s.16-1,.24-1.44c.05-.31.27-.11.42-.12s.17.1.15.25c-.07.51-.13,1-.2,1.53,0,.15,0,.32-.22.27" transform="translate(-0.14 -0.4)"/><path class="cls-4" d="M14.4,3.15c0,.15,0,.23-.26.26s-.31,0-.34-.27c-.06-.48-.16-1-.25-1.44,0-.23,0-.33.25-.34s.38-.06.41.25c0,.49.12,1,.19,1.55" transform="translate(-0.14 -0.4)"/><path class="cls-5" d="M9,21.15a4.41,4.41,0,0,1-2.2-.56.62.62,0,0,1-.34-.48,3.44,3.44,0,0,1,0-.88c0-.35.2-.42.52-.22a4.15,4.15,0,0,0,1.34.57,2.65,2.65,0,0,0,1.37,0,1.06,1.06,0,0,0,.79-.85A1,1,0,0,0,10,17.65a4.53,4.53,0,0,0-.9-.49,9.91,9.91,0,0,1-1.26-.63,2.48,2.48,0,0,1-1.24-2.74A2.46,2.46,0,0,1,8.7,11.72a4.46,4.46,0,0,1,2.73.29.67.67,0,0,1,.44.7,4.57,4.57,0,0,1,0,.69c-.06.33-.15.37-.45.21a6.47,6.47,0,0,0-.83-.38,2.6,2.6,0,0,0-1.17-.13,1,1,0,0,0-.9.67.93.93,0,0,0,.34,1.06,5.21,5.21,0,0,0,1.26.67,5.17,5.17,0,0,1,1.66,1,2.74,2.74,0,0,1-1,4.29A4.47,4.47,0,0,1,9,21.15" transform="translate(-0.14 -0.4)"/><path class="cls-5" d="M15.84,21.15a4.43,4.43,0,0,1-2.2-.56.62.62,0,0,1-.34-.48,3.27,3.27,0,0,1,0-.91c.05-.32.2-.39.49-.21a4.27,4.27,0,0,0,1.37.58,2.53,2.53,0,0,0,1.47-.06,1,1,0,0,0,.31-1.81,3.79,3.79,0,0,0-1-.54,9.9,9.9,0,0,1-1.26-.62,2.49,2.49,0,0,1-1.25-2.74,2.46,2.46,0,0,1,2.1-2.07,4.48,4.48,0,0,1,2.74.28.67.67,0,0,1,.44.69,4,4,0,0,1,0,.75c-.06.25-.16.31-.39.19a7.49,7.49,0,0,0-.85-.4,2.76,2.76,0,0,0-1.17-.14,1,1,0,0,0-.93.67.93.93,0,0,0,.36,1.08,5.47,5.47,0,0,0,1.27.67,5.16,5.16,0,0,1,1.64,1,2.74,2.74,0,0,1-1,4.3,4.46,4.46,0,0,1-1.76.33" transform="translate(-0.14 -0.4)"/><path class="cls-5" d="M20.72,16.3V12.23c0-.33.06-.4.39-.44a4.42,4.42,0,0,1,1.08,0c.33,0,.39.11.39.44,0,2.31,0,4.62,0,6.93,0,.22,0,.3.28.3.81,0,1.63,0,2.44,0,.28,0,.42.1.44.37a3,3,0,0,1,0,.91.28.28,0,0,1-.3.25H21.21c-.33,0-.5-.21-.5-.57q0-2.05,0-4.11" transform="translate(-0.14 -0.4)"/></g></g></g></svg>