<svg xmlns="http://www.w3.org/2000/svg" xmlns:xlink="http://www.w3.org/1999/xlink" viewBox="0 0 31.91 31.97"><defs><style>.cls-1{fill:none;}.cls-2{clip-path:url(#clip-path);}.cls-3{fill:#999;}.cls-4{fill:#e9d68c;}.cls-5{fill:#fcfcfc;}.cls-6{fill:#fff;}.cls-7{fill:#0b0b0b;}.cls-8{fill:#ccc;}</style><clipPath id="clip-path" transform="translate(-0.92 -0.41)"><rect class="cls-1" width="33.76" height="33.03"/></clipPath></defs><title>Zasób 22</title><g id="Warstwa_2" data-name="Warstwa 2"><g id="Payment_icons_Germany" data-name="Payment icons Germany"><g class="cls-2"><path class="cls-3" d="M16.87.47a16,16,0,1,0,16,16,16,16,0,0,0-16-16m.08,26A10.11,10.11,0,1,1,27.06,16.38,10.11,10.11,0,0,1,17,26.49" transform="translate(-0.92 -0.41)"/><path class="cls-4" d="M16.31.41c-.11.09-.22.12-.32,0Z" transform="translate(-0.92 -0.41)"/><path class="cls-5" d="M15.92,3.58c0-.4,0-.81,0-1.21,0-.18,0-.23.22-.25a4.57,4.57,0,0,1,1.34,0A1.4,1.4,0,0,1,18.58,4,1.41,1.41,0,0,1,17.3,5.1a5.16,5.16,0,0,1-1.27,0c-.14,0-.18-.07-.17-.21,0-.43,0-.86,0-1.29Zm.84,0h-.05c0,.23,0,.47,0,.7s0,.18.15.19a.83.83,0,0,0,.91-.87A.76.76,0,0,0,17,2.73c-.15,0-.21,0-.21.19s0,.47,0,.7" transform="translate(-0.92 -0.41)"/><path class="cls-5" d="M26,9.35A1.72,1.72,0,0,1,27.6,7.94a1.52,1.52,0,0,1,1.52,1.42A1.66,1.66,0,0,1,27.55,11,1.51,1.51,0,0,1,26,9.35m1.26.82a1.37,1.37,0,0,0,1.08-.71.52.52,0,0,0-.48-.74,1.32,1.32,0,0,0-1.09.72.52.52,0,0,0,.49.73" transform="translate(-0.92 -0.41)"/><path class="cls-5" d="M24.39,6.48l-.14.15-.51.63s-.07.14-.14.08-.35-.28-.53-.42,0-.11,0-.16l1.68-2.08c.07-.09.11-.1.21,0,.54.39.54.38.14.89s-.31.38.07.7.34.28.63-.06l0,0c.42-.51.42-.5.9,0,.07.07.09.11,0,.2l-1.7,2.1c-.06.08-.12.1-.19,0l0,0c-.52-.38-.52-.38-.11-.89s.35-.43-.09-.78l-.3-.24" transform="translate(-0.92 -0.41)"/><path class="cls-5" d="M4.93,12.12a.85.85,0,0,1,.62-.18c.23,0,.47,0,.7,0s.17,0,.13.18c-.17.61-.17.61-.8.63H5.2c-.17,0-.22.14-.26.27s.11.13.18.16a6.72,6.72,0,0,0,.66.21c.35.09.1.31.06.41s.07.47-.3.36l-2.22-.67-.23,0c-.1,0-.19-.08-.16-.22A5.42,5.42,0,0,1,3.3,12a.82.82,0,0,1,.89-.56.81.81,0,0,1,.74.71m-.85.12a.39.39,0,0,0-.35.43c0,.26.34.22.52.25s.15-.19.17-.31a.32.32,0,0,0-.33-.37" transform="translate(-0.92 -0.41)"/><path class="cls-5" d="M6.36,9.2a5.07,5.07,0,0,0-1-.69c-.18-.11-.21-.19-.1-.38.27-.47.26-.47.71-.19l.87.52a1.66,1.66,0,0,1,.71.64,1.29,1.29,0,0,1-.27,1.49A1,1,0,0,1,6,10.91a6.66,6.66,0,0,1-1.08-.59,1.9,1.9,0,0,0-.54-.38c-.15-.09-.15-.17-.07-.3.3-.5.29-.5.78-.19l.53.31a3.61,3.61,0,0,0,.77.42A.39.39,0,0,0,6.83,10a.35.35,0,0,0,0-.46,1.19,1.19,0,0,0-.43-.34" transform="translate(-0.92 -0.41)"/><path class="cls-5" d="M12.45,2.88c0-.12.06-.13.14-.15l1.57-.39c.14,0,.18,0,.22.14.13.48.13.48-.34.6a2.71,2.71,0,0,1-.44.11c-.23,0-.16.15-.14.28s.08.21.25.15.44-.1.65-.17.2,0,.23.15c.11.47.12.46-.35.58a2.27,2.27,0,0,1-.34.08c-.21,0-.23.12-.18.31s.13.27.34.2.49-.12.73-.19.17,0,.2.13c.13.49.13.48-.36.62a8.09,8.09,0,0,0-1.28.36.17.17,0,0,1-.22-.13c-.22-.87-.44-1.75-.66-2.62V2.88" transform="translate(-0.92 -0.41)"/><path class="cls-5" d="M30.62,12.68a.93.93,0,0,1-.6,1,.94.94,0,0,1-1.08-.26,1.37,1.37,0,0,1-.32-.62c0-.2-.14-.21-.29-.14l-.28.09c-.15,0-.36.18-.42.09a2.14,2.14,0,0,1-.23-.65c0-.09.07-.09.12-.11l2.5-.76c.07,0,.15-.07.2.05a4.84,4.84,0,0,1,.41,1.33M30,12.56c-.06-.11,0-.38-.18-.35s-.52,0-.61.26.21.45.4.46a.37.37,0,0,0,.39-.37" transform="translate(-0.92 -0.41)"/><path class="cls-5" d="M28,15.6c0-.21.08-.38.08-.58s.11-.28.32-.2.33,0,.4.11-.06.26-.08.4a1.51,1.51,0,0,0,0,.48c0,.13.07.26.22.27s.2-.11.24-.22a4.14,4.14,0,0,1,.31-.74.81.81,0,0,1,1.22-.19,1.72,1.72,0,0,1,.31,1.69.12.12,0,0,1-.15.06l-.21,0c-.22,0-.36-.07-.24-.35a1,1,0,0,0,0-.53c0-.1-.07-.19-.19-.2s-.16.07-.2.15-.14.39-.22.58a.89.89,0,0,1-.73.6,1,1,0,0,1-1-.89c0-.14-.12-.26-.07-.41" transform="translate(-0.92 -0.41)"/><path class="cls-5" d="M21.93,6.2a2.14,2.14,0,0,1-1.36-.59c-.08-.08-.08-.13,0-.22.28-.41.28-.41.66-.12a1.25,1.25,0,0,0,.4.21c.12,0,.26.07.34-.07s0-.22-.08-.31l-.23-.23-.15-.16a.9.9,0,0,1-.16-1.11,1,1,0,0,1,1-.35,2.16,2.16,0,0,1,.93.46c.12.1.12.16,0,.28-.27.34-.27.34-.62.11a.92.92,0,0,0-.42-.18.2.2,0,0,0-.21.08.17.17,0,0,0,0,.22c.14.16.29.3.42.46a.87.87,0,0,1-.34,1.49,1.85,1.85,0,0,1-.26,0" transform="translate(-0.92 -0.41)"/><path class="cls-5" d="M7.66,7.4a.82.82,0,0,1-.72-.66,1.12,1.12,0,0,1,.4-1,1.64,1.64,0,0,1,.59-.41c.12,0,.2-.06.25.08a.68.68,0,0,0,.08.17c.11.17.11.28-.1.37a1,1,0,0,0-.44.35c-.05.07-.1.16,0,.25a.21.21,0,0,0,.24.08,2.08,2.08,0,0,0,.65-.24.85.85,0,0,1,1,.26.88.88,0,0,1,.08,1,2.15,2.15,0,0,1-1,.92.19.19,0,0,1-.28-.1l-.05-.09C8.08,8,8.08,8,8.42,7.86a1.5,1.5,0,0,0,.45-.34.24.24,0,0,0,.06-.29c-.07-.11-.17-.1-.29-.06a3.15,3.15,0,0,1-.85.25H7.66" transform="translate(-0.92 -0.41)"/><path class="cls-5" d="M4.4,16.34H3.46c-.13,0-.22,0-.19.17a.25.25,0,0,1,0,.05c0,.52,0,.52-.53.51-.17,0-.24,0-.22-.23.06-.66.1-1.32.11-2,0-.1,0-.15.14-.14h.05c.52,0,.54,0,.49.51,0,.24,0,.3.29.3.6,0,1.21,0,1.81.06.14,0,.2,0,.2.2,0,.62,0,.62-.63.6H4.4Z" transform="translate(-0.92 -0.41)"/><path class="cls-5" d="M9.32,4.83a.77.77,0,0,0,0-.12L9.1,4.37l.35-.18.67-.38L11,3.32c.11-.06.18,0,.23.08v0c.26.44.26.46-.19.68-.22.11-.23.19-.11.39.3.52.56,1.07.84,1.6.07.14.06.19-.08.27-.54.3-.54.31-.84-.22s-.47-.84-.68-1.28c-.09-.18-.17-.23-.34-.11s-.21.11-.3.17-.2,0-.23-.09" transform="translate(-0.92 -0.41)"/><path class="cls-5" d="M21.2,29.3c-.18-.64-.35-1.28-.53-1.92,0-.14-.06-.22.12-.27s.2,0,.24.18c.21.8.43,1.6.64,2.4,0,.09.14.21,0,.28s-.27.13-.42,0c-.6-.59-1.25-1.13-1.83-1.76l-.1-.07.39,1.4c.06.22.12.45.18.68s.1.23-.12.29-.21-.1-.24-.21q-.32-1.17-.62-2.34c0-.09-.13-.23,0-.28s.29-.17.47,0c.56.54,1.15,1,1.69,1.59l.12.11s0,0,.06,0,0,0,0-.07" transform="translate(-0.92 -0.41)"/><path class="cls-5" d="M14.62,29.11a.89.89,0,0,1,.27.67,5.33,5.33,0,0,1,0,.59c0,.08.11.23,0,.24s-.35,0-.34-.24,0-.43,0-.65a.65.65,0,0,0-.71-.65c-.13,0-.11.09-.13.16-.07.3-.14.6-.19.9s-.19.13-.32.12-.13-.06-.1-.2c.17-.71.3-1.43.44-2.15l0-.07c.17-.52.17-.51.73-.4a2.65,2.65,0,0,1,.57.16.74.74,0,0,1,.49.73.76.76,0,0,1-.53.74l-.16.06m-.3-.25a.53.53,0,0,0,.59-.5c0-.35-.18-.52-.67-.63s-.25.26-.35.42a.52.52,0,0,0,0,.16c-.1.5-.06.54.46.55" transform="translate(-0.92 -0.41)"/><path class="cls-5" d="M5,24a1.66,1.66,0,0,1,1.26-1.43,1.69,1.69,0,0,1,1.89,1.24c0,.14,0,.14-.13.18s-.16.05-.2-.08a1.55,1.55,0,0,0-.42-.68,1.11,1.11,0,0,0-1.58,0,1.07,1.07,0,0,0-.21,1.49l.17.21c.12.16.25.22.41,0a.62.62,0,0,1,.11-.08c.38-.27.39-.28.14-.65-.08-.12,0-.16.05-.23s.16,0,.21,0l0,0c.15.21.42.43.41.64s-.36.3-.56.46-.24.16-.34.26a.26.26,0,0,1-.41,0A2.37,2.37,0,0,1,5,24.23,2,2,0,0,1,5,24" transform="translate(-0.92 -0.41)"/><path class="cls-5" d="M8.52,27.83a1.08,1.08,0,0,1-1-1.53,11.52,11.52,0,0,1,1.3-1.69c.12-.15.17,0,.26.08s.08.13,0,.21l-1,1.22a1.6,1.6,0,0,0-.27.44.66.66,0,0,0,1,.8,1.93,1.93,0,0,0,.47-.48c.29-.35.59-.71.86-1.07.1-.13.16-.12.27,0s.16.14,0,.27c-.35.42-.69.85-1,1.28a1.22,1.22,0,0,1-.92.5" transform="translate(-0.92 -0.41)"/><path class="cls-5" d="M11.92,29.86c-.39-.12-.39-.12-.35-.49.08-.63.07-.61-.49-.91-.29-.16-.48-.14-.67.13-.06.1-.18.16-.23.26s-.33.09-.46,0,0-.21.06-.26a18.38,18.38,0,0,0,1.88-1.88c.17-.17.28-.11.44,0s.13.18.11.32c-.07.56-.12,1.12-.18,1.68l-.12,1.17m-.08-2.73-.05,0-.36.39c-.58.61-.58.61.24.88h0l.14-1.25" transform="translate(-0.92 -0.41)"/><path class="cls-5" d="M15.89,30.73c.15-.63.4-1.21.58-1.8.1-.34.23-.66.31-1s.16-.18.3-.18.25,0,.31.17c.29.85.61,1.69.9,2.54,0,.07.16.19,0,.23s-.31.1-.38-.12-.15-.4-.21-.61-.11-.19-.25-.17h0c-.27,0-.59-.07-.79,0s-.2.46-.26.71-.28.17-.47.19m1.19-2.61c-.09.29-.16.52-.23.74-.21.66-.21.65.49.62.15,0,.18,0,.13-.19a8.42,8.42,0,0,1-.39-1.17" transform="translate(-0.92 -0.41)"/><path class="cls-5" d="M26,27l.15-.12c.23-.2.46-.4.68-.62s.17,0,.26,0,0,.14,0,.21l-1,.92c-.09.08-.14.08-.21,0l-1.79-2c-.1-.11-.06-.16,0-.23l.94-.85c.09-.08.14-.1.24,0s.08.17,0,.25-.44.4-.67.59-.1.14,0,.21l0,0c.17.18.32.47.5.49s.36-.28.55-.43a1.8,1.8,0,0,0,.2-.18c.08-.09.14-.08.21,0s.13.14,0,.24-.42.37-.63.55-.14.11,0,.21.35.39.53.58l.1.1" transform="translate(-0.92 -0.41)"/><path class="cls-5" d="M26.91,24c.07,0,.09-.06.12-.1.17-.23.34-.45.49-.68s.13-.1.23,0,.11.13,0,.23-.32.45-.5.67-.07.15,0,.21l0,0c.23.17.48.47.7.46s.34-.41.52-.63a1.78,1.78,0,0,0,.16-.22c.07-.12.14-.09.23,0s.11.13,0,.23q-.4.54-.79,1.09c-.07.11-.12.12-.23,0l-2.14-1.55c-.1-.07-.12-.12,0-.23.26-.34.51-.69.76-1,.08-.11.13-.1.23,0s.11.13,0,.23-.34.48-.53.72-.06.16,0,.23l.5.36.09.06" transform="translate(-0.92 -0.41)"/><path class="cls-5" d="M23.58,26c0,.07-.06.09-.1.11s-.33.19-.5.27-.16.14-.08.29c.37.64.72,1.29,1.08,1.93.07.12.11.2-.06.29s-.23,0-.3-.11c-.35-.64-.71-1.27-1.05-1.91-.08-.15-.15-.2-.3-.09s-.28.15-.42.24-.19.09-.27-.06,0-.18.1-.24l1.6-.89a.2.2,0,0,1,.29.16" transform="translate(-0.92 -0.41)"/><path class="cls-6" d="M29.27,20.51a.57.57,0,1,1,0-1.14.57.57,0,1,1,0,1.14" transform="translate(-0.92 -0.41)"/><path class="cls-5" d="M4.39,20.51a.56.56,0,0,1-.51-.58.58.58,0,0,1,.57-.56.57.57,0,1,1-.06,1.14" transform="translate(-0.92 -0.41)"/><path class="cls-4" d="M7.47,19.7s0-.08.09-.06v0c0,.06-.06,0-.1,0Z" transform="translate(-0.92 -0.41)"/><path class="cls-4" d="M15.82,6.44c0,.07-.06.08-.1,0a.06.06,0,0,1,.1,0" transform="translate(-0.92 -0.41)"/><path class="cls-4" d="M11.29,16.72a1.13,1.13,0,0,1-.1.53.36.36,0,0,1,.1-.53" transform="translate(-0.92 -0.41)"/><path class="cls-7" d="M21.2,29.3s0,.06,0,.07,0,0-.06,0Z" transform="translate(-0.92 -0.41)"/><path class="cls-8" d="M20.75,10a6.09,6.09,0,0,0-4.41.41c-3.24,1.59-4.62,4.38-4.83,7.85,0,.21,0,.43,0,.64a3.77,3.77,0,0,0,3,3.67,4.9,4.9,0,0,0,2.18,0A7.64,7.64,0,0,0,21.26,19c.2-.29-.26-.35-.4-.52s-.26-.14-.39,0a10.92,10.92,0,0,1-1.3,1.41,4.28,4.28,0,0,1-1.76,1,1.84,1.84,0,0,1-2.46-1.5,6.13,6.13,0,0,1,0-1.86.47.47,0,0,1,.43-.48,27.16,27.16,0,0,0,2.77-.77,11.47,11.47,0,0,0,2.72-1.26,5,5,0,0,0,1.12-1A2.43,2.43,0,0,0,20.75,10M20,12a3.33,3.33,0,0,1-.78,1.91,8.14,8.14,0,0,1-3.87,2.43A14.68,14.68,0,0,1,17,11.91a2.8,2.8,0,0,1,1.3-1.17A1.13,1.13,0,0,1,20,12" transform="translate(-0.92 -0.41)"/></g></g></g></svg>