<svg xmlns="http://www.w3.org/2000/svg" xmlns:xlink="http://www.w3.org/1999/xlink" viewBox="0 0 105.73 21.23"><defs><style>.cls-1{fill:none;}.cls-2{clip-path:url(#clip-path);}.cls-3{fill:#999;}.cls-4{fill:#ccc;}</style><clipPath id="clip-path" transform="translate(-1.53 -3.12)"><rect class="cls-1" width="107.58" height="26.7"/></clipPath></defs><title>Zasób 24</title><g id="Warstwa_2" data-name="Warstwa 2"><g id="Payment_icons_Germany" data-name="Payment icons Germany"><g class="cls-2"><path class="cls-3" d="M1.53,3.84a13.24,13.24,0,0,1,5.2,1,13.87,13.87,0,0,1,3.85,2.35c.14.12.15.2,0,.35a22.08,22.08,0,0,1-4,4,47.59,47.59,0,0,1-5,3.39Z" transform="translate(-1.53 -3.12)"/><path class="cls-3" d="M29.47,3.12c0,.41,0,.81,0,1.21,0,.17-.05.2-.21.2H25.49c-.22,0-.26.07-.26.27q0,6.44,0,12.87c0,.23-.05.3-.29.29-.5,0-1,0-1.51,0-.21,0-.25-.06-.25-.26,0-4.29,0-8.58,0-12.87,0-.25-.06-.3-.3-.3H19.17c-.18,0-.23,0-.23-.23a8.69,8.69,0,0,0,0-1.19Z" transform="translate(-1.53 -3.12)"/><path class="cls-4" d="M16.11,3.12c0,.42,0,.84,0,1.26q0,4.16,0,8.33V13h0c-.09-.24-.17-.49-.27-.73a15.23,15.23,0,0,0-9.41-9c-.07,0-.16,0-.21-.1Z" transform="translate(-1.53 -3.12)"/><path class="cls-4" d="M69.65,24.35c0-.09-.11-.08-.16-.11a.63.63,0,0,1-.34-.45c0-.09-.1-.23.06-.25s.31-.1.35.16.27.36.52.39a.63.63,0,0,0,.65-.32,1.22,1.22,0,0,0,.1-.7,3.68,3.68,0,0,1-.49.22.88.88,0,0,1-1.16-.66,2,2,0,0,1,0-1.19A1,1,0,0,1,70.69,21c.07,0,.12.12.15,0s.2-.07.3-.09.11.09.11.16c0,.77,0,1.54,0,2.31a1.1,1.1,0,0,1-.72,1.06Zm1.18-2.3h0c0-.12,0-.24,0-.36a.59.59,0,0,0-.48-.64.62.62,0,0,0-.71.42,1.7,1.7,0,0,0,0,1.21.58.58,0,0,0,.69.36.57.57,0,0,0,.49-.55c0-.15,0-.29,0-.44" transform="translate(-1.53 -3.12)"/><path class="cls-4" d="M59.45,24.35s0,0,0-.06c0-.21,0-.33.27-.29s.68-.44.55-.8c-.26-.71-.52-1.42-.77-2.14,0-.07-.15-.21,0-.23s.35-.14.43.11l.48,1.42.12.35c.11,0,.1-.14.13-.22.17-.5.33-1,.49-1.49a.23.23,0,0,1,.27-.19c.16,0,.17,0,.12.19q-.44,1.2-.86,2.41a1.58,1.58,0,0,1-.6.94Z" transform="translate(-1.53 -3.12)"/><path class="cls-4" d="M107.26,9.33c-.08,0-.07.12-.09.18A1.64,1.64,0,0,1,104,8.94a1.64,1.64,0,0,1,3.24-.27s0,.06,0,.08ZM107.07,9a1.46,1.46,0,1,0-1.47,1.46A1.45,1.45,0,0,0,107.07,9" transform="translate(-1.53 -3.12)"/><path class="cls-4" d="M60,7.44h1.76c.17,0,.17.11.2.21l1.23,4.69.92,3.49a.18.18,0,0,0,.08.14l.7-2.25,1.9-6.11c0-.12.09-.18.23-.18.43,0,.86,0,1.29,0,.17,0,.23.05.28.21q1.11,4,2.23,8.08l.07.24c.11-.06.09-.17.11-.25q1.11-4,2.2-8c.05-.2.13-.27.34-.26.43,0,.87,0,1.32,0l-.9,3q-1.07,3.61-2.13,7.23a.28.28,0,0,1-.33.24c-.49,0-1,0-1.46,0a.25.25,0,0,1-.3-.22q-1.08-3.78-2.18-7.56L67.5,10c-.07,0-.07.1-.09.16Q66.22,13.91,65,17.69a.3.3,0,0,1-.35.26c-.49,0-1,0-1.48,0-.11,0-.18,0-.22-.15Q61.5,12.65,60,7.51a.39.39,0,0,1,0-.07" transform="translate(-1.53 -3.12)"/><path class="cls-3" d="M9.85,17.72H4.56c-.16,0-.25,0-.13-.2a41.49,41.49,0,0,1,4.44-6.24,20.15,20.15,0,0,1,2.85-2.67c.15-.11.23-.1.35,0a13.8,13.8,0,0,1,3.23,7.22c.07.51.1,1,.12,1.55,0,.23,0,.3-.29.3H9.85" transform="translate(-1.53 -3.12)"/><path class="cls-4" d="M81.63,16.82a4.22,4.22,0,0,1-1.38,1,4.42,4.42,0,0,1-3.13.14,2.53,2.53,0,0,1-1.84-2.16A3,3,0,0,1,76.11,13,3.92,3.92,0,0,1,78,12.11a23.48,23.48,0,0,1,3.38-.49c.2,0,.28-.06.27-.28a10.93,10.93,0,0,0-.06-1.53,1.53,1.53,0,0,0-1.41-1.38,3.33,3.33,0,0,0-1.37.05,1.87,1.87,0,0,0-1.46,1.85c0,.45,0,.45-.47.45s-.7,0-1,0c-.17,0-.22-.05-.22-.22a2.93,2.93,0,0,1,2.26-3.1,6.38,6.38,0,0,1,3.64,0,2.41,2.41,0,0,1,1.85,2.26c0,.33.05.66.05,1q0,2.87,0,5.73a3.64,3.64,0,0,0,0,.68c0,.23.1.47.36.56.11,0,.07.13.07.21s-.08.08-.14.08c-.46,0-.92,0-1.38,0s-.69-.19-.73-.71c0-.12,0-.23,0-.41m0-3c0-.33,0-.66,0-1,0-.15,0-.2-.19-.17s-.38,0-.58.08a12,12,0,0,0-2.37.49,1.9,1.9,0,0,0-1.35,1.72,1.77,1.77,0,0,0,1.22,1.95,3,3,0,0,0,1.15.06,2.21,2.21,0,0,0,2-1.74,6.45,6.45,0,0,0,.08-1.4" transform="translate(-1.53 -3.12)"/><path class="cls-4" d="M99.13,12.65H95.85c-.18,0-.23,0-.23.23a7,7,0,0,0,.38,2.5,2.58,2.58,0,0,0,4.17.89,2.14,2.14,0,0,0,.58-1.33c0-.16.06-.22.23-.22.46,0,.92,0,1.38,0,.2,0,.22.07.21.24a3.09,3.09,0,0,1-1.78,2.63,5.5,5.5,0,0,1-4.7.14,3.5,3.5,0,0,1-2-2.38,8.38,8.38,0,0,1,.24-5.63,3.88,3.88,0,0,1,3.43-2.47,5.54,5.54,0,0,1,2.23.17,3.53,3.53,0,0,1,2.44,2.74,9.64,9.64,0,0,1,.23,2.33c0,.18-.1.16-.22.16H99.13m-.86-1.1h2.35c.08,0,.19,0,.18-.11a3.72,3.72,0,0,0-.67-2.28,2.44,2.44,0,0,0-3.46-.1,3.59,3.59,0,0,0-1,2.34c0,.17.09.15.2.15h2.38" transform="translate(-1.53 -3.12)"/><path class="cls-3" d="M41.92,16.75a6.25,6.25,0,0,1-1.22.86,4.76,4.76,0,0,1-2.87.5,2.83,2.83,0,0,1-2.48-2.59,9.75,9.75,0,0,1-.05-1.07q0-3.38,0-6.75c0-.2,0-.28.26-.27.44,0,.88,0,1.31,0,.19,0,.24,0,.24.24q0,3.21,0,6.41a5,5,0,0,0,.19,1.51A1.78,1.78,0,0,0,39,17a3.31,3.31,0,0,0,1.83-.39,1.9,1.9,0,0,0,1.08-1.72c0-1.84,0-3.67,0-5.51,0-.58,0-1.15,0-1.72,0-.14,0-.18.18-.18h1.46c.15,0,.17.05.17.18q0,5.06,0,10.13c0,.17-.05.2-.21.2H42.1c-.15,0-.2,0-.19-.19,0-.31,0-.63,0-1" transform="translate(-1.53 -3.12)"/><path class="cls-3" d="M45.86,14.68c.23,0,.47,0,.7,0s.22,0,.21.22a2.11,2.11,0,0,0,.08.72,1.62,1.62,0,0,0,1.08,1.18,3.19,3.19,0,0,0,2.07,0,1.37,1.37,0,0,0,1-1.12,1.6,1.6,0,0,0-.52-1.62,3.25,3.25,0,0,0-1.17-.56l-1.95-.59A3.12,3.12,0,0,1,45.83,12a2.79,2.79,0,0,1-.29-3,2.45,2.45,0,0,1,1.41-1.36,5.16,5.16,0,0,1,4,0,2.71,2.71,0,0,1,1.64,2.73c0,.11,0,.14-.14.14H51c-.18,0-.14-.11-.14-.21a1.85,1.85,0,0,0-.57-1.47,1.88,1.88,0,0,0-1.23-.45,2.2,2.2,0,0,0-1.79.58,1.33,1.33,0,0,0,.13,2,4.25,4.25,0,0,0,1.45.65,16.55,16.55,0,0,1,2.12.68,2.75,2.75,0,0,1,1.78,2.29A3,3,0,0,1,50.31,18a6.27,6.27,0,0,1-3.33-.1,2.84,2.84,0,0,1-2-3.08c0-.13.06-.14.16-.14h.75" transform="translate(-1.53 -3.12)"/><path class="cls-4" d="M93.5,7.44l-.74,2q-1.5,4.11-3,8.22c-.07.18-.14.25-.34.25-.49,0-1,0-1.48,0a.22.22,0,0,1-.26-.18Q86,12.68,84.34,7.6a1.38,1.38,0,0,1,0-.16h1.85c.16,0,.15.12.18.21L88,13.14l.82,2.69.06.17.38-1.1q1.24-3.61,2.47-7.22a.31.31,0,0,1,.36-.25c.45,0,.91,0,1.38,0" transform="translate(-1.53 -3.12)"/><path class="cls-3" d="M56.83,4.83c0,.79,0,1.57,0,2.34,0,.23.07.28.28.27.5,0,1,0,1.51,0,.15,0,.2,0,.19.19a6.64,6.64,0,0,0,0,.7c0,.15,0,.2-.19.19H57.05c-.17,0-.24,0-.23.22,0,.49,0,1,0,1.48q0,2.37,0,4.74a3.46,3.46,0,0,0,.12,1,1,1,0,0,0,.94.79,2.74,2.74,0,0,0,1.31-.17c.15-.06.2,0,.19.13s0,.58,0,.87c0,.1,0,.17-.12.2a5,5,0,0,1-2.7.22A1.89,1.89,0,0,1,55,16.16c-.08-1.15,0-2.3,0-3.45,0-1.34,0-2.69,0-4,0-.14,0-.18-.18-.17-.4,0-.79,0-1.19,0-.16,0-.21-.05-.2-.21s0-.47,0-.7,0-.18.18-.17h1.19c.16,0,.2,0,.2-.2,0-.63,0-1.26,0-1.89,0-.16,0-.22.21-.24.54-.08,1.08-.18,1.64-.28" transform="translate(-1.53 -3.12)"/><path class="cls-3" d="M30,8.68a4.72,4.72,0,0,1,1.12-1,2.39,2.39,0,0,1,2.51-.13.3.3,0,0,1,.18.3c0,.47,0,.95,0,1.47a3.17,3.17,0,0,0-1.45-.59,2,2,0,0,0-2.08.89A2.15,2.15,0,0,0,30,10.7c0,2.32,0,4.65,0,7,0,.21,0,.29-.27.28q-.68,0-1.36,0c-.22,0-.22-.09-.22-.26q0-4.5,0-9c0-.36,0-.71,0-1.07,0-.14,0-.18.17-.18h1.51c.14,0,.18,0,.17.18,0,.35,0,.71,0,1.06" transform="translate(-1.53 -3.12)"/><path class="cls-4" d="M44.87,23.38a1.44,1.44,0,0,1-.73-.15.85.85,0,0,1-.45-.78c0-.08,0-.21.12-.17s.3-.13.35.12a.74.74,0,0,0,1,.64.58.58,0,0,0,.43-.5.57.57,0,0,0-.25-.59,3.38,3.38,0,0,0-.66-.3,3.83,3.83,0,0,1-.48-.23.84.84,0,0,1-.41-.91.85.85,0,0,1,.67-.72,1.84,1.84,0,0,1,.94,0,.77.77,0,0,1,.61.72c0,.08.06.22-.11.2s-.31.12-.34-.14a.63.63,0,0,0-.88-.51.54.54,0,0,0-.42.45.49.49,0,0,0,.31.57c.27.13.55.23.82.35.6.28.78.62.66,1.19a1,1,0,0,1-1.11.75h-.1" transform="translate(-1.53 -3.12)"/><path class="cls-4" d="M81.45,21.49,81,23.05a.34.34,0,0,1-.48.27c-.08,0-.08-.07-.09-.12L79.74,21c0-.06-.06-.15,0-.14s.34-.12.4.13c.13.52.26,1,.4,1.55,0,.1,0,.22.13.29.19-.59.38-1.17.55-1.76a.26.26,0,0,1,.3-.22c.2,0,.2.13.23.24l.43,1.54c0,.07,0,.15.1.2l.5-1.79c0-.07,0-.16.13-.18s.29,0,.22.24c-.2.69-.41,1.38-.6,2.07-.05.19-.16.19-.31.2s-.24,0-.28-.21c-.15-.55-.31-1.09-.47-1.63h-.05" transform="translate(-1.53 -3.12)"/><path class="cls-4" d="M64.18,23.08a.27.27,0,0,1-.38.24c-.08,0-.07-.07-.07-.13,0-1.09,0-2.19,0-3.28,0-.19.13-.12.22-.13s.22-.06.22.13c0,.39,0,.77,0,1.15.07,0,.09,0,.12,0a.88.88,0,0,1,1.55.53,2.33,2.33,0,0,1,0,1.08.93.93,0,0,1-1.53.49l-.08-.06m1.25-1a2,2,0,0,0,0-.48c-.08-.36-.28-.54-.58-.53a.66.66,0,0,0-.64.61,6.67,6.67,0,0,0,0,.89.58.58,0,0,0,.53.54.57.57,0,0,0,.65-.42,1.75,1.75,0,0,0,.09-.62" transform="translate(-1.53 -3.12)"/><path class="cls-4" d="M87.14,21.08a1.34,1.34,0,0,1,.82-.31.66.66,0,0,1,.73.7c0,.57,0,1.13,0,1.7,0,.19-.11.16-.22.16s-.22,0-.22-.16c0-.49,0-1,0-1.48S88.1,21,87.75,21a.57.57,0,0,0-.61.65c0,.49,0,1,0,1.46,0,.21-.11.17-.23.17s-.21,0-.21-.17q0-1.6,0-3.2c0-.19.1-.16.21-.16s.23,0,.22.15c0,.36,0,.73,0,1.14" transform="translate(-1.53 -3.12)"/><path class="cls-4" d="M67.71,22.06H67c-.12,0-.16,0-.15.15a1.76,1.76,0,0,0,.11.54.58.58,0,0,0,.59.34.51.51,0,0,0,.51-.4c.06-.25.26-.14.37-.12s.05.16,0,.25a.61.61,0,0,1-.2.3,1.12,1.12,0,0,1-1.81-.58,1.92,1.92,0,0,1,.1-1.19,1,1,0,0,1,1.17-.57.88.88,0,0,1,.78.87c0,.4,0,.4-.36.4Zm-.19-.25H68c.13,0,.19,0,.17-.18a.58.58,0,0,0-.51-.58.64.64,0,0,0-.67.51c0,.17,0,.29.19.26a3.31,3.31,0,0,1,.39,0" transform="translate(-1.53 -3.12)"/><path class="cls-4" d="M48,22.06h-.68c-.12,0-.16,0-.15.15a1.6,1.6,0,0,0,.08.5.57.57,0,0,0,.58.39.53.53,0,0,0,.54-.4.32.32,0,0,1,.39-.13c.12.07,0,.17,0,.25a.6.6,0,0,1-.15.25,1.18,1.18,0,0,1-1.13.27.86.86,0,0,1-.71-.67,1.92,1.92,0,0,1,.1-1.37,1.08,1.08,0,0,1,1.34-.47A1.06,1.06,0,0,1,48.8,22c0,.12-.09.09-.16.09H48m-.21-.25h.46c.15,0,.17-.07.16-.19a.59.59,0,0,0-.52-.58.63.63,0,0,0-.65.47c-.09.28-.08.3.21.3h.34" transform="translate(-1.53 -3.12)"/><path class="cls-4" d="M73.28,22.07V21c0-.08,0-.18.11-.16s.28-.11.3.11.08.09.15,0a1.1,1.1,0,0,1,.87-.19.59.59,0,0,1,.52.58c.05.6,0,1.21,0,1.82,0,.21-.15.12-.24.13s-.18,0-.18-.14c0-.52,0-1,0-1.55s-.19-.59-.52-.58a.58.58,0,0,0-.61.63c0,.49,0,1,0,1.45,0,.17-.07.2-.21.19s-.22,0-.22-.19c0-.35,0-.71,0-1.07" transform="translate(-1.53 -3.12)"/><path class="cls-4" d="M96.93,23a1.33,1.33,0,0,1-.9.34.66.66,0,0,1-.67-.6c-.07-.6,0-1.21,0-1.82,0-.2.15-.11.24-.13s.2,0,.19.16c0,.46,0,.92,0,1.38a2,2,0,0,0,0,.22c0,.37.21.53.54.51a.56.56,0,0,0,.61-.58c0-.5,0-1,0-1.5,0-.18.07-.19.21-.19s.22,0,.22.19c0,.69,0,1.39,0,2.09,0,.11.05.25-.16.24s-.32,0-.25-.29" transform="translate(-1.53 -3.12)"/><path class="cls-4" d="M92.33,21.72c0,.47,0,.94,0,1.41,0,.24-.13.18-.26.19s-.23,0-.23-.19c0-.92,0-1.85,0-2.77,0-.19-.05-.26-.25-.24s-.4,0-.61,0-.16,0-.16-.17,0-.17.16-.17h2.19c.12,0,.16,0,.15.15s0,.19-.14.19-.39,0-.58,0-.3,0-.29.27c0,.44,0,.89,0,1.34" transform="translate(-1.53 -3.12)"/><path class="cls-4" d="M53.63,23.06a1.35,1.35,0,0,1-.83.31.66.66,0,0,1-.72-.64c0-.6,0-1.2,0-1.79,0-.2.16-.1.25-.12s.17,0,.17.16c0,.41,0,.83,0,1.24q0,.16,0,.31c0,.4.19.57.54.56a.56.56,0,0,0,.6-.6c0-.49,0-1,0-1.48,0-.17.06-.2.21-.2s.22,0,.22.19c0,.68,0,1.36,0,2,0,.09.11.26-.11.28s-.36.06-.31-.25" transform="translate(-1.53 -3.12)"/><path class="cls-4" d="M76.84,23.37a1.19,1.19,0,0,1-.52-.08.58.58,0,0,1-.39-.46c0-.09-.11-.24.07-.27s.31-.08.35.18.31.4.65.35a.38.38,0,0,0,.35-.42A.39.39,0,0,0,77,22.3l-.6-.19a.61.61,0,0,1-.47-.65.67.67,0,0,1,.52-.65,1.31,1.31,0,0,1,.72,0,.61.61,0,0,1,.46.45c0,.09.12.22,0,.25s-.32.1-.34-.15A.35.35,0,0,0,77,21a.53.53,0,0,0-.53.15c-.16.19-.1.42.16.53s.47.15.71.25a.69.69,0,0,1,.42.91.67.67,0,0,1-.48.44.94.94,0,0,1-.41.05" transform="translate(-1.53 -3.12)"/><path class="cls-4" d="M98.92,23.37c-.55,0-.85-.2-.92-.6,0-.08-.09-.23.08-.21s.29-.13.34.13a.56.56,0,0,0,.9.3.39.39,0,0,0-.14-.65c-.22-.1-.46-.15-.69-.23a.59.59,0,0,1-.43-.6.64.64,0,0,1,.44-.65,1.24,1.24,0,0,1,.85,0,.6.6,0,0,1,.43.51c0,.07.07.19-.07.17s-.29.11-.32-.1-.33-.42-.61-.38a.37.37,0,0,0-.33.31.32.32,0,0,0,.22.36c.25.1.52.17.77.28a.64.64,0,0,1,.4.68.68.68,0,0,1-.49.63,1.09,1.09,0,0,1-.45.07" transform="translate(-1.53 -3.12)"/><path class="cls-4" d="M49.81,22.08a1.4,1.4,0,0,0,.11.67.54.54,0,0,0,.56.34.48.48,0,0,0,.48-.4c0-.27.23-.2.4-.2s.07.09.06.15a.86.86,0,0,1-.27.5,1.09,1.09,0,0,1-1.7-.44,2,2,0,0,1,0-1.26,1.14,1.14,0,0,1,1.7-.47.73.73,0,0,1,.25.41c.07.26,0,.31-.24.3-.1,0-.14,0-.16-.13-.08-.35-.24-.49-.52-.5a.61.61,0,0,0-.6.47,1.57,1.57,0,0,0-.07.57" transform="translate(-1.53 -3.12)"/><path class="cls-4" d="M85.14,22c0-.24,0-.48,0-.73s0-.21-.19-.19-.19,0-.19-.14.1-.13.18-.12.18-.1.2-.24-.1-.26.1-.32.35-.07.32.24.07.37.33.32c.1,0,.15,0,.15.13s-.05.13-.15.13c-.32,0-.32,0-.32.34s0,.84,0,1.26.13.41.45.37c0,0,.13-.1.14,0s0,.21-.09.24a1,1,0,0,1-.62,0,.43.43,0,0,1-.31-.37,6,6,0,0,1,0-1" transform="translate(-1.53 -3.12)"/><path class="cls-4" d="M100.62,22c0-.25,0-.5,0-.75s0-.24-.19-.21-.17,0-.17-.13.07-.14.16-.12.21-.06.21-.22-.07-.25,0-.31a.4.4,0,0,1,.35,0c.08,0,0,.17,0,.25,0,.25,0,.39.32.33.08,0,.15,0,.16.12s-.07.15-.17.13c-.27,0-.32.08-.31.32,0,.41,0,.82,0,1.24s.13.45.46.41c0,0,.13-.1.14,0s0,.17-.07.23a.63.63,0,0,1-1-.57c0-.24,0-.47,0-.7" transform="translate(-1.53 -3.12)"/><path class="cls-4" d="M58.09,22.05c0-.25,0-.5,0-.75s0-.25-.21-.23-.18,0-.18-.12.09-.15.18-.14.2-.08.21-.23-.11-.29.13-.34.3-.07.28.23,0,.39.31.33c.1,0,.17,0,.17.13s-.1.13-.18.12c-.24,0-.32,0-.3.3,0,.42,0,.84,0,1.26s.11.44.46.41c0,0,.14-.08.14,0s0,.17-.08.23a.62.62,0,0,1-.95-.59v-.68" transform="translate(-1.53 -3.12)"/><path class="cls-4" d="M93.92,21.09c.25-.24.5-.4.81-.26s.05.26.08.4l-.19-.08a.49.49,0,0,0-.71.49c0,.49,0,1,0,1.48,0,.17-.07.19-.21.19s-.24,0-.23-.2c0-.67,0-1.34,0-2,0-.1-.11-.28.13-.29s.36,0,.32.27" transform="translate(-1.53 -3.12)"/><path class="cls-4" d="M55.34,21.09a.67.67,0,0,1,.77-.26c.19.07.06.25.1.41a2.51,2.51,0,0,0-.36-.1.45.45,0,0,0-.54.5c0,.5,0,1,0,1.51,0,.16,0,.21-.2.2s-.24,0-.24-.19c0-.7,0-1.39,0-2.09,0-.12,0-.25.17-.23s.31,0,.26.21c0,0,0,0,0,.06" transform="translate(-1.53 -3.12)"/><path class="cls-4" d="M72.05,22.09c0-.36,0-.73,0-1.09,0-.19.09-.19.22-.19s.21,0,.21.17q0,1.09,0,2.18c0,.19-.11.15-.22.16s-.22,0-.21-.17c0-.35,0-.71,0-1.06" transform="translate(-1.53 -3.12)"/><path class="cls-4" d="M57.16,22.1c0,.36,0,.71,0,1.07,0,.19-.11.15-.22.15s-.22,0-.21-.16c0-.73,0-1.46,0-2.19,0-.19.11-.15.22-.16s.22,0,.21.16c0,.37,0,.74,0,1.12" transform="translate(-1.53 -3.12)"/><path class="cls-4" d="M83.79,22.09c0-.36,0-.73,0-1.09,0-.15,0-.2.19-.19s.24,0,.23.17c0,.73,0,1.45,0,2.18,0,.19-.11.15-.22.16s-.22,0-.21-.17c0-.35,0-.71,0-1.06" transform="translate(-1.53 -3.12)"/><path class="cls-4" d="M103.77,21.14c.08-.23.17-.47.24-.7a.18.18,0,0,1,.21-.14c.13,0,.1.11.1.18,0,.27,0,.53,0,.8,0,0,0,.13-.05.13s-.08-.08-.08-.14c0-.21,0-.42,0-.63a.87.87,0,0,0,0-.15l-.28.77c0,.06,0,.16-.12.15s-.08-.09-.1-.15c-.09-.24-.17-.47-.28-.71a2.49,2.49,0,0,0-.05.66c0,.07,0,.19-.09.18s0-.12,0-.18c0-.24,0-.49,0-.73,0-.07-.06-.17.08-.19a.18.18,0,0,1,.23.15c.07.23.15.46.23.69h.05" transform="translate(-1.53 -3.12)"/><path class="cls-4" d="M102.53,21.43a.33.33,0,0,1-.36-.19s-.05-.11,0-.14.09,0,.1.07a.2.2,0,0,0,0,.08.24.24,0,0,0,.26.08.19.19,0,0,0,.15-.17.21.21,0,0,0-.15-.22,2.72,2.72,0,0,1-.29-.13.26.26,0,0,1-.12-.33c.06-.18.21-.21.37-.2s.26,0,.3.19,0,.1,0,.12a.08.08,0,0,1-.09-.06.31.31,0,0,0-.07-.12.2.2,0,0,0-.3,0c-.08.1,0,.2.07.26l.22.1c.16.07.28.17.24.37s-.19.26-.38.26" transform="translate(-1.53 -3.12)"/><path class="cls-4" d="M83.79,20.05c0-.17,0-.21.2-.21s.22.06.23.23-.08.21-.24.21-.21-.09-.18-.23" transform="translate(-1.53 -3.12)"/><path class="cls-4" d="M72.47,20.06c0,.16,0,.23-.19.22s-.23,0-.23-.22.06-.23.23-.23.23.06.19.22" transform="translate(-1.53 -3.12)"/><path class="cls-4" d="M57.15,20.1c.05.21-.09.17-.22.19s-.19-.11-.2-.25.09-.18.23-.2.21.1.19.26" transform="translate(-1.53 -3.12)"/><path class="cls-4" d="M106.06,9c.31.24.23.63.41.93-.38.06-.39.06-.47-.3s-.17-.51-.51-.52c-.13,0-.19,0-.18.17s0,.36,0,.53-.09.14-.19.14-.16,0-.16-.15q0-.84,0-1.68c0-.12,0-.15.15-.15h.63c.24,0,.48,0,.57.31a.59.59,0,0,1-.27.7m-.75-.43c0,.11-.11.33.2.32s.48-.09.48-.33-.1-.3-.45-.33-.24.16-.24.35" transform="translate(-1.53 -3.12)"/></g></g></g></svg>