<svg xmlns="http://www.w3.org/2000/svg" viewBox="0 0 28.35 33.83"><defs><style>.cls-1{fill:#ccc;}.cls-2{fill:#999;}.cls-3{fill:none;stroke:#ccc;stroke-miterlimit:10;stroke-width:0.5px;}</style></defs><title>Zasób 14</title><g id="Warstwa_2" data-name="Warstwa 2"><g id="Ebene_1" data-name="Ebene 1"><path class="cls-1" d="M15.78,0a33.63,33.63,0,0,1,5.35.61,26.46,26.46,0,0,1,7,2.4.31.31,0,0,1,.19.33q0,8.09,0,16.18a13.84,13.84,0,0,1-.24,2.74,10.41,10.41,0,0,1-1.94,4.34,11.45,11.45,0,0,1-3.55,2.94c-2.3,1.31-4.68,2.44-7.08,3.53-.41.19-.83.34-1.22.57H14c-.05-.07-.14-.08-.21-.11C11.41,32.45,9,31.34,6.7,30.08A18.77,18.77,0,0,1,4,28.38,10.2,10.2,0,0,1,.11,21.5,4.11,4.11,0,0,0,0,20.69V3.09l.74-.36A29.14,29.14,0,0,1,11.76,0C12,0,15.74,0,15.78,0ZM27,12.18q0-4.26,0-8.52c0-.15,0-.21-.19-.22-.71-.06-1.41-.12-2.12-.16a46.94,46.94,0,0,0-7.41.12,31.87,31.87,0,0,0-6.65,1.38,25.51,25.51,0,0,0-9.23,5.33.4.4,0,0,0-.14.33q0,4.62,0,9.25a11.85,11.85,0,0,0,.16,2,9,9,0,0,0,2.37,4.81,12.09,12.09,0,0,0,3,2.13C9.15,30,11.59,31.09,14,32.19a.29.29,0,0,0,.26,0l2.08-.95a62.94,62.94,0,0,0,6.12-3.15,9,9,0,0,0,3.87-4.51A10.63,10.63,0,0,0,27,19.7Q27,15.94,27,12.18Z"/><path class="cls-2" d="M27,12.18q0,3.76,0,7.52a10.63,10.63,0,0,1-.67,3.87,9,9,0,0,1-3.87,4.51,62.94,62.94,0,0,1-6.12,3.15l-2.08.95a.29.29,0,0,1-.26,0C11.59,31.09,9.15,30,6.8,28.65a12.09,12.09,0,0,1-3-2.13A9,9,0,0,1,1.46,21.7a11.85,11.85,0,0,1-.16-2q0-4.62,0-9.25a.4.4,0,0,1,.14-.33,25.51,25.51,0,0,1,9.23-5.33A31.87,31.87,0,0,1,17.32,3.4a46.94,46.94,0,0,1,7.41-.12c.71,0,1.42.1,2.12.16.17,0,.19.08.19.22Q27,7.92,27,12.18Zm-15.83,7.5q0,3.91,0,7.83c0,.18,0,.23.22.22.67,0,1.34,0,2,0,.2,0,.24-.06.24-.25,0-1.57,0-3.15,0-4.72,0-.17,0-.21.21-.17a3.87,3.87,0,0,0,4.4-2.13,7.94,7.94,0,0,0,.78-3.16,8.8,8.8,0,0,0-.46-3.65,3.94,3.94,0,0,0-2.41-2.55,5.9,5.9,0,0,0-4.85.48.28.28,0,0,0-.15.3Q11.22,15.77,11.22,19.67ZM9.95,16.4c0-1.71,0-3.42,0-5.13,0-.19-.05-.23-.24-.23-.66,0-1.32,0-2,0-.2,0-.24.06-.24.25,0,2.95,0,5.89,0,8.84a.3.3,0,0,1-.21.32,2.39,2.39,0,0,1-1.09.18,1.09,1.09,0,0,1-1-.74A2.84,2.84,0,0,1,5,18.78Q5,15,5,11.26c0-.18,0-.23-.22-.22-.68,0-1.37,0-2,0-.15,0-.21,0-.21.2q0,3.79,0,7.58a6.2,6.2,0,0,0,.12,1.25A3,3,0,0,0,5,22.58a5.31,5.31,0,0,0,1.45.14,6.69,6.69,0,0,0,3.33-.87.32.32,0,0,0,.18-.32C9.95,19.82,9.95,18.11,9.95,16.4Zm9.85,3.32a.33.33,0,0,0,0,.21c0,.61,0,1.22,0,1.82a.29.29,0,0,0,.17.3,5.29,5.29,0,0,0,2.91.65,3.31,3.31,0,0,0,2.55-1.33A3.64,3.64,0,0,0,26,19a3.14,3.14,0,0,0-.78-2,7.34,7.34,0,0,0-1.88-1.42,5.11,5.11,0,0,1-.92-.62,1.26,1.26,0,0,1-.38-1.4,1.17,1.17,0,0,1,1.13-.77,3,3,0,0,1,2.25.8c.06,0,.1.12.21.14,0-.62,0-1.23,0-1.83a.41.41,0,0,0-.22-.4,4.2,4.2,0,0,0-3.17-.55,3.05,3.05,0,0,0-2.49,2.23,3.2,3.2,0,0,0,.9,3.38,9.81,9.81,0,0,0,1.6,1.13,3.51,3.51,0,0,1,1,.81,1.36,1.36,0,0,1-.86,2.23,2.92,2.92,0,0,1-1.74-.35A4.54,4.54,0,0,1,19.8,19.72Z"/><path class="cls-1" d="M11.22,19.67q0-3.9,0-7.8a.28.28,0,0,1,.15-.3,5.9,5.9,0,0,1,4.85-.48,3.94,3.94,0,0,1,2.41,2.55,8.8,8.8,0,0,1,.46,3.65,7.94,7.94,0,0,1-.78,3.16,3.87,3.87,0,0,1-4.4,2.13c-.19,0-.21,0-.21.17,0,1.57,0,3.15,0,4.72,0,.19,0,.25-.24.25-.67,0-1.34,0-2,0-.18,0-.22,0-.22-.22Q11.22,23.59,11.22,19.67Zm5.37-3.19c0-.21,0-.57,0-.94a5.38,5.38,0,0,0-.35-1.68,1.61,1.61,0,0,0-1.13-1,2.42,2.42,0,0,0-1.14,0,.26.26,0,0,0-.23.3c0,2.38,0,4.75,0,7.13a.93.93,0,0,1,0,.1.14.14,0,0,0,.11.16A1.78,1.78,0,0,0,16,19.84a3.08,3.08,0,0,0,.33-.76A9.42,9.42,0,0,0,16.58,16.48Z"/><path class="cls-1" d="M9.95,16.4c0,1.71,0,3.42,0,5.13a.32.32,0,0,1-.18.32,6.69,6.69,0,0,1-3.33.87A5.31,5.31,0,0,1,5,22.58a3,3,0,0,1-2.31-2.51,6.2,6.2,0,0,1-.12-1.25q0-3.79,0-7.58c0-.17.05-.2.21-.2.68,0,1.37,0,2,0,.18,0,.22,0,.22.22Q5,15,5,18.78a2.84,2.84,0,0,0,.16,1.09,1.09,1.09,0,0,0,1,.74,2.39,2.39,0,0,0,1.09-.18.3.3,0,0,0,.21-.32c0-2.95,0-5.89,0-8.84,0-.19,0-.25.24-.25.66,0,1.32,0,2,0,.18,0,.24,0,.24.23C9.94,13,9.95,14.69,9.95,16.4Z"/><path class="cls-1" d="M19.8,19.72a4.54,4.54,0,0,0,.91.59,2.92,2.92,0,0,0,1.74.35,1.36,1.36,0,0,0,.86-2.23,3.51,3.51,0,0,0-1-.81,9.81,9.81,0,0,1-1.6-1.13,3.2,3.2,0,0,1-.9-3.38,3.05,3.05,0,0,1,2.49-2.23,4.2,4.2,0,0,1,3.17.55.41.41,0,0,1,.22.4c0,.61,0,1.21,0,1.83-.11,0-.15-.09-.21-.14a3,3,0,0,0-2.25-.8,1.17,1.17,0,0,0-1.13.77,1.26,1.26,0,0,0,.38,1.4,5.11,5.11,0,0,0,.92.62A7.34,7.34,0,0,1,25.26,17,3.14,3.14,0,0,1,26,19a3.64,3.64,0,0,1-.65,2.41,3.31,3.31,0,0,1-2.55,1.33,5.29,5.29,0,0,1-2.91-.65.29.29,0,0,1-.17-.3c0-.61,0-1.22,0-1.82A.33.33,0,0,1,19.8,19.72Z"/><path class="cls-1" d="M24.21,33.18c-.49.1-.45-.41-.73-.56,0,.16,0,.31,0,.46s0,.13-.13.13-.14,0-.14-.12c0-.4,0-.8,0-1.2,0-.09,0-.14.13-.13s.27,0,.4,0a.37.37,0,0,1,.35.32.36.36,0,0,1-.18.43c-.11.05-.09.1,0,.18Zm-.73-1c0,.07-.07.22.11.21s.26,0,.26-.22-.11-.19-.24-.21S23.5,32.08,23.48,32.17Z"/><path class="cls-2" d="M16.58,16.48a9.42,9.42,0,0,1-.28,2.6,3.08,3.08,0,0,1-.33.76,1.78,1.78,0,0,1-2.18.72.14.14,0,0,1-.11-.16.93.93,0,0,0,0-.1c0-2.38,0-4.75,0-7.13a.26.26,0,0,1,.23-.3,2.42,2.42,0,0,1,1.14,0,1.61,1.61,0,0,1,1.13,1,5.38,5.38,0,0,1,.35,1.68C16.57,15.91,16.59,16.27,16.58,16.48Z"/><circle class="cls-3" cx="23.65" cy="32.49" r="1.09"/></g></g></svg>