<svg xmlns="http://www.w3.org/2000/svg" viewBox="0 0 40.21 32"><defs><style>.cls-1{fill:#999;}.cls-2{fill:#ccc;}</style></defs><title>Zasób 15</title><g id="Warstwa_2" data-name="Warstwa 2"><g id="Ebene_1" data-name="Ebene 1"><path class="cls-1" d="M40.21,0c-.08.35-.17.7-.24,1.06L38.38,8.73l-1.63,7.81-1.42,6.81s0,.1,0,.15H4.36l1.13-.44,23-8.93,2.52-1a1.21,1.21,0,0,0,.25-.14,3.2,3.2,0,0,1,1.51-.53,1,1,0,0,0,.34-.08A4.49,4.49,0,0,0,35.62,9a2.92,2.92,0,0,0,0-1.25l0-.15a.91.91,0,0,0-.93-.76,17.43,17.43,0,0,0-2.84,0,.34.34,0,0,1-.38-.18,2,2,0,0,0-.79-.69,7.38,7.38,0,0,0-2-.71l-12.33-3L6.91.06,6.74,0H40.06A.73.73,0,0,1,40.21,0Z"/><path class="cls-1" d="M4.09,32l-.19-.05a1.27,1.27,0,0,1-1-1.63A2.79,2.79,0,0,1,3,29.88a1.72,1.72,0,0,1,1.65-1.15,2,2,0,0,1,.56,0,1.15,1.15,0,0,1,.89,1,1.93,1.93,0,0,1-.9,2,4.1,4.1,0,0,1-.66.23l-.16,0Zm.71-2.72a1.27,1.27,0,0,0-1.25,1.43.81.81,0,0,0,.88.73,1,1,0,0,0,.93-.71A2.57,2.57,0,0,0,5.49,30C5.5,29.5,5.27,29.28,4.8,29.28Z"/><path class="cls-1" d="M0,31.87c.07-.29.14-.58.2-.87q.22-1.06.44-2.13c0-.11.07-.14.18-.14.41,0,.83,0,1.24,0a.72.72,0,0,1,.81.76,1,1,0,0,1-.5,1,1.68,1.68,0,0,1-1,.25.18.18,0,0,1-.12-.11,1.12,1.12,0,0,1,0-.26,2.14,2.14,0,0,0,.39-.06A1.73,1.73,0,0,0,2,30.08a.45.45,0,0,0,.14-.53c-.06-.16-.19-.23-.42-.23-.49,0-.49,0-.59.48-.14.65-.28,1.3-.41,1.95,0,.12-.07.18-.21.17s-.37,0-.55,0Z"/><path class="cls-1" d="M16.44,7.64,18.76,14l.09,0a39.49,39.49,0,0,1,6.39-2.32c1.84-.53,3.71-1,5.59-1.32.45-.08.9-.14,1.36-.2a1.09,1.09,0,0,1,.37,0,.49.49,0,0,1,.4.49c0,.21-.19.35-.46.38s-.83.11-1.24.19a38.53,38.53,0,0,0-5.16,1.34,100.79,100.79,0,0,0-9.78,3.83c-4.66,2.06-9.2,4.35-13.73,6.69l-.89.45c0-.09,0-.14,0-.19L4.37,10.87l1-4.76c0-.11.07-.17.2-.17.9,0,1.81-.1,2.71-.11q4,0,8,0,2.76,0,5.53.07c1.53,0,3.07.09,4.6.17a12,12,0,0,1,3.07.53,3.36,3.36,0,0,1,1.15.6,1.37,1.37,0,0,1,.29.3.39.39,0,0,0,.4.19c.85,0,1.71,0,2.56,0a2.75,2.75,0,0,1,.58.06.71.71,0,0,1,.6.9,6.57,6.57,0,0,1-.67,1.81,3.43,3.43,0,0,1-.26.45.34.34,0,0,1-.52.1s0-.2,0-.28A2.93,2.93,0,0,0,34,8.92c0-.11-.05-.19-.17-.19a10.67,10.67,0,0,0-1.32,0c-1.47.13-2.94.29-4.41.43A1.13,1.13,0,0,1,27.58,9a.26.26,0,0,1-.15-.19c0-.06.1-.13.17-.17a.78.78,0,0,1,.19,0c.48-.14,1-.27,1.42-.43a1.2,1.2,0,0,0,.42-.29c.11-.1.06-.21-.09-.24H16.44Z"/><path class="cls-1" d="M5.16,25.8l-.34,1.7v0c-.09.47-.09.47-.56.46H4.06l.2-1c.14-.68.29-1.35.43-2,0-.11.06-.16.18-.15a4.94,4.94,0,0,0,.57,0c.12,0,.16,0,.2.15.2.63.41,1.25.61,1.87l.09.26a1.48,1.48,0,0,0,.05-.15c.14-.66.27-1.32.41-2,0-.11.06-.16.19-.15s.32,0,.5,0l-.34,1.62c-.1.47-.2.94-.3,1.41,0,.11-.07.15-.18.15h-.6c-.11,0-.15,0-.19-.14-.21-.63-.42-1.26-.63-1.89l-.06-.16Z"/><path class="cls-1" d="M13.84,28,14,27.2,14.45,25c0-.07,0-.16.13-.16.54,0,1.08,0,1.62,0a1,1,0,0,1,1,1.11,3.08,3.08,0,0,1-.1.67A1.77,1.77,0,0,1,15.41,28c-.49,0-1,0-1.49,0Zm.81-.55h.42A1.33,1.33,0,0,0,16.46,26a.53.53,0,0,0-.56-.59h-.68c-.11,0-.16,0-.18.14-.08.38-.16.76-.24,1.14Z"/><path class="cls-1" d="M21.81,31.89l.65-3.14c.58,0,1.13,0,1.69,0a.56.56,0,0,1,.54.62,2.09,2.09,0,0,1,0,.43.75.75,0,0,1-.62.63l-.11,0,0,0,.41,1.39h-.62a.13.13,0,0,1-.09-.07c-.17-.53-.33-1.05-.49-1.58,0,0,0,0,0,0,.22-.07.44-.13.64-.22a.44.44,0,0,0,.27-.39.26.26,0,0,0-.27-.31h-.59c-.12,0-.12.08-.13.16q-.21,1-.41,1.95c-.1.49-.1.49-.6.49Z"/><path class="cls-1" d="M3.63,24.81h.69l-.14.7c-.11.52-.22,1-.33,1.55a1.07,1.07,0,0,1-.55.76A2.13,2.13,0,0,1,1.67,28a.87.87,0,0,1-.61-1.14c.13-.64.27-1.29.4-1.93,0-.12.08-.15.19-.15h.56c-.07.32-.13.61-.19.91s-.17.8-.23,1.2.16.66.59.63a.85.85,0,0,0,.8-.71c.14-.62.27-1.24.4-1.86Z"/><path class="cls-1" d="M25.19,28h-2c.11-.18.2-.36.31-.51s.11,0,.16,0h.86l-.24-1.82h0l-.1.15-1.25,2.12a.23.23,0,0,1-.24.14h-.53l.08-.16,1.68-2.87a.24.24,0,0,1,.25-.15h.54a.16.16,0,0,1,.12.09c.14,1,.27,2,.41,2.95A1,1,0,0,1,25.19,28Z"/><path class="cls-1" d="M13.36,31.89h-2c.11-.18.2-.36.31-.52s.09,0,.14,0h.88l-.24-1.81h0l-.1.15c-.41.69-.82,1.38-1.22,2.08a.3.3,0,0,1-.33.18c-.14,0-.29,0-.47,0l.09-.18,1.68-2.87a.21.21,0,0,1,.22-.13h.54c.09,0,.13,0,.14.12l.4,2.93A.9.9,0,0,1,13.36,31.89Z"/><path class="cls-1" d="M31.16,31.87l.15-.73c.16-.74.32-1.48.47-2.22,0-.14.08-.2.24-.19.62,0,1.24,0,1.86,0h.21c0,.19-.07.36-.12.53s-.09,0-.14,0H32.57a.17.17,0,0,0-.2.16c0,.18-.08.36-.12.56h1.31a2.43,2.43,0,0,1-.08.39.22.22,0,0,1-.17.08h-1c-.12,0-.18,0-.2.16s-.08.42-.13.66h1.56c0,.19-.06.34-.1.5a.14.14,0,0,1-.1.08H31.24Z"/><path class="cls-1" d="M30.58,24.82c0,.17-.06.33-.11.48a.19.19,0,0,1-.15.09H29.07c-.12,0-.18,0-.2.16s-.08.36-.12.56h1.32a3.46,3.46,0,0,1-.09.41s-.1.06-.15.06h-1a.16.16,0,0,0-.19.16c0,.21-.08.42-.13.67H30c0,.19-.06.36-.1.52a.13.13,0,0,1-.1.06H27.66l.17-.84L28.29,25c0-.09,0-.16.16-.16h2.13Z"/><path class="cls-1" d="M11.23,27.95l.18-.88c.14-.69.29-1.37.43-2.06,0-.16.09-.21.26-.21h2.05c0,.19-.07.36-.12.52s-.1.06-.15.06H12.64c-.12,0-.18,0-.21.15s-.08.36-.12.56h1.32a2.71,2.71,0,0,1-.08.38.19.19,0,0,1-.15.09h-1c-.12,0-.18,0-.2.16s-.08.42-.13.67h1.56c0,.19-.06.35-.1.5a.14.14,0,0,1-.1.07H11.29Z"/><path class="cls-1" d="M21.58,31.33c0,.19-.06.35-.1.5a.14.14,0,0,1-.11.07H19.26l-.06,0,.2-1c.14-.68.29-1.36.44-2,0,0,.07-.12.11-.12h2.17c0,.19-.07.36-.12.53s-.09.05-.13.05H20.61c-.13,0-.18,0-.2.16s-.08.36-.12.56h1.32a2.88,2.88,0,0,1-.09.4s-.11.07-.16.07h-1c-.12,0-.18,0-.2.16s-.08.42-.13.67Z"/><path class="cls-1" d="M27.93,28.73l-.06.14-1.71,2.92a.22.22,0,0,1-.23.13c-.15,0-.3,0-.45,0a.18.18,0,0,1-.13-.11c-.17-1-.34-1.94-.51-2.91a1.31,1.31,0,0,1,0-.15h.56s.09.07.1.11c.12.66.23,1.32.34,2l.05.27.12-.18,1.13-2.05a.22.22,0,0,1,.23-.14Z"/><path class="cls-1" d="M30.19,28c0-.18.05-.33.1-.48s.1-.08.15-.08h1c.14,0,.27,0,.33-.16a.33.33,0,0,0-.12-.39c-.23-.21-.46-.41-.66-.64a1.37,1.37,0,0,1-.27-.45.57.57,0,0,1,.25-.7,1.67,1.67,0,0,1,.65-.23c.41,0,.83,0,1.26,0,0,.16-.06.32-.1.48s-.09.07-.14.07h-.94c-.12,0-.24,0-.29.14s0,.23.11.32l.78.76a.71.71,0,0,1-.2,1.21,1.69,1.69,0,0,1-.59.15C31.07,28,30.64,28,30.19,28Z"/><path class="cls-1" d="M6,31.88c0-.17.06-.33.11-.49s.1-.06.15-.06h1c.14,0,.27,0,.33-.18a.33.33,0,0,0-.12-.37l-.63-.6a1.42,1.42,0,0,1-.2-.24.68.68,0,0,1,.32-1.06,2.86,2.86,0,0,1,.51-.13,1.12,1.12,0,0,1,.23,0h1c0,.18-.06.35-.11.52s-.09.06-.14.07H7.45c-.12,0-.24,0-.29.15s0,.22.11.31l.79.77a.7.7,0,0,1-.2,1.2,1.84,1.84,0,0,1-.63.16c-.38,0-.77,0-1.15,0Z"/><path class="cls-1" d="M20.48,24.83c0,.16-.06.33-.1.5s-.09.06-.13.06h-.94c-.13,0-.25,0-.3.16s0,.22.12.31l.77.75a.72.72,0,0,1-.23,1.24,2.26,2.26,0,0,1-.38.12A1.24,1.24,0,0,1,19,28H17.81c0-.18.06-.34.1-.49s.1-.08.15-.08h1c.15,0,.29,0,.36-.17s0-.29-.15-.41-.41-.38-.61-.58a1.44,1.44,0,0,1-.27-.38.64.64,0,0,1,.27-.85,1.54,1.54,0,0,1,.6-.19C19.63,24.81,20,24.83,20.48,24.83Z"/><path class="cls-1" d="M19.45,28.73c0,.18-.05.34-.1.5s-.1.08-.15.08h-.94a.27.27,0,0,0-.29.15c-.06.13,0,.22.11.31l.77.75a.71.71,0,0,1-.22,1.24,1.62,1.62,0,0,1-.55.13c-.43,0-.86,0-1.31,0,0-.18.05-.34.1-.5s.1-.06.15-.06h1c.15,0,.28,0,.34-.18a.32.32,0,0,0-.12-.37c-.21-.2-.43-.39-.63-.6a1.45,1.45,0,0,1-.27-.38.63.63,0,0,1,.27-.85,3.57,3.57,0,0,1,.71-.22.86.86,0,0,1,.22,0Z"/><path class="cls-1" d="M31,31.28c0,.14-.06.3-.1.45a.16.16,0,0,1-.1.09,2.4,2.4,0,0,1-1.27,0,1.25,1.25,0,0,1-.84-1.63,2,2,0,0,1,1.87-1.51,3.21,3.21,0,0,1,.7,0,.16.16,0,0,1,.16.2,2.34,2.34,0,0,0,0,.3,8.11,8.11,0,0,0-.83,0,1.28,1.28,0,0,0-1.22,1.33.78.78,0,0,0,.86.81A6.78,6.78,0,0,0,31,31.28Z"/><path class="cls-1" d="M25.42,24.82H28c0,.18-.07.34-.12.5a.16.16,0,0,1-.12.07,4.54,4.54,0,0,1-.59,0c-.18,0-.25,0-.28.23-.14.74-.31,1.48-.46,2.22,0,.11-.06.15-.17.15h-.57l.54-2.58h-.92Z"/><path class="cls-1" d="M9.14,31.9l.54-2.59H8.75l.11-.58h2.59c0,.17-.07.34-.12.5s-.09.07-.14.08a5.58,5.58,0,0,1-.64,0c-.15,0-.19.07-.21.19-.15.75-.32,1.5-.47,2.26,0,.11-.06.16-.17.15Z"/><path class="cls-1" d="M23.33,24.8c0,.19-.08.35-.13.51s-.08.07-.13.07h-.64c-.13,0-.18,0-.21.17-.15.74-.31,1.48-.46,2.23,0,.15-.08.22-.25.2s-.33,0-.51,0l.54-2.58h-.92c0-.2.07-.37.11-.54s.06,0,.09,0Z"/><path class="cls-1" d="M11.53,24.81v0c-.09.55-.09.55-.64.55s-.41,0-.5.4c-.14.68-.29,1.35-.42,2,0,.12-.07.17-.2.16H9.23l.54-2.58H8.84L9,24.81Z"/><path class="cls-2" d="M.76,28.42c.08-.11,33.14-.14,33.44-.07,0,0-.07.06-.1.06H.76Z"/><path class="cls-1" d="M13.59,31.9l.26-1.29c.12-.58.24-1.15.36-1.73,0-.11.06-.16.18-.16h.55l-.53,2.6h1.37c0,.2-.07.36-.11.53s-.06.05-.09.05Z"/><path class="cls-1" d="M8.65,24.8,8.4,26c-.13.62-.26,1.23-.39,1.85,0,.12-.07.16-.19.15H7.27l.14-.69c.17-.78.33-1.57.5-2.35,0-.1.06-.14.16-.14Z"/><path class="cls-1" d="M27.41,31.9,28,29.1c.08-.38.08-.38.47-.38h.32c0,.17-.06.33-.09.48-.17.83-.35,1.67-.52,2.5,0,.15-.08.21-.24.2S27.6,31.9,27.41,31.9Z"/></g></g></svg>