<svg xmlns="http://www.w3.org/2000/svg" xmlns:xlink="http://www.w3.org/1999/xlink" viewBox="0 0 50.41 15.43"><defs><style>.cls-1{fill:none;}.cls-2{clip-path:url(#clip-path);}.cls-3{fill:#999;}.cls-4{fill:#ccc;}</style><clipPath id="clip-path" transform="translate(-0.34 -0.55)"><rect class="cls-1" width="51.15" height="16.53"/></clipPath></defs><title>Zasób 15</title><g id="Warstwa_2" data-name="Warstwa 2"><g id="Payment_icons_Germany" data-name="Payment icons Germany"><g class="cls-2"><path class="cls-3" d="M50.75,15.69v.08H47.06c-.1,0-.11-.06-.13-.13-.15-.66-.29-1.33-.44-2,0-.09-.05-.13-.15-.13h-5a.15.15,0,0,0-.17.12l-.77,2a.14.14,0,0,1-.16.12h-4c-.12,0-.14,0-.09-.13l.67-1.5,4.11-9.29c.43-1,.85-1.93,1.28-2.89a1.8,1.8,0,0,1,1.09-1,2.76,2.76,0,0,1,.88-.14h3.16c.09,0,.12,0,.14.11.35,1.59.71,3.18,1.06,4.77l2.07,9.37a4.06,4.06,0,0,0,.15.62M44.58,4.88l0,.06-2.09,5.39c-.05.13,0,.14.1.14h3.1c.14,0,.13-.05.11-.15L44.58,4.88" transform="translate(-0.34 -0.55)"/><path class="cls-3" d="M33.93.55a1.55,1.55,0,0,0,.43,0,10.34,10.34,0,0,1,2.52.54.11.11,0,0,1,.09.15q-.26,1.5-.51,3c0,.11,0,.13-.15.08a7.46,7.46,0,0,0-3.56-.68,3.52,3.52,0,0,0-1.17.23,1.76,1.76,0,0,0-.62.4.87.87,0,0,0,0,1.27,3.05,3.05,0,0,0,.72.55c.47.28,1,.51,1.44.74A7.76,7.76,0,0,1,35.3,8.32a3.39,3.39,0,0,1,1,1.89A4.33,4.33,0,0,1,35.85,13a5,5,0,0,1-2.27,2.1,8.37,8.37,0,0,1-2.63.77c-.28,0-.56.07-.84.08,0,0,0,0-.06,0h-1.5a1.71,1.71,0,0,0-.44-.05A12.56,12.56,0,0,1,25,15.28c-.24-.09-.24-.09-.19-.33l.5-2.93a.47.47,0,0,0,0-.07c0-.09,0-.12.13-.07a11.53,11.53,0,0,0,1.32.54,8.33,8.33,0,0,0,3.49.4,2.66,2.66,0,0,0,1.38-.48,1.11,1.11,0,0,0,.49-1.17,1.2,1.2,0,0,0-.47-.69,6.49,6.49,0,0,0-1.41-.83,11.69,11.69,0,0,1-2.07-1.17,4.38,4.38,0,0,1-1.4-1.59,3.51,3.51,0,0,1-.09-2.74A4.46,4.46,0,0,1,28.41,1.9,7.42,7.42,0,0,1,31.46.7,9.15,9.15,0,0,1,32.66.57s.05,0,.07,0Z" transform="translate(-0.34 -0.55)"/><path class="cls-4" d="M.34,1.05h0C.41.81.41.81.66.81H6.88a2.92,2.92,0,0,1,.88.12A1.55,1.55,0,0,1,8.85,2.21q.67,3.26,1.36,6.52a.75.75,0,0,1,0,.11C10,8.41,9.83,8,9.6,7.57A12.07,12.07,0,0,0,6.36,3.89,12.33,12.33,0,0,0,4.64,2.77,13.52,13.52,0,0,0,2.95,2,17.65,17.65,0,0,0,.43,1.14H.34Z" transform="translate(-0.34 -0.55)"/><path class="cls-3" d="M4.64,2.77A12.15,12.15,0,0,1,6.36,3.89,12.07,12.07,0,0,1,9.6,7.57c.23.41.42.84.62,1.27.19.71.29,1.43.46,2.15a.4.4,0,0,0,.08-.16L14.22,2c.14-.35.27-.69.4-1A.15.15,0,0,1,14.8.81h4c.16,0,.16,0,.09.15L16.86,5.77l-4.24,9.85a.16.16,0,0,1-.17.12H8.38a.14.14,0,0,1-.17-.12L4.68,3c0-.06,0-.12,0-.18" transform="translate(-0.34 -0.55)"/><path class="cls-3" d="M20.14,15.76H18.23c-.1,0-.13,0-.11-.13q.32-1.85.64-3.7L19.24,9,20,4.89l.65-3.83c0-.25,0-.25.29-.25h3.7c.12,0,.14,0,.12.14q-.42,2.46-.85,4.92L23,11.11q-.39,2.27-.77,4.53c0,.1-.06.12-.16.12H20.14" transform="translate(-0.34 -0.55)"/></g></g></g></svg>