<svg xmlns="http://www.w3.org/2000/svg" viewBox="0 0 89.57 89.57"><defs><style>.cls-1{fill:#fff;}</style></defs><title>Zasób 160</title><g id="Warstwa_2" data-name="Warstwa 2"><g id="Footer_Header" data-name="Footer/Header"><path class="cls-1" d="M74.34,58.08A16.28,16.28,0,0,1,58.08,74.34H31.49A16.28,16.28,0,0,1,15.23,58.08V31.49A16.28,16.28,0,0,1,31.49,15.23H58.08A16.28,16.28,0,0,1,74.34,31.49ZM44.78,0A44.78,44.78,0,1,0,89.57,44.78,44.78,44.78,0,0,0,44.78,0"/><path class="cls-1" d="M60.83,32.89a3.36,3.36,0,1,1,3.36-3.36,3.37,3.37,0,0,1-3.36,3.36m-16,29.37a17,17,0,1,1,17-17,17.06,17.06,0,0,1-17,17M58.08,22H31.49A9.54,9.54,0,0,0,22,31.49V58.08a9.54,9.54,0,0,0,9.53,9.53H58.08a9.54,9.54,0,0,0,9.53-9.53V31.49A9.55,9.55,0,0,0,58.08,22"/><path class="cls-1" d="M44.78,34.91A10.31,10.31,0,1,0,55.09,45.22,10.32,10.32,0,0,0,44.78,34.91"/></g></g></svg>