<svg xmlns="http://www.w3.org/2000/svg" width="26" height="17" viewBox="0 0 26 17">
  <defs>
    <style>
      .cls-1 {
        fill-rule: evenodd;
      }
    </style>
  </defs>
  <path class="cls-1" d="M1424.82,1728.18a0.143,0.143,0,0,0-.1-0.04h-25.44a0.14,0.14,0,0,0-.09.03,0.159,0.159,0,0,0-.05.1v16.46a0.149,0.149,0,0,0,.04.09,0.143,0.143,0,0,0,.1.04h25.44a0.14,0.14,0,0,0,.09-0.03,0.159,0.159,0,0,0,.05-0.1v-16.46A0.149,0.149,0,0,0,1424.82,1728.18Zm-8.67,8.32c2.43-2.08,4.84-4.14,7.3-6.24v12.48C1421.01,1740.64,1418.59,1738.58,1416.15,1736.5Zm-8.3,0c-2.44,2.08-4.85,4.14-7.3,6.23v-12.47C1402.99,1732.35,1405.41,1734.41,1407.85,1736.5Zm-5.32,6.15,3.29-2.81c0.95-.81,1.9-1.62,2.84-2.43a0.215,0.215,0,0,1,.13-0.06,0.268,0.268,0,0,1,.16.08c0.61,0.53,1.22,1.06,1.84,1.58,0.39,0.34.79,0.68,1.21,1.03,0.23-.2.47-0.39,0.7-0.59,0.78-.67,1.57-1.34,2.34-2.01a0.24,0.24,0,0,1,.17-0.08,0.32,0.32,0,0,1,.17.08c0.92,0.8,1.85,1.58,2.77,2.38q1.965,1.665,3.91,3.35c0.1,0.09.21,0.17,0.35,0.29h-20.82C1401.93,1743.17,1402.23,1742.91,1402.53,1742.65Zm19.3-12.8c-1.09.93-2.17,1.86-3.26,2.79-0.53.45-1.07,0.9-1.6,1.36-0.62.52-1.23,1.05-1.85,1.58-1.03.88-2.05,1.75-3.06,2.62a0.061,0.061,0,0,1-.12,0c-0.9-.77-1.82-1.56-2.71-2.32-0.42-.36-0.85-0.72-1.27-1.08l-1.92-1.65c-0.58-.49-1.15-0.98-1.72-1.47l-2.37-2.01h20.09Zm-20.18-.32a0.407,0.407,0,0,0,.13.18c0.82,0.69,1.63,1.38,2.45,2.08q1.815,1.545,3.64,3.11c1.32,1.14,2.65,2.27,3.97,3.4a0.2,0.2,0,0,0,.32,0c1.01-.88,2.03-1.75,3.05-2.62l3.45-2.94q1.635-1.4,3.26-2.79c0.15-.13.3-0.26,0.48-0.42h-20.75Zm20.18,0.32c-1.09.93-2.17,1.86-3.26,2.79-0.53.45-1.07,0.9-1.6,1.36-0.62.52-1.23,1.05-1.85,1.58-1.03.88-2.05,1.75-3.06,2.62a0.061,0.061,0,0,1-.12,0c-0.9-.77-1.82-1.56-2.71-2.32-0.42-.36-0.85-0.72-1.27-1.08l-1.92-1.65c-0.58-.49-1.15-0.98-1.72-1.47l-2.37-2.01h20.09Zm-20.18-.32a0.407,0.407,0,0,0,.13.18c0.82,0.69,1.63,1.38,2.45,2.08q1.815,1.545,3.64,3.11c1.32,1.14,2.65,2.27,3.97,3.4a0.2,0.2,0,0,0,.32,0c1.01-.88,2.03-1.75,3.05-2.62l3.45-2.94q1.635-1.4,3.26-2.79c0.15-.13.3-0.26,0.48-0.42h-20.75Zm20.18,0.32c-1.09.93-2.17,1.86-3.26,2.79-0.53.45-1.07,0.9-1.6,1.36-0.62.52-1.23,1.05-1.85,1.58-1.03.88-2.05,1.75-3.06,2.62a0.061,0.061,0,0,1-.12,0c-0.9-.77-1.82-1.56-2.71-2.32-0.42-.36-0.85-0.72-1.27-1.08l-1.92-1.65c-0.58-.49-1.15-0.98-1.72-1.47l-2.37-2.01h20.09Zm-20.18-.32a0.407,0.407,0,0,0,.13.18c0.82,0.69,1.63,1.38,2.45,2.08q1.815,1.545,3.64,3.11c1.32,1.14,2.65,2.27,3.97,3.4a0.2,0.2,0,0,0,.32,0c1.01-.88,2.03-1.75,3.05-2.62l3.45-2.94q1.635-1.4,3.26-2.79c0.15-.13.3-0.26,0.48-0.42h-20.75Zm20.18,0.32c-1.09.93-2.17,1.86-3.26,2.79-0.53.45-1.07,0.9-1.6,1.36-0.62.52-1.23,1.05-1.85,1.58-1.03.88-2.05,1.75-3.06,2.62a0.061,0.061,0,0,1-.12,0c-0.9-.77-1.82-1.56-2.71-2.32-0.42-.36-0.85-0.72-1.27-1.08l-1.92-1.65c-0.58-.49-1.15-0.98-1.72-1.47l-2.37-2.01h20.09Zm-20.18-.32a0.407,0.407,0,0,0,.13.18c0.82,0.69,1.63,1.38,2.45,2.08q1.815,1.545,3.64,3.11c1.32,1.14,2.65,2.27,3.97,3.4a0.2,0.2,0,0,0,.32,0c1.01-.88,2.03-1.75,3.05-2.62l3.45-2.94q1.635-1.4,3.26-2.79c0.15-.13.3-0.26,0.48-0.42h-20.75Zm20.18,0.32c-1.09.93-2.17,1.86-3.26,2.79-0.53.45-1.07,0.9-1.6,1.36-0.62.52-1.23,1.05-1.85,1.58-1.03.88-2.05,1.75-3.06,2.62a0.061,0.061,0,0,1-.12,0c-0.9-.77-1.82-1.56-2.71-2.32-0.42-.36-0.85-0.72-1.27-1.08l-1.92-1.65c-0.58-.49-1.15-0.98-1.72-1.47l-2.37-2.01h20.09Zm3.08-1.78a0.316,0.316,0,0,0-.19-0.07h-25.44a0.316,0.316,0,0,0-.19.07,0.266,0.266,0,0,0-.09.2v16.46a0.283,0.283,0,0,0,.09.2,0.316,0.316,0,0,0,.19.07h0.01c0.19,0,6.54-.01,12.73-0.01,6.17,0,12.5.01,12.69,0.01h0.01a0.316,0.316,0,0,0,.19-0.07,0.283,0.283,0,0,0,.09-0.2v-16.46A0.266,0.266,0,0,0,1424.91,1728.07Zm-0.19,16.66c-0.04-.01-6.37-0.01-12.7-0.01-6.35,0-12.7,0-12.74.01v-16.46c0.04,0.01,6.38.01,12.72,0.01s12.68,0,12.72-.01v16.46Zm-22.94-15.02c0.82,0.69,1.63,1.38,2.45,2.08q1.815,1.545,3.64,3.11c1.32,1.14,2.65,2.27,3.97,3.4a0.2,0.2,0,0,0,.32,0c1.01-.88,2.03-1.75,3.05-2.62l3.45-2.94q1.635-1.4,3.26-2.79c0.15-.13.3-0.26,0.48-0.42h-20.75A0.407,0.407,0,0,0,1401.78,1729.71Zm20.26-.04-0.21.18c-1.09.93-2.17,1.86-3.26,2.79-0.53.45-1.07,0.9-1.6,1.36-0.62.52-1.23,1.05-1.85,1.58-1.03.88-2.05,1.75-3.06,2.62a0.061,0.061,0,0,1-.12,0c-0.9-.77-1.82-1.56-2.71-2.32-0.42-.36-0.85-0.72-1.27-1.08l-1.92-1.65c-0.58-.49-1.15-0.98-1.72-1.47l-2.37-2.01h20.09Zm-20.39-.14a0.407,0.407,0,0,0,.13.18c0.82,0.69,1.63,1.38,2.45,2.08q1.815,1.545,3.64,3.11c1.32,1.14,2.65,2.27,3.97,3.4a0.2,0.2,0,0,0,.32,0c1.01-.88,2.03-1.75,3.05-2.62l3.45-2.94q1.635-1.4,3.26-2.79c0.15-.13.3-0.26,0.48-0.42h-20.75Zm20.18,0.32c-1.09.93-2.17,1.86-3.26,2.79-0.53.45-1.07,0.9-1.6,1.36-0.62.52-1.23,1.05-1.85,1.58-1.03.88-2.05,1.75-3.06,2.62a0.061,0.061,0,0,1-.12,0c-0.9-.77-1.82-1.56-2.71-2.32-0.42-.36-0.85-0.72-1.27-1.08l-1.92-1.65c-0.58-.49-1.15-0.98-1.72-1.47l-2.37-2.01h20.09Zm-20.18-.32a0.407,0.407,0,0,0,.13.18c0.82,0.69,1.63,1.38,2.45,2.08q1.815,1.545,3.64,3.11c1.32,1.14,2.65,2.27,3.97,3.4a0.2,0.2,0,0,0,.32,0c1.01-.88,2.03-1.75,3.05-2.62l3.45-2.94q1.635-1.4,3.26-2.79c0.15-.13.3-0.26,0.48-0.42h-20.75Zm20.18,0.32c-1.09.93-2.17,1.86-3.26,2.79-0.53.45-1.07,0.9-1.6,1.36-0.62.52-1.23,1.05-1.85,1.58-1.03.88-2.05,1.75-3.06,2.62a0.061,0.061,0,0,1-.12,0c-0.9-.77-1.82-1.56-2.71-2.32-0.42-.36-0.85-0.72-1.27-1.08l-1.92-1.65c-0.58-.49-1.15-0.98-1.72-1.47l-2.37-2.01h20.09Zm-20.18-.32a0.407,0.407,0,0,0,.13.18c0.82,0.69,1.63,1.38,2.45,2.08q1.815,1.545,3.64,3.11c1.32,1.14,2.65,2.27,3.97,3.4a0.2,0.2,0,0,0,.32,0c1.01-.88,2.03-1.75,3.05-2.62l3.45-2.94q1.635-1.4,3.26-2.79c0.15-.13.3-0.26,0.48-0.42h-20.75Zm20.18,0.32c-1.09.93-2.17,1.86-3.26,2.79-0.53.45-1.07,0.9-1.6,1.36-0.62.52-1.23,1.05-1.85,1.58-1.03.88-2.05,1.75-3.06,2.62a0.061,0.061,0,0,1-.12,0c-0.9-.77-1.82-1.56-2.71-2.32-0.42-.36-0.85-0.72-1.27-1.08l-1.92-1.65c-0.58-.49-1.15-0.98-1.72-1.47l-2.37-2.01h20.09Zm-20.18-.32a0.407,0.407,0,0,0,.13.18c0.82,0.69,1.63,1.38,2.45,2.08q1.815,1.545,3.64,3.11c1.32,1.14,2.65,2.27,3.97,3.4a0.2,0.2,0,0,0,.32,0c1.01-.88,2.03-1.75,3.05-2.62l3.45-2.94q1.635-1.4,3.26-2.79c0.15-.13.3-0.26,0.48-0.42h-20.75Zm20.18,0.32c-1.09.93-2.17,1.86-3.26,2.79-0.53.45-1.07,0.9-1.6,1.36-0.62.52-1.23,1.05-1.85,1.58-1.03.88-2.05,1.75-3.06,2.62a0.061,0.061,0,0,1-.12,0c-0.9-.77-1.82-1.56-2.71-2.32-0.42-.36-0.85-0.72-1.27-1.08l-1.92-1.65c-0.58-.49-1.15-0.98-1.72-1.47l-2.37-2.01h20.09Zm-20.18-.32a0.407,0.407,0,0,0,.13.18c0.82,0.69,1.63,1.38,2.45,2.08q1.815,1.545,3.64,3.11c1.32,1.14,2.65,2.27,3.97,3.4a0.2,0.2,0,0,0,.32,0c1.01-.88,2.03-1.75,3.05-2.62l3.45-2.94q1.635-1.4,3.26-2.79c0.15-.13.3-0.26,0.48-0.42h-20.75Zm20.18,0.32c-1.09.93-2.17,1.86-3.26,2.79-0.53.45-1.07,0.9-1.6,1.36-0.62.52-1.23,1.05-1.85,1.58-1.03.88-2.05,1.75-3.06,2.62a0.061,0.061,0,0,1-.12,0c-0.9-.77-1.82-1.56-2.71-2.32-0.42-.36-0.85-0.72-1.27-1.08l-1.92-1.65c-0.58-.49-1.15-0.98-1.72-1.47l-2.37-2.01h20.09Zm-20.18-.32a0.407,0.407,0,0,0,.13.18c0.82,0.69,1.63,1.38,2.45,2.08q1.815,1.545,3.64,3.11c1.32,1.14,2.65,2.27,3.97,3.4a0.2,0.2,0,0,0,.32,0c1.01-.88,2.03-1.75,3.05-2.62l3.45-2.94q1.635-1.4,3.26-2.79c0.15-.13.3-0.26,0.48-0.42h-20.75Zm20.18,0.32c-1.09.93-2.17,1.86-3.26,2.79-0.53.45-1.07,0.9-1.6,1.36-0.62.52-1.23,1.05-1.85,1.58-1.03.88-2.05,1.75-3.06,2.62a0.061,0.061,0,0,1-.12,0c-0.9-.77-1.82-1.56-2.71-2.32-0.42-.36-0.85-0.72-1.27-1.08l-1.92-1.65c-0.58-.49-1.15-0.98-1.72-1.47l-2.37-2.01h20.09Zm-20.18-.32,0.13,0.18c0.82,0.69,1.63,1.38,2.45,2.08q1.815,1.545,3.64,3.11c1.32,1.14,2.65,2.27,3.97,3.4a0.2,0.2,0,0,0,.32,0c1.01-.88,2.03-1.75,3.05-2.62l3.45-2.94q1.635-1.4,3.26-2.79c0.15-.13.3-0.26,0.48-0.42h-20.75Zm20.18,0.32c-1.09.93-2.17,1.86-3.26,2.79-0.53.45-1.07,0.9-1.6,1.36-0.62.52-1.23,1.05-1.85,1.58-1.03.88-2.05,1.75-3.06,2.62a0.061,0.061,0,0,1-.12,0c-0.9-.77-1.82-1.56-2.71-2.32-0.42-.36-0.85-0.72-1.27-1.08l-1.92-1.65c-0.58-.49-1.15-0.98-1.72-1.47l-2.37-2.01h20.09Zm0.67,13.51-0.13-.12a1.932,1.932,0,0,1-.21-0.17l-1.36-1.16c-0.85-.74-1.7-1.47-2.55-2.2-0.36-.3-0.72-0.61-1.08-0.92-0.56-.47-1.14-0.96-1.7-1.45a0.4,0.4,0,0,0-.26-0.12,0.371,0.371,0,0,0-.26.11c-0.64.56-1.28,1.11-1.91,1.65l-0.43.37c-0.16.13-.32,0.26-0.48,0.4l-0.13.11-0.27-.22-0.85-.73c-0.61-.53-1.23-1.05-1.84-1.58a0.352,0.352,0,0,0-.25-0.12,0.337,0.337,0,0,0-.23.1c-0.66.57-1.34,1.15-2,1.72-0.28.23-.55,0.47-0.83,0.7q-1.65,1.41-3.29,2.82c-0.21.17-.41,0.35-0.62,0.54l-0.32.27a0.127,0.127,0,0,0-.04.15,0.129,0.129,0,0,0,.13.09h20.82a0.129,0.129,0,0,0,.13-0.09A0.127,0.127,0,0,0,1422.5,1743.36Zm-20.91.1c0.34-.29.64-0.55,0.94-0.81l3.29-2.81c0.95-.81,1.9-1.62,2.84-2.43a0.215,0.215,0,0,1,.13-0.06,0.268,0.268,0,0,1,.16.08c0.61,0.53,1.22,1.06,1.84,1.58,0.39,0.34.79,0.68,1.21,1.03,0.23-.2.47-0.39,0.7-0.59,0.78-.67,1.57-1.34,2.34-2.01a0.24,0.24,0,0,1,.17-0.08,0.32,0.32,0,0,1,.17.08c0.92,0.8,1.85,1.58,2.77,2.38q1.965,1.665,3.91,3.35c0.1,0.09.21,0.17,0.35,0.29h-20.82Zm21.01-.2c-0.05-.05-0.1-0.08-0.14-0.12-0.08-.06-0.14-0.12-0.21-0.17-0.45-.39-0.91-0.78-1.36-1.17l-2.55-2.19c-0.36-.31-0.72-0.61-1.08-0.92-0.56-.47-1.13-0.97-1.69-1.45a0.6,0.6,0,0,0-.36-0.16,0.64,0.64,0,0,0-.36.15c-0.63.55-1.28,1.11-1.9,1.64l-0.44.37c-0.15.14-.31,0.27-0.47,0.41a0.138,0.138,0,0,0-.04.03l-0.2-.17c-0.28-.24-0.55-0.47-0.83-0.7-0.65-.56-1.24-1.07-1.84-1.58a0.493,0.493,0,0,0-.34-0.16,0.485,0.485,0,0,0-.32.14c-0.67.57-1.35,1.15-2.01,1.71-0.27.24-.55,0.47-0.82,0.71l-3.3,2.82c-0.2.17-.41,0.35-0.62,0.54-0.1.08-.21,0.18-0.32,0.27a0.275,0.275,0,0,0-.07.3,0.271,0.271,0,0,0,.26.18h20.82a0.294,0.294,0,0,0,.27-0.18A0.262,0.262,0,0,0,1422.6,1743.26Zm-13.81-5.91a0.268,0.268,0,0,1,.16.08c0.61,0.53,1.22,1.06,1.84,1.58,0.39,0.34.79,0.68,1.21,1.03,0.23-.2.47-0.39,0.7-0.59,0.78-.67,1.57-1.34,2.34-2.01a0.24,0.24,0,0,1,.17-0.08,0.32,0.32,0,0,1,.17.08c0.92,0.8,1.85,1.58,2.77,2.38q1.965,1.665,3.91,3.35c0.1,0.09.21,0.17,0.35,0.29h-20.82c0.34-.29.64-0.55,0.94-0.81l3.29-2.81c0.95-.81,1.9-1.62,2.84-2.43A0.215,0.215,0,0,1,1408.79,1737.35Zm14.72-7.22a0.127,0.127,0,0,0-.06-0.01,0.161,0.161,0,0,0-.09.03l-7.3,6.24a0.161,0.161,0,0,0-.05.11,0.139,0.139,0,0,0,.05.1l7.3,6.24a0.161,0.161,0,0,0,.09.03,0.127,0.127,0,0,0,.06-0.01,0.13,0.13,0,0,0,.08-0.12v-12.48A0.134,0.134,0,0,0,1423.51,1730.13Zm-0.06,12.61c-2.44-2.1-4.86-4.16-7.3-6.24,2.43-2.08,4.84-4.14,7.3-6.24v12.48Zm0.12-12.73a0.266,0.266,0,0,0-.12-0.03,0.312,0.312,0,0,0-.18.07l-7.3,6.24a0.281,0.281,0,0,0-.1.21,0.261,0.261,0,0,0,.1.2l3.7,3.17,3.6,3.07a0.257,0.257,0,0,0,.18.07,0.5,0.5,0,0,0,.12-0.02,0.3,0.3,0,0,0,.17-0.25v-12.48A0.272,0.272,0,0,0,1423.57,1730.01Zm-0.12,12.73c-2.44-2.1-4.86-4.16-7.3-6.24,2.43-2.08,4.84-4.14,7.3-6.24v12.48Zm-15.51-6.35-7.29-6.23a0.169,0.169,0,0,0-.1-0.03,0.075,0.075,0,0,0-.05.01,0.14,0.14,0,0,0-.09.12v12.47a0.14,0.14,0,0,0,.09.12,0.076,0.076,0,0,0,.05.02,0.178,0.178,0,0,0,.1-0.04l7.29-6.23a0.139,0.139,0,0,0,.05-0.1A0.161,0.161,0,0,0,1407.94,1736.39Zm-7.39,6.34v-12.47c2.44,2.09,4.86,4.15,7.3,6.24C1405.41,1738.58,1403,1740.64,1400.55,1742.73Zm7.48-6.44-5.76-4.93-1.53-1.3a0.264,0.264,0,0,0-.19-0.07,0.425,0.425,0,0,0-.11.02,0.3,0.3,0,0,0-.17.25v12.47a0.283,0.283,0,0,0,.17.25,0.215,0.215,0,0,0,.11.02,0.264,0.264,0,0,0,.19-0.07l7.29-6.23a0.261,0.261,0,0,0,.1-0.2A0.281,0.281,0,0,0,1408.03,1736.29Zm-7.48-6.03c2.44,2.09,4.86,4.15,7.3,6.24-2.44,2.08-4.85,4.14-7.3,6.23v-12.47Z" transform="translate(-1399 -1728)"/>
</svg>
