<svg xmlns="http://www.w3.org/2000/svg" viewBox="0 0 89.57 89.57"><defs><style>.cls-1{fill:#fff;}</style></defs><title>Zasób 159</title><g id="Warstwa_2" data-name="Warstwa 2"><g id="Footer_Header" data-name="Footer/Header"><path class="cls-1" d="M71.68,34.76s1,22.4-18.48,33.41S15.5,66.86,15.5,66.86s11.38,1.59,18.94-5.23c0,0-8.49.75-11.95-8.87a11.43,11.43,0,0,0,5.69-.19S18.11,49.88,18.11,39.8a14.71,14.71,0,0,0,6,1.68S15,35.78,19.79,24.31c0,0,10.45,13.16,26.6,13.35,0,0-2.15-10.45,8.12-14.75C62.33,19.63,68.32,26,68.32,26s5.32-.93,7.93-3.17a14.17,14.17,0,0,1-5.13,7.09s5.13-.47,6.91-2c0,0-3.45,5-6.35,6.81M44.78,0A44.78,44.78,0,1,0,89.57,44.78,44.78,44.78,0,0,0,44.78,0"/></g></g></svg>