<svg xmlns="http://www.w3.org/2000/svg" viewBox="0 0 89.57 89.57"><defs><style>.cls-1{fill:#fff;}</style></defs><title>Zasób 158</title><g id="Warstwa_2" data-name="Warstwa 2"><g id="Footer_Header" data-name="Footer/Header"><path class="cls-1" d="M42.77,49.79c-.79,0-1.59,0-2.39,0-.58,0-.58,0-.58.56V63.41c0,.15,0,.33,0,.44A3.17,3.17,0,0,1,38,65.3.77.77,0,0,1,37,64.56a7.86,7.86,0,0,1,0-.86q0-6.69,0-13.38c0-.53,0-.53-.54-.53-.78,0-1.57,0-2.35,0-.38,0-.48.11-.48.49,0,4.71,0,9.42,0,14.13a13.71,13.71,0,0,0,.24,2.4,1.94,1.94,0,0,0,1.8,1.58,3.59,3.59,0,0,0,2.64-.79c.52-.39,1-.85,1.53-1.3,0,.48,0,.94,0,1.39s.08.49.45.48c.83,0,1.67,0,2.5,0,.33,0,.42-.1.42-.43q0-8.76,0-17.52c0-.3-.09-.42-.4-.41"/><path class="cls-1" d="M42.62,32.05a1.2,1.2,0,0,0,1.19.75,1.23,1.23,0,0,0,1.25-.71,3.51,3.51,0,0,0,.34-1.28c0-1.46,0-2.93,0-4.4h0c0-1.3,0-2.61,0-3.91a5.9,5.9,0,0,0-.3-1.66A1.22,1.22,0,0,0,43.81,20a1.26,1.26,0,0,0-1.26.87,4.78,4.78,0,0,0-.27,1.41c0,2.75,0,5.49,0,8.24a4.39,4.39,0,0,0,.34,1.51"/><path class="cls-1" d="M25.47,57.58v0c0-3.35,0-6.71,0-10.06,0,3.35,0,6.71,0,10.06m7.33-14H21.92c-.29,0-.39.1-.38.39,0,.9,0,1.79,0,2.68,0,.36.13.44.45.44,1,0,2,0,3,0,.39,0,.47.11.47.48,0,3.35,0,6.71,0,10.06q0,2.53,0,5.07t0,5.07c0,.32.09.44.42.43.87,0,1.74,0,2.61,0s.7.09.7-.7q0-9.95,0-19.9c0-.34,0-.52.45-.51,1,0,2.09,0,3.13,0,.3,0,.42-.07.41-.4,0-.91,0-1.82,0-2.72,0-.29-.09-.39-.38-.39"/><path class="cls-1" d="M72.19,67.92a7.9,7.9,0,0,1-1.09,3.44,6.83,6.83,0,0,1-5.62,3.15c-3,.15-6,.29-9,.41q-3.37.12-6.74.16c-2.89,0-5.79.06-8.69,0q-3.93,0-7.86-.17c-3.14-.12-6.28-.28-9.41-.44a6.74,6.74,0,0,1-6.23-5.7,74.08,74.08,0,0,1-.83-8.45c-.06-1.69-.13-3.38-.11-5.06a75.92,75.92,0,0,1,.55-8.51c.14-1.14.23-2.3.48-3.43A6.75,6.75,0,0,1,24,38.16c3.1-.13,6.2-.29,9.3-.43.28,0,.57,0,.86,0v-.13c1.65,0,3.3,0,5,0,2.58,0,5.17-.12,7.75-.08,3.55,0,7.1.16,10.65.28,2.72.09,5.43.24,8.15.38A6.68,6.68,0,0,1,72,43.71c.34,2.06.57,4.14.72,6.22q.25,3.49.26,7a78.26,78.26,0,0,1-.8,11M26.58,11c1.06,0,2.11,0,3.17,0,.29,0,.38.11.44.36q1.2,4.48,2.41,9s0,.09.1.22c.07-.22.12-.36.16-.5Q34,15.69,35.1,11.35a.38.38,0,0,1,.45-.35c1.11,0,2.21,0,3.36,0l-.71,2.39q-1.81,6-3.62,12a2,2,0,0,0-.07.58q0,4.55,0,9.1v.48H30.83c0-.15,0-.29,0-.43,0-2.56,0-5.12,0-7.68a13.39,13.39,0,0,0-.66-4.51c-1.1-3.39-2.23-6.76-3.34-10.15-.19-.56-.39-1.12-.59-1.73.14,0,.24,0,.34,0m14.07,7.15c2-1.84,6.83-1.73,7.8,2.44a11.48,11.48,0,0,1,.28,2.4c0,2.29,0,4.57,0,6.86a8.84,8.84,0,0,1-.43,2.9,4.23,4.23,0,0,1-3,2.87,4.85,4.85,0,0,1-4.68-1,4.69,4.69,0,0,1-1.54-3.33c-.1-1.62-.11-3.25-.15-4.87s.05-3.26.15-4.88a4.92,4.92,0,0,1,1.58-3.39m10.83-.88h3.3V31.53c0,.45,0,.94.46,1.18a1.17,1.17,0,0,0,1.31-.28,8.71,8.71,0,0,0,1-1.06.82.82,0,0,0,.11-.49q0-6.56,0-13.12v-.49h3c.19,0,.28.07.26.26s0,.12,0,.19V35.52h-3.3V33.66c-.54.47-1,.93-1.53,1.33a4,4,0,0,1-1.93.81,2.15,2.15,0,0,1-2.62-2A14.14,14.14,0,0,1,51.48,32q0-7.14,0-14.28ZM44.78,0A44.78,44.78,0,1,0,89.57,44.78,44.78,44.78,0,0,0,44.78,0"/><path class="cls-1" d="M61.66,54.76a4.67,4.67,0,0,1,.23-1.2,1.31,1.31,0,0,1,1.29-.94,1.33,1.33,0,0,1,1.43.85,4.06,4.06,0,0,1,.26,1.19c0,.7,0,1.41,0,2.13H61.65c0-.68,0-1.36,0-2m.42,4.85c.94,0,1.89,0,2.83,0h3c.27,0,.38-.09.37-.37,0-.56,0-1.12,0-1.68,0-1.3,0-2.62-.19-3.9a4.53,4.53,0,0,0-4.38-4.09,4.67,4.67,0,0,0-5,3.1,8.41,8.41,0,0,0-.4,2.34c-.06,2.53,0,5.07,0,7.6a7,7,0,0,0,.67,3.22,5,5,0,0,0,9.15-1.11A17.34,17.34,0,0,0,68.25,62c0-.24-.18-.23-.34-.23-.91,0-1.81,0-2.72,0-.28,0-.36.1-.36.37,0,.62,0,1.24-.08,1.86a1.37,1.37,0,0,1-1.25,1.35,1.45,1.45,0,0,1-1.67-1.1,3.15,3.15,0,0,1-.15-.8c0-1.13,0-2.26,0-3.39,0-.35.12-.44.46-.44"/><path class="cls-1" d="M52.38,60c0,.69,0,1.39,0,2.09,0,.35,0,.7,0,1a4.94,4.94,0,0,1-.19,1.24,1.19,1.19,0,0,1-1.52.9,2.44,2.44,0,0,1-.6-.21,1.12,1.12,0,0,1-.72-1.15c0-3.39,0-6.78,0-10.18a.7.7,0,0,1,.35-.68,4.29,4.29,0,0,1,.65-.36,1.28,1.28,0,0,1,1.86.91,4.8,4.8,0,0,1,.17,1.21c0,.69,0,1.38,0,2.07s0,1.38,0,2.07c0,.35,0,.7,0,1m3.11-8a2.78,2.78,0,0,0-3.89-2.22,4.78,4.78,0,0,0-1.9,1.35,2.86,2.86,0,0,0-.24.35l-.11-.09V51c0-2.35,0-4.7,0-7,0-.32-.09-.44-.42-.43-.81,0-1.61,0-2.42,0-.54,0-.54,0-.54.55V67.58c0,.09,0,.17,0,.26s.09.31.31.3H49c.26,0,.32-.12.31-.35,0-.41,0-.82,0-1.28.48.42.88.83,1.33,1.17,1.76,1.29,4.34,1,4.84-1.89a14.37,14.37,0,0,0,.2-2.3q0-4.53,0-9.06A13.69,13.69,0,0,0,55.49,52"/></g></g></svg>