<svg id="Ebene_1" data-name="Ebene 1" xmlns="http://www.w3.org/2000/svg" xmlns:xlink="http://www.w3.org/1999/xlink" viewBox="0 0 40 40"><defs><style>.cls-1{fill:none;}.cls-2{clip-path:url(#clip-path);}.cls-3{fill:#000;}.cls-4{fill:#fff;}.cls-5{isolation:isolate;}</style><clipPath id="clip-path"><rect class="cls-1" x="-146.5" y="-0.6" width="321.2" height="40.6"/></clipPath></defs><title>30Tage-en</title><g id="Ebene_2" data-name="Ebene 2"><g id="Productpage"><g class="cls-2"><path class="cls-3" d="M20,40A20,20,0,1,0,0,20,20.06,20.06,0,0,0,20,40"/><path class="cls-4" d="M25.7,23c3.2,0,5.4-2.9,5.4-6.4h0c0-3.5-2.1-6.4-5.4-6.4s-5.4,2.9-5.4,6.4h0c0,3.6,2.1,6.4,5.4,6.4m0-1.9c-2,0-3.2-2-3.2-4.5h0c0-2.5,1.2-4.5,3.2-4.5s3.2,2,3.2,4.5h0c0,2.5-1.3,4.5-3.2,4.5"/></g><path class="cls-4" d="M11.1,25.5h2a2.56,2.56,0,0,1,2.7,2.4v.2h0a2.56,2.56,0,0,1-2.5,2.6H11.1Zm1.1,1v3.1h.9a1.54,1.54,0,0,0,1.6-1.4V28h0a1.62,1.62,0,0,0-1.4-1.6h-.1Z"/><path class="cls-4" d="M18.1,25.5h1l2.2,5.1H20.2l-.5-1.2H17.5L17,30.6H15.9Zm1.2,3-.7-1.7-.7,1.7Z"/><path class="cls-4" d="M22.6,28.6l-2-3.1h1.3l1.2,2.1,1.3-2.1h1.2l-2,3.1v2H22.5Z"/><path class="cls-4" d="M25.9,29.9l.6-.8a2.2,2.2,0,0,0,1.5.6c.5,0,.8-.2.8-.5h0c0-.3-.2-.5-1.1-.7S26,28,26,27h0a1.58,1.58,0,0,1,1.6-1.6h.2a3.29,3.29,0,0,1,1.9.6l-.6.8a2.35,2.35,0,0,0-1.3-.5c-.4,0-.7.2-.7.5h0c0,.4.2.5,1.1.7s1.6.6,1.6,1.5h0c0,1-.8,1.6-1.9,1.6A2.74,2.74,0,0,1,25.9,29.9Z"/></g></g><rect class="cls-1" x="9.4" y="9.9" width="12.5" height="20.7"/><g class="cls-5"><path class="cls-4" d="M10.23,20.8l1.48-1.36A4.08,4.08,0,0,0,15,21.09a2,2,0,0,0,2.21-1.94v0c0-1.26-1.16-2-2.92-2h-1L13,15.85l3.42-3.65H10.93V10.38h8.14v1.56l-3.5,3.62c1.92.22,3.71,1.19,3.71,3.47v0C19.28,21.34,17.51,23,15,23A5.86,5.86,0,0,1,10.23,20.8Z"/></g></svg>