<svg xmlns="http://www.w3.org/2000/svg" viewBox="0 0 109.18 32.95"><defs><style>.cls-1{fill:#ff8d33;}</style></defs><title>Zasób 27</title><g id="Warstwa_2" data-name="Warstwa 2"><g id="how_it_works" data-name="how it works"><path d="M23.1,3.38l.09-.22a5.14,5.14,0,0,1,1.26-1.88,4,4,0,0,1,1.83-1,5.47,5.47,0,0,1,2.38,0A3.91,3.91,0,0,1,31,1.8a6.63,6.63,0,0,1,.85,1.46l0,0c.09,0,.09-.08.12-.14a4.89,4.89,0,0,1,1.07-1.62A4.62,4.62,0,0,1,35.45.3a5.26,5.26,0,0,1,2-.06,4.88,4.88,0,0,1,2.24.95,4.07,4.07,0,0,1,1.3,1.68,5.48,5.48,0,0,1,.34,1.33,13.3,13.3,0,0,1,.09,1.91q0,6.06,0,12.12c0,.07,0,.14,0,.22a.64.64,0,0,1-.65.65H37.43A.69.69,0,0,1,37,19a.61.61,0,0,1-.3-.45,2.2,2.2,0,0,1,0-.25q0-5.29,0-10.58c0-.45,0-.89-.05-1.34a2.5,2.5,0,0,0-.22-.87,1.52,1.52,0,0,0-1-.89,2.47,2.47,0,0,0-1.25,0,2.21,2.21,0,0,0-1.48,1.2,3.47,3.47,0,0,0-.3,1.13,12.72,12.72,0,0,0-.09,1.73q0,4.81,0,9.62c0,.08,0,.16,0,.23a.63.63,0,0,1-.6.59H28.39a.89.89,0,0,1-.33-.05.59.59,0,0,1-.38-.53c0-.06,0-.12,0-.18q0-4.47,0-8.93c0-.64,0-1.29,0-1.93A5.73,5.73,0,0,0,27.5,6a2.62,2.62,0,0,0-.3-.73A1.65,1.65,0,0,0,26,4.52a2.46,2.46,0,0,0-1.26.11,1.88,1.88,0,0,0-1.09,1.12,5.43,5.43,0,0,0-.37,2.05c0,2.1,0,4.21,0,6.31q0,2.11,0,4.21c0,.06,0,.12,0,.18a.63.63,0,0,1-.62.59H19.34A.88.88,0,0,1,19,19a.61.61,0,0,1-.4-.57c0-.09,0-.18,0-.27q0-8.43,0-16.85c0-.05,0-.11,0-.16A.65.65,0,0,1,19.2.55h3.13a.86.86,0,0,1,.27,0,.61.61,0,0,1,.44.61c0,.66,0,1.33,0,2C23,3.24,23,3.31,23.1,3.38Z"/><path d="M54.92,16.9l-.14.12a11,11,0,0,1-1.38,1.19,5.74,5.74,0,0,1-2.56,1,9,9,0,0,1-2.24.05,4.63,4.63,0,0,1-3.09-1.52,4.53,4.53,0,0,1-.93-1.7,6.87,6.87,0,0,1-.24-2.79A5.85,5.85,0,0,1,45,11.1a5.58,5.58,0,0,1,1.92-2,8,8,0,0,1,2.43-1,24.42,24.42,0,0,1,3-.5l1.69-.17c.15,0,.17,0,.17-.17,0-.5,0-1,0-1.5a2.58,2.58,0,0,0-.25-1,1.85,1.85,0,0,0-1.23-1,3,3,0,0,0-2.27.23A2.33,2.33,0,0,0,49.27,5.5a1.79,1.79,0,0,1-.15.42.58.58,0,0,1-.63.31L46,6l-.56-.07a.58.58,0,0,1-.51-.71A5.75,5.75,0,0,1,46.55,2a6.28,6.28,0,0,1,2-1.29A10.22,10.22,0,0,1,51.28.06a11.74,11.74,0,0,1,1.77,0,8.84,8.84,0,0,1,1.13.15,7.81,7.81,0,0,1,1.91.58,5,5,0,0,1,1.83,1.38,4.32,4.32,0,0,1,.84,1.69A8.7,8.7,0,0,1,59,6q0,3.33,0,6.65a5.18,5.18,0,0,0,.12,1.18A3.68,3.68,0,0,0,59.64,15c.17.27.37.52.55.78a1.19,1.19,0,0,1,.24.48.51.51,0,0,1-.16.51l-.45.39-2,1.78a1.25,1.25,0,0,1-.29.19.63.63,0,0,1-.71-.09,7.23,7.23,0,0,1-1.49-1.64L55,17Zm-.66-5.63q0-.48,0-1c0-.23,0-.24-.23-.22-.44,0-.89,0-1.33.09a5.4,5.4,0,0,0-1.74.46,2.83,2.83,0,0,0-1.35,1.21,3.08,3.08,0,0,0-.36,1.33,3.26,3.26,0,0,0,.26,1.64,1.83,1.83,0,0,0,1.59,1.1A2.37,2.37,0,0,0,53,15.19a4.14,4.14,0,0,0,1.15-2.36A9.87,9.87,0,0,0,54.26,11.27Z"/><path d="M10.64,16.89l-.18.16a10,10,0,0,1-1.66,1.37,5.66,5.66,0,0,1-2.27.83,9,9,0,0,1-2.2.05,4.67,4.67,0,0,1-3-1.38A4.49,4.49,0,0,1,.29,16,6.54,6.54,0,0,1,0,13.69,6.12,6.12,0,0,1,.9,10.81,5.83,5.83,0,0,1,3.16,8.75,7.87,7.87,0,0,1,4.88,8.1a16.4,16.4,0,0,1,2.18-.41l2.24-.26.49,0c.15,0,.17,0,.17-.17,0-.52,0-1,0-1.55a2.45,2.45,0,0,0-.25-1,1.75,1.75,0,0,0-1-.92,3,3,0,0,0-2.72.3A2.31,2.31,0,0,0,5,5.54,1.59,1.59,0,0,1,4.8,6a.56.56,0,0,1-.58.27L1.62,6l-.5-.06a.58.58,0,0,1-.53-.7A5.83,5.83,0,0,1,1.45,3a5.75,5.75,0,0,1,2.34-2A7.61,7.61,0,0,1,5.92.23C6.39.15,6.85.06,7.32,0A9.9,9.9,0,0,1,8.85,0a9.26,9.26,0,0,1,2.6.58,5.11,5.11,0,0,1,2.26,1.63,4.37,4.37,0,0,1,.75,1.55A8.54,8.54,0,0,1,14.7,6q0,3.34,0,6.67a5.48,5.48,0,0,0,.1,1.06,4,4,0,0,0,.71,1.55l.41.57a1.13,1.13,0,0,1,.22.43.51.51,0,0,1-.15.51l-.46.41-2,1.78a1.23,1.23,0,0,1-.29.19.63.63,0,0,1-.71-.1A7.21,7.21,0,0,1,11,17.43ZM10,11.31c0-.36,0-.71,0-1.07,0-.14,0-.16-.16-.16H9.74a9,9,0,0,0-2.22.25,4.22,4.22,0,0,0-1.28.53A2.69,2.69,0,0,0,5.1,12.38,4,4,0,0,0,5,13.9a2.63,2.63,0,0,0,.29,1,1.79,1.79,0,0,0,1.37,1,2.37,2.37,0,0,0,2.12-.73A4.14,4.14,0,0,0,9.86,12.9,9.76,9.76,0,0,0,10,11.31Z"/><path d="M99.69,3.66a.27.27,0,0,0,.14-.19,7.47,7.47,0,0,1,.88-1.59A4.17,4.17,0,0,1,102,.73a4.06,4.06,0,0,1,1.52-.5,5.82,5.82,0,0,1,1.62,0A4.21,4.21,0,0,1,108.66,3,6.52,6.52,0,0,1,109,4.53a19.71,19.71,0,0,1,.15,2.63q0,5.62,0,11.25a.61.61,0,0,1-.38.62.71.71,0,0,1-.28.05h-3.33a.65.65,0,0,1-.65-.67c0-1.85,0-3.7,0-5.55s0-3.42,0-5.14a6.25,6.25,0,0,0-.19-1.68,3.59,3.59,0,0,0-.28-.7,1.66,1.66,0,0,0-1.44-.89,2,2,0,0,0-1.83.83,3.57,3.57,0,0,0-.61,1.3A6.94,6.94,0,0,0,100,8.31c0,.37,0,.75,0,1.12q0,4.43,0,8.86a1.66,1.66,0,0,1,0,.27.63.63,0,0,1-.58.53H96a.72.72,0,0,1-.38-.08.62.62,0,0,1-.32-.51c0-.07,0-.13,0-.2q0-8.51,0-17a1,1,0,0,1,0-.32.63.63,0,0,1,.54-.42H99a1,1,0,0,1,.37.07.54.54,0,0,1,.36.53c0,.78,0,1.56,0,2.33C99.68,3.53,99.69,3.59,99.69,3.66Z"/><path d="M92.77,9.84a12.85,12.85,0,0,1-.38,3.28A9.9,9.9,0,0,1,91,16.28a7.36,7.36,0,0,1-2.34,2.22,6.87,6.87,0,0,1-2.1.8,7.68,7.68,0,0,1-2.77.05A6.45,6.45,0,0,1,82.39,19,6.6,6.6,0,0,1,80,17.3a8,8,0,0,1-1.29-1.89,11.45,11.45,0,0,1-1.07-3.6,15.17,15.17,0,0,1,0-3.89,12,12,0,0,1,.5-2.29,8.58,8.58,0,0,1,2.13-3.56A6.44,6.44,0,0,1,82.77.52a7.73,7.73,0,0,1,3-.31A7,7,0,0,1,88.4,1a7.06,7.06,0,0,1,2.89,2.83,10.47,10.47,0,0,1,1.17,3.1A14.58,14.58,0,0,1,92.77,9.84ZM82.41,9.56a26.17,26.17,0,0,0,.17,2.8A7.76,7.76,0,0,0,83,14.27a3,3,0,0,0,.8,1.19,2.1,2.1,0,0,0,2.36.12,2.45,2.45,0,0,0,.91-1,6.75,6.75,0,0,0,.6-2.28,18,18,0,0,0,.1-2.13,20.19,20.19,0,0,0-.24-3.66,6.82,6.82,0,0,0-.38-1.41,2,2,0,0,0-1.83-1.34,2.09,2.09,0,0,0-1.84.68,3,3,0,0,0-.55.93,7.17,7.17,0,0,0-.45,2.15C82.45,8.18,82.44,8.87,82.41,9.56Z"/><path class="cls-1" d="M44.19,33c-1.41,0-2.82-.1-4.22-.23-1-.09-2-.22-3-.4q-1.24-.23-2.48-.5c-.6-.13-1.19-.29-1.78-.45s-1.35-.39-2-.61-1.43-.49-2.14-.76a35.28,35.28,0,0,1-3.42-1.51c-.77-.39-1.52-.8-2.27-1.23s-1.29-.77-1.93-1.18-1.1-.72-1.62-1.11q-1.1-.81-2.16-1.66c-.52-.42-1-.86-1.52-1.31a1,1,0,0,1-.23-.34.46.46,0,0,1,.4-.64.83.83,0,0,1,.48.13c.51.29,1,.58,1.53.85,1,.54,2,1.07,3.11,1.53.77.34,1.53.68,2.3,1,1,.42,2,.8,3.08,1.14.62.21,1.25.42,1.88.6,1,.28,1.94.54,2.91.79q.72.19,1.46.34c.81.17,1.63.33,2.45.47s1.48.25,2.23.35,1.57.19,2.35.26c1,.09,2,.16,3,.21,1.64.08,3.28.06,4.92,0,.8,0,1.6-.11,2.4-.18q.87-.08,1.74-.18c.6-.08,1.21-.17,1.81-.26l1.89-.33,1.31-.27,1.81-.41c.32-.07.63-.17.94-.25l1.79-.5c.4-.12.8-.25,1.2-.39.56-.19,1.13-.38,1.69-.58s1.22-.47,1.84-.71l1-.38A1,1,0,0,1,68,24.5a.73.73,0,0,1,0,.92,1.64,1.64,0,0,1-.37.37c-.5.35-1,.7-1.5,1a30.89,30.89,0,0,1-3.63,2c-.83.39-1.66.77-2.52,1.09-.65.24-1.31.49-2,.72s-1.08.34-1.62.5-.94.27-1.41.39-1.23.29-1.85.43c-.42.09-.85.18-1.28.25-.72.12-1.45.24-2.18.34q-.76.11-1.53.18c-.65.06-1.3.11-1.95.15S44.89,32.93,44.19,33Z"/><path d="M68.92,13h.19c.42,0,.83,0,1.25,0s1,.11,1.51.18a9.24,9.24,0,0,1,1.42.33,10,10,0,0,1,1.85.77,1.13,1.13,0,0,1,.62.69,1.55,1.55,0,0,1,.06.39c0,.84,0,1.68,0,2.51a.7.7,0,0,1-.2.52.5.5,0,0,1-.61.11l-.49-.24a12.62,12.62,0,0,0-2.69-.89,13.33,13.33,0,0,0-2.06-.26,12.92,12.92,0,0,0-2.35.09,12.41,12.41,0,0,0-2.17.49,13,13,0,0,0-1.93.81.54.54,0,0,1-.8-.32.85.85,0,0,1-.05-.28c0-.9,0-1.8,0-2.69a2.67,2.67,0,0,1,.42-1.48l.36-.52,4.31-6.19,1.89-2.71.08-.13h-5.7a.79.79,0,0,1-.39-.07.59.59,0,0,1-.33-.47.69.69,0,0,1,0-.09c0-.83,0-1.66,0-2.5A.71.71,0,0,1,63.2.82a.52.52,0,0,1,.41-.3l.29,0h10.8l.29,0a.6.6,0,0,1,.51.56c0,.08,0,.17,0,.25,0,.56,0,1.12,0,1.68a1.6,1.6,0,0,1-.28,1q-.43.65-.87,1.29l-3,4.22L69,12.85Z"/><path class="cls-1" d="M67.22,22.12c-.61,0-1.38.08-2.15.15s-1.4.15-2.1.22a.84.84,0,0,1-.27,0,.3.3,0,0,1-.22-.46.93.93,0,0,1,.27-.33,9.72,9.72,0,0,1,.92-.57,9,9,0,0,1,1.82-.73A12.94,12.94,0,0,1,67.61,20a14.68,14.68,0,0,1,2.78,0,8.62,8.62,0,0,1,2,.35,3.76,3.76,0,0,1,.51.22.72.72,0,0,1,.38.54,4.58,4.58,0,0,1,0,1.31,12,12,0,0,1-.44,2.38,13.33,13.33,0,0,1-1.67,3.73,8.82,8.82,0,0,1-1.61,1.85,1.75,1.75,0,0,1-.4.24.35.35,0,0,1-.48-.46c.12-.32.24-.63.36-.94.4-1,.78-2,1.08-3.08.15-.5.26-1,.37-1.53a3.82,3.82,0,0,0,.09-1.06,2.23,2.23,0,0,0-.09-.51,1,1,0,0,0-.67-.58,4.68,4.68,0,0,0-1.22-.22C68.19,22.14,67.79,22.14,67.22,22.12Z"/></g></g></svg>