<svg xmlns="http://www.w3.org/2000/svg" viewBox="0 0 40 40"><defs><style>.cls-1{fill:#999;}</style></defs><title>Zasób 158</title><g id="Warstwa_2" data-name="Warstwa 2"><g id="Footer_Header" data-name="Footer/Header"><path class="cls-1" d="M37.13,11H31.47v1.61a3.11,3.11,0,0,1-6.23,0V11H14.38v1.61a3.11,3.11,0,1,1-6.23,0V11H2.87L0,40H40Z"/><path class="cls-1" d="M19.81,0A10.17,10.17,0,0,0,9.65,10.16v2.45a1.62,1.62,0,1,0,3.24,0V10.16a6.92,6.92,0,0,1,13.85,0v2.45a1.62,1.62,0,0,0,3.24,0V10.16A10.17,10.17,0,0,0,19.81,0"/></g></g></svg>