<svg xmlns="http://www.w3.org/2000/svg" viewBox="0 0 14 14"><defs><style>.cls-1{isolation:isolate;}.cls-2{fill:#fff;}</style></defs><title>cart</title><g id="zzysh-champagne" class="cls-1"><g id="cart_ico" data-name="cart ico"><g id="Shape_4" data-name="Shape 4"><path class="cls-2" d="M1528,10.78h-2v0.56a1.09,1.09,0,1,1-2.18,0V10.78H1520v0.56a1.09,1.09,0,1,1-2.18,0V10.78H1516l-1,10.15h14Zm-9.05,1.13a0.57,0.57,0,0,0,.57-0.57V10.49a2.42,2.42,0,1,1,4.85,0v0.86a0.57,0.57,0,0,0,1.13,0V10.49a3.56,3.56,0,1,0-7.11,0v0.86A0.57,0.57,0,0,0,1518.94,11.91Z" transform="translate(-1515 -6.93)"/></g></g></g></svg>