<svg id="NEW_HOMEPAGE" data-name="NEW HOMEPAGE" xmlns="http://www.w3.org/2000/svg" viewBox="0 0 100 100"><defs><style>.cls-1{fill:#1d1d1b;}</style></defs><title>flache-home</title><path class="cls-1" d="M6058.67,1290a50,50,0,1,0,50,50A50,50,0,0,0,6058.67,1290Zm9.64,82.42a2.3,2.3,0,0,1-2.35,2.25h-13.55a2.3,2.3,0,0,1-2.35-2.25V1330.3a6.52,6.52,0,0,1,3.28-5.61l0.45-.26a4.18,4.18,0,0,0,2.1-3.52l0.19-11.47a0.36,0.36,0,0,0-.15-0.3l-0.13-.1a0.36,0.36,0,0,1-.15-0.29l0-1.84a0.36,0.36,0,0,1,.21-0.32l0,0a0.37,0.37,0,0,0,.21-0.31,1,1,0,0,1,1-.93h4.1a1,1,0,0,1,1,.93,0.37,0.37,0,0,0,.21.31l0,0a0.36,0.36,0,0,1,.21.32l0,1.84a0.36,0.36,0,0,1-.15.29l-0.14.1a0.36,0.36,0,0,0-.15.3l0.19,11.47a4.18,4.18,0,0,0,2.1,3.52l0.45,0.26a6.52,6.52,0,0,1,3.28,5.61v42.12Z" transform="translate(-6008.67 -1290)"/></svg>