<svg xmlns="http://www.w3.org/2000/svg" viewBox="0 0 120 120"><defs><style>.cls-1{fill:#fff;}</style></defs><title>Zasób 28</title><g id="Warstwa_2" data-name="Warstwa 2"><g id="how_it_works" data-name="how it works"><path class="cls-1" d="M60,0a60,60,0,1,0,60,60A60,60,0,0,0,60,0ZM76.3,97.66H47.13a.31.31,0,0,1-.31-.38,1.44,1.44,0,0,1,1.14-1l11-2a1.78,1.78,0,0,0,1.48-1.74V70.19a8.07,8.07,0,0,0-3.56-6.66L53.17,61c-4.62-3.42-6.54-8.93-6-14.57L50,23.82a1.21,1.21,0,0,1,1.12-1.07c1.92-.14,5.49-.41,10.57-.41s8.65.27,10.57.41a1.21,1.21,0,0,1,1.12,1.07l2.84,22.58c.55,5.64-1.37,11.15-6,14.57l-3.73,2.54A8.07,8.07,0,0,0,63,70.19V92.56a1.78,1.78,0,0,0,1.48,1.74l11,2a1.44,1.44,0,0,1,1.14,1A.31.31,0,0,1,76.3,97.66Z"/></g></g></svg>