<svg id="NEW_HOMEPAGE" data-name="NEW HOMEPAGE" xmlns="http://www.w3.org/2000/svg" viewBox="0 0 100 100"><defs><style>.cls-1{fill:#1d1d1b;}</style></defs><title>glass-home</title><path class="cls-1" d="M6358.67,1290a50,50,0,1,0,50,50A50,50,0,0,0,6358.67,1290Zm13.58,81.38h-24.31a0.26,0.26,0,0,1-.26-0.31,1.2,1.2,0,0,1,.95-0.85l9.18-1.64a1.48,1.48,0,0,0,1.24-1.45v-18.64a6.73,6.73,0,0,0-3-5.55l-3.11-2.12a13.12,13.12,0,0,1-5-12.14l2.36-18.82a1,1,0,0,1,.94-0.9c1.6-.12,4.57-0.34,8.81-0.34s7.21,0.23,8.81.34a1,1,0,0,1,.94.9l2.36,18.82a13.12,13.12,0,0,1-5,12.14l-3.11,2.12a6.73,6.73,0,0,0-3,5.55v18.64a1.48,1.48,0,0,0,1.24,1.45l9.18,1.64a1.2,1.2,0,0,1,.95.85A0.26,0.26,0,0,1,6372.25,1371.38Z" transform="translate(-6308.67 -1290)"/></svg>