<svg id="how_it_works" data-name="how it works" xmlns="http://www.w3.org/2000/svg" viewBox="0 0 120 120"><defs><style>.cls-1{fill:#fff;}</style></defs><title>hand-lp</title><path class="cls-1" d="M1961.62,1855.57a1.23,1.23,0,0,0-.52-0.47q-1.41-.43-2.85-0.75a0.76,0.76,0,0,0-.62.22,7.41,7.41,0,0,1-3.47,2.22,1,1,0,0,0-.76.8,8.71,8.71,0,0,1-2,4.06,0.22,0.22,0,0,0,0,.11,0.58,0.58,0,0,0,.09.08,20.08,20.08,0,0,1,6.38,4.6,0.58,0.58,0,0,0,.47.13,4.31,4.31,0,0,0,2.84-1.57,24,24,0,0,1,4.53-5.12A12.79,12.79,0,0,1,1961.62,1855.57Z" transform="translate(-1885.11 -1799.13)"/><path class="cls-1" d="M1945.11,1799.13a60,60,0,1,0,60,60A60,60,0,0,0,1945.11,1799.13Zm26.07,63.61a12,12,0,0,0-1,3.79,4.17,4.17,0,0,1-1.28,2.6c-2.69,2.67-5.37,5.35-8,8.08a19.26,19.26,0,0,0-2.07,2.67c-1.42,2.12-3.67,3.35-5.35,5.21a24.94,24.94,0,0,0-4.3,6.47c-0.19.48-.56,1.34-1.06,2.49a1.65,1.65,0,0,1-1.51,1h-16.46a1.65,1.65,0,0,1-1.55-2.19l4.09-11.65c0.1-.69.19-1.38,0.28-2.06,0.29-2.24.57-4.49,0.76-6.74a25.36,25.36,0,0,0-1.59-11.66q-1.4-3.52-2.64-7.11a47.16,47.16,0,0,1-1.76-9.1c-0.2-1.48-.46-3-0.68-4.44a1.6,1.6,0,0,1,.88-2,2,2,0,0,1,2.5.31,7.05,7.05,0,0,1,1.23,2.05c0.44,1.17.7,2.41,1.08,3.6,0.63,2,1.3,4,2,5.93,0.06,0.18.15,0.35,0.24,0.54,0.09-1.81.13-3.52,0.26-5.23,0.28-3.69.63-7.38,0.92-11.07,0.08-1.07,0-2.15.13-3.21a19.68,19.68,0,0,1,.5-3.22,1.9,1.9,0,0,1,2-1.56,1.94,1.94,0,0,1,1.93,1.7,11.9,11.9,0,0,1,.25,3.13,78.58,78.58,0,0,0,.45,13.63c0,0.22,0,.44,0,0.66a0.9,0.9,0,0,0,.1.19c0.14-.66.23-1.27,0.41-1.84a49.55,49.55,0,0,1,1.72-5.16,69.61,69.61,0,0,0,4.43-12.11,6.56,6.56,0,0,1,.81-1.88,2.19,2.19,0,0,1,2.36-1.24,2.6,2.6,0,0,1,2.09,2,8.06,8.06,0,0,1-.13,3.73c-0.61,2.93-1.16,5.87-1.9,8.77a41,41,0,0,0-1.35,7,14.68,14.68,0,0,1-1.13,5.58c1.25-.72,2.41-1.37,3.55-2a13.74,13.74,0,0,1,5-1.7,3.32,3.32,0,0,1,1.79.3c1.54,0.83,3,1.74,4.53,2.65a9.85,9.85,0,0,1,3.64,3.89c0.64,1.26,1.25,2.53,1.85,3.81a4.55,4.55,0,0,1,.21.89C1971.32,1858.74,1972.07,1860.8,1971.18,1862.74Z" transform="translate(-1885.11 -1799.13)"/></svg>