<svg id="NEW_HOMEPAGE" data-name="NEW HOMEPAGE" xmlns="http://www.w3.org/2000/svg" viewBox="0 0 100 100"><defs><style>.cls-1{fill:#1d1d1b;}</style></defs><title>hand-home</title><path class="cls-1" d="M6672.42,1337a1,1,0,0,0-.43-0.39q-1.18-.35-2.38-0.63a0.63,0.63,0,0,0-.52.19,6.18,6.18,0,0,1-2.89,1.85,0.82,0.82,0,0,0-.63.67,7.26,7.26,0,0,1-1.7,3.39,0.19,0.19,0,0,0,0,.1l0.08,0.06a16.73,16.73,0,0,1,5.31,3.83,0.49,0.49,0,0,0,.39.11,3.6,3.6,0,0,0,2.37-1.31,20,20,0,0,1,3.77-4.26A10.66,10.66,0,0,1,6672.42,1337Z" transform="translate(-6608.67 -1290)"/><path class="cls-1" d="M6658.67,1290a50,50,0,1,0,50,50A50,50,0,0,0,6658.67,1290Zm21.72,53a10,10,0,0,0-.83,3.16,3.47,3.47,0,0,1-1.07,2.17c-2.24,2.22-4.48,4.46-6.67,6.73a16,16,0,0,0-1.73,2.22c-1.19,1.77-3.06,2.79-4.46,4.34a20.79,20.79,0,0,0-3.58,5.39c-0.16.4-.46,1.12-0.88,2.08a1.37,1.37,0,0,1-1.26.82H6646.2a1.37,1.37,0,0,1-1.29-1.83l3.41-9.7c0.08-.57.16-1.15,0.23-1.72,0.24-1.87.48-3.74,0.64-5.62a21.13,21.13,0,0,0-1.33-9.72q-1.17-2.93-2.2-5.92a39.3,39.3,0,0,1-1.46-7.58c-0.17-1.23-.39-2.46-0.57-3.7a1.33,1.33,0,0,1,.73-1.69,1.64,1.64,0,0,1,2.08.26,5.88,5.88,0,0,1,1,1.71c0.37,1,.58,2,0.9,3,0.53,1.65,1.08,3.3,1.63,4.94,0.05,0.15.13,0.29,0.2,0.45,0.07-1.5.11-2.94,0.22-4.36,0.24-3.08.52-6.15,0.76-9.23,0.07-.89,0-1.79.11-2.67a16.4,16.4,0,0,1,.41-2.69,1.59,1.59,0,0,1,1.69-1.3A1.62,1.62,0,0,1,6655,1314a9.91,9.91,0,0,1,.21,2.6,65.48,65.48,0,0,0,.37,11.35c0,0.18,0,.37,0,0.55a0.75,0.75,0,0,0,.08.16c0.12-.55.19-1.05,0.34-1.53a41.29,41.29,0,0,1,1.44-4.3,58,58,0,0,0,3.69-10.09,5.47,5.47,0,0,1,.67-1.57,1.82,1.82,0,0,1,2-1,2.17,2.17,0,0,1,1.74,1.7,6.72,6.72,0,0,1-.11,3.11c-0.51,2.44-1,4.89-1.58,7.31a34.19,34.19,0,0,0-1.13,5.85,12.23,12.23,0,0,1-.94,4.65c1-.6,2-1.14,3-1.71a11.45,11.45,0,0,1,4.16-1.42,2.77,2.77,0,0,1,1.49.25c1.28,0.69,2.53,1.45,3.78,2.21a8.21,8.21,0,0,1,3,3.24c0.54,1,1,2.11,1.54,3.18a3.79,3.79,0,0,1,.18.74A2.61,2.61,0,0,1,6680.39,1343Z" transform="translate(-6608.67 -1290)"/></svg>