<svg id="NEW_HOMEPAGE" data-name="NEW HOMEPAGE" xmlns="http://www.w3.org/2000/svg" viewBox="0 0 959.82 73.71"><defs><style>.cls-1{fill:#1d1d1b;}</style></defs><title>home-logos-tablet</title><path class="cls-1" d="M9177.85,3193.76h-5c0.65-1.66.14-3.28,0-4.9-0.29-2.67-.64-5.34-1.1-8-0.11.25-.24,0.5-0.34,0.75-1.49,3.83-3,7.66-4.45,11.5a0.92,0.92,0,0,1-1.08.75c-0.58-.06-1.12.12-1.44-0.7-1.57-4-3.23-7.9-4.86-11.85a1.94,1.94,0,0,0-.42-0.66c-0.5,4.37-1.65,8.65-1.6,13.14h-4.12c1.25-3.24,1.24-6.7,1.82-10.06,0.41-2.37.72-4.76,1-7.16a17.45,17.45,0,0,0-.12-2.74c1.22,0,2.54,0,3.85,0a1.38,1.38,0,0,1,1.34,1c1.39,3.47,2.82,6.94,4.24,10.41,0.12,0.29.25,0.57,0.44,1,0.16-.38.28-0.63,0.38-0.89l3.93-10.19a1.71,1.71,0,0,1,2-1.37h3.32c-0.65,3.09.31,6,.56,9,0.24,2.81.65,5.62,1,8.42a22.43,22.43,0,0,0,.64,2.51" transform="translate(-8942.62 -3125.67)"/><path class="cls-1" d="M9248.53,3193.74a21.51,21.51,0,0,1-2.83,0,1.94,1.94,0,0,1-1-.85c-2.22-3.13-4.4-6.27-6.6-9.41a1.67,1.67,0,0,0-.63-0.58v0.82q0,3.66,0,7.31c0,2.38-.45,2.82-2.88,2.82h-1v-20a23.12,23.12,0,0,1,2.91,0,1.93,1.93,0,0,1,1.05.85c2.16,3.07,4.3,6.15,6.44,9.24l0.61,0.85c0-.45.05-0.69,0.05-0.94,0-2.65,0-5.29,0-7.94a1.83,1.83,0,0,1,2.1-2.13h1.77v19.95Z" transform="translate(-8942.62 -3125.67)"/><path class="cls-1" d="M9184,3183.78a8.37,8.37,0,0,0,1.13,4.45,4.34,4.34,0,0,0,7.56,0,8.39,8.39,0,0,0,0-8.7,4.34,4.34,0,0,0-7.6-.06,8.33,8.33,0,0,0-1.12,4.34m-4.24-.18a10.54,10.54,0,0,1,2.88-7.33,8.79,8.79,0,0,1,13.54,1.21,11.08,11.08,0,0,1,.35,12.13,8.21,8.21,0,0,1-7.95,4.33,8.55,8.55,0,0,1-7.85-5.42,11.68,11.68,0,0,1-1-4.92" transform="translate(-8942.62 -3125.67)"/><path class="cls-1" d="M9305.84,3182.15l7.47,11.58c-0.48,0-.78.08-1.07,0.08-4.5-.07-3.22.59-5.67-3-1.2-1.79-2.35-3.61-3.53-5.41a0.93,0.93,0,0,0-.17-0.14c-0.77.65-1.5,1.23-1.42,2.47,0.12,1.72,0,3.46,0,5.19v0.86c-1,0-1.89.07-2.77,0a1.54,1.54,0,0,1-1.38-1.49,6.34,6.34,0,0,1,0-.71q0-8.45,0-16.91c0-.23,0-0.47,0-0.85,1,0,2,0,2.91.15a1.43,1.43,0,0,1,1.22,1.6c0,1.55,0,3.09,0,4.64,0,0.28,0,.56,0,1.07,0.36-.33.56-0.51,0.75-0.7l5.74-5.86a2.45,2.45,0,0,1,1.92-.94,1.63,1.63,0,0,1,1.55.89,1.68,1.68,0,0,1-.14,1.86,19.16,19.16,0,0,1-1.33,1.45l-4.13,4.23" transform="translate(-8942.62 -3125.67)"/><path class="cls-1" d="M9293.91,3181c-1.14,0-2.15.06-3.13,0a2.08,2.08,0,0,1-1.08-.68,3.67,3.67,0,0,1-.53-1,3.42,3.42,0,0,0-5.65-.93,6.23,6.23,0,0,0-1.77,3.69,9.13,9.13,0,0,0,.84,6,4.12,4.12,0,0,0,4.05,2.34,3.11,3.11,0,0,0,2.56-2.1,2.3,2.3,0,0,1,2.74-1.65,18.2,18.2,0,0,0,2,0,7.4,7.4,0,0,1-2.25,5.06,8.22,8.22,0,0,1-11.85-.52c-3.48-4-3.24-11.46.53-15.18a7.88,7.88,0,0,1,8.11-2,7.32,7.32,0,0,1,5.31,5.7,11.1,11.1,0,0,1,.16,1.26" transform="translate(-8942.62 -3125.67)"/><path class="cls-1" d="M9257.26,3177.22c0,1.63,0,3.09,0,4.56,0,0.18,0,.35.07,0.67a32,32,0,0,0,3.23-.2,2.5,2.5,0,0,0,.13-4.8,28.51,28.51,0,0,0-3.43-.23m-4.17-3.4c2.69,0,5.31,0,7.94,0a6.07,6.07,0,0,1,1.47.26,6,6,0,0,1-1.45,11.75c-1.23,0-2.46,0-3.79,0v3c0,1,0,1.94,0,2.91a1.79,1.79,0,0,1-1.94,2c-0.73,0-1.46,0-2.22,0v-20Z" transform="translate(-8942.62 -3125.67)"/><path class="cls-1" d="M9207.74,3187.47l3.5-12c0.44-1.5.72-1.7,2.28-1.71h2.31l-1.42,4.87q-1.83,6.29-3.66,12.58a3.34,3.34,0,0,1-2.15,2.61,3,3,0,0,1-3.95-2.17c-0.65-2-1.21-4.06-1.82-6.09l-3.21-10.83c-0.08-.27-0.15-0.55-0.24-0.9,1.11,0,2.17-.07,3.23,0a1.55,1.55,0,0,1,1.21,1.39q1.57,5.14,3.16,10.28c0.2,0.64.41,1.28,0.61,1.93h0.17" transform="translate(-8942.62 -3125.67)"/><path class="cls-1" d="M9229.56,3173.83c0,0.62,0,1.14,0,1.66a1.58,1.58,0,0,1-1.77,1.76c-1.4,0-2.79,0-4.19,0h-1v4.51c1.48,0,2.92,0,4.36,0a1.67,1.67,0,0,1,1.78,1.44,1.65,1.65,0,0,1-1.68,2c-1.19,0-2.37,0-3.56,0h-0.87a3.73,3.73,0,0,0-.07.47c0,1.49,0,3,0,4.6h0.88c1.42,0,2.85,0,4.27,0a1.66,1.66,0,0,1,1.93,1.93c0,1.9.22,1.55-1.5,1.56-2.51,0-5,0-7.52,0-1.69,0-2.27-.59-2.27-2.29q0-7.75,0-15.49c0-1.64.6-2.24,2.23-2.24h8.15c0.23,0,.46,0,0.78,0" transform="translate(-8942.62 -3125.67)"/><path class="cls-1" d="M9219.7,3140.26a1.94,1.94,0,0,0,.35.3,15.55,15.55,0,0,1,7,6.69,32.27,32.27,0,0,0,5,6.63c0.4,0.39.83,0.77,1.31,1.22a18.92,18.92,0,0,1-8-7.47,19.35,19.35,0,0,0-4.32-5.08,13.57,13.57,0,0,0-8-3.16,27.13,27.13,0,0,1,3.21-.63,19.82,19.82,0,0,1,9.44,1.35,18.4,18.4,0,0,1,6.56,5.08c2.07,2.34,4,4.83,6.12,7.1a24.39,24.39,0,0,0,10.82,7.1c0.63,0.19,1.27.31,2,.5a22.32,22.32,0,0,1-10.06-2,26.72,26.72,0,0,1-11.49-10.14c-0.75-1.14-1.49-2.3-2.34-3.36a12,12,0,0,0-7.23-4.17,1.87,1.87,0,0,0-.41,0" transform="translate(-8942.62 -3125.67)"/><path class="cls-1" d="M9269.57,3173.81c0.9,0,1.71,0,2.52,0a1.6,1.6,0,0,1,1.64,1.68c0,6,0,12.05,0,18.08a0.54,0.54,0,0,1-.07.16c-0.9,0-1.82,0-2.73,0a1.41,1.41,0,0,1-1.28-1.22,4.16,4.16,0,0,1-.11-0.93q0-8.57,0-17.14c0-.18,0-0.36,0-0.63" transform="translate(-8942.62 -3125.67)"/><path class="cls-1" d="M9241.92,3159.69c-7.38,2.19-14.58,3.39-22,1.27,1.44,0.09,2.88.2,4.32,0.26a38,38,0,0,0,14.07-2.31,2,2,0,0,1,1.93.08,12.38,12.38,0,0,0,1.66.69" transform="translate(-8942.62 -3125.67)"/><path class="cls-1" d="M9194.49,3169.91a2,2,0,1,1-2-2.06,2,2,0,0,1,2,2.06" transform="translate(-8942.62 -3125.67)"/><path class="cls-1" d="M9183.38,3169.88a2,2,0,1,1,2,2.07,2,2,0,0,1-2-2.07" transform="translate(-8942.62 -3125.67)"/><path class="cls-1" d="M9271.55,3172a2.05,2.05,0,1,1,2-2.09,2.08,2.08,0,0,1-2,2.09" transform="translate(-8942.62 -3125.67)"/><path class="cls-1" d="M9245.19,3156.51a10,10,0,0,1,4.5-.11,1.53,1.53,0,0,1,.45.16l3.49,2.27c-0.61,0-1.24-.06-1.87-0.1a0.35,0.35,0,0,1-.24-0.17,2.45,2.45,0,0,0-3.23-1.18c-1.25.41-2-.24-3.1-0.86" transform="translate(-8942.62 -3125.67)"/><path class="cls-1" d="M9467.75,3156.23c-0.07-3.22,1.12-6.63-2.07-8.59a5.07,5.07,0,0,0-4.53.29c-2.92,2-1.74,5.25-1.73,8.3h8.33Zm0.13,4.23h-8.5v35.06l-4,.23V3186c0-7.16,0-14.32,0-21.48,0-1.8.71-3.86-1.94-4.8-0.67-.24-0.84-1.89-1.31-3.08l3.32-.49c0-1.93-.11-3.8,0-5.65a7.55,7.55,0,0,1,7.35-7.44c4.7-.3,7.9,2.11,8.74,6.6a12.76,12.76,0,0,1,.23,2.3q0,21,0,42a13.37,13.37,0,0,1-.19,1.52h-3.73v-35Z" transform="translate(-8942.62 -3125.67)"/><path class="cls-1" d="M9431.09,3143.67c1,3,.13,3.9-2.51,4.22-10.83,1.31-19.26,11.2-19.08,22.12a22.06,22.06,0,0,0,19.31,21.53c2.76,0.32,2.76.32,2.43,4a23.45,23.45,0,0,1-20.18-10c-6.37-8.59-7.36-18.06-2.59-27.66,4.55-9.16,12.49-13.38,22.62-14.2" transform="translate(-8942.62 -3125.67)"/><path class="cls-1" d="M9384.23,3195.64v-4c1.79,0,3.49,0,5.18,0,6.41-.21,9.78-5.16,7.26-11.11-3-7.18-6.42-14.21-9.67-21.29-1.43-3.11-2-6.28-.63-9.56,2-4.82,6.24-6.66,13.06-5.64v3.3c-1.25.1-2.42,0.17-3.59,0.29-5.33.51-7.63,3.94-5.53,9,2.58,6.17,5.61,12.16,8.39,18.25a37.73,37.73,0,0,1,2.27,5.81c2.06,7.69-2.85,14.5-10.76,15-1.93.12-3.87,0-6,0" transform="translate(-8942.62 -3125.67)"/><path class="cls-1" d="M9373.46,3195.77l-4.07-.24v-16.37c0-6.07,1.21-12.47-.35-18.1s-5.88-10.37-9-15.52c-0.27-.44-0.44-0.93-0.72-1.52,2.67-.83,4.49-0.44,5.9,2.07,1.83,3.25,4,6.29,6.29,9.79,2.15-3.37,4.3-6.37,6-9.59,1.42-2.61,3.24-3.22,6.18-2.2-2.94,4.55-5.9,8.89-8.57,13.4a11.68,11.68,0,0,0-1.65,5.47c-0.16,9.59-.08,19.19-0.08,28.78v4Z" transform="translate(-8942.62 -3125.67)"/><path class="cls-1" d="M9437.18,3143.83h3.69v47.93c2.43,0,4.48.12,6.51,0,2.67-.19,3.71.8,2.79,3.74h-13v-51.64Z" transform="translate(-8942.62 -3125.67)"/><path d="M9619.16,3131.36s0,0,0,0a0.1,0.1,0,0,0,.09-0.1v0a0.29,0.29,0,0,0,.24-0.24l0.14,0a0.09,0.09,0,0,0,.1-0.09h0.14a0.16,0.16,0,0,0,.15-0.18c0.06-.47.12-0.95,0.19-1.42,0-.23.09-0.46,0.15-0.69,0,0,0-.2.13,0v0.09a0.52,0.52,0,0,0-.09.43v0.09a1.25,1.25,0,0,0-.09.66v0.09a1,1,0,0,0-.09.52c0,0.13-.08.29,0.09,0.38l0,0a0.25,0.25,0,0,0,.24.14h0a0.14,0.14,0,0,0,.14.14l0,0a0.14,0.14,0,0,0,.14.14v0a0.09,0.09,0,0,0,.09.1s0,0,0,0l0.28,0.71v0.09a2.5,2.5,0,0,0,0,.35,8.64,8.64,0,0,0,.09,1V3138a0.18,0.18,0,0,0,0,.13c0,0.45-.08.89,0,1.34v0.14a4.24,4.24,0,0,0-.09,1.19v0.09a3.13,3.13,0,0,0-.09,1s0,0.09,0,.14a3.93,3.93,0,0,0-.14,1c-0.07.49-.18,1-0.27,1.46a9.08,9.08,0,0,1-.45,1.39s0,0,0,0a0.11,0.11,0,0,0-.09.14s0,0,0,0a0.21,0.21,0,0,0-.19.19l0,0a0.45,0.45,0,0,0-.33.23h-0.14a0.15,0.15,0,0,0-.23.14,11.34,11.34,0,0,0-.1,1.14V3148a1.52,1.52,0,0,0-.09.71v0.14a1.53,1.53,0,0,0-.09.71v0.14a10.15,10.15,0,0,0-.19,1.66v0.14a2,2,0,0,0-.09.81v0.09a2,2,0,0,0-.09.81v0.14a0.34,0.34,0,0,0,0,.1c0,0.55-.15,1.1-0.14,1.65,0,0,0,.09,0,0.14a2,2,0,0,0-.09.81v0.09a2.39,2.39,0,0,0-.09.85v0.09a2.38,2.38,0,0,0-.09.85V3158a2.38,2.38,0,0,0-.09.85V3159a2.4,2.4,0,0,0-.09.85v0.09a2.4,2.4,0,0,0-.09.85v0.09a2,2,0,0,0-.09.81v0.14a2,2,0,0,0-.09.81v0.09a2,2,0,0,0-.09.81v0.09a2,2,0,0,0-.09.81s0,0.06,0,.09a1.67,1.67,0,0,0-.09.76v0.09a1.85,1.85,0,0,0-.09.76v0.14a1.4,1.4,0,0,0-.09.66c0,0.34-.22.21-0.38,0.23a1,1,0,0,0,0-.42v-0.1a0.09,0.09,0,0,0,.09-0.09,6.67,6.67,0,0,1,.1-0.79c0.07-.82.18-1.63,0.27-2.45a1.44,1.44,0,0,0,0-.74s0-.06,0-0.1a1.23,1.23,0,0,0,.09-0.8s0-.06,0-0.1,0.09-.11.09-0.19c0.06-.57.14-1.13,0.17-1.7a2.54,2.54,0,0,0,0-.85v-0.1a1.33,1.33,0,0,0,.09-0.85v-0.1a1.32,1.32,0,0,0,.09-0.85v-0.1a1.55,1.55,0,0,0,.09-0.9v-0.1c0.12,0,.09-0.13.09-0.21,0.06-.58.11-1.15,0.17-1.73a2.21,2.21,0,0,0,0-.85s0-.06,0-0.1a0.12,0.12,0,0,0,.09-0.14c0-.29.07-0.57,0.08-0.86a2.11,2.11,0,0,0,0-.8s0-.06,0-0.1a0.12,0.12,0,0,0,.09-0.14c0-.59.12-1.18,0.18-1.77a1.17,1.17,0,0,0,0-.64v-0.09a1.1,1.1,0,0,0,.09-0.76v-0.1a0.09,0.09,0,0,0,.08-0.07,4.27,4.27,0,0,1,.09-0.79,0.12,0.12,0,0,0-.13-0.13l-0.09,0a0.09,0.09,0,0,0-.09-0.09,0.5,0.5,0,0,1-.19-0.19,0.14,0.14,0,0,0-.14-0.14V3146a0.37,0.37,0,0,0,0-.07,11.57,11.57,0,0,1-.05-2.69,1.51,1.51,0,0,0,0-.69v-0.1c0.12,0,.09-0.13.09-0.21,0-.36,0-0.71,0-1.07v-0.09a0.87,0.87,0,0,0,0-.61s0-.1,0-0.14,0.09-.13.09-0.21c0-.26,0-0.52,0-0.78v-0.09a0.54,0.54,0,0,0,0-.47v-0.1c0.11,0,.09-0.11.09-0.19a6.92,6.92,0,0,1,0-1.1,0.3,0.3,0,0,0,0-.27V3137c0.12,0,.09-0.13.09-0.21a3.43,3.43,0,0,1,0-.7,0.28,0.28,0,0,0,0-.27v-0.1c0.13,0,.09-0.15.09-0.24a11.78,11.78,0,0,1,.12-1.52,14.28,14.28,0,0,1,.36-2.6" transform="translate(-8942.62 -3125.67)"/><path d="M9612,3151.78v0.33c0,0.71.1,1.42,0,2.14v0.09a1.14,1.14,0,0,0-.14.38l-0.14.19c-0.24.06-.28,0.13-0.19,0.38,0,0,0,.09,0,0.14a1.75,1.75,0,0,0,.09.71v0.14a2.13,2.13,0,0,0,.09.76c0,0.06,0,.13,0,0.19a2,2,0,0,0,.09.81c0,0.06,0,.13,0,0.19a3.14,3.14,0,0,0,.09,1v0.24a3.59,3.59,0,0,0,.09,1v0.28a5.36,5.36,0,0,0,.09,1.28v0.33a7,7,0,0,0,0,.76,4.46,4.46,0,0,0,.09.86v0.43c0,0.36,0,.71,0,1.07,0,0.08,0,.18.09,0.21v0.14a1.31,1.31,0,0,0,0,.76c0,0.12,0,.23,0,0.35s0,0.26-.28.17c0-.37,0-0.74,0-1.11,0-.08,0-0.18-0.09-0.21s0-.29,0-0.43a1,1,0,0,0,0-.66v-0.09c0-.34,0-0.68,0-1,0-.08,0-0.18-0.09-0.21s0-.16,0-0.24a0.18,0.18,0,0,0,0-.13c0-.44-0.08-0.87,0-1.31a0.1,0.1,0,0,0-.09-0.12c0-.08,0-0.16,0-0.24a0.3,0.3,0,0,0,0-.11c0-.36,0-0.72,0-1.08a0.1,0.1,0,0,0-.09-0.1c0-.06,0-0.13,0-0.19a3.39,3.39,0,0,0,0-1,0.14,0.14,0,0,0-.06,0c0-.06,0-0.13,0-0.19a2.49,2.49,0,0,0,0-.87,0.15,0.15,0,0,0-.06,0s0-.1,0-0.14a2.57,2.57,0,0,0,0-.82,0.13,0.13,0,0,0-.06,0s0-.1,0-0.14a0.18,0.18,0,0,0,0-.17,9.62,9.62,0,0,0-.13-1c0-.12.07-0.29-0.1-0.37a0.24,0.24,0,0,0-.19-0.05,0.09,0.09,0,0,0-.1-0.09h-0.09a0.39,0.39,0,0,0-.28-0.28v0a0.09,0.09,0,0,0-.09-0.1s0-.06,0-0.09a10.49,10.49,0,0,1-.58-2.2,0.09,0.09,0,0,0-.08-0.07s0-.06,0-0.1a0.74,0.74,0,0,0-.09-0.61s0-.06,0-0.1a0.82,0.82,0,0,0-.09-0.66s0-.06,0-0.1a0.87,0.87,0,0,0-.09-0.71c0-.06,0-0.13,0-0.19a1.75,1.75,0,0,0,0-.68,0.15,0.15,0,0,0-.06,0c0-.06,0-0.13,0-0.19a2,2,0,0,0,0-.73,0.14,0.14,0,0,0-.06,0c0-.06,0-0.13,0-0.19a4,4,0,0,0,0-1,0.15,0.15,0,0,0-.06,0c0-.08,0-0.16,0-0.24a0.33,0.33,0,0,0,0-.22c0-.28-0.05-0.56-0.05-0.85,0-.7,0-1.4,0-2.1v-0.14a0.09,0.09,0,0,0,.09-0.1s0-.06,0-0.09a0.09,0.09,0,0,0,.09-0.09,0.41,0.41,0,0,1,.24-0.24,0.19,0.19,0,0,0,.19-0.14,0.17,0.17,0,0,0,0-.14,0.26,0.26,0,0,0-.09-0.33V3142a0.25,0.25,0,0,1,.06-0.22c0,0.1.07,0.19,0.11,0.27s0,0.2.11,0.23v0.19a0.14,0.14,0,0,0,.14.14,0.62,0.62,0,0,1,.61.33,0.09,0.09,0,0,0,.09.1v0a2.72,2.72,0,0,0,.1.38,7.16,7.16,0,0,0,.18.81v0.09a1.12,1.12,0,0,0,.09.52V3145a0.79,0.79,0,0,0,.09.52v0.14a1.12,1.12,0,0,0,.09.52v0.14a0.92,0.92,0,0,0,.09.52s0,0.09,0,.14a1.3,1.3,0,0,0,.09.62s0,0.09,0,.14a1.67,1.67,0,0,0,.09.76s0,0.09,0,.14a2.24,2.24,0,0,0,.09.81c0,0.06,0,.13,0,0.19a2.38,2.38,0,0,0,.09.85c0,0.08,0,.16,0,0.24a3.6,3.6,0,0,0,.09,1" transform="translate(-8942.62 -3125.67)"/><path d="M9624.18,3142.11s0-.09,0-0.14a0.11,0.11,0,0,0,.09-0.14,0.41,0.41,0,0,1,.38-0.33,0.25,0.25,0,0,0,.29-0.19c0.12,0,.06.19,0.19,0.19a0.4,0.4,0,0,1,.19.24,0.09,0.09,0,0,0,.09.1,2.47,2.47,0,0,1,0,1.4,31.14,31.14,0,0,1-.66,3.33,14.05,14.05,0,0,1-.87,2.82,0.77,0.77,0,0,1-.51.48,0.31,0.31,0,0,0-.23.27c-0.33,1.37-.6,2.75-0.85,4.14-0.2,1.1-.37,2.2-0.54,3.3s-0.3,2.1-.44,3.15c-0.07.55-.08,1.1-0.1,1.65,0,0.83-.05,1.67-0.1,2.5s0,1.39-.08,2.08c0,0.11,0,.23-0.16.24s-0.18-.12-0.18-0.24c0-1,.09-2.09.11-3.14,0-.68.07-1.37,0.09-2.05,0-.94.08-1.87,0.1-2.81,0-.71.06-1.43,0.09-2.15,0-1,.09-1.93.14-2.9,0-.57,0-1.13.09-1.7,0.06-.92.13-1.83,0.19-2.75,0-.56.05-1.12,0.1-1.67,0.08-.9.13-1.8,0.22-2.7,0-.48.11-1,0.11-1.43,0-.06,0-0.15.05-0.16s0.08,0.08.09,0.14c0,0.76.14,1.52,0.13,2.28a17.74,17.74,0,0,1-.16,1.95c0,0.41-.08.83-0.11,1.24-0.06.75-.12,1.5-0.18,2.26,0,0.48-.08,1-0.1,1.46-0.05,1-.1,1.92-0.18,2.87,0,0.41,0,.83-0.05,1.25a3.6,3.6,0,0,0-.05.75c0,0.06,0,.17.05,0.18a0.15,0.15,0,0,0,.13-0.19,5,5,0,0,1,.09-0.72c0-.55.16-1.09,0.25-1.63,0.19-1.2.42-2.39,0.66-3.57,0.12-.58.26-1.17,0.4-1.75a0.2,0.2,0,0,0-.07-0.23,0.6,0.6,0,0,1-.19-0.48,7.8,7.8,0,0,1,.22-1.82c0.13-.69.29-1.39,0.43-2.08a2.29,2.29,0,0,0,0-.33,0.1,0.1,0,0,0,.08-0.07c0.07-.28.14-0.56,0.2-0.84a1,1,0,0,0,.1-0.51s0-.06,0-0.1a0.11,0.11,0,0,0,.09-0.14c0-.06,0-0.13,0-0.19a0.75,0.75,0,0,0,.19-0.52v-0.14a0.11,0.11,0,0,0,.09-0.14s0-.09,0-0.14a0.11,0.11,0,0,0,.09-0.14" transform="translate(-8942.62 -3125.67)"/><path d="M9617.12,3148.2c0,0.44,0,.88,0,1.33,0,1.33,0,2.67-.06,4,0,1.08-.06,2.16-0.09,3.24,0,0.79-.06,1.59-0.09,2.38s-0.06,1.37-.1,2.05-0.09,1.65-.14,2.47-0.12,1.55-.14,2.33c0,0.33-.06.66-0.09,1,0,0.11,0,.2-0.16.19s-0.32.1-.42-0.1a0.4,0.4,0,0,1,0-.18c0-.59-0.06-1.18,0-1.77,0-1.13,0-2.26-.07-3.38,0-.94,0-1.88,0-2.82-0.07-1.46-.07-2.92-0.1-4.37,0-1-.06-2-0.09-3,0-.84-0.07-1.68-0.1-2.53,0-.64,0-1.29-0.1-1.93-0.07-.82-0.08-1.65-0.16-2.47-0.05-.6-0.1-1.21-0.12-1.81s-0.06-1,0-1.56c0-.84.09-1.68,0.14-2.52,0-.07,0-0.16.11-0.15s0.07,0.09.07,0.15c0,0.78.11,1.55,0.15,2.33s0.11,1.85.14,2.78,0.06,1.57.09,2.36c0,1,.06,2,0.09,2.93,0.05,1.37.06,2.74,0.1,4.11,0,0.64,0,1.28,0,1.91,0.07,0.84,0,1.69,0,2.53s0,1.39,0,2.08,0,1.37,0,2.06c0,0.44,0,.88,0,1.32,0,0.05,0,.13.07,0.13s0.07-.07.07-0.12c0-.55.06-1.1,0.09-1.65,0.05-1,.1-1.93.18-2.89,0-.41,0-0.82,0-1.23,0.06-.82.05-1.65,0.11-2.48,0-.42,0-0.84,0-1.25,0.08-1.45.07-2.9,0.11-4.35,0-1.12,0-2.24,0-3.36a2.62,2.62,0,0,1,.05-0.4s0-.1.08-0.1a0.1,0.1,0,0,1,.1.09,1.53,1.53,0,0,1,.06.4c0,0.77,0,1.55,0,2.32" transform="translate(-8942.62 -3125.67)"/><path d="M9612.24,3144.16a12.6,12.6,0,0,1,.17-1.71c0-.38.11-0.75,0.12-1.13,0-.07,0-0.17.06-0.18s0.11,0.11.11,0.17c0,0.39.07,0.77,0.11,1.15,0.09,0.77.18,1.55,0.26,2.32,0.06,0.52.11,1,.16,1.55,0.07,0.69.15,1.39,0.23,2.09s0.13,1.3.2,1.95c0,0.46.1,0.92,0.15,1.38s0.12,1.08.18,1.62q0.11,1.08.22,2.16c0,0.39.07,0.78,0.11,1.17,0.06,0.66.12,1.31,0.18,2,0,0.44.07,0.88,0.1,1.32,0.06,0.77.12,1.54,0.18,2.3,0,0.28,0,.57,0,0.85,0.05,0.63.07,1.27,0.1,1.91s0.08,1.32.12,2a0.12,0.12,0,0,1-.06.14,0.62,0.62,0,0,1-.42,0c-0.11,0-.07-0.16-0.08-0.25q-0.08-1.18-.17-2.35c0-.47-0.08-0.94-0.11-1.41,0-.64-0.11-1.28-0.17-1.93l-0.12-1.31c0-.54-0.11-1.08-0.16-1.62l-0.12-1.17c-0.05-.5-0.1-1-0.15-1.5s-0.09-.75-0.13-1.12-0.11-1-.17-1.55-0.14-1.3-.21-1.94c0-.43-0.11-0.86-0.16-1.29-0.07-.64-0.14-1.28-0.22-1.92,0-.41-0.11-0.83-0.15-1.24a18.34,18.34,0,0,1-.23-2.4" transform="translate(-8942.62 -3125.67)"/><path d="M9602.14,3140.71a0.32,0.32,0,0,1,.1.25c0,1,.1,1.94,0,2.91a14.58,14.58,0,0,1-.34,1.83q-0.37,1.92-.65,3.86c-0.16,1.09-.3,2.18-0.41,3.27-0.08.81-.16,1.63-0.21,2.44s-0.1,1.6-.14,2.4-0.06,1.49-.09,2.24c-0.08,1.88,0,3.76,0,5.63,0,0.46,0,.93,0,1.39,0,0.21-.1.24-0.28,0.25a0.2,0.2,0,0,1-.25-0.24c0-2.16,0-4.31,0-6.47,0-.9,0-1.81.1-2.71s0.06-1.56.13-2.33c0.09-1.11.13-2.23,0.25-3.34,0.09-.8.17-1.59,0.26-2.39,0.12-1.08.26-2.15,0.4-3.23,0.09-.72.24-1.44,0.35-2.16,0.07-.45.12-0.9,0.22-1.35s0.14-.74.22-1.11,0.1-.56.15-0.83a1.26,1.26,0,0,1,.13-0.33" transform="translate(-8942.62 -3125.67)"/><path d="M9628.68,3159.32c0,0.8,0,1.38,0,2,0,0.87,0,1.73,0,2.6s-0.08,1.62-.1,2.43c0,0.23,0,.45,0,0.68s-0.17.18-.3,0.19-0.23,0-.21-0.19c0-.71.09-1.43,0.13-2.14,0-.38,0-0.76,0-1.13,0-1.62.08-3.25,0.06-4.87,0-.84-0.05-1.69-0.06-2.53s-0.07-1.7-.14-2.54c-0.09-1.13-.19-2.27-0.32-3.4-0.16-1.37-.35-2.74-0.57-4.11a8.2,8.2,0,0,1,0-2.07c0-.41.07-0.81,0.1-1.22,0,0,0-.06,0-0.09s0-.25.11-0.25,0.09,0.15.11,0.24c0.12,0.83.24,1.66,0.35,2.5s0.22,1.79.32,2.69c0,0.44.07,0.88,0.11,1.32,0.06,0.68.12,1.36,0.18,2,0,0.34,0,.69,0,1,0.06,0.83,0,1.67.11,2.5,0,0.57,0,1.13,0,1.7,0.05,1,0,1.92,0,2.67" transform="translate(-8942.62 -3125.67)"/><path d="M9610,3156.34c0.08,0.32.15,0.62,0.21,0.92a17.58,17.58,0,0,1,.27,2.17c0,0.59,0,1.18,0,1.78,0,1,.08,2,0.11,3,0,0.63.08,1.27,0.09,1.91a7.2,7.2,0,0,0,.08.84c0,0.18,0,.3-0.23.27h-0.24a0.25,0.25,0,0,1-.29-0.26c-0.08-.53-0.17-1.05-0.26-1.58s-0.2-1.29-.31-1.93c-0.08-.46-0.17-0.93-0.25-1.39s-0.14-.9-0.22-1.35-0.16-.94-0.25-1.41c0-.24-0.09-0.48-0.12-0.72s-0.08-.55-0.13-0.81c-0.13-.69-0.24-1.38-0.34-2.07-0.14-.94-0.31-1.87-0.41-2.82-0.06-.56-0.17-1.12-0.25-1.68s-0.14-1.23-.22-1.85c0-.41-0.1-0.81-0.16-1.21a0.5,0.5,0,0,1,0-.07c0-.09-0.06-0.22,0-0.25s0.11,0.11.14,0.2c0.2,0.69.4,1.38,0.56,2.08a17.31,17.31,0,0,1,.3,2c0.07,0.71.18,1.42,0.27,2.13s0.19,1.56.3,2.34,0.22,1.52.34,2.28c0.16,1,.34,2.09.51,3.14,0.13,0.82.22,1.65,0.37,2.47a18.76,18.76,0,0,1,.3,1.93c0,0.06,0,.13.09,0.11a0.12,0.12,0,0,0,.09-0.15c0-.16,0-0.32,0-0.47a7.5,7.5,0,0,1-.08-1c-0.07-.73-0.07-1.46-0.11-2.19-0.07-1.12-.12-2.23-0.15-3.35,0-.89-0.09-1.78-0.08-2.67a0.3,0.3,0,0,1,.07-0.27" transform="translate(-8942.62 -3125.67)"/><path d="M9607.41,3166.94c0,0.14,0,.25-0.2.25a0.2,0.2,0,0,1-.23-0.24c0-1,0-2-.06-3.05s-0.06-2.09-.1-3.14c0-.81,0-1.62-0.09-2.43s0-1.84-.14-2.76c-0.06-.58,0-1.16-0.09-1.74-0.11-1.06-.14-2.12-0.22-3.17,0-.55-0.12-1.1-0.12-1.65a8,8,0,0,0-.08-0.87,7.64,7.64,0,0,1,0-1.2c0-.57.09-1.14,0.13-1.71,0,0,0-.08,0-0.12s0-.16.11-0.16,0.07,0.1.08,0.17c0.07,0.63.11,1.25,0.15,1.88,0.06,1,.14,2,0.19,3,0,0.57.06,1.15,0.09,1.72,0.06,1.1.11,2.2,0.15,3.3,0,0.85.06,1.7,0.09,2.55,0,1.13.06,2.27,0.1,3.4,0,0.58,0,1.15,0,1.72s0,1.34.05,2,0,1.21,0,1.82c0,0.14,0,.28,0,0.42" transform="translate(-8942.62 -3125.67)"/><path d="M9625.88,3144.48c0,0.89-.07,1.78-0.09,2.67,0,0.67,0,1.34-.1,2-0.07.91-.09,1.82-0.16,2.73,0,0.6-.08,1.21-0.11,1.81,0,0.81-.1,1.62-0.17,2.42,0,0.48-.07,1-0.11,1.43-0.05.71-.12,1.41-0.18,2.11q-0.05.63-.11,1.27c-0.06.59-.12,1.19-0.17,1.78,0,0.35-.07.69-0.1,1,0,0.53-.11,1.06-0.16,1.6s-0.12,1.09-.19,1.64c0,0.2-.15.24-0.46,0.2s-0.12-.16-0.11-0.27c0.11-.93.23-1.85,0.34-2.78,0.08-.69.16-1.39,0.26-2.08s0.14-1.36.21-2c0.05-.49.12-1,0.17-1.47s0.08-.8.11-1.2c0.06-.64.11-1.28,0.17-1.92,0-.42.08-0.85,0.11-1.27,0.06-.81.13-1.61,0.18-2.42,0-.61.09-1.22,0.12-1.84,0-1,.12-2,0.18-2.94,0,0,0-.09,0-0.14,0-.88.07-1.76,0.09-2.64a0.18,0.18,0,0,1,.13-0.22c0.13,0,.12.13,0.14,0.21a1.72,1.72,0,0,1,0,.33" transform="translate(-8942.62 -3125.67)"/><path d="M9624,3150.71a9.76,9.76,0,0,0,.05,1,7.79,7.79,0,0,1-.34,1.9c-0.31,1.23-.59,2.46-0.81,3.71-0.15.87-.31,1.75-0.45,2.63s-0.21,1.51-.31,2.26-0.19,1.39-.27,2.08-0.14,1.26-.2,1.9c0,0.27-.06.55-0.1,0.82s-0.19.13-.3,0.14a0.14,0.14,0,0,1-.17-0.17c0-.37.09-0.73,0.11-1.1,0-.63.14-1.25,0.22-1.87l0.32-2.55c0.1-.78.19-1.56,0.3-2.34s0.22-1.43.35-2.14c0.2-1.13.39-2.26,0.61-3.39,0.15-.79.35-1.57,0.53-2.35,0.09-.4.2-0.81,0.31-1.21,0,0,0-.11.07-0.1a0.1,0.1,0,0,1,.08.13c0,0.18,0,.36,0,0.61" transform="translate(-8942.62 -3125.67)"/><path d="M9627.07,3153.89a13.35,13.35,0,0,1-.22,2.38c-0.08.61-.14,1.22-0.21,1.83,0,0.44-.1.87-0.15,1.31s-0.12,1.09-.18,1.64c-0.08.77-.17,1.55-0.23,2.32,0,0.43-.07.86-0.1,1.29-0.06.78-.1,1.55-0.14,2.33a0.19,0.19,0,0,1-.23.19,0.16,0.16,0,0,1-.19-0.19c0-.53,0-1.05.09-1.58s0-.88.05-1.32c0.08-.91.13-1.82,0.19-2.73,0-.69.09-1.38,0.15-2.07s0.12-1.19.18-1.78,0.1-1.08.15-1.62c0.09-.93.19-1.86,0.32-2.79,0.08-.57.14-1.14,0.2-1.71,0-.07,0-0.16.1-0.16s0.09,0.08.09,0.14c0,0.86.19,1.71,0.14,2.5" transform="translate(-8942.62 -3125.67)"/><path d="M9603.52,3152.64c0,1.29,0,2.57,0,3.86,0,0.67,0,1.34,0,2,0,0.83.06,1.67,0.1,2.5s0.09,1.95.14,2.92c0,0.76.09,1.52,0.14,2.28,0,0.27,0,.53,0,0.8s-0.11.18-.24,0.17-0.24,0-.24-0.17c0-.77-0.09-1.54-0.1-2.31,0-1.13-.06-2.25-0.1-3.38-0.05-1.37-.06-2.74-0.08-4.11,0-1.57-.05-3.14,0-4.7,0-1.08,0-2.15,0-3.23,0-.28,0-0.56,0-0.85s0-.35.12-0.37,0.15,0.2.19,0.33a1,1,0,0,1,0,.28q0,2,0,4" transform="translate(-8942.62 -3125.67)"/><path d="M9606.13,3166.75c0,0.09,0,.16,0,0.23a0.16,0.16,0,0,1-.18.21c-0.14,0-.26,0-0.24-0.2a20.49,20.49,0,0,0-.11-2.33c0-.67-0.06-1.35-0.15-2-0.05-.39-0.07-0.78-0.11-1.17s-0.12-1.08-.18-1.61c-0.07-.73-0.21-1.44-0.31-2.17-0.06-.39-0.18-0.78-0.25-1.17s-0.19-.85-0.31-1.28c-0.06-.23-0.12-0.46-0.2-0.68a3,3,0,0,1,0-1.4,7.44,7.44,0,0,0,0-1.17c0-.07,0-0.16.06-0.18s0.11,0.08.13,0.15c0.23,0.93.39,1.88,0.56,2.82s0.3,1.83.42,2.75,0.2,1.7.3,2.55,0.16,1.44.23,2.15c0,0.45.07,0.91,0.1,1.36,0.06,0.73.12,1.46,0.18,2.18,0,0.33,0,.66.06,1" transform="translate(-8942.62 -3125.67)"/><path d="M9617.64,3167.18c-0.22,0-.25-0.06-0.21-0.26,0.17-.77.33-1.54,0.47-2.31q0.3-1.62.58-3.25c0.14-.8.26-1.6,0.38-2.4,0.16-1.06.33-2.13,0.47-3.19s0.32-2.17.47-3.26q0.18-1.31.39-2.61a1.16,1.16,0,0,1,.07-0.22c0-.08,0-0.19.16-0.16a0.16,0.16,0,0,1,.09.22c-0.06.43-.13,0.87-0.2,1.3-0.16.93-.31,1.86-0.41,2.8-0.07.64-.18,1.27-0.27,1.91s-0.19,1.56-.3,2.34c-0.08.58-.17,1.16-0.26,1.75-0.13.92-.27,1.83-0.4,2.75q-0.16,1-.33,2.07c-0.13.77-.25,1.54-0.41,2.3a0.23,0.23,0,0,1-.3.22" transform="translate(-8942.62 -3125.67)"/><path d="M9602.43,3166.79c0,0.07,0,.14,0,0.21s0,0.17-.1.18a0.15,0.15,0,0,1-.17-0.16c0-.19,0-0.39-0.05-0.59,0-.71-0.13-1.41-0.17-2.11,0-.45-0.1-0.89-0.12-1.34s-0.1-1-.16-1.48-0.09-.78-0.12-1.17-0.07-.67-0.12-1a11.51,11.51,0,0,1-.11-1.6c0-.71.05-1.42,0.09-2.12,0-.06,0-0.14.09-0.14s0.05,0.09.05,0.14c0,0.51.09,1,.14,1.52s0.12,1.27.18,1.9c0,0.45.07,0.91,0.11,1.36,0.06,0.72.12,1.44,0.18,2.16,0,0.49.07,1,.1,1.48,0.06,0.82.12,1.65,0.18,2.47,0,0.09,0,.19,0,0.28h0Z" transform="translate(-8942.62 -3125.67)"/><path d="M9620.49,3128.47c-0.09-.17-0.12,0-0.13,0-0.06.23-.11,0.45-0.15,0.69-0.07.47-.13,0.95-0.19,1.42a0.16,0.16,0,0,1-.15.18,8.38,8.38,0,0,0,.23-1.48,9.38,9.38,0,0,1,.51-2,6.53,6.53,0,0,1,.72-1.32,2.33,2.33,0,0,1,.32-0.34,0.11,0.11,0,0,1,0,.18,6.34,6.34,0,0,0-1.06,2.5,0.12,0.12,0,0,1-.09.12" transform="translate(-8942.62 -3125.67)"/><path d="M9610,3142.3c-0.14,0-.08-0.15-0.11-0.23s-0.07-.17-0.11-0.27a0.25,0.25,0,0,0-.06.22,0.49,0.49,0,0,1-.17-0.39,5.67,5.67,0,0,0-1.37-2.51s-0.13-.08-0.08-0.15,0.11,0,.16,0a3.5,3.5,0,0,1,.86,1,8,8,0,0,1,.85,2.06,1.66,1.66,0,0,1,0,.21" transform="translate(-8942.62 -3125.67)"/><path d="M9625.13,3141.5c-0.12,0-.06-0.19-0.19-0.19a2.21,2.21,0,0,1,.3-0.81,4.2,4.2,0,0,1,.9-1.31,0.63,0.63,0,0,1,.33-0.19,0.21,0.21,0,0,1-.12.21,5,5,0,0,0-1.19,2,0.75,0.75,0,0,0,0,.26" transform="translate(-8942.62 -3125.67)"/><path d="M9619.16,3131.36a14.28,14.28,0,0,0-.36,2.6,11.78,11.78,0,0,0-.12,1.52c0,0.09,0,.2-0.09.24,0-.75.11-1.49,0.17-2.23,0-.38.08-0.77,0.11-1.15a3.85,3.85,0,0,1,.21-0.94,0.18,0.18,0,0,1,.08,0" transform="translate(-8942.62 -3125.67)"/><path d="M9621.44,3137.9v-4c0.12,0,.09.13,0.09,0.22q0,1.8,0,3.6c0,0.08,0,.18-0.09.21" transform="translate(-8942.62 -3125.67)"/><path d="M9617.27,3162.59a1.44,1.44,0,0,1,0,.74c-0.09.82-.2,1.63-0.27,2.45a6.67,6.67,0,0,0-.1.79,0.1,0.1,0,0,1-.09.09,12.3,12.3,0,0,1,.14-1.38c0.05-.57.11-1.14,0.2-1.7a3.62,3.62,0,0,1,.14-1" transform="translate(-8942.62 -3125.67)"/><path d="M9620.3,3145.91a9,9,0,0,0,.45-1.39c0.1-.48.21-1,0.27-1.46a3.93,3.93,0,0,1,.14-1,1.42,1.42,0,0,1,0,.74,13.32,13.32,0,0,1-.46,2.3c-0.07.24-.17,0.47-0.26,0.7a0.14,0.14,0,0,1-.12.1" transform="translate(-8942.62 -3125.67)"/><path d="M9618.21,3142.54a1.51,1.51,0,0,1,0,.69,11.52,11.52,0,0,0,.05,2.69,0.46,0.46,0,0,1,0,.07,0.62,0.62,0,0,1-.18-0.5c0-1,0-1.9,0-2.85a0.33,0.33,0,0,1,0-.11" transform="translate(-8942.62 -3125.67)"/><path d="M9609.12,3143.44c0,0.7,0,1.4,0,2.1,0,0.28.08,0.56,0.05,0.85a0.32,0.32,0,0,1,0,.22,0.18,0.18,0,0,1,0-.13c-0.06-1,0-1.9,0-2.86,0-.08,0-0.16.09-0.19" transform="translate(-8942.62 -3125.67)"/><path d="M9618.21,3153.06a2.2,2.2,0,0,1,0,.85c-0.06.58-.11,1.15-0.17,1.73,0,0.08,0,.18-0.09.21a16.91,16.91,0,0,1,.17-1.87,6.35,6.35,0,0,1,.06-0.8,0.22,0.22,0,0,1,0-.13" transform="translate(-8942.62 -3125.67)"/><path d="M9617.65,3158.85a2.54,2.54,0,0,1,0,.85c0,0.57-.11,1.14-0.17,1.7,0,0.08,0,.16-0.09.19,0-.6.11-1.19,0.16-1.78,0-.27.05-0.55,0.08-0.82a0.2,0.2,0,0,1,0-.15" transform="translate(-8942.62 -3125.67)"/><path d="M9618.69,3148.51a1.17,1.17,0,0,1,0,.64c-0.06.59-.14,1.18-0.18,1.77a0.12,0.12,0,0,1-.09.14,16.27,16.27,0,0,1,.17-1.75,2.44,2.44,0,0,1,.12-0.81" transform="translate(-8942.62 -3125.67)"/><path d="M9612,3154.25c0.1-.71,0-1.42,0-2.14a0.13,0.13,0,0,1,.09.17c0,0.44,0,.88,0,1.31,0,0.19,0,.37,0,0.56a0.1,0.1,0,0,1-.09.09" transform="translate(-8942.62 -3125.67)"/><path d="M9609.69,3152.16a0.09,0.09,0,0,1,.08.07,10.44,10.44,0,0,0,.58,2.2,0.18,0.18,0,0,1-.08,0,7.67,7.67,0,0,1-.58-2.23" transform="translate(-8942.62 -3125.67)"/><path d="M9618.4,3151.17a2.11,2.11,0,0,1,0,.8c0,0.28-.1.57-0.08,0.86a0.12,0.12,0,0,1-.09.14,10.08,10.08,0,0,1,.19-1.8" transform="translate(-8942.62 -3125.67)"/><path d="M9618.4,3155.1c0-.55.1-1.1,0.14-1.65a0.35,0.35,0,0,1,0-.1,1.94,1.94,0,0,1,0,.71c0,0.31-.09.61-0.09,0.93a0.11,0.11,0,0,1-.09.12" transform="translate(-8942.62 -3125.67)"/><path d="M9612.15,3164a4.53,4.53,0,0,1-.09-0.86,6.77,6.77,0,0,1,0-.76,0.11,0.11,0,0,1,.09.12c0,0.46,0,.91,0,1.36a0.17,0.17,0,0,1,0,.13" transform="translate(-8942.62 -3125.67)"/><path d="M9618.78,3151.36a10.14,10.14,0,0,1,.19-1.66,1.76,1.76,0,0,1,0,.69c0,0.28-.1.57-0.09,0.86a0.11,0.11,0,0,1-.09.12" transform="translate(-8942.62 -3125.67)"/><path d="M9611.68,3161.59a0.11,0.11,0,0,1,.09.12c0,0.44.06,0.87,0,1.31a0.18,0.18,0,0,1,0,.13,5.07,5.07,0,0,1-.09-0.88,4.32,4.32,0,0,1,0-.68" transform="translate(-8942.62 -3125.67)"/><path d="M9618.5,3137.09a0.3,0.3,0,0,1,0,.27,6.9,6.9,0,0,0,0,1.1c0,0.08,0,.16-0.09.19a11.69,11.69,0,0,1,0-1.44,0.19,0.19,0,0,1,0-.13" transform="translate(-8942.62 -3125.67)"/><path d="M9611.11,3155.1c0.17,0.09.06,0.25,0.1,0.37a9.4,9.4,0,0,1,.13,1,0.18,0.18,0,0,1,0,.17,5.08,5.08,0,0,1-.14-1,1.55,1.55,0,0,1,0-.53" transform="translate(-8942.62 -3125.67)"/><path d="M9621.34,3139.51c0-.45,0-0.89,0-1.34a0.17,0.17,0,0,1,0-.13,0.37,0.37,0,0,1,0,.32,6.75,6.75,0,0,0,0,1,0.13,0.13,0,0,1-.09.17" transform="translate(-8942.62 -3125.67)"/><path d="M9619.16,3147.9c0-.39.11-0.76,0.1-1.14a0.15,0.15,0,0,1,.23-0.14,0.74,0.74,0,0,0-.18.6,1.54,1.54,0,0,0-.06.54,0.12,0.12,0,0,1-.09.14" transform="translate(-8942.62 -3125.67)"/><path d="M9621.44,3133.63a8.83,8.83,0,0,1-.09-1,2.63,2.63,0,0,1,0-.35,0.09,0.09,0,0,1,.08.07c0,0.42.1,0.83,0,1.24a0.18,0.18,0,0,1,0,.06" transform="translate(-8942.62 -3125.67)"/><path d="M9611.87,3165.81c0.12,0,.09.13,0.09,0.21,0,0.37,0,.74,0,1.11-0.12,0-.09-0.13-0.09-0.21,0-.37,0-0.74,0-1.11" transform="translate(-8942.62 -3125.67)"/><path d="M9612.24,3165.72c-0.12,0-.09-0.13-0.09-0.21,0-.36,0-0.71,0-1.07,0.12,0,.09.13,0.09,0.21,0,0.36,0,.71,0,1.07" transform="translate(-8942.62 -3125.67)"/><path d="M9611.58,3160.08a0.1,0.1,0,0,1,.09.1c0,0.36,0,.72,0,1.08a0.32,0.32,0,0,1,0,.11,4.84,4.84,0,0,1-.09-1.28" transform="translate(-8942.62 -3125.67)"/><path d="M9618.31,3141.17c0,0.36,0,.71,0,1.07,0,0.08,0,.18-0.09.21,0-.36,0-0.71,0-1.07,0-.08,0-0.18.09-0.21" transform="translate(-8942.62 -3125.67)"/><path d="M9612.05,3162.07a5.3,5.3,0,0,1-.09-1.28,0.11,0.11,0,0,1,.09.12,9.46,9.46,0,0,0,0,1,0.19,0.19,0,0,1,0,.15" transform="translate(-8942.62 -3125.67)"/><path d="M9623.71,3143.63a1,1,0,0,1-.1.51c-0.06.28-.13,0.56-0.2,0.84a0.1,0.1,0,0,1-.08.07,7.24,7.24,0,0,1,.38-1.42" transform="translate(-8942.62 -3125.67)"/><path d="M9611.77,3163.39c0.12,0,.09.13,0.09,0.22,0,0.34,0,.68,0,1-0.12,0-.09-0.13-0.09-0.21,0-.34,0-0.68,0-1" transform="translate(-8942.62 -3125.67)"/><path d="M9621.25,3140.84a4.24,4.24,0,0,1,.09-1.19,0.29,0.29,0,0,1,0,.27,3.49,3.49,0,0,0,0,.7c0,0.08,0,.18-0.09.21" transform="translate(-8942.62 -3125.67)"/><path d="M9618.59,3135.81a0.29,0.29,0,0,1,0,.27,3.42,3.42,0,0,0,0,.7c0,0.08,0,.18-0.09.21a4.13,4.13,0,0,1,.09-1.18" transform="translate(-8942.62 -3125.67)"/><path d="M9611.11,3144.29a6.91,6.91,0,0,1-.18-0.81,2.68,2.68,0,0,1-.1-0.38l0,0a2.14,2.14,0,0,1,.24,1.17" transform="translate(-8942.62 -3125.67)"/><path d="M9612,3151.78a3.6,3.6,0,0,1-.09-1,0.14,0.14,0,0,1,.06,0,3,3,0,0,1,0,1" transform="translate(-8942.62 -3125.67)"/><path d="M9611.49,3158.84a0.15,0.15,0,0,1,.06,0,3.39,3.39,0,0,1,0,1,3.23,3.23,0,0,1-.09-1" transform="translate(-8942.62 -3125.67)"/><path d="M9612,3160.5a3.6,3.6,0,0,1-.09-1,0.14,0.14,0,0,1,.06,0,3,3,0,0,1,0,1" transform="translate(-8942.62 -3125.67)"/><path d="M9609.12,3146.85a0.14,0.14,0,0,1,.06,0,4,4,0,0,1,0,1,2.62,2.62,0,0,1-.09-1" transform="translate(-8942.62 -3125.67)"/><path d="M9618.4,3139.32c0,0.26,0,.52,0,0.78,0,0.08,0,.18-0.09.21,0-.26,0-0.52,0-0.78,0-.08,0-0.18.09-0.21" transform="translate(-8942.62 -3125.67)"/><path d="M9621.15,3141.93a3.15,3.15,0,0,1,.09-1,1.87,1.87,0,0,1-.09,1" transform="translate(-8942.62 -3125.67)"/><path d="M9611.86,3159.22a3.15,3.15,0,0,1-.09-1,0.14,0.14,0,0,1,.06,0,2.94,2.94,0,0,1,0,1" transform="translate(-8942.62 -3125.67)"/><path d="M9618.83,3146.57a0.12,0.12,0,0,1,.13.13,4.27,4.27,0,0,0-.09.79,0.09,0.09,0,0,1-.08.07,2.39,2.39,0,0,1,.06-0.7,0.62,0.62,0,0,0,0-.3" transform="translate(-8942.62 -3125.67)"/><path d="M9620.3,3130.74c-0.17-.09-0.08-0.25-0.09-0.38a1,1,0,0,1,.09-0.52,0.56,0.56,0,0,1,0,.41c0,0.16,0,.33,0,0.49" transform="translate(-8942.62 -3125.67)"/><path d="M9611.39,3157.75a0.15,0.15,0,0,1,.06,0,2.51,2.51,0,0,1,0,.87,2.75,2.75,0,0,1-.09-0.9" transform="translate(-8942.62 -3125.67)"/><path d="M9617.93,3156a1.55,1.55,0,0,1-.09.9,2.47,2.47,0,0,1,.09-0.9" transform="translate(-8942.62 -3125.67)"/><path d="M9617.84,3156.95a1.33,1.33,0,0,1-.09.85,2.11,2.11,0,0,1,.09-0.85" transform="translate(-8942.62 -3125.67)"/><path d="M9618.21,3157a2.38,2.38,0,0,1,.09-0.85,1.32,1.32,0,0,1-.09.85" transform="translate(-8942.62 -3125.67)"/><path d="M9611.86,3150.5a2.38,2.38,0,0,1-.09-0.85,0.13,0.13,0,0,1,.06,0,2.46,2.46,0,0,1,0,.82" transform="translate(-8942.62 -3125.67)"/><path d="M9617.93,3159.84a2.38,2.38,0,0,1,.09-0.85,1.32,1.32,0,0,1-.09.85" transform="translate(-8942.62 -3125.67)"/><path d="M9611.3,3156.76a0.15,0.15,0,0,1,.06,0,2.6,2.6,0,0,1,0,.82,2.29,2.29,0,0,1-.09-0.85" transform="translate(-8942.62 -3125.67)"/><path d="M9618.12,3157.95a2.38,2.38,0,0,1,.09-0.85,1.32,1.32,0,0,1-.09.85" transform="translate(-8942.62 -3125.67)"/><path d="M9617.83,3160.79a2.38,2.38,0,0,1,.09-0.85,1.32,1.32,0,0,1-.09.85" transform="translate(-8942.62 -3125.67)"/><path d="M9618,3158.89a2.38,2.38,0,0,1,.09-0.85,1.32,1.32,0,0,1-.09.85" transform="translate(-8942.62 -3125.67)"/><path d="M9617.74,3157.9a1.33,1.33,0,0,1-.09.85,2.31,2.31,0,0,1,.09-0.85" transform="translate(-8942.62 -3125.67)"/><path d="M9617.46,3164.44a2,2,0,0,1,.09-0.81,1.17,1.17,0,0,1-.09.81" transform="translate(-8942.62 -3125.67)"/><path d="M9618.31,3156a2,2,0,0,1,.09-0.81,1.16,1.16,0,0,1-.09.81" transform="translate(-8942.62 -3125.67)"/><path d="M9618.59,3153.21a2,2,0,0,1,.09-0.81,1.17,1.17,0,0,1-.09.81" transform="translate(-8942.62 -3125.67)"/><path d="M9617.74,3161.69a2,2,0,0,1,.09-0.81,1.17,1.17,0,0,1-.09.81" transform="translate(-8942.62 -3125.67)"/><path d="M9617.55,3163.54a2,2,0,0,1,.09-0.81,1.17,1.17,0,0,1-.09.81" transform="translate(-8942.62 -3125.67)"/><path d="M9618.69,3152.31a2,2,0,0,1,.09-0.81,1.23,1.23,0,0,1-.09.81" transform="translate(-8942.62 -3125.67)"/><path d="M9617.36,3161.69a1.23,1.23,0,0,1-.09.8,2,2,0,0,1,.09-0.8" transform="translate(-8942.62 -3125.67)"/><path d="M9617.64,3162.64a2,2,0,0,1,.09-0.81,1.23,1.23,0,0,1-.09.81" transform="translate(-8942.62 -3125.67)"/><path d="M9611.77,3158a2,2,0,0,1-.09-0.81,0.14,0.14,0,0,1,.06,0,2.34,2.34,0,0,1,0,.77" transform="translate(-8942.62 -3125.67)"/><path d="M9611.77,3149.46a2.26,2.26,0,0,1-.09-0.81,0.14,0.14,0,0,1,.06,0,2,2,0,0,1,0,.78" transform="translate(-8942.62 -3125.67)"/><path d="M9612.24,3166.62a1.31,1.31,0,0,1,0-.76,1.28,1.28,0,0,1,0,.76" transform="translate(-8942.62 -3125.67)"/><path d="M9617.27,3166.14a1.84,1.84,0,0,1,.09-0.76,1,1,0,0,1-.09.76" transform="translate(-8942.62 -3125.67)"/><path d="M9611.67,3148.51a1.67,1.67,0,0,1-.09-0.76,0.14,0.14,0,0,1,.06,0,1.94,1.94,0,0,1,0,.73" transform="translate(-8942.62 -3125.67)"/><path d="M9609.21,3148a0.14,0.14,0,0,1,.06,0,2,2,0,0,1,0,.73,1.62,1.62,0,0,1-.09-0.76" transform="translate(-8942.62 -3125.67)"/><path d="M9617.36,3165.29a1.66,1.66,0,0,1,.09-0.76,1.1,1.1,0,0,1-.09.76" transform="translate(-8942.62 -3125.67)"/><path d="M9618.78,3147.66a1.1,1.1,0,0,1-.09.76,1.81,1.81,0,0,1,.09-0.76" transform="translate(-8942.62 -3125.67)"/><path d="M9611.67,3157a2.14,2.14,0,0,1-.09-0.76,0.14,0.14,0,0,1,.06,0,1.69,1.69,0,0,1,0,.73" transform="translate(-8942.62 -3125.67)"/><path d="M9621.34,3132.16l-0.28-.71a0.83,0.83,0,0,1,.28.71" transform="translate(-8942.62 -3125.67)"/><path d="M9619,3149.56a1.51,1.51,0,0,1,.09-0.71,1,1,0,0,1-.09.71" transform="translate(-8942.62 -3125.67)"/><path d="M9609.31,3149a0.14,0.14,0,0,1,.06,0,1.75,1.75,0,0,1,0,.68,1.48,1.48,0,0,1-.09-0.71" transform="translate(-8942.62 -3125.67)"/><path d="M9619.07,3148.7a1.51,1.51,0,0,1,.09-0.71,0.94,0.94,0,0,1-.09.71" transform="translate(-8942.62 -3125.67)"/><path d="M9609.4,3149.89a0.88,0.88,0,0,1,.09.71,1.65,1.65,0,0,1-.09-0.71" transform="translate(-8942.62 -3125.67)"/><path d="M9611.58,3156.14a1.74,1.74,0,0,1-.09-0.71,0.15,0.15,0,0,1,.06,0,1.69,1.69,0,0,1,0,.68" transform="translate(-8942.62 -3125.67)"/><path d="M9609.5,3150.69a0.82,0.82,0,0,1,.09.66,1.35,1.35,0,0,1-.09-0.66" transform="translate(-8942.62 -3125.67)"/><path d="M9611.86,3164.72a1,1,0,0,1,0,.66,1,1,0,0,1,0-.66" transform="translate(-8942.62 -3125.67)"/><path d="M9617.17,3167a1.4,1.4,0,0,1,.09-0.66,0.81,0.81,0,0,1-.09.66" transform="translate(-8942.62 -3125.67)"/><path d="M9620.3,3129.75a1.24,1.24,0,0,1,.09-0.66,1,1,0,0,1-.09.66" transform="translate(-8942.62 -3125.67)"/><path d="M9609.59,3151.45a0.74,0.74,0,0,1,.09.62,1.08,1.08,0,0,1-.09-0.62" transform="translate(-8942.62 -3125.67)"/><path d="M9618.31,3140.46a0.87,0.87,0,0,1,0,.62,0.87,0.87,0,0,1,0-.62" transform="translate(-8942.62 -3125.67)"/><path d="M9611.58,3147.61a1.29,1.29,0,0,1-.09-0.62,0.73,0.73,0,0,1,.09.62" transform="translate(-8942.62 -3125.67)"/><path d="M9611.3,3145.53a0.79,0.79,0,0,1-.09-0.52,0.58,0.58,0,0,1,.09.52" transform="translate(-8942.62 -3125.67)"/><path d="M9611.48,3146.85a0.92,0.92,0,0,1-.09-0.52,0.51,0.51,0,0,1,.09.52" transform="translate(-8942.62 -3125.67)"/><path d="M9611.2,3144.91a1.12,1.12,0,0,1-.09-0.52,0.51,0.51,0,0,1,.09.52" transform="translate(-8942.62 -3125.67)"/><path d="M9611.39,3146.19a1.11,1.11,0,0,1-.09-0.52,0.52,0.52,0,0,1,.09.52" transform="translate(-8942.62 -3125.67)"/><path d="M9618.4,3138.75a0.54,0.54,0,0,1,0,.47,0.54,0.54,0,0,1,0-.47" transform="translate(-8942.62 -3125.67)"/><path d="M9624,3142.68a0.74,0.74,0,0,1-.19.52,1,1,0,0,1,.19-0.52" transform="translate(-8942.62 -3125.67)"/><path d="M9620.39,3129a0.52,0.52,0,0,1,.09-0.43,0.39,0.39,0,0,1-.09.43" transform="translate(-8942.62 -3125.67)"/><path d="M9611.48,3155.29c-0.09-.25-0.05-0.32.19-0.38a1,1,0,0,0-.19.38" transform="translate(-8942.62 -3125.67)"/><path d="M9616.79,3166.76a1,1,0,0,1,0,.42c-0.19-.14,0-0.28,0-0.42" transform="translate(-8942.62 -3125.67)"/><path d="M9610.44,3154.67a0.39,0.39,0,0,1,.28.28,0.38,0.38,0,0,1-.28-0.28" transform="translate(-8942.62 -3125.67)"/><path d="M9619.63,3146.61a0.45,0.45,0,0,1,.33-0.23,0.43,0.43,0,0,1-.33.23" transform="translate(-8942.62 -3125.67)"/><path d="M9611.82,3154.72a1.15,1.15,0,0,1,.14-0.38,0.3,0.3,0,0,1-.14.38" transform="translate(-8942.62 -3125.67)"/><path d="M9609.69,3142.16a0.26,0.26,0,0,1,.09.33,0.37,0.37,0,0,1-.09-0.33" transform="translate(-8942.62 -3125.67)"/><path d="M9624.94,3141.31a0.25,0.25,0,0,1-.29.19,0.42,0.42,0,0,1,.29-0.19" transform="translate(-8942.62 -3125.67)"/><path d="M9619.49,3130.93a0.29,0.29,0,0,1-.24.24,0.28,0.28,0,0,1,.24-0.24" transform="translate(-8942.62 -3125.67)"/><path d="M9620,3146.33a0.2,0.2,0,0,1,.19-0.19,0.2,0.2,0,0,1-.19.19" transform="translate(-8942.62 -3125.67)"/><path d="M9620.58,3130.93a0.25,0.25,0,0,1-.24-0.14,0.25,0.25,0,0,1,.24.14" transform="translate(-8942.62 -3125.67)"/><path d="M9609.73,3142.64a0.19,0.19,0,0,1-.19.14,0.19,0.19,0,0,1,.19-0.14" transform="translate(-8942.62 -3125.67)"/><path d="M9618.31,3146.1a0.14,0.14,0,0,1,.14.14,0.14,0.14,0,0,1-.14-0.14" transform="translate(-8942.62 -3125.67)"/><path d="M9610.11,3142.64a0.14,0.14,0,0,1-.14-0.14,0.15,0.15,0,0,1,.14.14" transform="translate(-8942.62 -3125.67)"/><path d="M9621,3131.26a0.14,0.14,0,0,1-.14-0.14,0.14,0.14,0,0,1,.14.14" transform="translate(-8942.62 -3125.67)"/><path d="M9620.77,3131.07a0.14,0.14,0,0,1-.14-0.14,0.14,0.14,0,0,1,.14.14" transform="translate(-8942.62 -3125.67)"/><path d="M9624.28,3141.83a0.11,0.11,0,0,1-.09.14,0.11,0.11,0,0,1,.09-0.14" transform="translate(-8942.62 -3125.67)"/><path d="M9624.18,3142.11a0.11,0.11,0,0,1-.09.14,0.11,0.11,0,0,1,.09-0.14" transform="translate(-8942.62 -3125.67)"/><path d="M9624.09,3142.4a0.11,0.11,0,0,1-.09.14,0.11,0.11,0,0,1,.09-0.14" transform="translate(-8942.62 -3125.67)"/><path d="M9620.2,3146.1a0.11,0.11,0,0,1,.09-0.14,0.11,0.11,0,0,1-.09.14" transform="translate(-8942.62 -3125.67)"/><path d="M9623.8,3143.39a0.11,0.11,0,0,1-.09.14,0.11,0.11,0,0,1,.09-0.14" transform="translate(-8942.62 -3125.67)"/><path d="M9618.64,3146.43a0.09,0.09,0,0,1,.09.09,0.09,0.09,0,0,1-.09-0.09" transform="translate(-8942.62 -3125.67)"/><path d="M9619.73,3130.79a0.09,0.09,0,0,1-.1.09,0.09,0.09,0,0,1,.1-0.09" transform="translate(-8942.62 -3125.67)"/><path d="M9625.41,3141.83a0.09,0.09,0,0,1-.09-0.1,0.09,0.09,0,0,1,.09.1" transform="translate(-8942.62 -3125.67)"/><path d="M9621.05,3131.4a0.09,0.09,0,0,1-.09-0.1,0.09,0.09,0,0,1,.09.1" transform="translate(-8942.62 -3125.67)"/><path d="M9610.35,3154.53a0.09,0.09,0,0,1,.09.09,0.09,0.09,0,0,1-.09-0.09" transform="translate(-8942.62 -3125.67)"/><path d="M9610.82,3155a0.09,0.09,0,0,1,.1.09,0.09,0.09,0,0,1-.1-0.09" transform="translate(-8942.62 -3125.67)"/><path d="M9619.26,3131.21a0.09,0.09,0,0,1-.09.1,0.1,0.1,0,0,1,.09-0.1" transform="translate(-8942.62 -3125.67)"/><path d="M9599.18,3145.69v0a0.06,0.06,0,0,1-.06-0.06v0a0.17,0.17,0,0,1-.14-0.14l-0.08,0a0.06,0.06,0,0,1-.06-0.06h-0.09a0.1,0.1,0,0,1-.09-0.11c0-.28-0.07-0.57-0.11-0.85a4.13,4.13,0,0,0-.09-0.41s0-.12-0.08,0,0,0,0,.06a0.32,0.32,0,0,1,.06.26v0.06a0.75,0.75,0,0,1,.06.4v0.06a0.58,0.58,0,0,1,.05.31c0,0.08.05,0.17-.05,0.23l0,0a0.15,0.15,0,0,1-.14.08h0a0.08,0.08,0,0,1-.09.08l0,0a0.08,0.08,0,0,1-.08.09v0a0.06,0.06,0,0,1-.06.06v0l-0.17.43v0.06a1.55,1.55,0,0,1,0,.21,5.12,5.12,0,0,1-.06.61v2.64a0.1,0.1,0,0,1,0,.08c0,0.27,0,.54,0,0.8v0.08a2.55,2.55,0,0,1,.06.71s0,0,0,.06a1.86,1.86,0,0,1,.06.6v0.08a2.33,2.33,0,0,1,.08.6c0,0.29.11,0.58,0.16,0.87a5.38,5.38,0,0,0,.27.83v0a0.07,0.07,0,0,1,.06.09v0a0.12,0.12,0,0,1,.11.11l0,0a0.27,0.27,0,0,1,.2.14H9599a0.09,0.09,0,0,1,.14.08c0,0.23.09,0.45,0.06,0.69v0.06a0.91,0.91,0,0,1,.06.43v0.08a0.91,0.91,0,0,1,.06.43v0.08a6.13,6.13,0,0,1,.11,1s0,0.06,0,.08a1.22,1.22,0,0,1,.06.48v0.06a1.21,1.21,0,0,1,.06.48v0.08a0.19,0.19,0,0,1,0,.06c0,0.33.09,0.66,0.09,1,0,0,0,.06,0,0.08a1.23,1.23,0,0,1,.06.48v0.06a1.45,1.45,0,0,1,.06.51v0.06a1.42,1.42,0,0,1,.06.51v0.06a1.45,1.45,0,0,1,.06.51v0.06a1.42,1.42,0,0,1,.06.51v0.06a1.44,1.44,0,0,1,.06.51v0.06a1.19,1.19,0,0,1,.06.48s0,0.06,0,.08a1.22,1.22,0,0,1,.06.48v0.06a1.21,1.21,0,0,1,.06.48v0.06a1.21,1.21,0,0,1,.06.48v0.06a1,1,0,0,1,.06.46v0.06a1.1,1.1,0,0,1,.06.46v0.08a0.84,0.84,0,0,1,.06.4c0,0.21.13,0.13,0.23,0.14a0.62,0.62,0,0,1,0-.25v-0.06a0.06,0.06,0,0,1-.05-0.06,3.94,3.94,0,0,0-.06-0.48c0-.49-0.11-1-0.16-1.47a0.87,0.87,0,0,1,0-.44v-0.06a0.73,0.73,0,0,1-.06-0.48s0,0,0-.06-0.05-.07-0.06-0.11c0-.34-0.08-0.68-0.1-1a1.55,1.55,0,0,1,0-.51v-0.06a0.79,0.79,0,0,1-.06-0.51s0,0,0-.06a0.79,0.79,0,0,1-.06-0.51V3161a0.92,0.92,0,0,1-.06-0.54v-0.06c-0.07,0-.05-0.08-0.06-0.13,0-.35-0.07-0.69-0.1-1a1.34,1.34,0,0,1,0-.51v-0.06a0.07,0.07,0,0,1-.06-0.09c0-.17,0-0.34,0-0.51a1.27,1.27,0,0,1,0-.48v-0.06a0.07,0.07,0,0,1-.06-0.09c0-.36-0.07-0.71-0.11-1.06a0.71,0.71,0,0,1,0-.39v-0.06a0.66,0.66,0,0,1-.06-0.45s0,0,0-.06a0.05,0.05,0,0,1,0,0,2.6,2.6,0,0,0-.06-0.47,0.07,0.07,0,0,1,.08-0.08l0.06,0a0.06,0.06,0,0,1,.06-0.06,0.29,0.29,0,0,0,.11-0.11,0.08,0.08,0,0,1,.08-0.09v-0.06a0.35,0.35,0,0,1,0,0,6.86,6.86,0,0,0,0-1.62,0.92,0.92,0,0,1,0-.42v-0.06c-0.07,0-.05-0.08-0.06-0.13,0-.21,0-0.43,0-0.64v-0.06a0.53,0.53,0,0,1,0-.37v-0.09c-0.07,0-.05-0.08-0.06-0.13s0-.31,0-0.47v-0.06a0.33,0.33,0,0,1,0-.28v-0.06c-0.06,0-.05-0.07-0.06-0.11a4.06,4.06,0,0,0,0-.66,0.18,0.18,0,0,1,0-.16s0,0,0-.06-0.05-.08-0.05-0.13a2.05,2.05,0,0,0,0-.42,0.17,0.17,0,0,1,0-.16v-0.06c-0.08,0-.06-0.09-0.05-0.14a6.9,6.9,0,0,0-.07-0.91,8.6,8.6,0,0,0-.22-1.56" transform="translate(-8942.62 -3125.67)"/><path d="M9598.38,3144c0.06-.1.07,0,0.08,0a4.19,4.19,0,0,1,.09.41c0,0.28.08,0.57,0.11,0.85a0.1,0.1,0,0,0,.09.11,5,5,0,0,1-.14-0.89,5.64,5.64,0,0,0-.31-1.18,4,4,0,0,0-.43-0.79,1.45,1.45,0,0,0-.19-0.2,0.07,0.07,0,0,0,0,.11,3.83,3.83,0,0,1,.64,1.5,0.07,0.07,0,0,0,.06.07" transform="translate(-8942.62 -3125.67)"/><path d="M9599.18,3145.69a8.6,8.6,0,0,1,.22,1.56,6.9,6.9,0,0,1,.07.91c0,0.05,0,.12.05,0.14,0-.45-0.07-0.89-0.1-1.34,0-.23,0-0.46-0.07-0.69a2.28,2.28,0,0,0-.12-0.56,0.11,0.11,0,0,0,0,0" transform="translate(-8942.62 -3125.67)"/><path d="M9598.5,3145.32c0.1-.05,0-0.15.05-0.23a0.57,0.57,0,0,0-.05-0.31,0.33,0.33,0,0,0,0,.24c0,0.1,0,.2,0,0.3" transform="translate(-8942.62 -3125.67)"/><path d="M9597.87,3146.18l0.17-.43a0.5,0.5,0,0,0-.17.43" transform="translate(-8942.62 -3125.67)"/><path d="M9598.5,3144.73a0.74,0.74,0,0,0-.06-0.4,0.58,0.58,0,0,0,.06.4" transform="translate(-8942.62 -3125.67)"/><path d="M9598.44,3144.27a0.31,0.31,0,0,0-.06-0.26,0.23,0.23,0,0,0,.06.26" transform="translate(-8942.62 -3125.67)"/><path d="M9599,3145.44a0.17,0.17,0,0,0,.14.14,0.17,0.17,0,0,0-.14-0.14" transform="translate(-8942.62 -3125.67)"/><path d="M9598.32,3145.44a0.15,0.15,0,0,0,.14-0.08,0.15,0.15,0,0,0-.14.08" transform="translate(-8942.62 -3125.67)"/><path d="M9598.1,3145.64a0.08,0.08,0,0,0,.08-0.09,0.08,0.08,0,0,0-.08.09" transform="translate(-8942.62 -3125.67)"/><path d="M9598.21,3145.52a0.08,0.08,0,0,0,.09-0.08,0.08,0.08,0,0,0-.09.08" transform="translate(-8942.62 -3125.67)"/><path d="M9598.84,3145.35a0.06,0.06,0,0,0,.06.06,0.06,0.06,0,0,0-.06-0.06" transform="translate(-8942.62 -3125.67)"/><path d="M9598,3145.72a0.06,0.06,0,0,0,.06-0.06,0.06,0.06,0,0,0-.06.06" transform="translate(-8942.62 -3125.67)"/><path d="M9599.12,3145.61a0.06,0.06,0,0,0,.06.06,0.06,0.06,0,0,0-.06-0.06" transform="translate(-8942.62 -3125.67)"/><path d="M9629.91,3148.74v0a0,0,0,0,0,0,0v0a0.15,0.15,0,0,0,.12-0.12l0.07,0a0,0,0,0,0,0,0h0.07a0.08,0.08,0,0,0,.08-0.09c0-.24.06-0.49,0.1-0.73a3.49,3.49,0,0,1,.08-0.35s0-.1.07,0v0a0.27,0.27,0,0,0,0,.22s0,0,0,0a0.64,0.64,0,0,0,0,.34v0a0.5,0.5,0,0,0,0,.27c0,0.07,0,.15,0,0.19l0,0a0.13,0.13,0,0,0,.12.07h0a0.07,0.07,0,0,0,.07.07l0,0a0.07,0.07,0,0,0,.07.07v0a0,0,0,0,0,0,0v0l0.15,0.37v0a1.4,1.4,0,0,0,0,.18,4.58,4.58,0,0,0,0,.53v2.27a0.09,0.09,0,0,0,0,.07c0,0.23,0,.46,0,0.69V3153a2.16,2.16,0,0,0,0,.61v0a1.61,1.61,0,0,0,0,.51v0.07a2,2,0,0,0-.07.51c0,0.25-.09.5-0.14,0.75a4.59,4.59,0,0,1-.23.71v0a0.06,0.06,0,0,0,0,.07v0a0.11,0.11,0,0,0-.1.1l0,0a0.23,0.23,0,0,0-.17.12h-0.07a0.08,0.08,0,0,0-.12.07c0,0.2-.07.39-0.05,0.59v0a0.78,0.78,0,0,0,0,.37v0.07a0.79,0.79,0,0,0,0,.37v0.07a5.37,5.37,0,0,0-.1.85v0.07a1,1,0,0,0,0,.42v0a1,1,0,0,0,0,.42v0.07a0.17,0.17,0,0,0,0,.05c0,0.28-.08.56-0.07,0.85V3161a1,1,0,0,0,0,.42v0a1.24,1.24,0,0,0,0,.44v0a1.24,1.24,0,0,0,0,.44v0a1.22,1.22,0,0,0,0,.44v0a1.24,1.24,0,0,0,0,.44v0a1.22,1.22,0,0,0,0,.44v0a1,1,0,0,0,0,.42v0.07a1,1,0,0,0,0,.42v0a1,1,0,0,0,0,.42v0a1,1,0,0,0,0,.42v0a0.86,0.86,0,0,0,0,.39v0a1,1,0,0,0,0,.39v0.07a0.72,0.72,0,0,0,0,.34c0,0.18-.11.11-0.19,0.12a0.53,0.53,0,0,0,0-.22s0,0,0,0a0.05,0.05,0,0,0,0,0,3.36,3.36,0,0,1,0-.41c0-.42.09-0.84,0.14-1.26a0.74,0.74,0,0,0,0-.38v0a0.64,0.64,0,0,0,0-.41v0c0.06,0,0-.06,0-0.1,0-.29.07-0.58,0.09-0.88a1.3,1.3,0,0,0,0-.44v0a0.69,0.69,0,0,0,0-.44v0a0.68,0.68,0,0,0,0-.44v0a0.8,0.8,0,0,0,0-.46v0c0.06,0,0-.07,0-0.11,0-.3.06-0.59,0.09-0.89a1.14,1.14,0,0,0,0-.44v0a0.06,0.06,0,0,0,0-.07c0-.15,0-0.3,0-0.44a1.09,1.09,0,0,0,0-.41v0a0.06,0.06,0,0,0,0-.07c0-.31.06-0.61,0.09-0.91a0.6,0.6,0,0,0,0-.33v0a0.57,0.57,0,0,0,0-.39v0a0,0,0,0,0,0,0,2.19,2.19,0,0,1,0-.41,0.06,0.06,0,0,0-.07-0.07l0,0a0,0,0,0,0,0,0,0.26,0.26,0,0,1-.1-0.1,0.07,0.07,0,0,0-.07-0.07v0a0.16,0.16,0,0,0,0,0,6,6,0,0,1,0-1.39,0.79,0.79,0,0,0,0-.36v0c0.06,0,0-.07,0-0.11s0-.37,0-0.55v0a0.45,0.45,0,0,0,0-.32v-0.07c0.06,0,0-.07,0-0.11s0-.27,0-0.4v0a0.28,0.28,0,0,0,0-.24v0c0.06,0,0-.06,0-0.1a3.5,3.5,0,0,1,0-.57,0.16,0.16,0,0,0,0-.14s0,0,0,0,0-.07,0-0.11a1.85,1.85,0,0,1,0-.36,0.15,0.15,0,0,0,0-.14v0c0.07,0,0-.08,0-0.12a5.86,5.86,0,0,1,.06-0.78,7.26,7.26,0,0,1,.19-1.34" transform="translate(-8942.62 -3125.67)"/><path d="M9630.6,3147.25c0-.09-0.06,0-0.07,0a3.46,3.46,0,0,0-.08.35c0,0.24-.07.49-0.1,0.73a0.08,0.08,0,0,1-.08.09,4.23,4.23,0,0,0,.12-0.76,4.8,4.8,0,0,1,.26-1,3.32,3.32,0,0,1,.37-0.68,1.19,1.19,0,0,1,.17-0.17s0,0.07,0,.09a3.26,3.26,0,0,0-.55,1.29,0.06,0.06,0,0,1,0,.06" transform="translate(-8942.62 -3125.67)"/><path d="M9629.91,3148.74a7.26,7.26,0,0,0-.19,1.34,5.86,5.86,0,0,0-.06.78s0,0.1,0,.12c0-.38.06-0.76,0.09-1.15,0-.2,0-0.39.06-0.59a2,2,0,0,1,.11-0.48l0,0" transform="translate(-8942.62 -3125.67)"/><path d="M9630.5,3148.42c-0.09,0,0-.13,0-0.19a0.49,0.49,0,0,1,0-.27,0.29,0.29,0,0,1,0,.21c0,0.08,0,.17,0,0.25" transform="translate(-8942.62 -3125.67)"/><path d="M9631,3149.16l-0.15-.37a0.43,0.43,0,0,1,.15.37" transform="translate(-8942.62 -3125.67)"/><path d="M9630.5,3147.91a0.64,0.64,0,0,1,0-.34,0.49,0.49,0,0,1,0,.34" transform="translate(-8942.62 -3125.67)"/><path d="M9630.55,3147.52a0.27,0.27,0,0,1,0-.22,0.2,0.2,0,0,1,0,.22" transform="translate(-8942.62 -3125.67)"/><path d="M9630.08,3148.52a0.15,0.15,0,0,1-.12.12,0.15,0.15,0,0,1,.12-0.12" transform="translate(-8942.62 -3125.67)"/><path d="M9630.65,3148.52a0.13,0.13,0,0,1-.12-0.07,0.13,0.13,0,0,1,.12.07" transform="translate(-8942.62 -3125.67)"/><path d="M9630.84,3148.69a0.07,0.07,0,0,1-.07-0.07,0.07,0.07,0,0,1,.07.07" transform="translate(-8942.62 -3125.67)"/><path d="M9630.74,3148.59a0.07,0.07,0,0,1-.07-0.07,0.07,0.07,0,0,1,.07.07" transform="translate(-8942.62 -3125.67)"/><path d="M9630.21,3148.45a0,0,0,0,1,0,0,0,0,0,0,1,0,0" transform="translate(-8942.62 -3125.67)"/><path d="M9630.89,3148.76a0,0,0,0,1,0,0,0,0,0,0,1,0,0" transform="translate(-8942.62 -3125.67)"/><path d="M9630,3148.67a0,0,0,0,1,0,0,0,0,0,0,1,0,0" transform="translate(-8942.62 -3125.67)"/><path d="M9609.21,3143.2a0.09,0.09,0,0,1-.09.1,0.09,0.09,0,0,1,.09-0.1" transform="translate(-8942.62 -3125.67)"/><path d="M9610.82,3143.06a0.09,0.09,0,0,1-.09-0.09,0.09,0.09,0,0,1,.09.09" transform="translate(-8942.62 -3125.67)"/><path d="M9609.3,3143a0.09,0.09,0,0,1-.09.09,0.09,0.09,0,0,1,.09-0.09" transform="translate(-8942.62 -3125.67)"/><path d="M9537.05,3191.15a50.68,50.68,0,0,0-1.21,6q-6.27-.2-8.92-0.2t-8.81.2q-0.26,0-.26-0.46a0.36,0.36,0,0,1,.26-0.44,6.26,6.26,0,0,0,2.69-.74,2.37,2.37,0,0,0,.71-2v-15.42a3.29,3.29,0,0,0-.29-1.61,1.92,1.92,0,0,0-1-.74,9.59,9.59,0,0,0-2.11-.43q-0.26,0-.26-0.45t0.26-.45q1.1,0,2.62.1t2.46,0.1q1,0,2.44-.1t2.6-.1c0.17,0,.26.15,0.26,0.45s-0.09.45-.26,0.45a9.48,9.48,0,0,0-2.1.43,1.88,1.88,0,0,0-1,.73,3.35,3.35,0,0,0-.28,1.62V3194a1.69,1.69,0,0,0,1.9,1.93H9530a5.41,5.41,0,0,0,3.41-1.07,10.81,10.81,0,0,0,2.75-4,0.31,0.31,0,0,1,.31-0.13,0.69,0.69,0,0,1,.4.13,0.37,0.37,0,0,1,.19.29" transform="translate(-8942.62 -3125.67)"/><path d="M9556.53,3187l-2.87-8.35-3.1,8.35h6Zm9.93,9.73q0,0.46-.26.46-1.13,0-2.56-.1-1.23-.1-2.1-0.1t-2.47.1q-1.56.1-2.65,0.1-0.26,0-.26-0.45t0.2-.45a5.55,5.55,0,0,0,2.1-.39,1.05,1.05,0,0,0,.64-1,4.8,4.8,0,0,0-.33-1.37l-1.87-5.49h-6.72l-1.87,5.08a5.18,5.18,0,0,0-.36,1.58q0,1.45,2.65,1.58,0.2,0,.2.45t-0.26.45q-1,0-2.18-.1t-2-.1q-0.7,0-1.77.1t-1.9.1c-0.16,0-.25-0.14-0.25-0.41a0.41,0.41,0,0,1,.38-0.49,4.06,4.06,0,0,0,2.15-.75,6.82,6.82,0,0,0,1.65-2.54l7.66-18.82a0.43,0.43,0,0,1,.46-0.26,0.47,0.47,0,0,1,.49.25L9562,3193a5,5,0,0,0,1.55,2.34,5.21,5.21,0,0,0,2.61.95,0.37,0.37,0,0,1,.33.44" transform="translate(-8942.62 -3125.67)"/><path d="M9593.83,3191.12q-0.59,2.62-1.15,5.57a22.93,22.93,0,0,0-3.39.44,28.84,28.84,0,0,1-4.65.57,13.92,13.92,0,0,1-6.55-1.47,10.64,10.64,0,0,1-4.39-4.22,12,12,0,0,1-1.57-6.1,11.7,11.7,0,0,1,1.66-6.1,11.55,11.55,0,0,1,4.58-4.35,13.71,13.71,0,0,1,6.56-1.56,34.7,34.7,0,0,1,4.13.33,25.38,25.38,0,0,0,2.93.26q0.21,2.29.75,5.57,0,0.26-.52.26a0.35,0.35,0,0,1-.39-0.26,6.55,6.55,0,0,0-2.54-3.67,7.35,7.35,0,0,0-4.49-1.44,8,8,0,0,0-6.46,3.18,11.85,11.85,0,0,0-2.61,7.78,11.56,11.56,0,0,0,2.59,7.61,7.91,7.91,0,0,0,6.32,3.14,8.45,8.45,0,0,0,8.28-5.54,0.44,0.44,0,0,1,.44-0.26q0.46,0,.46.26" transform="translate(-8942.62 -3125.67)"/><path d="M9625.81,3196.72c0,0.31-.09.46-0.26,0.46q-1.1,0-2.62-.1t-2.46-.1q-1,0-2.67.1t-2.88.1q-0.26,0-.26-0.46c0-.27.08-0.42,0.23-0.44q2.21-.26,2.21-1.06a2,2,0,0,0-.72-1.18l-6.5-6.62a3.15,3.15,0,0,0-.91-0.69,2.76,2.76,0,0,0-1.06-.16v6.94a3.24,3.24,0,0,0,.29,1.6,1.91,1.91,0,0,0,1,.74,9.56,9.56,0,0,0,2.09.43,0.36,0.36,0,0,1,.28.44q0,0.46-.26.46-1.1,0-2.62-.1t-2.46-.1q-1,0-2.43.1t-2.62.1q-0.26,0-.26-0.46a0.36,0.36,0,0,1,.26-0.44,6.28,6.28,0,0,0,2.69-.74,2.37,2.37,0,0,0,.71-2v-15.42a3.29,3.29,0,0,0-.29-1.61,1.92,1.92,0,0,0-1-.74,9.52,9.52,0,0,0-2.11-.43q-0.26,0-.26-0.45t0.26-.45q1.1,0,2.62.1t2.43,0.1q1,0,2.46-.1t2.62-.1q0.26,0,.26.45t-0.26.45a9.53,9.53,0,0,0-2.11.43,1.91,1.91,0,0,0-1,.74,3.3,3.3,0,0,0-.29,1.62v7.43a2.72,2.72,0,0,0,1-.16,3.28,3.28,0,0,0,.93-0.69l7.19-7.09a2.39,2.39,0,0,0,.88-1.22,0.72,0.72,0,0,0-.42-0.67,5.72,5.72,0,0,0-1.68-.39c-0.17,0-.26-0.15-0.26-0.45s0.1-.45.3-0.45q0.77,0,2,.1t2.23,0.1a18.56,18.56,0,0,0,2-.11c0.6-.05,1.11-0.08,1.54-0.08q0.23,0,.23.45t-0.26.45a7.92,7.92,0,0,0-2.47.64,9.46,9.46,0,0,0-2.16,1.65l-7.48,7.11,9.28,9.45a6.71,6.71,0,0,0,1.91,1.46,9.6,9.6,0,0,0,2.82.67,0.36,0.36,0,0,1,.3.44" transform="translate(-8942.62 -3125.67)"/><path d="M9655.29,3174.85c0,0.27-.08.42-0.22,0.44a5.11,5.11,0,0,0-2.42.76,2.55,2.55,0,0,0-.68,2l-0.31,19.3a0.29,0.29,0,0,1-.34.33,0.78,0.78,0,0,1-.45-0.26l-14.52-19.08-0.2,15.15a2.21,2.21,0,0,0,0,.25,2.08,2.08,0,0,0,.68,1.76,5.49,5.49,0,0,0,2.44.76q0.23,0,.23.44t-0.23.46q-0.73,0-2-.1t-1.84-.1q-0.7,0-1.9.1t-1.79.1q-0.23,0-.23-0.46t0.25-.44a5.23,5.23,0,0,0,2.39-.76,2.58,2.58,0,0,0,.69-2l0.49-15.42v-0.15a2.24,2.24,0,0,0-.66-1.85,5.48,5.48,0,0,0-2.46-.79c-0.13,0-.2-0.15-0.2-0.45s0.08-.45.23-0.45a13.32,13.32,0,0,1,1.38.1,10.41,10.41,0,0,0,1.18.1,8.54,8.54,0,0,0,1.18-.1,8.89,8.89,0,0,1,1.21-.1l13.56,17.64v-14a2.42,2.42,0,0,0-.68-2,5.25,5.25,0,0,0-2.53-.81q-0.23,0-.23-0.44t0.23-.46q0.76,0,2,.1t1.83,0.1q0.7,0,1.9-.1t1.79-.1c0.15,0,.22.15,0.22,0.46" transform="translate(-8942.62 -3125.67)"/><path d="M9680.87,3191.77a47.26,47.26,0,0,0-2.16,5.4q-6.17-.2-8.79-0.2t-8.78.2q-0.26,0-.26-0.46a0.36,0.36,0,0,1,.26-0.44,9.45,9.45,0,0,0,2.08-.43,1.93,1.93,0,0,0,1-.73,3.24,3.24,0,0,0,.29-1.61v-15.42a3.41,3.41,0,0,0-.27-1.6,1.87,1.87,0,0,0-1-.75,9.21,9.21,0,0,0-2.11-.44c-0.17,0-.26-0.15-0.26-0.45s0.09-.45.26-0.45q4.13,0.2,8.45.2t8.46-.2a37.5,37.5,0,0,0,1.1,5q0,0.33-.57.33a0.31,0.31,0,0,1-.34-0.23,5,5,0,0,0-5.17-3.86h-3.31a1.71,1.71,0,0,0-1.9,2v7.29H9672a2.7,2.7,0,0,0,2.23-.75,5.66,5.66,0,0,0,.81-2.67q0-.26.45-0.26t0.45,0.26q0,0.82-.1,2.06t-0.1,1.95q0,0.77.1,2t0.1,2.1c0,0.18-.15.26-0.45,0.26s-0.45-.09-0.45-0.26a6,6,0,0,0-.86-2.8,2.6,2.6,0,0,0-2.18-.8h-4.13V3194a1.69,1.69,0,0,0,1.9,1.93h3.57a6.94,6.94,0,0,0,3.86-1.27,7.77,7.77,0,0,0,2.82-3.17,0.27,0.27,0,0,1,.28-0.15,0.71,0.71,0,0,1,.41.12,0.36,0.36,0,0,1,.18.3" transform="translate(-8942.62 -3125.67)"/><path d="M9701.92,3180.29q0-4.8-4.18-4.8a7.45,7.45,0,0,0-2.09.22,1.47,1.47,0,0,0-.95.7,4.12,4.12,0,0,0-.24,1.68v7.31a18.12,18.12,0,0,0,2.39.13,5.16,5.16,0,0,0,3.85-1.25,5.57,5.57,0,0,0,1.21-4m8.35,16.43c0,0.31-.09.46-0.26,0.46q-0.61,0-2-.11-1-.08-1.33-0.08t-1.49.1q-1,.1-1.49.1l-5-8.08a8.43,8.43,0,0,0-1.69-2.15,4.79,4.79,0,0,0-2.6-.48v7a3.24,3.24,0,0,0,.29,1.6,1.91,1.91,0,0,0,1,.74,9.56,9.56,0,0,0,2.09.43,0.36,0.36,0,0,1,.28.44c0,0.31-.09.46-0.26,0.46q-1.1,0-2.62-.1t-2.46-.1q-1,0-2.44.1t-2.6.1q-0.26,0-.26-0.46a0.36,0.36,0,0,1,.26-0.44,9.46,9.46,0,0,0,2.08-.43,1.93,1.93,0,0,0,1-.73,3.24,3.24,0,0,0,.29-1.61v-15.42a3.4,3.4,0,0,0-.27-1.6,1.86,1.86,0,0,0-1-.75,9.15,9.15,0,0,0-2.11-.44q-0.26,0-.26-0.45t0.26-.45q1.1,0,2.6.1t2.44,0.1q1,0,2.46-.1t2.62-.1a9.13,9.13,0,0,1,5.65,1.53,5.09,5.09,0,0,1,2,4.29,4.81,4.81,0,0,1-1.32,3.24,8.47,8.47,0,0,1-3.57,2.3l5,8.21a4.11,4.11,0,0,0,1.69,1.59,8.24,8.24,0,0,0,2.67.71q0.23,0,.23.44" transform="translate(-8942.62 -3125.67)"/><path d="M9107.36,3161.08a4.92,4.92,0,0,0-.81,1.92q-2.85,8.13-5.65,16.28a1.12,1.12,0,0,1-1.28.95c-2.56-.05-2.55,0-3.39-2.43l-5.62-16.19c-0.1-.29-0.19-0.58-0.29-0.87a0.66,0.66,0,0,1,.2-0.1c2.31-.11,2.3-0.11,3.06,2.11q2.4,7,4.81,14.08c0.09,0.27.05,0.71,0.45,0.73s0.42-.46.51-0.76c1.65-5,3.33-9.92,4.91-14.91,0.33-1,.8-1.45,1.85-1.27a9.17,9.17,0,0,0,1.23,0v0.41Z" transform="translate(-8942.62 -3125.67)"/><path d="M9000.94,3170.25a29.16,29.16,0,1,1-29.09-29.14A29.1,29.1,0,0,1,9000.94,3170.25Zm-4,.05a25.19,25.19,0,1,0-25.27,25.1A25.13,25.13,0,0,0,8997,3170.3Z" transform="translate(-8942.62 -3125.67)"/><path d="M9023.43,3175c0,1.24,0,2.47,0,3.71a0.64,0.64,0,0,1-.48.76,17.33,17.33,0,0,1-9.42.68,7.37,7.37,0,0,1-5.46-5,13.56,13.56,0,0,1-.46-7.7c1-4.5,4.37-7.07,9.25-7.21a25.08,25.08,0,0,1,4.91.44,1.8,1.8,0,0,1,.8,2.28c-0.18.21-.37,0-0.55,0a25.38,25.38,0,0,0-4-.55c-4.94-.24-8,2.55-8.25,7.48a11.92,11.92,0,0,0,.22,2.87c0.81,4.07,4,6.13,8.36,5.51,2.68-.38,2.68-0.38,2.68-3.05,0-1.34,0-2.68,0-4,0-.58.16-0.82,0.74-0.73a1.27,1.27,0,0,0,.41,0c1-.17,1.34.15,1.24,1.19S9023.43,3173.9,9023.43,3175Z" transform="translate(-8942.62 -3125.67)"/><path d="M9073.21,3180.21c1.07-3.05,2.09-6,3.11-8.92,1.14-3.26,2.31-6.5,3.42-9.77a1.12,1.12,0,0,1,1.28-.95c2.54,0,2.55,0,3.4,2.42q2.86,8.12,5.72,16.24c0.1,0.29.19,0.58,0.29,0.86a0.75,0.75,0,0,1-.21.09c-2.31.07-2.31,0.07-3.06-2.11-0.82-2.38-.82-2.38-3.3-2.38-2,0-3.91,0-5.86,0a0.76,0.76,0,0,0-.88.61c-0.3.94-.71,1.86-0.94,2.82a1.21,1.21,0,0,1-1.57,1.1A9.82,9.82,0,0,0,9073.21,3180.21Zm4.68-6.62c2.45,0,4.74,0,7,0,0.54,0,.76-0.09.56-0.68-1.13-3.26-2.24-6.52-3.37-9.78-0.06-.18-0.08-0.47-0.36-0.4a0.61,0.61,0,0,0-.3.37C9080.28,3166.57,9079.11,3170,9077.89,3173.59Z" transform="translate(-8942.62 -3125.67)"/><path d="M9041.88,3167.94c0,2,0,4,0,6.07a6,6,0,0,1-5.11,6.25,11.22,11.22,0,0,1-5,0,5.91,5.91,0,0,1-4.84-6.07c-0.1-4.28,0-8.57,0-12.86,0-.58.24-0.66,0.73-0.67,1.71,0,1.71-.06,1.71,1.6q0,5.71,0,11.42a4.23,4.23,0,0,0,3.28,4.5c2.43,0.69,5.07-.09,6.2-1.81a4.6,4.6,0,0,0,.65-2.65c0-4,.05-8,0-12,0-1.3.75-.93,1.43-1,0.87-.11,1.08.19,1.06,1.05C9041.83,3163.76,9041.88,3165.85,9041.88,3167.94Z" transform="translate(-8942.62 -3125.67)"/><path d="M9053.39,3160.35c0.79,0,1.57.13,2.36,0.14a0.86,0.86,0,0,1,1,1.11c-0.07,1.24,0,1.25-1.3,1.07a20.18,20.18,0,0,0-4.92-.14c-1.89.2-3,1.15-3.12,2.7-0.19,1.8.43,2.82,2.18,3.31,1.21,0.34,2.47.52,3.71,0.77,2.9,0.59,4.24,2,4.41,4.6,0.2,3-1.15,5.21-3.8,6.11-2.14.73-4.33,0.49-6.52,0.34-0.58,0-1.15-.18-1.73-0.23a0.6,0.6,0,0,1-.6-0.74c0-1.63-.07-1.62,1.53-1.37a15,15,0,0,0,5.72.15,3.54,3.54,0,0,0,2.76-4.6,2.64,2.64,0,0,0-1.81-1.81,21.63,21.63,0,0,0-3.81-.79c-3.91-.71-5.16-3.23-4.42-6.82,0.5-2.38,2.39-3.29,4.58-3.66A14.18,14.18,0,0,1,9053.39,3160.35Z" transform="translate(-8942.62 -3125.67)"/><path d="M9068.21,3171.45c0,2.61,0,5.21,0,7.82,0,0.77-.18,1.08-1,1a1.91,1.91,0,0,0-.62,0c-0.76.12-.89-0.23-0.89-0.92,0-5.11,0-10.22,0-15.32,0-1.08-.3-1.3-1.3-1.25-1.57.09-3.16,0-4.73,0-0.95.06-.87-0.46-0.84-1.05s-0.22-1.12.78-1.11q7.25,0.08,14.5,0c1,0,.82.51,0.81,1.08s0.19,1.14-.81,1.08c-1.74-.09-3.5,0-5.24,0-0.64,0-.81.17-0.8,0.8C9068.23,3166.17,9068.21,3168.81,9068.21,3171.45Z" transform="translate(-8942.62 -3125.67)"/><path d="M8982.8,3161.95a25.37,25.37,0,0,0-3.65-2.74c-6.59-3.63-15.27-2-18.89,5.36a12.14,12.14,0,0,0,.9,12.88,12.86,12.86,0,0,0,19.41,2.23,1.63,1.63,0,0,0,.58-1.34c0-2.47,0-4.94,0-7.41,0-.71.1-1.11,0.93-1s2.24-.42,2.87.23,0.15,1.83.16,2.79c0,2.3,0,4.6,0,6.9a2,2,0,0,1-.58,1.47c-4.65,5-10.38,6.92-17,5.22s-10.68-6.11-12.25-12.72a16.8,16.8,0,0,1,13.68-20.14,17.25,17.25,0,0,1,12.68,2.58,2.15,2.15,0,0,1,1.15,2.18C8982.72,3159.52,8982.8,3160.65,8982.8,3161.95Z" transform="translate(-8942.62 -3125.67)"/><path class="cls-1" d="M9756.31,3155.37a14,14,0,0,1,4.76-3.9,9.74,9.74,0,0,1,4.4-1.43,18.18,18.18,0,0,1,2.77.32,28.1,28.1,0,0,1,11.51,3.52,17.2,17.2,0,0,1,5.71,5,8.83,8.83,0,0,1,1.7,4.36,5.42,5.42,0,0,1-2.49,5.13,9.43,9.43,0,0,1-5.14,1.64c-0.53,0-1.05,0-1.57,0,2.24,5.26,5.43,9.9,8.43,14.66,0.43,0.67.88,1.33,1.32,2a26.67,26.67,0,0,0,1.65,2.47c0.62,0.91,1.31,1.77,1.84,2.74a0.52,0.52,0,0,1-.59.85,7.93,7.93,0,0,1-2.87-1.32c-0.85-.53-1.66-1.11-2.49-1.67l-2.09-1.85a57.09,57.09,0,0,1-4.7-5.21,49.23,49.23,0,0,1-6.8-11.71c-0.36-.89-0.19-1.26.72-1.52,0.36-.1.74-0.16,1.12-0.24a0.22,0.22,0,0,0,0-.09c-0.21-.17-0.66-0.17-0.58-0.52a0.69,0.69,0,0,1,.78-0.34,35.52,35.52,0,0,0,4.93-.53,8.7,8.7,0,0,0,3.11-1.22,3.06,3.06,0,0,0,.9-4.67,7.3,7.3,0,0,0-2.39-2.17,32.5,32.5,0,0,0-12.27-4.15,24.8,24.8,0,0,0-9.62.55,2.18,2.18,0,0,1-2-.26v-0.46Z" transform="translate(-8942.62 -3125.67)"/><path class="cls-1" d="M9820.2,3167.65a2.64,2.64,0,0,1-3.68-1.74,0.7,0.7,0,0,1,.16-0.74,1.16,1.16,0,0,0-.07-1.43c-0.43-.36-0.67.11-0.95,0.32a3,3,0,0,0-.5.54,10.84,10.84,0,0,0-2.12,4.5,6.35,6.35,0,0,0-.09,2.83,1.53,1.53,0,0,0,1.12,1.23,2.93,2.93,0,0,0,2.21-.22,10.13,10.13,0,0,0,2.75-2.28,4.31,4.31,0,0,0,1.19-3m2.43-24.78a13.65,13.65,0,0,1,4.72,7.53,5.56,5.56,0,0,1-.23,3.15,13,13,0,0,0-.32,2.08,86.9,86.9,0,0,1-3.41,12.5q-1.3,3.93-2.8,7.79a7.44,7.44,0,0,1-.89,1.78c-0.33.44-.63,0.42-0.93,0a1.65,1.65,0,0,1-.25-0.81,6.65,6.65,0,0,1,.28-2.55c0.09-.27.16-0.54,0.25-0.86a1.14,1.14,0,0,0-.54.37,12.15,12.15,0,0,1-5.15,2.69c-2.65.68-4.45-.48-4.7-3.21a14.27,14.27,0,0,1,3.83-11.4,7,7,0,0,1,.94-0.83c2-1.5,3.61-1.46,5.52.14,0.38,0.32.71,0.69,1.06,1a8.69,8.69,0,0,1,.86,1.34c0.14-1.2.28-2.27,0.39-3.34a122.76,122.76,0,0,0,.6-15.39,3.47,3.47,0,0,1,.22-2h0.57Z" transform="translate(-8942.62 -3125.67)"/><path class="cls-1" d="M9902.45,3175.2a2.73,2.73,0,0,1-2.29,1.14c-0.32,0-.65,0-1,0.05a2.49,2.49,0,0,1-2.74-1.69c-0.5-1.11-.93-2.25-1.36-3.39a29,29,0,0,1-1.7-5.62c-0.05-.34-0.07-0.68-0.11-1a0.36,0.36,0,0,0-.31.26,17.45,17.45,0,0,0-2.53,4.19,13.44,13.44,0,0,1-2,3.27,5.76,5.76,0,0,1-1.74,1.45,1.48,1.48,0,0,1-2.37-.92,7.52,7.52,0,0,1-.39-2.36,24.84,24.84,0,0,1,1.51-8.63,3.89,3.89,0,0,1,1-1.54,1.51,1.51,0,0,1,1.92-.31c0.14,0.07.27,0.14,0.41,0.19a2.19,2.19,0,0,1,1.5,2.94,10.56,10.56,0,0,1-.51,1.39,0.74,0.74,0,0,1-.65.56,0.6,0.6,0,0,0-.43.35,3.9,3.9,0,0,0-.52,2.53,0.32,0.32,0,0,0,.12.24,0.24,0.24,0,0,0,.28-0.13c0.18-.27.35-0.54,0.51-0.82a16.34,16.34,0,0,1,3.14-4.59l0.31-.26c1.08-.82,1.73-0.67,2.35.53a60.28,60.28,0,0,0,4.2,7.33,5.77,5.77,0,0,0,1,1,8.64,8.64,0,0,1,2.39,3v0.8Z" transform="translate(-8942.62 -3125.67)"/><path class="cls-1" d="M9819,3197.11a2.82,2.82,0,1,0-2.87-2.82,2.75,2.75,0,0,0,2.87,2.82m-0.93,1a1.92,1.92,0,0,0-.81-0.35,3.83,3.83,0,0,1-2.24-3.83,3.76,3.76,0,0,1,3.12-3.4,3.89,3.89,0,0,1,4.77,3,3.74,3.74,0,0,1-3.07,4.5,0.16,0.16,0,0,0-.17.11h-1.6Z" transform="translate(-8942.62 -3125.67)"/><path class="cls-1" d="M9880.54,3197.11a2.82,2.82,0,1,0-2.84-2.86,2.79,2.79,0,0,0,2.84,2.86m-0.93,1a0.43,0.43,0,0,0-.37-0.21,3.8,3.8,0,0,1-2.55-4.52,3.91,3.91,0,0,1,4.37-2.92,3.8,3.8,0,0,1,3.19,5.37,3.57,3.57,0,0,1-2.86,2.18,0.17,0.17,0,0,0-.17.1h-1.6Z" transform="translate(-8942.62 -3125.67)"/><path class="cls-1" d="M9851,3192.39a0.86,0.86,0,1,0,1.61,0,0.78,0.78,0,0,0-.88-0.76,0.7,0.7,0,0,0-.74.76m0,4.72a1.29,1.29,0,0,0,.69-0.18c0.92-.46.94-0.58,0.28-1.35s-0.83-.77-1.54,0a1.55,1.55,0,0,0-.15.17,0.81,0.81,0,0,0-.1.91,0.85,0.85,0,0,0,.82.45m-0.68,1a0.47,0.47,0,0,0-.1-0.12c-1.49-.82-1.64-2.13-0.36-3.25a2.12,2.12,0,0,0,.76-0.62,2.27,2.27,0,0,0-.49-0.86,1.68,1.68,0,0,1,.11-1.89,1.9,1.9,0,0,1,2-.63,1.55,1.55,0,0,1,1.32,1.26,1.8,1.8,0,0,1-.82,1.88c-0.44.33-.45,0.54-0.07,0.93,0.7,0.72.67,0.74,1.19-.14,0.27-.45.27-0.45,1.24-0.33a4.26,4.26,0,0,1-.9,1.56,0.43,0.43,0,0,0,0,.7c0.39,0.41.75,0.86,1.17,1.35-0.75.08-1.43,0.23-1.86-.56-0.2-.38-0.42-0.38-0.73-0.08a3.8,3.8,0,0,1-1.58.8h-0.91Z" transform="translate(-8942.62 -3125.67)"/><path class="cls-1" d="M9899.36,3198.13a0.88,0.88,0,0,0-.18-0.11c-1.24-.43-1.24-0.43-1.16-1.79a0.46,0.46,0,0,1,.39.27,2.28,2.28,0,0,0,1.71.63,1,1,0,0,0,1-.65,1,1,0,0,0-.32-1.08,4.34,4.34,0,0,0-1-.71,8.05,8.05,0,0,1-1.21-.85,1.9,1.9,0,0,1,.82-3.27,2.64,2.64,0,0,1,1.13-.08c1.21,0.2,1.36.38,1.3,1.65a7.14,7.14,0,0,0-1-.55c-0.11,0-.22-0.07-0.33-0.1a1.3,1.3,0,0,0-1.53.56,1.14,1.14,0,0,0,.74,1.33c0.48,0.31,1,.58,1.44.91a2.08,2.08,0,0,1,.94,2.07,1.9,1.9,0,0,1-1.48,1.69,0.2,0.2,0,0,0-.06.08h-1.26Z" transform="translate(-8942.62 -3125.67)"/><path class="cls-1" d="M9842.28,3198.13a0.2,0.2,0,0,0-.16-0.13c-1.31-.55-1.13-0.36-0.93-1.92a1.72,1.72,0,0,0,.25.42,2.18,2.18,0,0,0,1.48.63,1.11,1.11,0,0,0,1.18-.62,1,1,0,0,0-.44-1.24c-0.53-.4-1.1-0.74-1.65-1.12a2.11,2.11,0,0,1-1-1.34,1.87,1.87,0,0,1,1.34-2.22,2.71,2.71,0,0,1,1.41-.07c1.13,0.26,1.23.37,1.1,1.62l-0.57-.38a2.06,2.06,0,0,0-1.53-.28,0.88,0.88,0,0,0-.74.63,0.82,0.82,0,0,0,.29.87,5.85,5.85,0,0,0,.78.56,11.48,11.48,0,0,1,1.29.84,2.1,2.1,0,0,1,.75,2.2,1.81,1.81,0,0,1-1.51,1.45,0.22,0.22,0,0,0-.07.08h-1.26Z" transform="translate(-8942.62 -3125.67)"/><path class="cls-1" d="M9872.76,3198.13a0.2,0.2,0,0,0-.16-0.13c-1.31-.55-1.13-0.36-0.94-1.92a1.68,1.68,0,0,0,.25.42,2.18,2.18,0,0,0,1.48.63,1.11,1.11,0,0,0,1.18-.62,1,1,0,0,0-.45-1.24c-0.54-.41-1.13-0.76-1.69-1.15a2.08,2.08,0,0,1-.93-1.25,1.86,1.86,0,0,1,1.22-2.23,2.64,2.64,0,0,1,1.51-.11c1.14,0.25,1.23.37,1.1,1.58a1.32,1.32,0,0,1-.52-0.32,2.14,2.14,0,0,0-1.58-.3,0.89,0.89,0,0,0-.74.63,0.82,0.82,0,0,0,.29.87,5.61,5.61,0,0,0,.78.56,8.58,8.58,0,0,1,1.41,1,2.06,2.06,0,0,1,.59,2.19A1.74,1.74,0,0,1,9874,3198a0.2,0.2,0,0,0-.07.08h-1.14Z" transform="translate(-8942.62 -3125.67)"/><path class="cls-1" d="M9789.35,3189.15a26.41,26.41,0,0,1-1.65-2.47c8-2.08,16.06-3.73,24.19-5.08q8.07-1.34,16.2-2.24c4.63-.52,9.27-0.9,13.92-1.2q11.17-.74,22.35-0.61,6.22,0.07,12.43.4a3.36,3.36,0,0,1,1.06.2,0.66,0.66,0,0,1,.31,1.19,2.21,2.21,0,0,1-1.64.69c-1.25.12-2.5,0.19-3.76,0.19l-0.34,0c0.4,0.63.35,0.82-.36,1a18.43,18.43,0,0,1-4.28.58c-3.9.23-7.8,0.14-11.7,0.12h-0.63a0.81,0.81,0,0,1-.65,1.17,6.78,6.78,0,0,1-2.3.34c-2.82,0-5.63-.2-8.44-0.12q-7.41.21-14.81,0.76-7.93.6-15.83,1.55c-6,.71-12,1.51-18,2.47-2,.33-4.1.58-6.12,1" transform="translate(-8942.62 -3125.67)"/><path class="cls-1" d="M9757.35,3190.9a14.43,14.43,0,0,1,.51-3.34,76.94,76.94,0,0,1,5.78-14.08c2.2-4.39,4.57-8.7,7-12.94a10.38,10.38,0,0,1,1.31-1.87,0.64,0.64,0,0,1,.62-0.34,0.71,0.71,0,0,1,.38.65,4,4,0,0,1-.37,2.56,139.53,139.53,0,0,0-6.59,19.15c-1.2,4.09-2.26,8.23-3.34,12.35a20.07,20.07,0,0,0-.31,3.76c0,0.42.07,1-.54,1a0.91,0.91,0,0,1-.93-0.84,3.52,3.52,0,0,0-1.19-1.79c-1-.82-2-1.68-2.2-3.09-0.06-.47-0.12-0.94-0.16-1.24" transform="translate(-8942.62 -3125.67)"/><path class="cls-1" d="M9792.48,3175.36c-0.05,1.46.6,2,1.9,1.6a4,4,0,0,0,3.19-3.7,54.11,54.11,0,0,1,1-5.39,0.55,0.55,0,0,0,0-.49,6.92,6.92,0,0,1-.57-1.24c-0.31-.67-0.44-0.7-1-0.17a19.3,19.3,0,0,0-4,6.54,10.22,10.22,0,0,0-.59,2.85m6.64-9.91c0.26-.69.46-1.28,0.7-1.85a3.48,3.48,0,0,1,.47-0.78,0.8,0.8,0,0,1,1.48,0,2,2,0,0,0,1.22.88c1.1,0.36,1.3,1,.69,2a2.93,2.93,0,0,0-.3.8c-0.58,2.07-1.15,4.15-1.72,6.22a6.88,6.88,0,0,0-.17,1.76,0.5,0.5,0,0,0,.18.51,0.53,0.53,0,0,0,.57-0.16,19.83,19.83,0,0,1,2.66-1.55c0.22-.11.46-0.19,0.69-0.27a0.41,0.41,0,0,1,.48,0,0.46,0.46,0,0,1,0,.54,2.51,2.51,0,0,1-.53.8,8.94,8.94,0,0,1-1.36,1.22,1.73,1.73,0,0,0-.81,1.52,1.2,1.2,0,0,1-.59,1,6.49,6.49,0,0,1-2.82,1.16,1.86,1.86,0,0,1-2.33-1.55c-0.08-.29-0.13-0.59-0.2-0.88-0.48.46-.94,0.91-1.4,1.35a7.86,7.86,0,0,1-4.94,2.09,3.15,3.15,0,0,1-3.28-3.1,10.91,10.91,0,0,1,1.42-6.26,29.14,29.14,0,0,1,4.51-6.3,3.36,3.36,0,0,1,3.59-1,2.76,2.76,0,0,1,1.78,1.82" transform="translate(-8942.62 -3125.67)"/><path class="cls-1" d="M9842.94,3163.87c-1.9,2.17-3.71,4.29-5.69,6.25a19.26,19.26,0,0,1-5.06,4c-2.4,1.15-2.82.41-3.46-1.47a15,15,0,0,1-.43-6.3,17.92,17.92,0,0,1,.86-4.54,3.67,3.67,0,0,1,.63-1.14,1.53,1.53,0,0,1,1.93-.5c0.37,0.14.77,0.22,1.13,0.38a1.88,1.88,0,0,1,1.15,2.19,15.23,15.23,0,0,1-.43,1.72,1.23,1.23,0,0,1-.65.88,1.11,1.11,0,0,0-.47.7,10.09,10.09,0,0,0-.63,3.87c0,0.49,0,1,0,1.49s0.22,0.74.74,0.46a11.29,11.29,0,0,0,2.83-2.2,65.55,65.55,0,0,0,6.59-8,11.28,11.28,0,0,0,1.14-2,2.62,2.62,0,0,1,.38-0.63,0.7,0.7,0,0,1,1.21-.06c1.81,2.48,4,4.72,5.11,7.66,0.95,2.45.44,4.09-1.81,5.82a9.21,9.21,0,0,1-4.86,1.63c-0.57.06-1.14,0.06-1.71,0.07a2.34,2.34,0,0,1-.67-0.09c-0.72-.21-0.82-0.64-0.28-1.15a2.64,2.64,0,0,1,.7-0.49,4.65,4.65,0,0,0,2.82-5.75,11.26,11.26,0,0,0-.5-1.52c-0.14-.37-0.34-0.72-0.54-1.15" transform="translate(-8942.62 -3125.67)"/><path class="cls-1" d="M9870.16,3173.29c-2,0-3.1-1.35-2.6-3.42a18.58,18.58,0,0,1,1.74-4.15c1.19-2.28,2.54-4.47,3.94-6.62a3.74,3.74,0,0,1,1.11-1.14,1.3,1.3,0,0,1,1.4-.15,2,2,0,0,0,1,0c0.62,0,.84.33,0.6,0.9a5.43,5.43,0,0,1-.52.88,29.24,29.24,0,0,0-3.94,9.18,1,1,0,0,0,.17,1.07,1,1,0,0,0,1.08,0,3.93,3.93,0,0,0,1.38-.88,1.83,1.83,0,0,1,.55-0.49c0.73-.25.65-0.75,0.54-1.33a18.61,18.61,0,0,0-.66-2.42,3.55,3.55,0,0,1-.21-1.46,1.1,1.1,0,0,1,.79-1.13,1.05,1.05,0,0,1,1.11.62,6.12,6.12,0,0,1,.8,1.64,15.31,15.31,0,0,1,.92,3.65,1.37,1.37,0,0,1-1.4,1.68,3.65,3.65,0,0,0-1.86,1.16,8.76,8.76,0,0,1-3.87,2.09,8.28,8.28,0,0,1-2,.34" transform="translate(-8942.62 -3125.67)"/><path class="cls-1" d="M9857.06,3163.15l-3.35,2.63a3.94,3.94,0,0,1-.41.31,0.43,0.43,0,0,1-.72-0.3,2.89,2.89,0,0,1,.93-2.6,9.36,9.36,0,0,0,3.88-4.73,3.51,3.51,0,0,1,2.13-2.1,0.85,0.85,0,0,1,1.13.19,0.93,0.93,0,0,1-.18,1.2,1.91,1.91,0,0,1-.28.28,2.19,2.19,0,0,0-.62,2.73,4.4,4.4,0,0,0,1.63,2.21,9.14,9.14,0,0,1,2.58,2.71,3.72,3.72,0,0,1-.17,4.39,7.56,7.56,0,0,1-5,2.94,14.58,14.58,0,0,1-3.35.25,0.85,0.85,0,0,1-1-.54,0.91,0.91,0,0,1,.71-1,5.93,5.93,0,0,0,1.8-1.07c1.63-1.49,1.76-3.32,1.2-5.31a9.65,9.65,0,0,0-.94-2.17" transform="translate(-8942.62 -3125.67)"/><path class="cls-1" d="M9883.13,3178.3c2.5,0.11,5,.24,7.49.56a3.6,3.6,0,0,1,.77.19,0.91,0.91,0,0,1,.3,1.7,4.84,4.84,0,0,1-2.07.89,10.78,10.78,0,0,1-4.35.2,1.33,1.33,0,0,1-1.37-1.06,0.86,0.86,0,0,0-.8-0.55c-0.73-.18-1.48,0-2.21-0.2a0.79,0.79,0,0,1-.84-0.45,1,1,0,0,1,.56-1,2.61,2.61,0,0,1,1.59-.31c0.3,0,.61,0,0.91.06" transform="translate(-8942.62 -3125.67)"/><path class="cls-1" d="M9807.31,3194.28c0-1.09,0-2.18,0-3.26,0-.46.19-0.48,0.53-0.46s0.59-.06.56,0.44c0,0.78,0,1.56,0,2.35,0,0.32,0,.47.42,0.46,1.1,0,2.21,0,3.31,0,0.38,0,.43-0.14.42-0.47,0-.78,0-1.57,0-2.35,0-.51.28-0.42,0.57-0.43s0.56,0,.55.45q0,3.29,0,6.59c0,0.52-.28.41-0.57,0.43s-0.58,0-.55-0.45c0-.8,0-1.6,0-2.4a0.31,0.31,0,0,0-.38-0.38c-1.12,0-2.24,0-3.37,0-0.34,0-.4.12-0.4,0.42,0,0.82,0,1.64,0,2.46,0,0.53-.34.33-0.58,0.35s-0.52.1-.51-0.36c0-1.12,0-2.25,0-3.38" transform="translate(-8942.62 -3125.67)"/><path class="cls-1" d="M9861.24,3193.8c1,0,1.44-.28,1.55-0.85a1.09,1.09,0,0,0-.36-1.18,3,3,0,0,0-1.65-.25,0.3,0.3,0,0,0-.08.31c0,0.46,0,.92,0,1.37s0.09,0.73.55,0.62m1.57,0.67a6.78,6.78,0,0,1,.63.69c0.63,0.92,1.25,1.85,1.88,2.8a1.34,1.34,0,0,1-1.77-.74,8.07,8.07,0,0,0-1.29-1.88,1.52,1.52,0,0,0-1.19-.56,0.31,0.31,0,0,0-.38.4c0,0.82,0,1.64,0,2.46,0,0.5-.3.37-0.55,0.37s-0.55.11-.54-0.38c0-2.23,0-4.46,0-6.69,0-.17-0.08-0.4.25-0.39,0.7,0,1.41,0,2.11,0a2,2,0,0,1,1.9,1.54,2,2,0,0,1-1.07,2.35" transform="translate(-8942.62 -3125.67)"/><path class="cls-1" d="M9887.55,3191.48c-0.44-.16-0.53.15-0.48,0.62a6.68,6.68,0,0,1,0,.69c0,1.08.21,1.24,1.28,1a1.16,1.16,0,0,0,.69-1.73,1.64,1.64,0,0,0-1.49-.54m4.17,6.46a1.39,1.39,0,0,1-1.89-.87,11.84,11.84,0,0,0-1.06-1.55,1.89,1.89,0,0,0-.68-0.6c-0.69-.35-1-0.15-1,0.61s0,1.37,0,2.06c0,0.44-.19.46-0.5,0.43s-0.59.14-.59-0.4c0-2.23,0-4.46,0-6.69,0-.18-0.06-0.39.26-0.38,0.68,0,1.37,0,2,0a2.06,2.06,0,0,1,.84,3.91c1.13,0.94,1.62,2.34,2.57,3.44" transform="translate(-8942.62 -3125.67)"/><path class="cls-1" d="M9838,3151.79a2.38,2.38,0,0,1-.81,1.83,10.71,10.71,0,0,1-2.76,1.69c-0.7.28-1,.11-0.84-0.63,0.2-1.11.27-2.23,0.47-3.33a2.14,2.14,0,0,1,1.8-1.82,2.08,2.08,0,0,1,2.15,2.27" transform="translate(-8942.62 -3125.67)"/><path class="cls-1" d="M9866.27,3194.26c0-1.09,0-2.18,0-3.26,0-.29,0-0.45.39-0.44,1.16,0,2.32,0,3.48,0,0.45,0,.35.25,0.37,0.51s0,0.51-.4.49c-0.76,0-1.52,0-2.28,0-0.33,0-.48.06-0.46,0.44a11.75,11.75,0,0,1,0,1.43c0,0.3.08,0.39,0.38,0.38,0.76,0,1.52,0,2.28,0,0.4,0,.38.2,0.36,0.46s0.12,0.55-.35.53c-0.76,0-1.52,0-2.28,0-0.29,0-.4.08-0.39,0.38,0,0.51,0,1,0,1.55a0.31,0.31,0,0,0,.38.39c0.8,0,1.6,0,2.39,0,0.39,0,.49.12,0.46,0.48s0,0.53-.43.51c-1.16,0-2.32,0-3.48,0-0.36,0-.45-0.1-0.44-0.45,0-1.11,0-2.21,0-3.32" transform="translate(-8942.62 -3125.67)"/><path class="cls-1" d="M9830.37,3194.26c0-1.09,0-2.18,0-3.26,0-.35.09-0.45,0.44-0.44q1.68,0,3.36,0a0.35,0.35,0,0,1,.44.46c0,0.3,0,.56-0.43.54-0.78,0-1.56,0-2.34,0a0.33,0.33,0,0,0-.41.42,12.14,12.14,0,0,1,0,1.43c0,0.35.12,0.4,0.43,0.39,0.7,0,1.41,0,2.11,0,0.36,0,.54,0,0.54.47s-0.18.53-.57,0.52c-0.68,0-1.37,0-2.05,0-0.33,0-.48.06-0.45,0.44a7.9,7.9,0,0,1,0,1.37c0,0.46.15,0.53,0.55,0.52,0.76,0,1.52,0,2.28,0,0.45,0,.42.21,0.44,0.52s0,0.47-.42.47q-1.74,0-3.48,0c-0.37,0-.43-0.12-0.43-0.45,0-1.11,0-2.21,0-3.32" transform="translate(-8942.62 -3125.67)"/><path class="cls-1" d="M9783.15,3187.91l2.09,1.85c-1.43.27-2.86,0.55-4.29,0.8a20.72,20.72,0,0,1-3.14.47,3.21,3.21,0,0,1-.62,0c-0.36-.06-0.49-0.25-0.26-0.6a2.46,2.46,0,0,1,1.39-1l4.83-1.48" transform="translate(-8942.62 -3125.67)"/><path class="cls-1" d="M9825.62,3194.75c0-.94,0-1.87,0-2.81,0-.32-0.09-0.43-0.41-0.41-0.59,0-1.18,0-1.77,0s-0.37-.25-0.38-0.51,0-.5.39-0.49q2.71,0,5.42,0c0.41,0,.4.19,0.4,0.48s0,0.56-.43.52-1,0-1.48,0-0.68.09-.67,0.64c0,1.78,0,3.55,0,5.33,0,0.5-.2.52-0.59,0.54s-0.55-.1-0.53-0.54c0-.91,0-1.83,0-2.75" transform="translate(-8942.62 -3125.67)"/><path class="cls-1" d="M9894.69,3194.82c0,0.93,0,1.87,0,2.8,0,0.54-.31.38-0.58,0.4s-0.52,0-.51-0.42c0-1.83,0-3.66,0-5.49,0-.5-0.15-0.62-0.61-0.59s-1.1,0-1.65,0-0.34-.26-0.33-0.49-0.11-.5.32-0.5q2.79,0,5.58,0c0.43,0,.3.29,0.31,0.5s0.05,0.5-.35.48c-0.57,0-1.14,0-1.71,0s-0.53.14-.52,0.55c0,0.91,0,1.83,0,2.75" transform="translate(-8942.62 -3125.67)"/><path class="cls-1" d="M9835.89,3194.23c0-1.09,0-2.18,0-3.26,0-.48.25-0.41,0.53-0.41s0.59-.11.59,0.42c0,1.85,0,3.7,0,5.55,0,0.43.12,0.55,0.54,0.53,0.8,0,1.6,0,2.39,0,0.44,0,.43.2,0.43,0.51s0,0.49-.41.48c-1.21,0-2.43,0-3.65,0-0.34,0-.41-0.11-0.4-0.42,0-1.12,0-2.25,0-3.38" transform="translate(-8942.62 -3125.67)"/></svg>