<svg id="NEW_HOMEPAGE" data-name="NEW HOMEPAGE" xmlns="http://www.w3.org/2000/svg" viewBox="0 0 280.15 32.14"><defs><style>.cls-1{fill:#1d1d1b;}</style></defs><title>home-logos-mobile</title><path class="cls-1" d="M1101.76,1494h-2.65a5.18,5.18,0,0,0,0-2.59c-0.15-1.41-.34-2.83-0.58-4.25-0.06.13-.13,0.26-0.18,0.4-0.79,2-1.58,4.06-2.35,6.09a0.49,0.49,0,0,1-.57.39,0.65,0.65,0,0,1-.76-0.37c-0.83-2.1-1.71-4.18-2.57-6.27a1,1,0,0,0-.22-0.35,55.23,55.23,0,0,0-.85,7h-2.18a27.33,27.33,0,0,0,1-5.32c0.22-1.26.38-2.52,0.52-3.79a9.24,9.24,0,0,0-.06-1.45h2a0.73,0.73,0,0,1,.71.54c0.74,1.84,1.49,3.67,2.24,5.51,0.06,0.15.13,0.3,0.23,0.53,0.09-.2.15-0.33,0.2-0.47l2.08-5.39a0.91,0.91,0,0,1,1.06-.73h1.76c-0.34,1.63.16,3.2,0.3,4.78s0.35,3,.55,4.46a11.87,11.87,0,0,0,.34,1.33" transform="translate(-977.23 -1464.82)"/><path class="cls-1" d="M1139.17,1494a11.39,11.39,0,0,1-1.5,0,1,1,0,0,1-.55-0.45c-1.17-1.65-2.33-3.32-3.49-5a0.89,0.89,0,0,0-.33-0.31v0.44q0,1.94,0,3.87c0,1.26-.24,1.49-1.52,1.49h-0.51v-10.58a12.24,12.24,0,0,1,1.54,0,1,1,0,0,1,.56.45c1.15,1.62,2.27,3.26,3.41,4.89l0.32,0.45c0-.24,0-0.37,0-0.5,0-1.4,0-2.8,0-4.2a1,1,0,0,1,1.11-1.13h0.94V1494Z" transform="translate(-977.23 -1464.82)"/><path class="cls-1" d="M1105,1488.69a4.43,4.43,0,0,0,.6,2.35,2.3,2.3,0,0,0,4,0,4.44,4.44,0,0,0,0-4.61,2.3,2.3,0,0,0-4,0,4.41,4.41,0,0,0-.59,2.3m-2.24-.1a5.58,5.58,0,0,1,1.52-3.88,4.65,4.65,0,0,1,7.17.64,5.86,5.86,0,0,1,.18,6.42,4.35,4.35,0,0,1-4.21,2.29,4.53,4.53,0,0,1-4.15-2.87,6.18,6.18,0,0,1-.51-2.61" transform="translate(-977.23 -1464.82)"/><path class="cls-1" d="M1169.51,1487.83l4,6.13c-0.26,0-.41,0-0.57,0-2.38,0-1.71.31-3-1.61-0.64-.95-1.24-1.91-1.87-2.86l-0.09-.07a1.48,1.48,0,0,0-.75,1.31c0.06,0.91,0,1.83,0,2.75V1494c-0.52,0-1,0-1.46,0a0.81,0.81,0,0,1-.73-0.79,3.36,3.36,0,0,1,0-.37q0-4.48,0-9c0-.12,0-0.25,0-0.45,0.52,0,1,0,1.54.08a0.76,0.76,0,0,1,.64.85c0,0.82,0,1.64,0,2.46,0,0.15,0,.3,0,0.57l0.39-.37,3-3.1a1.3,1.3,0,0,1,1-.5,0.86,0.86,0,0,1,.82.47,0.89,0.89,0,0,1-.08,1,10.14,10.14,0,0,1-.7.77l-2.18,2.24" transform="translate(-977.23 -1464.82)"/><path class="cls-1" d="M1163.2,1487.21c-0.6,0-1.14,0-1.66,0a1.1,1.1,0,0,1-.57-0.36,1.94,1.94,0,0,1-.28-0.51,1.81,1.81,0,0,0-3-.49,3.3,3.3,0,0,0-.94,2,4.83,4.83,0,0,0,.44,3.15,2.18,2.18,0,0,0,2.14,1.24,1.65,1.65,0,0,0,1.35-1.11,1.22,1.22,0,0,1,1.45-.87,9.63,9.63,0,0,0,1,0,3.92,3.92,0,0,1-1.19,2.68,4.35,4.35,0,0,1-6.27-.27,6.32,6.32,0,0,1,.28-8,4.17,4.17,0,0,1,4.29-1,3.87,3.87,0,0,1,2.81,3,5.87,5.87,0,0,1,.08.66" transform="translate(-977.23 -1464.82)"/><path class="cls-1" d="M1143.8,1485.22c0,0.86,0,1.64,0,2.41,0,0.09,0,.19,0,0.35a17,17,0,0,0,1.71-.1,1.33,1.33,0,0,0,.07-2.54,15.09,15.09,0,0,0-1.82-.12m-2.21-1.8c1.42,0,2.81,0,4.2,0a3.21,3.21,0,0,1,.78.14,3.18,3.18,0,0,1-.77,6.22c-0.65,0-1.3,0-2,0v1.61c0,0.51,0,1,0,1.54a1,1,0,0,1-1,1.05c-0.39,0-.77,0-1.18,0v-10.58Z" transform="translate(-977.23 -1464.82)"/><path class="cls-1" d="M1117.58,1490.64l1.85-6.34a1,1,0,0,1,1.21-.9h1.22l-0.75,2.58-1.94,6.66A1.77,1.77,0,0,1,1118,1494a1.61,1.61,0,0,1-2.09-1.15c-0.35-1.07-.64-2.15-1-3.23l-1.7-5.74c0-.14-0.08-0.29-0.13-0.48,0.59,0,1.15,0,1.71,0a0.82,0.82,0,0,1,.64.74l1.67,5.44,0.32,1h0.09" transform="translate(-977.23 -1464.82)"/><path class="cls-1" d="M1129.13,1483.43c0,0.33,0,.6,0,0.88a0.83,0.83,0,0,1-.94.93c-0.74,0-1.48,0-2.22,0h-0.51v2.39h2.31a0.88,0.88,0,0,1,.94.76,0.87,0.87,0,0,1-.89,1.05c-0.63,0-1.26,0-1.89,0h-0.46a2,2,0,0,0,0,.25c0,0.79,0,1.58,0,2.44h0.47c0.75,0,1.51,0,2.26,0a0.88,0.88,0,0,1,1,1c0,1,.12.82-0.79,0.83-1.33,0-2.65,0-4,0a1,1,0,0,1-1.2-1.21q0-4.1,0-8.2a1,1,0,0,1,1.18-1.19h4.31l0.41,0" transform="translate(-977.23 -1464.82)"/><path class="cls-1" d="M1123.91,1465.66a1,1,0,0,0,.18.16,8.23,8.23,0,0,1,3.71,3.54,17.08,17.08,0,0,0,2.67,3.51l0.69,0.65a10,10,0,0,1-4.25-4,10.24,10.24,0,0,0-2.29-2.69,7.19,7.19,0,0,0-4.25-1.67,14.36,14.36,0,0,1,1.7-.34,10.49,10.49,0,0,1,5,.72,9.74,9.74,0,0,1,3.47,2.69c1.09,1.24,2.11,2.56,3.24,3.76a12.91,12.91,0,0,0,5.73,3.76c0.33,0.1.67,0.16,1.08,0.26a11.81,11.81,0,0,1-5.32-1.06,14.15,14.15,0,0,1-6.08-5.37c-0.4-.6-0.79-1.22-1.24-1.78a6.38,6.38,0,0,0-3.83-2.21,1,1,0,0,0-.22,0" transform="translate(-977.23 -1464.82)"/><path class="cls-1" d="M1150.31,1483.42c0.47,0,.91,0,1.33,0a0.85,0.85,0,0,1,.87.89c0,3.19,0,6.38,0,9.57a0.29,0.29,0,0,1,0,.09c-0.48,0-1,0-1.45,0a0.75,0.75,0,0,1-.68-0.64,2.2,2.2,0,0,1-.06-0.49q0-4.54,0-9.07c0-.09,0-0.19,0-0.33" transform="translate(-977.23 -1464.82)"/><path class="cls-1" d="M1135.68,1475.94c-3.91,1.16-7.72,1.79-11.63.67,0.76,0,1.52.11,2.29,0.14a20.11,20.11,0,0,0,7.45-1.22,1.08,1.08,0,0,1,1,0,6.56,6.56,0,0,0,.88.37" transform="translate(-977.23 -1464.82)"/><path class="cls-1" d="M1110.57,1481.35a1.06,1.06,0,1,1-1.07-1.09,1.07,1.07,0,0,1,1.07,1.09" transform="translate(-977.23 -1464.82)"/><path class="cls-1" d="M1104.69,1481.34a1.06,1.06,0,1,1,1.07,1.1,1.06,1.06,0,0,1-1.07-1.1" transform="translate(-977.23 -1464.82)"/><path class="cls-1" d="M1151.36,1482.43a1.09,1.09,0,1,1,1.07-1.11,1.1,1.1,0,0,1-1.07,1.11" transform="translate(-977.23 -1464.82)"/><path class="cls-1" d="M1137.41,1474.26a5.29,5.29,0,0,1,2.38-.06,0.81,0.81,0,0,1,.24.08l1.85,1.2-1-.06a0.19,0.19,0,0,1-.13-0.09,1.3,1.3,0,0,0-1.71-.63,1.86,1.86,0,0,1-1.64-.46" transform="translate(-977.23 -1464.82)"/><path class="cls-1" d="M1255.23,1474.11c0-1.71.59-3.51-1.1-4.55a2.68,2.68,0,0,0-2.4.16c-1.55,1.07-.92,2.78-0.92,4.39h4.41Zm0.07,2.24h-4.5v18.56l-2.12.12v-5.15c0-3.79,0-7.58,0-11.37,0-1,.37-2-1-2.54-0.35-.13-0.44-1-0.7-1.63l1.76-.26c0-1-.06-2,0-3a4,4,0,0,1,3.89-3.94,4.05,4.05,0,0,1,4.63,3.49,6.75,6.75,0,0,1,.12,1.22q0,11.11,0,22.22a7.08,7.08,0,0,1-.1.8h-2v-18.53Z" transform="translate(-977.23 -1464.82)"/><path class="cls-1" d="M1235.82,1467.46c0.53,1.57.07,2.06-1.33,2.23a11.65,11.65,0,0,0,.12,23.11c1.46,0.17,1.46.17,1.29,2.11a12.41,12.41,0,0,1-10.68-5.29,13.29,13.29,0,0,1-1.37-14.65c2.41-4.85,6.61-7.08,12-7.52" transform="translate(-977.23 -1464.82)"/><path class="cls-1" d="M1211,1495v-2.12c0.95,0,1.85,0,2.74,0,3.39-.11,5.18-2.73,3.84-5.88-1.61-3.8-3.4-7.52-5.12-11.27a6,6,0,0,1-.33-5.06c1.07-2.55,3.3-3.53,6.92-3v1.75l-1.9.15c-2.82.27-4,2.08-2.93,4.74,1.37,3.27,3,6.44,4.44,9.66a20,20,0,0,1,1.2,3.08,6.12,6.12,0,0,1-5.7,7.95c-1,.07-2,0-3.17,0" transform="translate(-977.23 -1464.82)"/><path class="cls-1" d="M1205.31,1495l-2.15-.13v-8.67c0-3.21.64-6.6-.19-9.58s-3.11-5.49-4.75-8.22c-0.14-.23-0.23-0.49-0.38-0.8,1.41-.44,2.38-0.23,3.12,1.09,1,1.72,2.12,3.33,3.33,5.18,1.14-1.79,2.28-3.37,3.2-5.07,0.75-1.38,1.71-1.7,3.27-1.17-1.55,2.41-3.12,4.7-4.54,7.1a6.18,6.18,0,0,0-.87,2.9c-0.09,5.08,0,10.16,0,15.24V1495Z" transform="translate(-977.23 -1464.82)"/><path class="cls-1" d="M1239,1467.55h2v25.37c1.29,0,2.37.06,3.45,0,1.42-.1,2,0.42,1.48,2H1239v-27.34Z" transform="translate(-977.23 -1464.82)"/><path d="M1064.44,1476.68a2.6,2.6,0,0,0-.43,1q-1.51,4.31-3,8.62a0.6,0.6,0,0,1-.68.5c-1.35,0-1.35,0-1.8-1.29l-3-8.57-0.15-.46a0.35,0.35,0,0,1,.11-0.05c1.22-.06,1.22-0.06,1.62,1.12q1.27,3.73,2.55,7.45c0,0.14,0,.38.24,0.39s0.22-.25.27-0.4c0.87-2.63,1.76-5.25,2.6-7.89a0.77,0.77,0,0,1,1-.67,4.85,4.85,0,0,0,.65,0v0.22Z" transform="translate(-977.23 -1464.82)"/><path d="M1008.1,1481.53a15.44,15.44,0,1,1-15.4-15.43A15.41,15.41,0,0,1,1008.1,1481.53Zm-2.09,0a13.33,13.33,0,1,0-13.38,13.29A13.3,13.3,0,0,0,1006,1481.56Z" transform="translate(-977.23 -1464.82)"/><path d="M1020,1484c0,0.65,0,1.31,0,2a0.34,0.34,0,0,1-.25.4,9.17,9.17,0,0,1-5,.36,3.9,3.9,0,0,1-2.89-2.63,7.18,7.18,0,0,1-.25-4.07,4.75,4.75,0,0,1,4.9-3.82,13.28,13.28,0,0,1,2.6.23,1,1,0,0,1,.43,1.21c-0.09.11-.2,0-0.29,0a13.44,13.44,0,0,0-2.1-.29,3.82,3.82,0,0,0-4.37,4,6.31,6.31,0,0,0,.12,1.52c0.43,2.16,2.1,3.25,4.42,2.91,1.42-.2,1.42-0.2,1.42-1.62,0-.71,0-1.42,0-2.13,0-.31.08-0.43,0.39-0.39a0.67,0.67,0,0,0,.22,0c0.51-.09.71,0.08,0.66,0.63S1020,1483.46,1020,1484Z" transform="translate(-977.23 -1464.82)"/><path d="M1046.36,1486.8l1.65-4.72c0.6-1.72,1.22-3.44,1.81-5.17a0.6,0.6,0,0,1,.68-0.5c1.35,0,1.35,0,1.8,1.28l3,8.6,0.15,0.46a0.4,0.4,0,0,1-.11.05c-1.22,0-1.22,0-1.62-1.12s-0.43-1.26-1.75-1.26c-1,0-2.07,0-3.1,0a0.4,0.4,0,0,0-.46.32c-0.16.5-.37,1-0.5,1.49a0.64,0.64,0,0,1-.83.58A5.2,5.2,0,0,0,1046.36,1486.8Zm2.48-3.5h3.72c0.28,0,.4,0,0.3-0.36-0.6-1.72-1.19-3.45-1.78-5.18,0-.09,0-0.25-0.19-0.21a0.32,0.32,0,0,0-.16.2C1050.1,1479.58,1049.48,1481.41,1048.84,1483.3Z" transform="translate(-977.23 -1464.82)"/><path d="M1029.77,1480.31c0,1.07,0,2.14,0,3.21a3.17,3.17,0,0,1-2.71,3.31,5.94,5.94,0,0,1-2.64,0,3.13,3.13,0,0,1-2.56-3.21c-0.05-2.27,0-4.54,0-6.81,0-.31.12-0.35,0.39-0.35,0.91,0,.91,0,0.91.85q0,3,0,6a2.24,2.24,0,0,0,1.74,2.38,3,3,0,0,0,3.28-1,2.44,2.44,0,0,0,.34-1.4c0-2.12,0-4.25,0-6.37,0-.69.39-0.49,0.76-0.54s0.57,0.1.56,0.56C1029.75,1478.1,1029.77,1479.2,1029.77,1480.31Z" transform="translate(-977.23 -1464.82)"/><path d="M1035.87,1476.29c0.42,0,.83.07,1.25,0.07a0.46,0.46,0,0,1,.52.59c0,0.66,0,.66-0.69.57a10.68,10.68,0,0,0-2.6-.07,1.61,1.61,0,0,0-1.65,1.43,1.42,1.42,0,0,0,1.15,1.75c0.64,0.18,1.31.27,2,.41,1.54,0.31,2.25,1.05,2.34,2.43a2.93,2.93,0,0,1-2,3.23,8.61,8.61,0,0,1-3.45.18c-0.31,0-.61-0.09-0.92-0.12a0.32,0.32,0,0,1-.32-0.39c0-.86,0-0.86.81-0.72a7.94,7.94,0,0,0,3,.08,1.88,1.88,0,0,0,1.46-2.43,1.4,1.4,0,0,0-1-1,11.45,11.45,0,0,0-2-.42c-2.07-.37-2.73-1.71-2.34-3.61a2.56,2.56,0,0,1,2.42-1.94A7.51,7.51,0,0,1,1035.87,1476.29Z" transform="translate(-977.23 -1464.82)"/><path d="M1043.72,1482.17c0,1.38,0,2.76,0,4.14,0,0.41-.1.57-0.51,0.5a1,1,0,0,0-.33,0c-0.4.07-.47-0.12-0.47-0.49,0-2.7,0-5.41,0-8.11,0-.57-0.16-0.69-0.69-0.66-0.83,0-1.67,0-2.5,0-0.5,0-.46-0.24-0.44-0.56s-0.12-.59.41-0.59q3.84,0,7.68,0c0.52,0,.43.27,0.43,0.57s0.1,0.6-.43.57c-0.92,0-1.85,0-2.78,0-0.34,0-.43.09-0.42,0.42C1043.73,1479.37,1043.72,1480.77,1043.72,1482.17Z" transform="translate(-977.23 -1464.82)"/><path d="M998.5,1477.14a13.43,13.43,0,0,0-1.93-1.45,7.12,7.12,0,0,0-10,2.83,6.43,6.43,0,0,0,.47,6.82,6.81,6.81,0,0,0,10.27,1.18,0.86,0.86,0,0,0,.31-0.71c0-1.31,0-2.62,0-3.92,0-.38.05-0.59,0.49-0.53s1.19-.22,1.52.12a2.39,2.39,0,0,1,.09,1.47c0,1.22,0,2.43,0,3.65a1,1,0,0,1-.3.78,8.94,8.94,0,0,1-15.46-4,8.89,8.89,0,0,1,7.24-10.66,9.13,9.13,0,0,1,6.71,1.37,1.14,1.14,0,0,1,.61,1.15C998.46,1475.85,998.5,1476.45,998.5,1477.14Z" transform="translate(-977.23 -1464.82)"/></svg>