<svg id="how_it_works" data-name="how it works" xmlns="http://www.w3.org/2000/svg" viewBox="0 0 40 40"><defs><style>.cls-1{fill:#fff;}</style></defs><title>instagram-icon</title><path class="cls-1" d="M1406.62,3077.16a7.27,7.27,0,0,1-7.26,7.26h-11.87a7.27,7.27,0,0,1-7.26-7.26v-11.87a7.27,7.27,0,0,1,7.26-7.26h11.87a7.27,7.27,0,0,1,7.26,7.26v11.87Zm-13.2-25.94a20,20,0,1,0,20,20,20,20,0,0,0-20-20" transform="translate(-1373.42 -3051.22)"/><path class="cls-1" d="M1400.59,3065.91a1.5,1.5,0,1,1,1.5-1.5,1.5,1.5,0,0,1-1.5,1.5m-7.17,13.11a7.61,7.61,0,1,1,7.61-7.61,7.62,7.62,0,0,1-7.61,7.61m5.94-18h-11.87a4.26,4.26,0,0,0-4.26,4.26v11.87a4.26,4.26,0,0,0,4.26,4.26h11.87a4.26,4.26,0,0,0,4.26-4.26v-11.87a4.26,4.26,0,0,0-4.26-4.26" transform="translate(-1373.42 -3051.22)"/><path class="cls-1" d="M1393.42,3066.81a4.6,4.6,0,1,0,4.6,4.6,4.61,4.61,0,0,0-4.6-4.6" transform="translate(-1373.42 -3051.22)"/></svg>