<svg xmlns="http://www.w3.org/2000/svg" viewBox="0 0 12.91 10.76"><defs><style>.cls-1{fill:#fff;}</style></defs><title>Zasób 21</title><g id="Warstwa_2" data-name="Warstwa 2"><g id="Footer_header" data-name="Footer header"><path class="cls-1" d="M11.61,8.58,9.78,8a1.65,1.65,0,0,1-1.09-.78c0-.08-.18-.13-.27-.2s-.18-.09-.19-.14,0-.21.07-.24a.55.55,0,0,0,.31-.47c0-.17,0-.35.08-.53a.86.86,0,0,1,.21-.27c.11-.12.28-.22.32-.35a9.37,9.37,0,0,0,.22-1c0-.07,0-.19,0-.19-.25,0-.14-.19-.14-.29,0-.49.11-1,.1-1.48A1.77,1.77,0,0,0,8.21.47,4.22,4.22,0,0,0,5.92,0,2.2,2.2,0,0,0,4.45.57a.39.39,0,0,1-.26.06.49.49,0,0,0-.53.29,2.66,2.66,0,0,0-.29,1.89c.08.32.37.68,0,1,0,0,0,0,0,0,.07.41.13.81.22,1.21,0,.1.12.27.21.28.35.05.32.27.37.45a2.62,2.62,0,0,0,.13.47,2.6,2.6,0,0,0,.28.36.43.43,0,0,1,.11.23s-.13.08-.2.11a1.23,1.23,0,0,0-.32.17c-.11.12-.16.29-.27.41a1,1,0,0,1-.39.29l-1,.32-.06,0c-.13,0-.46.13-.89.28s-2,2.29-1.39,2.29h12.7c.39,0-.67-2-1.21-2.18"/></g></g></svg>