<svg xmlns="http://www.w3.org/2000/svg" viewBox="0 0 15 15"><defs><style>.cls-1{isolation:isolate;}.cls-2{fill:#fff;fill-rule:evenodd;}</style></defs><title>login</title><g id="zzysh-champagne" class="cls-1"><g id="login_ico" data-name="login ico"><g id="Shape_3" data-name="Shape 3"><path class="cls-2" d="M1384.12,17c-0.67-.27-1.33-0.54-2-0.79a1.9,1.9,0,0,1-1.2-1.09,1,1,0,0,0-.3-0.28,0.57,0.57,0,0,1-.21-0.19,0.41,0.41,0,0,1,.08-0.34,0.8,0.8,0,0,0,.34-0.66c0-.24,0-0.5.09-0.73a1.22,1.22,0,0,1,.23-0.38,1.79,1.79,0,0,0,.35-0.49c0.12-.48.17-1,0.24-1.46a0.5,0.5,0,0,0,0-.27c-0.27-.06-0.16-0.27-0.15-0.41,0-.69.12-1.37,0.11-2.06a2.48,2.48,0,0,0-1.28-2.15,3.78,3.78,0,0,0-2.52-.62,2.13,2.13,0,0,0-1.61.75,0.36,0.36,0,0,1-.29.09,0.53,0.53,0,0,0-.58.4,4.61,4.61,0,0,0-.32,2.64,1.45,1.45,0,0,1,0,1.41,0.12,0.12,0,0,0,0,.06c0.08,0.56.14,1.13,0.24,1.69a0.55,0.55,0,0,0,.23.39c0.39,0.07.34,0.37,0.4,0.63a4.6,4.6,0,0,0,.14.66,3.63,3.63,0,0,0,.31.5,0.68,0.68,0,0,1,.12.32,0.49,0.49,0,0,1-.22.16,1.31,1.31,0,0,0-.34.24c-0.12.17-.17,0.4-0.3,0.57a1.13,1.13,0,0,1-.43.4l-1.13.44-0.07,0c-0.14,0-.51.18-1,0.39A6.94,6.94,0,0,0,1371,20h15S1384.72,17.21,1384.12,17Z" transform="translate(-1371 -5)"/></g></g></g></svg>