<svg xmlns="http://www.w3.org/2000/svg" viewBox="0 0 20 13"><defs><style>.cls-1{isolation:isolate;}.cls-2{fill:#fff;}</style></defs><title>mail</title><g id="zzysh-champagne" class="cls-1"><g id="mail_ico" data-name="mail ico"><g id="Shape_1" data-name="Shape 1"><path class="cls-2" d="M1063.37,8.07l3.1,2.85,3.39,3.11a0.16,0.16,0,0,0,.27,0l2.61-2.4,2.94-2.69,2.78-2.55,0.41-.39h-17.69l0.11,0.16Zm15.54,10.39-0.18-.16-1.16-1.07-2.18-2-0.92-.84L1073,13.05a0.4,0.4,0,0,0-.61,0l-1.63,1.5-0.37.34-0.41.37,0,0-0.17-.16-0.7-.64L1067.55,13a0.44,0.44,0,0,0-.29-0.14,0.4,0.4,0,0,0-.27.12l-1.71,1.57-0.71.65-2.81,2.58-0.53.5-0.27.25a0.26,0.26,0,0,0-.06.28,0.24,0.24,0,0,0,.22.16h17.75a0.24,0.24,0,0,0,.23-0.16,0.26,0.26,0,0,0-.07-0.28Zm0.95-12-0.1,0a0.23,0.23,0,0,0-.16.06l-6.22,5.71a0.26,0.26,0,0,0,0,.38l3.15,2.89,3.07,2.81a0.23,0.23,0,0,0,.16.06l0.1,0a0.25,0.25,0,0,0,.14-0.23V6.67A0.25,0.25,0,0,0,1079.86,6.44Zm-13.16,5.94a0.26,0.26,0,0,0-.08-0.19l-4.91-4.51-1.3-1.19a0.23,0.23,0,0,0-.16-0.06l-0.1,0a0.25,0.25,0,0,0-.14.23v11.4a0.25,0.25,0,0,0,.14.23l0.1,0a0.23,0.23,0,0,0,.16-0.06l6.22-5.7A0.26,0.26,0,0,0,1066.7,12.37Z" transform="translate(-1060 -6)"/></g></g></g></svg>