<svg xmlns="http://www.w3.org/2000/svg" viewBox="0 0 149.38 149.38"><defs><style>.cls-1{fill:#e2969f;}.cls-2{isolation:isolate;}.cls-3,.cls-4{fill:#fff;}.cls-3,.cls-5{stroke:#fff;stroke-miterlimit:10;stroke-width:0.5px;}.cls-5{fill:none;}</style></defs><title>Zasób 27</title><g id="Warstwa_2" data-name="Warstwa 2"><g id="how_it_works" data-name="how it works"><path class="cls-1" d="M0,74.69a74.69,74.69,0,0,0,74.69,74.69h74.69V74.69A74.69,74.69,0,1,0,0,74.69Z"/><g class="cls-2"><path class="cls-3" d="M39.15,54c6.13-5.67,8.21-10.51,8.21-16.83,0-4-.88-6.55-2.35-8a4.8,4.8,0,0,0-3.46-1.34,7.19,7.19,0,0,0-7.15,7.33c0,3.23,1.25,4.93,2.67,4.93,1.15,0,1.89-2.58,3.92-2.58a2.15,2.15,0,0,1,2.21,2.21c0,1.71-1.43,3-3.46,3-3.41,0-6.32-3-6.32-7.52a8.36,8.36,0,0,1,8.67-8.21c5.58,0,10.24,3.78,10.24,10.24,0,7.47-6.13,11.57-12.59,17.43A49.67,49.67,0,0,0,35,59.06l.09.14A25.82,25.82,0,0,1,47.4,56.06a14.37,14.37,0,0,1,4.61.51V51.68c0-.18,0-.28.42-.28s.42.09.42.28v9.18c0,.37-.14.51-.55.51-1.15,0-5.53-1.2-11.48-1.2a18.91,18.91,0,0,0-7.65,1.24c-.28.14-.88,0-.65-.37A36.59,36.59,0,0,1,39.15,54Z"/><path class="cls-3" d="M69.86,26.92c6.5,0,12,6.09,12,17.43s-5.53,17.43-12,17.43-12-6.09-12-17.43S63.35,26.92,69.86,26.92Zm0,34a5.48,5.48,0,0,0,3.87-1.57c1.8-1.8,2.72-4.84,2.72-15s-.92-13.23-2.72-15a5.57,5.57,0,0,0-7.75,0c-1.8,1.8-2.72,4.84-2.72,15s.92,13.23,2.72,15A5.48,5.48,0,0,0,69.86,61Z"/><path class="cls-3" d="M93.32,26.18c4,0,7.7,4.15,7.7,9.41s-3.55,9.22-7.7,9.22-7.65-4-7.65-9.22S89.36,26.18,93.32,26.18Zm-2,17a2.63,2.63,0,0,0,2,.88,2.82,2.82,0,0,0,2.12-.88c.92-.92,1.2-3,1.2-7.61,0-5-.28-6.78-1.2-7.7A2.93,2.93,0,0,0,93.32,27a2.73,2.73,0,0,0-2,.88c-.92.92-1.25,2.67-1.25,7.7C90,40.2,90.37,42.23,91.29,43.15Zm0,18.54c-.14.18-.92-.28-.78-.46l21.58-35c.14-.18.92.28.78.46ZM110,43.15c4,0,7.7,4.15,7.7,9.41s-3.55,9.22-7.7,9.22-7.65-4-7.65-9.22S106,43.15,110,43.15Zm-2,17a2.63,2.63,0,0,0,2,.88,2.82,2.82,0,0,0,2.12-.88c.92-.92,1.2-3,1.2-7.61,0-5-.28-6.78-1.2-7.7a2.93,2.93,0,0,0-2.12-.88,2.73,2.73,0,0,0-2,.88c-.92.92-1.25,2.67-1.25,7.7C106.7,57.17,107,59.2,107.94,60.12Z"/></g><g class="cls-2"><g class="cls-2"><path class="cls-4" d="M58.9,67.44c4.76,0,9.68,4.48,9.68,10.46S64.21,88.36,58.9,88.36c-5.48,0-9.68-4.48-9.68-10.46S54.14,67.44,58.9,67.44Zm-3.71,19a4.67,4.67,0,0,0,3.71,1.44,5.1,5.1,0,0,0,3.87-1.41c1.41-1.41,1.91-3.76,1.91-8.55s-.5-7.14-1.91-8.55a5.29,5.29,0,0,0-3.87-1.41,5,5,0,0,0-3.71,1.41c-1.41,1.41-2.07,3.76-2.07,8.55S53.78,85,55.19,86.42Z"/><path class="cls-4" d="M69.63,87.53h1.94c.42,0,.47-.06.47-.47V68.66c0-.41-.06-.47-.47-.47H69.71c-.11,0-.17,0-.17-.25s.06-.25.17-.25H85c.39,0,.47.11.47.5V73.7c0,.11-.06.17-.28.17s-.19-.08-.22-.22c-.77-4-2.27-5.45-4.92-5.45H75.91c-.42,0-.47.06-.47.47V77.1h1.74c2.85,0,3.57-.77,4-3.26,0-.14.08-.19.22-.19s.28.06.28.17v7.08c0,.11-.06.17-.28.17s-.19-.08-.22-.22c-.39-2.49-1.11-3.24-4-3.24H75.44v9.46c0,.42.06.47.47.47h2.54c.11,0,.17,0,.17.25s-.06.25-.17.25H69.63c-.11,0-.17,0-.17-.25S69.52,87.53,69.63,87.53Z"/><path class="cls-4" d="M85.89,87.53h1.94c.42,0,.47-.06.47-.47V68.66c0-.41-.06-.47-.47-.47H86c-.11,0-.17,0-.17-.25s.06-.25.17-.25h15.3c.39,0,.47.11.47.5V73.7c0,.11-.06.17-.28.17s-.19-.08-.22-.22c-.77-4-2.27-5.45-4.92-5.45H92.17c-.42,0-.47.06-.47.47V77.1h1.74c2.85,0,3.57-.77,4-3.26,0-.14.08-.19.22-.19s.28.06.28.17v7.08c0,.11-.06.17-.28.17s-.19-.08-.22-.22c-.39-2.49-1.11-3.24-4-3.24H91.7v9.46c0,.42.06.47.47.47h2.54c.11,0,.17,0,.17.25s-.06.25-.17.25H85.89c-.11,0-.17,0-.17-.25S85.78,87.53,85.89,87.53Z"/></g></g><line class="cls-5" x1="31.66" y1="93.69" x2="117.66" y2="93.69"/><path class="cls-4" d="M36.31,106.1H33.76v-1.85h2.55v-2.53h1.9v2.53h2.56v1.85H38.21v2.53h-1.9Z"/><path class="cls-4" d="M46,100.32h4.44a3.89,3.89,0,0,1,2.84,1,3,3,0,0,1,.82,2.2v0a3,3,0,0,1-2.13,3l2.44,3.53H52l-2.16-3.18H48v3.18H46Zm4.31,4.76c1.07,0,1.72-.58,1.72-1.44v0c0-.94-.67-1.44-1.76-1.44H48v2.9Z"/><path class="cls-4" d="M55.59,100.32h2.07v9.76H55.59Z"/><path class="cls-4" d="M58.9,108.66l1.22-1.46a4.49,4.49,0,0,0,3,1.21c.91,0,1.48-.39,1.48-1v0c0-.58-.35-.87-2-1.29-2-.5-3.25-1.06-3.25-3v0c0-1.74,1.42-2.91,3.41-2.91a5.62,5.62,0,0,1,3.61,1.23L65.22,103a4.48,4.48,0,0,0-2.56-1c-.86,0-1.31.42-1.31.91v0c0,.67.43.9,2.15,1.34,2,.51,3.11,1.23,3.11,2.91v0c0,1.92-1.48,3-3.57,3A6.15,6.15,0,0,1,58.9,108.66Z"/><path class="cls-4" d="M67.95,100.32H70v4.4l4.08-4.4h2.53l-4,4.16,4.18,5.61H74.3l-3.1-4.2L70,107.13v3H67.95Z"/><path class="cls-4" d="M76.39,104.79h4.27v2H76.39Z"/><path class="cls-4" d="M82,100.32h7.39v1.88H84v2.19h4.72v1.88H84v3.82H82Z"/><path class="cls-4" d="M90.58,100.32H95a3.89,3.89,0,0,1,2.84,1,3,3,0,0,1,.82,2.2v0a3,3,0,0,1-2.13,3L99,110.08H96.57l-2.16-3.18H92.63v3.18H90.58Zm4.31,4.76c1.07,0,1.72-.58,1.72-1.44v0c0-.94-.67-1.44-1.76-1.44H92.63v2.9Z"/><path class="cls-4" d="M100.11,100.32h7.34v1.84h-5.3v2.09h4.67v1.84h-4.67v2.16h5.36v1.84h-7.4Z"/><path class="cls-4" d="M108.89,100.32h7.34v1.84h-5.3v2.09h4.67v1.84h-4.67v2.16h5.36v1.84h-7.4Z"/><path class="cls-4" d="M57.84,116.23h-3v-1.9h8.06v1.9h-3v7.86H57.84Z"/><path class="cls-4" d="M64,114.32h4.44a3.89,3.89,0,0,1,2.84,1,3,3,0,0,1,.82,2.2v0a3,3,0,0,1-2.13,3l2.44,3.53H70l-2.16-3.18H66.06v3.18H64Zm4.31,4.76c1.07,0,1.72-.58,1.72-1.44v0c0-.94-.67-1.44-1.76-1.44H66.06v2.9Z"/><path class="cls-4" d="M73.63,114.32h2.07v9.76H73.63Z"/><path class="cls-4" d="M81,114.25h1.9l4.2,9.83H84.92L84,121.86H79.79l-.91,2.23H76.77ZM83.27,120l-1.37-3.31L80.52,120Z"/><path class="cls-4" d="M88.08,114.32h2.05v7.89h4.92v1.88h-7Z"/></g></g></svg>