<svg xmlns="http://www.w3.org/2000/svg" viewBox="0 0 11 15.03"><defs><style>.cls-1{isolation:isolate;}.cls-2{fill:#fff;}</style></defs><title>telephone</title><g id="zzysh-champagne" class="cls-1"><g id="phone_ico" data-name="phone ico"><g id="Shape_2" data-name="Shape 2"><path class="cls-2" d="M1219.2,16a1.88,1.88,0,0,1-1.28-.59,5.92,5.92,0,0,1-1.89-3.77,1.78,1.78,0,0,1,.29-1.28c0.09-.13.21-0.25,0.32-0.38l-2-3.59-0.64.42a2.21,2.21,0,0,0-1,2,9.58,9.58,0,0,0,.53,2.85,18.5,18.5,0,0,0,3.23,5.88,9.64,9.64,0,0,0,2.34,2.16,2.36,2.36,0,0,0,.94.37,3,3,0,0,0,1.92-.58l-2-3.58A4.78,4.78,0,0,1,1219.2,16Zm4.72,2L1222,14.61a0.45,0.45,0,0,0-.65-0.18l-1,.58a0.47,0.47,0,0,0-.18.66l1.91,3.41a0.47,0.47,0,0,0,.45.23,1,1,0,0,0,.19-0.07l1-.57A0.48,0.48,0,0,0,1223.92,18Zm-7-8.27a0.44,0.44,0,0,0,.63.17l1-.59a0.49,0.49,0,0,0,.23-0.45,0.87,0.87,0,0,0-.06-0.2l-1.91-3.41a0.45,0.45,0,0,0-.63-0.17l-1,.59a0.47,0.47,0,0,0-.16.65Z" transform="translate(-1213 -5)"/></g></g></g></svg>