<svg xmlns="http://www.w3.org/2000/svg" viewBox="0 0 120 120"><defs><style>.cls-1{fill:#fff;}</style></defs><title>Zasób 27</title><g id="Warstwa_2" data-name="Warstwa 2"><g id="how_it_works" data-name="how it works"><path class="cls-1" d="M60,0a60,60,0,1,0,60,60A60,60,0,0,0,60,0ZM71.57,98.9a2.76,2.76,0,0,1-2.82,2.7H52.49a2.76,2.76,0,0,1-2.81-2.7V48.36a7.82,7.82,0,0,1,3.93-6.73l.54-.32a5,5,0,0,0,2.52-4.23l.23-13.77a.44.44,0,0,0-.18-.36l-.16-.12a.43.43,0,0,1-.18-.35l0-2.2a.44.44,0,0,1,.25-.39l0,0a.44.44,0,0,0,.25-.37,1.21,1.21,0,0,1,1.22-1.11h4.92a1.21,1.21,0,0,1,1.21,1.11.44.44,0,0,0,.25.37l0,0a.44.44,0,0,1,.25.39l0,2.2a.43.43,0,0,1-.18.35l-.16.12a.43.43,0,0,0-.18.36l.23,13.77a5,5,0,0,0,2.52,4.23l.54.32a7.83,7.83,0,0,1,3.93,6.73Z"/></g></g></svg>