<svg xmlns="http://www.w3.org/2000/svg" viewBox="0 0 16 15.63"><defs><style>.cls-1{isolation:isolate;}.cls-2{fill:#fff;}</style></defs><title>world</title><g id="zzysh-champagne" class="cls-1"><g id="languages_ico" data-name="languages ico"><g id="Shape_6" data-name="Shape 6"><path class="cls-2" d="M427.21,6c0.34,0,.33.11,0.26,0.29s-0.37.87-.07,0.88a1.89,1.89,0,0,0,1-.43,2.18,2.18,0,0,1,1.12-.36,1.85,1.85,0,0,0,1.3-.56,15.17,15.17,0,0,0,2.14.15A6.55,6.55,0,0,0,430,5.3a8.12,8.12,0,0,0-3.35.73C426.92,6,427.19,6,427.21,6Zm6.49,0.15a1.23,1.23,0,0,1-.37.25,1,1,0,0,0-.9.48,0.78,0.78,0,0,1,0,.65c-0.19.25-.22,0.35-0.82,0.29s-1.06.05-1.06,0.68,0,0.85.19,1,0.56,0.16.38,0.29A5.65,5.65,0,0,0,430,10.86a2.59,2.59,0,0,0-.44,1.44,1.48,1.48,0,0,0,.27,1.25,2.56,2.56,0,0,0,1.07.84,1.07,1.07,0,0,0,.84.08,1.4,1.4,0,0,1,.88-0.32,1.15,1.15,0,0,1,.52.73,2.41,2.41,0,0,0,.33.88l0.1,0.21a0.69,0.69,0,0,1,0,.53,1.5,1.5,0,0,0-.18,1,7.35,7.35,0,0,1,.41,1.2c0,0.14.1,0.6,0.21,1.1A7.72,7.72,0,0,0,433.7,6.18Zm1.62,4.31a2,2,0,0,0-.93,0c-0.42.05-.48-0.41-0.57-0.75a0.32,0.32,0,0,0-.26-0.24,4.78,4.78,0,0,0-.67,0c-0.49,0-.82.15-1,0.09s0-.13.12-0.2a0.45,0.45,0,0,0,.3-0.21,0.87,0.87,0,0,1,.42-0.27,0.9,0.9,0,0,1,1,.35,0.64,0.64,0,0,0,.59.41c0.36-.07.21,0.09,0.49,0.24s1,0,1.2.07a0.47,0.47,0,0,1,.07.64C435.93,10.81,435.51,10.58,435.32,10.49Zm-9.13,8.25A1.26,1.26,0,0,1,426.8,18c0.4-.09.23-0.48,0.19-0.76a1.08,1.08,0,0,1,.3-0.83,0.7,0.7,0,0,0-.1-0.85,5.34,5.34,0,0,0-1.34-.57,0.78,0.78,0,0,1-.49-0.55,0.84,0.84,0,0,0-.62-0.47,1.35,1.35,0,0,1-.53-0.44,2,2,0,0,0-.8-0.48,1.6,1.6,0,0,1-1-.25,1.17,1.17,0,0,1-.18-0.5,7.49,7.49,0,0,1,.2-1c0.25-.19.62-0.4,0.79-0.52a1.68,1.68,0,0,0,.46-0.81,1.76,1.76,0,0,1,1.15-.77,0.43,0.43,0,0,0,.31-0.52c0-.29.27-0.17,0.41,0s0.41,0,.6-0.12a1,1,0,0,0,0-1c-0.16-.32,0-0.48.31-0.63s0.18-.37-0.18-0.51L426,6.35a7.77,7.77,0,0,0-4,6.76c0,3,1.88,6,5.73,7.48C427.48,20.13,425.91,19.1,426.19,18.74Zm4.24,0.8c-0.67-.06-2,0.86-2.69,1.05a8.14,8.14,0,0,0,2.27.33,9.91,9.91,0,0,0,2.9-.44,8.35,8.35,0,0,1-1.29-.35A1.75,1.75,0,0,0,430.42,19.54Z" transform="translate(-422 -5.3)"/></g></g></g></svg>