<svg xmlns="http://www.w3.org/2000/svg" xmlns:xlink="http://www.w3.org/1999/xlink" viewBox="0 0 100.97 38.32"><defs><style>.cls-1{fill:none;}.cls-2{clip-path:url(#clip-path);}.cls-3{fill:#1d1d1b;}.cls-4{clip-path:url(#clip-path-2);}</style><clipPath id="clip-path" transform="translate(0 -0.05)"><rect class="cls-1" y="0.06" width="100.97" height="38.32"/></clipPath><clipPath id="clip-path-2" transform="translate(0 -0.05)"><rect class="cls-1" width="100.97" height="39"/></clipPath></defs><title>Zasób 14</title><g id="Warstwa_2" data-name="Warstwa 2"><g id="Footer_Header_new" data-name="Footer/Header new"><g class="cls-2"><path class="cls-3" d="M98.4.05A2.57,2.57,0,1,0,101,2.62,2.57,2.57,0,0,0,98.4.05m0,4.7a2.13,2.13,0,1,1,2.12-2.13A2.12,2.12,0,0,1,98.4,4.75" transform="translate(0 -0.05)"/></g><g class="cls-4"><path class="cls-3" d="M99,2.89a.81.81,0,0,0,.6-.81.82.82,0,0,0-.91-.85H97.43V4h.42V2.93h.72l.57,1,0,0h.49Zm-1.17-.34V1.61h.83a.45.45,0,0,1,.52.47.46.46,0,0,1-.51.47Z" transform="translate(0 -0.05)"/><path class="cls-3" d="M88.61,8.61A8,8,0,0,0,83.3,10.5V.11H80.43V28.28H83.3V16.36a5.22,5.22,0,0,1,5.31-4.88A5.36,5.36,0,0,1,94,16.3V28.22H96.9V16.3a8.18,8.18,0,0,0-8.29-7.69" transform="translate(0 -0.05)"/><path class="cls-3" d="M54.31,21.08A5.21,5.21,0,0,1,49,26a5.36,5.36,0,0,1-5.43-4.82V9.22H40.7V21.14a8.25,8.25,0,0,0,1.52,4.27,7.77,7.77,0,0,0,5.21,3.29v9.67H50.3V28.74a7.75,7.75,0,0,0,5.17-3,8.07,8.07,0,0,0,1.7-4.61V9.16H54.31Z" transform="translate(0 -0.05)"/><path class="cls-3" d="M72.91,17.23H64.85c-1.65,0-2.46-.86-2.46-2.62a2.38,2.38,0,0,1,2.39-2.69H76.71V9H64.79c-2.62,0-5.26,1.72-5.26,5.56,0,3.33,2.09,5.49,5.32,5.49h8.06c1.65,0,2.45.86,2.45,2.62A2.37,2.37,0,0,1,73,25.41H61.05v2.87H73c2.62,0,5.26-1.72,5.26-5.56,0-3.33-2.09-5.49-5.32-5.49" transform="translate(0 -0.05)"/><path class="cls-3" d="M33.09,9H21.17v2.87H33.09a2.38,2.38,0,0,1,2.39,2.69c0,1.76-.8,2.62-2.45,2.62H25c-3.23,0-5.32,2.15-5.32,5.49,0,3.84,2.64,5.56,5.26,5.56H36.83V25.41H24.91a2.37,2.37,0,0,1-2.39-2.69c0-1.76.8-2.62,2.45-2.62H33c3.23,0,5.32-2.16,5.32-5.49,0-3.84-2.64-5.56-5.26-5.56" transform="translate(0 -0.05)"/><path class="cls-3" d="M13.44,9H1.52v2.87H13.44a2.38,2.38,0,0,1,2.39,2.69c0,1.76-.8,2.62-2.45,2.62H5.32C2.09,17.23,0,19.38,0,22.71c0,3.84,2.64,5.56,5.26,5.56H17.18V25.41H5.26a2.38,2.38,0,0,1-2.39-2.69c0-1.76.8-2.62,2.45-2.62h8.06c3.23,0,5.32-2.16,5.32-5.49C18.7,10.76,16.06,9,13.44,9" transform="translate(0 -0.05)"/></g></g></g></svg>