<svg xmlns="http://www.w3.org/2000/svg" viewBox="0 0 131.73 50"><defs><style>.cls-1{fill:#fff;}</style></defs><title>Zasób 27</title><g id="Warstwa_2" data-name="Warstwa 2"><g id="how_it_works" data-name="how it works"><path class="cls-1" d="M128.38,6.13a2.79,2.79,0,1,1,2.77-2.78,2.77,2.77,0,0,1-2.77,2.78Zm0-6.13a3.35,3.35,0,1,0,3.35,3.35A3.35,3.35,0,0,0,128.38,0Z"/><path class="cls-1" d="M127.66,3.26V2h1.09a.59.59,0,0,1,.68.62.61.61,0,0,1-.66.62Zm1.52.44A1.06,1.06,0,0,0,130,2.64a1.07,1.07,0,0,0-1.19-1.11h-1.65V5.18h.55V3.76h.94l.75,1.37,0,.06H130l-.84-1.48Z"/><path class="cls-1" d="M115.61,11.16a10.4,10.4,0,0,0-6.93,2.47V.07h-3.74V36.82h3.74V21.27a6.8,6.8,0,0,1,6.93-6.37,7,7,0,0,1,7.08,6.29V36.74h3.74V21.19a10.67,10.67,0,0,0-10.82-10Z"/><path class="cls-1" d="M70.86,27.44a6.8,6.8,0,0,1-6.92,6.37,7,7,0,0,1-7.08-6.29V12H53.11V27.52a10.76,10.76,0,0,0,2,5.57,10.13,10.13,0,0,0,6.8,4.29V50h3.74V37.42a10.12,10.12,0,0,0,6.75-4,10.53,10.53,0,0,0,2.21-6V11.88H70.86V27.44Z"/><path class="cls-1" d="M95.13,22.4H84.62c-2.16,0-3.2-1.12-3.2-3.42,0-1.06.3-3.52,3.12-3.52h15.55V11.72H84.53c-3.41,0-6.86,2.24-6.86,7.26,0,4.35,2.72,7.16,6.94,7.16H95.13c2.15,0,3.2,1.12,3.2,3.42,0,1.06-.3,3.52-3.12,3.52H79.66v3.74H95.21c3.41,0,6.86-2.24,6.86-7.26,0-4.35-2.72-7.16-6.94-7.16Z"/><path class="cls-1" d="M43.17,11.72H27.62v3.74H43.17c2.82,0,3.12,2.46,3.12,3.52,0,2.3-1,3.42-3.2,3.42H32.58c-4.22,0-6.94,2.81-6.94,7.16,0,5,3.45,7.26,6.86,7.26H48V33.08H32.5c-2.82,0-3.12-2.46-3.12-3.52,0-2.3,1-3.42,3.2-3.42H43.1C47.31,26.14,50,23.33,50,19c0-5-3.45-7.26-6.86-7.26Z"/><path class="cls-1" d="M17.53,11.72H2v3.74H17.53c2.82,0,3.12,2.46,3.12,3.52,0,2.3-1,3.42-3.2,3.42H6.94C2.72,22.4,0,25.21,0,29.56c0,5,3.45,7.26,6.86,7.26H22.41V33.08H6.86c-2.82,0-3.12-2.46-3.12-3.52,0-2.3,1-3.42,3.2-3.42H17.46c4.22,0,6.94-2.81,6.94-7.16,0-5-3.45-7.26-6.86-7.26Z"/></g></g></svg>